<svg width="121" height="121" viewBox="0 0 121 121" fill="none" xmlns="http://www.w3.org/2000/svg">
<path d="M77.6665 53.3333V56.6666H67.6665V43.3333C73.1815 43.3333 77.6665 47.8183 77.6665 53.3333Z" fill="white" fill-opacity="0.5"/>
<path d="M67.6668 42.8333C67.3907 42.8333 67.1668 43.0571 67.1668 43.3333V56.6666C67.1668 56.9427 67.3907 57.1666 67.6668 57.1666H77.6668C77.943 57.1666 78.1668 56.9427 78.1668 56.6666V53.3333C78.1668 47.5421 73.458 42.8333 67.6668 42.8333ZM78.1668 59.9999C78.1668 59.7238 77.943 59.4999 77.6668 59.4999H54.3335C54.0574 59.4999 53.8335 59.7238 53.8335 59.9999V66.6666C53.8335 72.4577 58.5424 77.1666 64.3335 77.1666H67.6668C73.458 77.1666 78.1668 72.4577 78.1668 66.6666V59.9999ZM53.8335 56.6666C53.8335 56.9427 54.0574 57.1666 54.3335 57.1666H64.3335C64.6096 57.1666 64.8335 56.9427 64.8335 56.6666V43.3333C64.8335 43.0571 64.6096 42.8333 64.3335 42.8333C58.5424 42.8333 53.8335 47.5421 53.8335 53.3333V56.6666Z" stroke="white" stroke-opacity="0.5" stroke-linecap="round" stroke-linejoin="round"/>
<path d="M79.7975 27.9638C74.865 25.9775 69.5896 24.9823 64.2724 25.0348C58.9553 25.0874 53.7006 26.1867 48.8083 28.27C43.916 30.3533 39.4819 33.3798 35.7593 37.1768C32.0367 40.9737 29.0983 45.4667 27.1121 50.3992C23.1007 60.3608 23.2108 71.508 27.4183 81.3884C31.6258 91.2689 39.5859 99.0732 49.5475 103.085M49.5475 86.9257V105.858H31.6411" stroke="white" stroke-opacity="0.5" stroke-width="5" stroke-linecap="round" stroke-linejoin="round"/>
<path d="M92.6157 36.099V36.1486" stroke="white" stroke-opacity="0.5" stroke-width="5" stroke-linecap="round" stroke-linejoin="round"/>
<path d="M65.5415 100.533V100.582" stroke="white" stroke-opacity="0.5" stroke-width="5" stroke-linecap="round" stroke-linejoin="round"/>
<path d="M84.9009 92.6157V92.6653" stroke="white" stroke-opacity="0.5" stroke-width="5" stroke-linecap="round" stroke-linejoin="round"/>
<path d="M97.6577 76.1272V76.1768" stroke="white" stroke-opacity="0.5" stroke-width="5" stroke-linecap="round" stroke-linejoin="round"/>
<path d="M100.531 55.4584V55.5079" stroke="white" stroke-opacity="0.5" stroke-width="5" stroke-linecap="round" stroke-linejoin="round"/>
</svg>
