<svg width="19" height="11" viewBox="0 0 19 11" fill="none" xmlns="http://www.w3.org/2000/svg">
<path d="M9.49598 3.6964L16.6041 10.701C16.7994 10.8939 17.0605 11 17.3388 11C17.6173 11 17.8782 10.8939 18.0738 10.701L18.6963 10.0872C18.8922 9.89467 19 9.63725 19 9.36294C19 9.08862 18.8922 8.83151 18.6963 8.63879L10.2334 0.298676C10.0373 0.105194 9.77511 -0.000756952 9.49645 4.19172e-06C9.21655 -0.000756945 8.95471 0.105042 8.75838 0.298676L0.303692 8.63103C0.107821 8.82375 1.08288e-07 9.08086 1.11561e-07 9.35533C1.14832e-07 9.62964 0.107821 9.88676 0.303692 10.0796L0.926212 10.6933C1.33139 11.0926 1.99098 11.0926 2.39601 10.6933L9.49598 3.6964Z" fill="#2A2A2A"/>
</svg>
