<svg width="200" height="200" viewBox="0 0 200 200" fill="none" xmlns="http://www.w3.org/2000/svg">
<path d="M167.241 200C176.764 200 184.483 192.281 184.483 182.759C184.483 173.237 176.764 165.518 167.241 165.518C157.719 165.518 150 173.237 150 182.759C150 192.281 157.719 200 167.241 200Z" fill="white"/>
<path d="M94.8273 34.4828C104.349 34.4828 112.069 26.7635 112.069 17.2414C112.069 7.71923 104.349 0 94.8273 0C85.3052 0 77.5859 7.71923 77.5859 17.2414C77.5859 26.7635 85.3052 34.4828 94.8273 34.4828Z" fill="white"/>
<path d="M101.726 155.172C99.8212 155.172 98.2773 153.628 98.2773 151.724V137.931C98.2773 136.026 99.8212 134.482 101.726 134.482C103.63 134.482 105.174 136.026 105.174 137.931V151.724C105.174 153.628 103.63 155.172 101.726 155.172Z" fill="white"/>
<path d="M115.519 155.172C113.614 155.172 112.07 153.628 112.07 151.724V137.931C112.07 136.026 113.614 134.482 115.519 134.482C117.423 134.482 118.967 136.026 118.967 137.931V151.724C118.967 153.628 117.423 155.172 115.519 155.172Z" fill="white"/>
<path d="M129.312 151.724C127.407 151.724 125.863 150.18 125.863 148.276V137.931C125.863 136.026 127.407 134.482 129.312 134.482C131.216 134.482 132.76 136.026 132.76 137.931V148.276C132.76 150.18 131.216 151.724 129.312 151.724Z" fill="white"/>
<path d="M60.3467 106.897C58.4423 106.897 56.8984 105.353 56.8984 103.448V96.5518C56.8984 94.6474 58.4423 93.1035 60.3467 93.1035C62.2511 93.1035 63.795 94.6474 63.795 96.5518V103.448C63.795 105.353 62.2511 106.897 60.3467 106.897Z" fill="white"/>
<path d="M60.3467 158.621C58.4423 158.621 56.8984 157.077 56.8984 155.172V117.241C56.8984 115.337 58.4423 113.793 60.3467 113.793C62.2511 113.793 63.795 115.337 63.795 117.241V155.172C63.795 157.077 62.2511 158.621 60.3467 158.621Z" fill="white"/>
<path d="M74.1397 155.172C72.2353 155.172 70.6914 153.628 70.6914 151.724V124.138C70.6914 122.233 72.2353 120.689 74.1397 120.689C76.0441 120.689 77.588 122.233 77.588 124.138V151.724C77.588 153.628 76.0441 155.172 74.1397 155.172Z" fill="white"/>
<path d="M87.9327 151.724C86.0282 151.724 84.4844 150.18 84.4844 148.276V137.931C84.4844 136.026 86.0282 134.482 87.9327 134.482C89.8371 134.482 91.3809 136.026 91.3809 137.931V148.276C91.3809 150.18 89.8371 151.724 87.9327 151.724Z" fill="white"/>
<path d="M143.105 155.173C141.2 155.173 139.656 153.629 139.656 151.724V93.1035C139.656 91.1991 141.2 89.6553 143.105 89.6553C145.009 89.6553 146.553 91.1991 146.553 93.1035V151.724C146.553 153.629 145.009 155.173 143.105 155.173Z" fill="white"/>
<path d="M99.412 34.4824H90.2465C84.3146 34.4832 78.5906 36.6681 74.1672 40.6204L48.0361 63.9652C44.6106 66.9038 43.922 71.9389 46.4327 75.6893C47.8544 77.6845 50.0578 78.9806 52.4925 79.2536C54.9271 79.5267 57.3629 78.751 59.1913 77.1204L77.5878 60.7583V96.5514C77.5878 96.5514 77.5878 124.138 101.726 124.138H125.995C127.492 124.14 128.793 123.111 129.137 121.654C129.481 120.197 128.776 118.695 127.436 118.027L125.415 117.017C117.237 112.929 112.071 104.57 112.071 95.4273V60.7583L130.484 77.1376C132.065 78.5338 134.1 79.3062 136.209 79.31C138.676 79.3223 141.027 78.266 142.657 76.4135C144.175 74.7035 144.952 72.4601 144.816 70.1772C144.681 67.8943 143.643 65.7589 141.933 64.241L115.491 40.6204C111.068 36.6681 105.344 34.4832 99.412 34.4824Z" fill="white"/>
<path d="M15.5195 175.862C19.3284 175.862 22.4161 178.95 22.4161 182.759V196.552H15.5195V175.862Z" fill="white"/>
<path d="M29.3125 186.207H71.9435C71.0152 188.029 70.5914 190.066 70.7159 192.107C70.8095 193.649 71.2006 195.158 71.8677 196.552H29.3125V186.207Z" fill="white"/>
<path d="M82.7611 196.552C81.388 196.551 80.0707 196.008 79.0956 195.042C78.2021 194.149 77.6692 192.958 77.5991 191.697C77.536 190.354 78.0359 189.045 78.9784 188.086C80.1047 186.892 81.6716 186.213 83.3129 186.207H87.9336V196.552H82.7611Z" fill="white"/>
<path d="M146.553 189.655C146.553 193.464 143.465 196.552 139.656 196.552H94.8289V186.207H122.415C124.319 186.207 125.863 184.663 125.863 182.759C125.863 180.854 124.319 179.31 122.415 179.31H75.7461C77.7254 174.117 88.3358 168.966 102.967 168.966C107.575 168.941 112.167 169.512 116.629 170.662C121.481 171.896 126.475 172.485 131.481 172.414H132.76C140.378 172.414 146.553 178.589 146.553 186.207V189.655Z" fill="white"/>
</svg>
