<svg width="53" height="53" viewBox="0 0 53 53" fill="none" xmlns="http://www.w3.org/2000/svg">
<path d="M50.5156 32.2974H45.5469V29.813C45.5469 28.4433 44.4322 27.3286 43.0625 27.3286H34.7812C34.0674 27.3286 33.4273 27.6359 32.9735 28.1195L24.0156 26.6272V24.5519C26.4867 23.1176 28.1562 20.4486 28.1562 17.3911H28.9844C30.3541 17.3911 31.4688 16.2765 31.4688 14.9068C31.4688 13.537 30.3541 12.4224 28.9844 12.4224H28.5869L29.0407 11.3698C29.892 9.39806 29.7396 7.12072 28.6349 5.27897C27.9343 4.11131 26.9099 3.19623 25.671 2.63311L23.3598 1.58056C20.6311 0.338375 17.2863 0.701922 14.8872 2.49978L13.5812 3.47862L13.5829 3.48111C12.291 3.81816 11.1507 4.64959 10.4501 5.81725C9.53834 7.33769 9.46712 9.19186 10.2596 10.7777L11.082 12.4224H10.7656C9.39591 12.4224 8.28125 13.537 8.28125 14.9068C8.28125 16.2765 9.39591 17.3911 10.7656 17.3911H11.5938C11.5938 20.4486 13.2633 23.1176 15.7344 24.5519V26.6272L5.67183 28.3042C2.86531 28.772 0.828125 31.1761 0.828125 34.0224V51.3443C0.828125 51.8022 1.19913 52.1724 1.65625 52.1724H27.3281H28.1562H50.5156C51.429 52.1724 52.1719 51.4296 52.1719 50.5161V33.9536C52.1719 33.0402 51.429 32.2974 50.5156 32.2974ZM43.8906 29.813V32.2974H38.6469C38.2031 30.8805 37.2342 29.7029 35.9646 28.9849H43.0625C43.5188 28.9849 43.8906 29.3559 43.8906 29.813ZM33.9531 29.9745C35.2574 30.242 36.3332 31.1181 36.8764 32.2974H33.9531V29.9745ZM29.8125 14.9068C29.8125 15.363 29.4407 15.7349 28.9844 15.7349H28.1562V14.0786H28.9844C29.4407 14.0786 29.8125 14.4505 29.8125 14.9068ZM11.8703 6.66939C12.4997 5.62098 13.6508 4.96925 14.8731 4.96925C16.1716 4.96925 17.3765 5.61436 18.0978 6.69423L18.3579 7.08428L19.7359 6.16589L19.4758 5.77584C18.7289 4.65622 17.615 3.8695 16.3522 3.52003C18.227 2.35734 20.6559 2.16853 22.6732 3.08692L24.9845 4.13947C25.9162 4.56347 26.6872 5.25164 27.2147 6.13028C28.0461 7.51573 28.1604 9.22913 27.5202 10.7131L27.4648 10.8423L26.413 8.73888C26.3029 8.51942 26.1017 8.35959 25.8623 8.30328C25.6238 8.24614 25.3721 8.29997 25.175 8.44655L23.85 9.4403C22.7105 10.2958 21.2985 10.7661 19.875 10.7661C18.4515 10.7661 17.0395 10.2957 15.9 9.44112L14.575 8.44737C14.3779 8.29914 14.1253 8.24614 13.8877 8.30411C13.6483 8.36042 13.4471 8.52025 13.337 8.7397L12.2148 10.9848L11.7412 10.0374C11.2029 8.96081 11.2509 7.70123 11.8703 6.66939ZM10.7656 15.7349C10.3093 15.7349 9.9375 15.363 9.9375 14.9068C9.9375 14.4505 10.3093 14.0786 10.7656 14.0786H11.5938V15.7349H10.7656ZM13.25 17.3911V12.6178L14.3746 10.3678L14.9062 10.7661C16.3306 11.8344 18.0954 12.4224 19.875 12.4224C21.6546 12.4224 23.4194 11.8344 24.8438 10.7661L25.3754 10.3678L26.5 12.6178V17.3911C26.5 21.044 23.5279 24.0161 19.875 24.0161C16.2221 24.0161 13.25 21.044 13.25 17.3911ZM19.875 25.6724C20.7404 25.6724 21.5743 25.5382 22.3594 25.2906V26.9858L19.875 29.4702L17.3906 26.9858V25.2906C18.1757 25.5382 19.0096 25.6724 19.875 25.6724ZM19.6075 34.7817H20.1425L21.494 38.1605L19.875 45.1772L18.256 38.1605L19.6075 34.7817ZM21.4451 31.3475L20.2601 33.1255H19.4899L18.304 31.3475L18.5806 30.5186L19.2895 31.2274C19.451 31.3881 19.663 31.4693 19.875 31.4693C20.087 31.4693 20.299 31.3881 20.4605 31.2266L21.1694 30.5177L21.4451 31.3475ZM10.7656 50.5161V36.438H9.10938V50.5161H2.48438V34.0224C2.48438 31.9901 3.93939 30.2718 5.94428 29.9372L16.2785 28.2155L17.2714 29.2085L16.6047 31.2076C16.5236 31.4502 16.5592 31.716 16.7016 31.9289L18.1161 34.0505L16.6213 37.787C16.5584 37.9435 16.5459 38.1158 16.5832 38.2806L19.0676 49.0462C19.1545 49.4222 19.4891 49.688 19.875 49.688C20.2609 49.688 20.5955 49.4222 20.6824 49.0462L23.1668 38.2806C23.2041 38.1166 23.1916 37.9444 23.1287 37.787L21.6339 34.0505L23.0484 31.9289C23.19 31.716 23.2256 31.4502 23.1453 31.2076L22.4786 29.2085L23.4715 28.2155L32.3093 29.688C32.3076 29.7302 32.2969 29.7699 32.2969 29.813V32.2974H27.3281C26.4147 32.2974 25.6719 33.0402 25.6719 33.9536V50.5161H10.7656ZM28.1562 50.5161H27.3281V48.8599H50.5165V50.5161H28.1562ZM50.5165 47.2036H27.3281V40.4867C28.3815 41.5641 29.8473 42.2349 31.4688 42.2349H36.4375V43.063C36.4375 44.4327 37.5522 45.5474 38.9219 45.5474C40.2916 45.5474 41.4062 44.4327 41.4062 43.063V42.2349H46.375C47.9965 42.2349 49.4631 41.5633 50.5165 40.4867V47.2036ZM38.0938 43.063V38.9224H39.75V43.063C39.75 43.5201 39.3782 43.8911 38.9219 43.8911C38.4656 43.8911 38.0938 43.5201 38.0938 43.063ZM50.5156 36.438C50.5156 38.7211 48.6581 40.5786 46.375 40.5786H41.4062V38.0942C41.4062 37.6363 41.0353 37.2661 40.5781 37.2661H37.2656C36.8085 37.2661 36.4375 37.6363 36.4375 38.0942V40.5786H31.4688C29.1856 40.5786 27.3281 38.7211 27.3281 36.438V33.9536H50.5156V36.438Z" fill="white"/>
</svg>
