<svg width="53" height="53" viewBox="0 0 53 53" fill="none" xmlns="http://www.w3.org/2000/svg">
<path d="M18.4463 19.875H33.9736C34.1384 19.875 34.2963 19.8096 34.4128 19.6931C34.5293 19.5766 34.5947 19.4186 34.5947 19.2539C34.5947 19.0892 34.5293 18.9312 34.4128 18.8147C34.2963 18.6982 34.1384 18.6328 33.9736 18.6328H18.4463C18.2816 18.6328 18.1236 18.6982 18.0071 18.8147C17.8906 18.9312 17.8252 19.0892 17.8252 19.2539C17.8252 19.4186 17.8906 19.5766 18.0071 19.6931C18.1236 19.8096 18.2816 19.875 18.4463 19.875Z" fill="white"/>
<path d="M12.1748 19.1387L10.7948 20.458L10.2351 19.8982C10.1777 19.8393 10.1092 19.7923 10.0335 19.7601C9.95783 19.7278 9.87649 19.7109 9.79422 19.7104C9.71195 19.7098 9.63039 19.7256 9.55427 19.7568C9.47816 19.7881 9.40901 19.8341 9.35083 19.8923C9.29266 19.9505 9.24663 20.0196 9.21541 20.0958C9.18418 20.1719 9.1684 20.2534 9.16896 20.3357C9.16952 20.418 9.18643 20.4993 9.21869 20.575C9.25095 20.6507 9.29792 20.7192 9.35689 20.7766L10.346 21.7658C10.4608 21.8805 10.6159 21.9458 10.7782 21.9476C10.9405 21.9495 11.0971 21.8877 11.2144 21.7755L13.0332 20.0364C13.0928 19.9802 13.1406 19.9128 13.1739 19.838C13.2073 19.7632 13.2255 19.6826 13.2276 19.6007C13.2297 19.5189 13.2156 19.4374 13.1861 19.3611C13.1565 19.2847 13.1122 19.2149 13.0556 19.1557C12.999 19.0965 12.9313 19.0491 12.8563 19.0162C12.7814 18.9833 12.7006 18.9656 12.6188 18.964C12.5369 18.9624 12.4555 18.977 12.3793 19.007C12.3031 19.037 12.2336 19.0817 12.1748 19.1387Z" fill="white"/>
<path d="M11.2007 16.2412C10.367 16.2412 9.55199 16.4884 8.85878 16.9516C8.16556 17.4148 7.62527 18.0732 7.30622 18.8434C6.98717 19.6137 6.9037 20.4613 7.06636 21.279C7.22902 22.0967 7.6305 22.8478 8.22004 23.4373C8.80958 24.0268 9.5607 24.4283 10.3784 24.5909C11.1961 24.7536 12.0437 24.6701 12.8139 24.351C13.5842 24.032 14.2425 23.4917 14.7057 22.7984C15.1689 22.1052 15.4161 21.2902 15.4161 20.4565C15.4148 19.3389 14.9703 18.2674 14.18 17.4772C13.3898 16.6869 12.3183 16.2424 11.2007 16.2412ZM11.2007 23.4296C10.6127 23.4296 10.0378 23.2553 9.54891 22.9286C9.05997 22.6019 8.67889 22.1375 8.45386 21.5943C8.22883 21.051 8.16995 20.4532 8.28467 19.8764C8.39939 19.2997 8.68256 18.7699 9.09836 18.3541C9.51417 17.9383 10.0439 17.6551 10.6207 17.5404C11.1974 17.4257 11.7952 17.4846 12.3385 17.7096C12.8818 17.9346 13.3461 18.3157 13.6728 18.8047C13.9995 19.2936 14.1739 19.8684 14.1739 20.4565C14.1731 21.2448 13.8596 22.0006 13.3022 22.5581C12.7448 23.1156 11.9891 23.4292 11.2007 23.4301V23.4296Z" fill="white"/>
<path d="M18.4463 30.2266H33.9736C34.1384 30.2266 34.2963 30.1611 34.4128 30.0446C34.5293 29.9282 34.5947 29.7702 34.5947 29.6055C34.5947 29.4407 34.5293 29.2828 34.4128 29.1663C34.2963 29.0498 34.1384 28.9844 33.9736 28.9844H18.4463C18.2816 28.9844 18.1236 29.0498 18.0071 29.1663C17.8906 29.2828 17.8252 29.4407 17.8252 29.6055C17.8252 29.7702 17.8906 29.9282 18.0071 30.0446C18.1236 30.1611 18.2816 30.2266 18.4463 30.2266Z" fill="white"/>
<path d="M12.1748 29.4902L10.7948 30.8095L10.2351 30.2498C10.1777 30.1909 10.1092 30.1439 10.0335 30.1116C9.95783 30.0794 9.87649 30.0625 9.79422 30.0619C9.71195 30.0614 9.63039 30.0772 9.55427 30.1084C9.47816 30.1396 9.40901 30.1857 9.35083 30.2439C9.29266 30.302 9.24663 30.3712 9.21541 30.4473C9.18418 30.5234 9.1684 30.605 9.16896 30.6873C9.16952 30.7695 9.18643 30.8509 9.21869 30.9266C9.25095 31.0022 9.29792 31.0708 9.35689 31.1281L10.346 32.1173C10.4608 32.2321 10.6159 32.2974 10.7782 32.2992C10.9405 32.301 11.0971 32.2392 11.2144 32.1271L13.0332 30.388C13.0928 30.3318 13.1406 30.2643 13.1739 30.1896C13.2073 30.1148 13.2255 30.0342 13.2276 29.9523C13.2297 29.8704 13.2156 29.789 13.1861 29.7126C13.1565 29.6363 13.1122 29.5665 13.0556 29.5073C12.999 29.4481 12.9313 29.4007 12.8563 29.3678C12.7814 29.3349 12.7006 29.3171 12.6188 29.3155C12.5369 29.314 12.4555 29.3286 12.3793 29.3586C12.3031 29.3885 12.2336 29.4333 12.1748 29.4902Z" fill="white"/>
<path d="M11.2007 26.5928C10.367 26.5928 9.55199 26.84 8.85878 27.3032C8.16556 27.7664 7.62527 28.4248 7.30622 29.195C6.98717 29.9653 6.9037 30.8129 7.06636 31.6306C7.22902 32.4483 7.6305 33.1994 8.22004 33.7889C8.80958 34.3784 9.5607 34.7799 10.3784 34.9425C11.1961 35.1052 12.0437 35.0217 12.8139 34.7026C13.5842 34.3835 14.2425 33.8432 14.7057 33.15C15.1689 32.4568 15.4161 31.6418 15.4161 30.808C15.4148 29.6904 14.9703 28.619 14.18 27.8288C13.3898 27.0385 12.3183 26.594 11.2007 26.5928ZM11.2007 33.7812C10.6127 33.7812 10.0378 33.6068 9.54891 33.2801C9.05997 32.9534 8.67889 32.4891 8.45386 31.9458C8.22883 31.4025 8.16995 30.8047 8.28467 30.228C8.39939 29.6513 8.68256 29.1215 9.09836 28.7057C9.51417 28.2899 10.0439 28.0067 10.6207 27.892C11.1974 27.7773 11.7952 27.8361 12.3385 28.0612C12.8818 28.2862 13.3461 28.6673 13.6728 29.1562C13.9995 29.6452 14.1739 30.22 14.1739 30.808C14.1731 31.5964 13.8596 32.3522 13.3022 32.9097C12.7448 33.4672 11.9891 33.7807 11.2007 33.7816V33.7812Z" fill="white"/>
<path d="M12.1748 39.8418L10.7948 41.1611L10.2351 40.6014C10.1777 40.5424 10.1092 40.4955 10.0335 40.4632C9.95783 40.4309 9.87649 40.4141 9.79422 40.4135C9.71195 40.4129 9.63039 40.4287 9.55427 40.46C9.47816 40.4912 9.40901 40.5372 9.35083 40.5954C9.29266 40.6536 9.24663 40.7228 9.21541 40.7989C9.18418 40.875 9.1684 40.9566 9.16896 41.0388C9.16952 41.1211 9.18643 41.2024 9.21869 41.2781C9.25095 41.3538 9.29792 41.4223 9.35689 41.4797L10.346 42.4689C10.4608 42.5837 10.6159 42.649 10.7782 42.6508C10.9405 42.6526 11.0971 42.5908 11.2144 42.4786L13.0332 40.7396C13.0928 40.6833 13.1406 40.6159 13.1739 40.5411C13.2073 40.4663 13.2255 40.3857 13.2276 40.3039C13.2297 40.222 13.2156 40.1406 13.1861 40.0642C13.1565 39.9878 13.1122 39.918 13.0556 39.8589C12.999 39.7997 12.9313 39.7523 12.8563 39.7194C12.7814 39.6865 12.7006 39.6687 12.6188 39.6671C12.5369 39.6655 12.4555 39.6801 12.3793 39.7101C12.3031 39.7401 12.2336 39.7848 12.1748 39.8418Z" fill="white"/>
<path d="M11.2007 36.9443C10.367 36.9443 9.55199 37.1916 8.85878 37.6548C8.16556 38.118 7.62527 38.7763 7.30622 39.5466C6.98717 40.3168 6.9037 41.1644 7.06636 41.9821C7.22902 42.7998 7.6305 43.5509 8.22004 44.1405C8.80958 44.73 9.5607 45.1314 10.3784 45.2941C11.1961 45.4567 12.0437 45.3732 12.8139 45.0542C13.5842 44.7351 14.2425 44.1948 14.7057 43.5016C15.1689 42.8083 15.4161 41.9933 15.4161 41.1596C15.4148 40.042 14.9703 38.9706 14.18 38.1803C13.3898 37.3901 12.3183 36.9456 11.2007 36.9443ZM11.2007 44.1328C10.6127 44.1328 10.0378 43.9584 9.54891 43.6317C9.05997 43.305 8.67889 42.8407 8.45386 42.2974C8.22883 41.7541 8.16995 41.1563 8.28467 40.5796C8.39939 40.0028 8.68256 39.4731 9.09836 39.0572C9.51417 38.6414 10.0439 38.3583 10.6207 38.2436C11.1974 38.1288 11.7952 38.1877 12.3385 38.4127C12.8818 38.6378 13.3461 39.0189 13.6728 39.5078C13.9995 39.9967 14.1739 40.5716 14.1739 41.1596C14.1731 41.9479 13.8596 42.7038 13.3022 43.2613C12.7448 43.8187 11.9891 44.1323 11.2007 44.1332V44.1328Z" fill="white"/>
<path d="M18.4463 21.9453H26.7276C26.8923 21.9453 27.0503 21.8799 27.1667 21.7634C27.2832 21.6469 27.3486 21.4889 27.3486 21.3242C27.3486 21.1595 27.2832 21.0015 27.1667 20.885C27.0503 20.7686 26.8923 20.7031 26.7276 20.7031H18.4463C18.2816 20.7031 18.1236 20.7686 18.0071 20.885C17.8906 21.0015 17.8252 21.1595 17.8252 21.3242C17.8252 21.4889 17.8906 21.6469 18.0071 21.7634C18.1236 21.8799 18.2816 21.9453 18.4463 21.9453Z" fill="white"/>
<path d="M18.4463 32.2969H26.7276C26.8923 32.2969 27.0503 32.2314 27.1667 32.115C27.2832 31.9985 27.3486 31.8405 27.3486 31.6758C27.3486 31.5111 27.2832 31.3531 27.1667 31.2366C27.0503 31.1201 26.8923 31.0547 26.7276 31.0547H18.4463C18.2816 31.0547 18.1236 31.1201 18.0071 31.2366C17.8906 31.3531 17.8252 31.5111 17.8252 31.6758C17.8252 31.8405 17.8906 31.9985 18.0071 32.115C18.1236 32.2314 18.2816 32.2969 18.4463 32.2969Z" fill="white"/>
<path d="M6.10742 9.74121C5.9427 9.74121 5.78472 9.80665 5.66824 9.92313C5.55176 10.0396 5.48633 10.1976 5.48633 10.3623V11.0145C5.48633 11.1792 5.55176 11.3372 5.66824 11.4536C5.78472 11.5701 5.9427 11.6355 6.10742 11.6355C6.27215 11.6355 6.43012 11.5701 6.5466 11.4536C6.66308 11.3372 6.72852 11.1792 6.72852 11.0145V10.3623C6.72852 10.1976 6.66308 10.0396 6.5466 9.92313C6.43012 9.80665 6.27215 9.74121 6.10742 9.74121Z" fill="white"/>
<path d="M6.10742 12.3584C5.9427 12.3584 5.78472 12.4238 5.66824 12.5403C5.55176 12.6568 5.48633 12.8148 5.48633 12.9795V18.9834C5.48633 19.1481 5.55176 19.3061 5.66824 19.4226C5.78472 19.5391 5.9427 19.6045 6.10742 19.6045C6.27215 19.6045 6.43012 19.5391 6.5466 19.4226C6.66308 19.3061 6.72852 19.1481 6.72852 18.9834V12.9795C6.72852 12.8979 6.71245 12.8172 6.68124 12.7418C6.65002 12.6665 6.60428 12.598 6.5466 12.5403C6.48893 12.4826 6.42046 12.4369 6.3451 12.4057C6.26975 12.3745 6.18899 12.3584 6.10742 12.3584Z" fill="white"/>
<path d="M47.3347 27.7114C46.9192 27.6242 46.4905 27.6203 46.0734 27.6999C45.6564 27.7795 45.2593 27.941 44.9051 28.1751L38.5078 32.3764V9.0708C38.5078 7.01602 36.8192 5.38306 34.7643 5.38306H30.8477V3.45508C30.8477 3.29035 30.7822 3.13238 30.6657 3.0159C30.5493 2.89942 30.3913 2.83398 30.2266 2.83398C30.0618 2.83398 29.9039 2.89942 29.7874 3.0159C29.6709 3.13238 29.6055 3.29035 29.6055 3.45508V5.38306H24.3262V3.45508C24.3262 3.29035 24.2607 3.13238 24.1443 3.0159C24.0278 2.89942 23.8698 2.83398 23.7051 2.83398C23.5404 2.83398 23.3824 2.89942 23.2659 3.0159C23.1494 3.13238 23.084 3.29035 23.084 3.45508V5.38306H17.9082V3.45508C17.9082 3.29035 17.8428 3.13238 17.7263 3.0159C17.6098 2.89942 17.4518 2.83398 17.2871 2.83398C17.1224 2.83398 16.9644 2.89942 16.8479 3.0159C16.7315 3.13238 16.666 3.29035 16.666 3.45508V5.38306H11.3867V3.45508C11.3867 3.29035 11.3213 3.13238 11.2048 3.0159C11.0883 2.89942 10.9304 2.83398 10.7656 2.83398C10.6009 2.83398 10.4429 2.89942 10.3264 3.0159C10.21 3.13238 10.1445 3.29035 10.1445 3.45508V5.38306H6.81506C6.32878 5.37958 5.84662 5.47244 5.39642 5.65627C4.94621 5.84009 4.53686 6.11125 4.19198 6.4541C3.84711 6.79694 3.57354 7.20468 3.38706 7.6538C3.20057 8.10291 3.10487 8.58451 3.10547 9.0708V46.4399C3.10547 48.4948 4.76017 50.2053 6.81506 50.2053H34.7643C36.8192 50.2053 38.5078 48.4948 38.5078 46.4399V40.1084L48.4542 33.5766C48.9884 33.2256 49.4065 32.7242 49.6557 32.1356C49.9049 31.547 49.9739 30.8977 49.8541 30.2699C49.7342 29.6421 49.4309 29.0639 48.9825 28.6085C48.534 28.1531 47.9606 27.8409 47.3347 27.7114ZM30.1915 9.27255C30.4087 9.27255 30.621 9.33697 30.8017 9.45765C30.9823 9.57833 31.123 9.74986 31.2062 9.95055C31.2893 10.1512 31.3111 10.3721 31.2687 10.5851C31.2263 10.7982 31.1217 10.9939 30.9681 11.1475C30.8145 11.3011 30.6188 11.4057 30.4057 11.4481C30.1927 11.4904 29.9719 11.4687 29.7712 11.3856C29.5705 11.3024 29.399 11.1617 29.2783 10.981C29.1576 10.8004 29.0932 10.5881 29.0932 10.3709C29.0935 10.0797 29.2093 9.80048 29.4152 9.59457C29.6211 9.38866 29.9003 9.27285 30.1915 9.27255ZM23.7194 9.27255C23.9366 9.27257 24.1489 9.33701 24.3295 9.4577C24.5101 9.5784 24.6509 9.74993 24.734 9.95062C24.8171 10.1513 24.8388 10.3721 24.7964 10.5852C24.7541 10.7982 24.6494 10.9939 24.4958 11.1475C24.3422 11.3011 24.1465 11.4057 23.9335 11.4481C23.7204 11.4904 23.4996 11.4687 23.2989 11.3855C23.0983 11.3024 22.9267 11.1616 22.8061 10.981C22.6854 10.8004 22.621 10.5881 22.621 10.3709C22.6213 10.0796 22.7371 9.80047 22.943 9.59456C23.149 9.38866 23.4282 9.27285 23.7194 9.27255ZM17.2471 9.27255C17.4643 9.27261 17.6766 9.33708 17.8572 9.4578C18.0377 9.57852 18.1784 9.75007 18.2615 9.95077C18.3446 10.1515 18.3663 10.3723 18.3239 10.5853C18.2815 10.7983 18.1769 10.994 18.0232 11.1476C17.8696 11.3011 17.6739 11.4057 17.4609 11.4481C17.2479 11.4904 17.027 11.4687 16.8264 11.3855C16.6257 11.3024 16.4542 11.1616 16.3335 10.981C16.2128 10.8004 16.1484 10.5881 16.1484 10.3709C16.1488 10.0796 16.2646 9.8004 16.4706 9.59449C16.6766 9.38858 16.9558 9.2728 17.2471 9.27255ZM10.7749 9.27255C10.9922 9.27257 11.2045 9.33701 11.3851 9.4577C11.5657 9.5784 11.7065 9.74993 11.7896 9.95062C11.8727 10.1513 11.8944 10.3721 11.852 10.5852C11.8096 10.7982 11.705 10.9939 11.5514 11.1475C11.3978 11.3011 11.2021 11.4057 10.9891 11.4481C10.776 11.4904 10.5552 11.4687 10.3545 11.3855C10.1538 11.3024 9.98231 11.1616 9.86163 10.981C9.74095 10.8004 9.67654 10.5881 9.67654 10.3709C9.67687 10.0796 9.7927 9.80047 9.99863 9.59456C10.2045 9.38866 10.4837 9.27285 10.7749 9.27255ZM37.2656 46.4399C37.2625 47.1044 36.9987 47.7411 36.5309 48.213C36.0631 48.6849 35.4287 48.9543 34.7643 48.9631H6.81506C5.44492 48.9631 4.34766 47.8099 4.34766 46.4399V9.0708C4.34688 8.74758 4.41034 8.42744 4.53433 8.12895C4.65833 7.83046 4.8404 7.55959 5.06996 7.33206C5.29952 7.10452 5.572 6.92487 5.87158 6.80354C6.17116 6.6822 6.49186 6.6216 6.81506 6.62524H10.1445V8.11463C9.21289 8.38749 8.4298 9.29533 8.4298 10.3713C8.4298 10.6786 8.49032 10.9828 8.60792 11.2667C8.72551 11.5506 8.89787 11.8086 9.11516 12.0259C9.33245 12.2432 9.5904 12.4155 9.8743 12.5331C10.1582 12.6507 10.4625 12.7112 10.7698 12.7112C11.0771 12.7112 11.3813 12.6507 11.6652 12.5331C11.9491 12.4155 12.2071 12.2432 12.4244 12.0259C12.6417 11.8086 12.814 11.5506 12.9316 11.2667C13.0492 10.9828 13.1097 10.6786 13.1097 10.3713C13.1171 9.85641 12.9512 9.35402 12.6388 8.94477C12.3263 8.53552 11.8853 8.24316 11.3867 8.11463V6.62524H16.666V8.11463C16.1657 8.24239 15.7226 8.53405 15.4074 8.94307C15.0922 9.35209 14.923 9.8549 14.927 10.3713C14.927 10.9927 15.1738 11.5886 15.6132 12.028C16.0526 12.4674 16.6485 12.7142 17.2699 12.7142C17.8913 12.7142 18.4873 12.4674 18.9267 12.028C19.3661 11.5886 19.6129 10.9927 19.6129 10.3713C19.6041 9.86314 19.4343 9.37091 19.128 8.9654C18.8216 8.5599 18.3946 8.26202 17.9082 8.11463V6.62524H23.084V8.11463C22.1523 8.38749 21.3717 9.29533 21.3717 10.3713C21.3717 10.9917 21.6182 11.5868 22.0569 12.0255C22.4957 12.4642 23.0907 12.7107 23.7112 12.7107C24.3317 12.7107 24.9267 12.4642 25.3654 12.0255C25.8042 11.5868 26.0506 10.9917 26.0506 10.3713C26.0576 9.85629 25.8915 9.35388 25.5787 8.94466C25.266 8.53544 24.8249 8.24313 24.3262 8.11463V6.62524H29.6055V8.11463C29.1053 8.24241 28.6625 8.53414 28.3476 8.94321C28.0327 9.35228 27.8641 9.85508 27.8686 10.3713C27.8686 10.9926 28.1154 11.5884 28.5547 12.0278C28.9941 12.4671 29.5899 12.7139 30.2112 12.7139C30.8326 12.7139 31.4284 12.4671 31.8678 12.0278C32.3071 11.5884 32.5539 10.9926 32.5539 10.3713C32.5539 9.29574 31.7793 8.38791 30.8477 8.11463V6.62524H34.7643C36.1341 6.62524 37.2656 7.70098 37.2656 9.0708V33.1921L34.9327 34.7241C34.861 34.7712 34.7999 34.8327 34.7532 34.9046C34.7064 34.9764 34.675 35.0572 34.661 35.1418C34.6471 35.2264 34.6507 35.313 34.6718 35.3961C34.693 35.4792 34.7311 35.5571 34.7837 35.6247C34.8797 35.7478 35.0184 35.8303 35.1723 35.8557C35.3263 35.8812 35.4841 35.8477 35.6146 35.7621L44.85 29.6972L45.6012 30.8407L29.9541 41.1167L29.2027 39.9731L32.1425 38.0429C32.2107 37.9981 32.2694 37.9403 32.3153 37.8729C32.3611 37.8054 32.3932 37.7296 32.4098 37.6497C32.4264 37.5699 32.427 37.4875 32.4117 37.4074C32.3965 37.3273 32.3656 37.2509 32.3208 37.1827C32.276 37.1146 32.2183 37.0559 32.1508 37.01C32.0833 36.9642 32.0075 36.932 31.9277 36.9155C31.8478 36.8989 31.7654 36.8983 31.6853 36.9135C31.6052 36.9288 31.5289 36.9597 31.4607 37.0045L28.0044 39.2741C27.9981 39.2783 27.9923 39.2836 27.9859 39.288C27.9701 39.2992 27.9548 39.3104 27.9397 39.323C27.9347 39.3272 27.9304 39.3319 27.9257 39.3363H18.4465C18.2818 39.3363 18.1238 39.4017 18.0073 39.5182C17.8908 39.6347 17.8254 39.7927 17.8254 39.9574C17.8254 40.1221 17.8908 40.2801 18.0073 40.3966C18.1238 40.513 18.2818 40.5785 18.4465 40.5785H27.2256L26.7858 41.4095C26.7667 41.4077 26.7474 41.4066 26.7277 41.4066H18.4465C18.2818 41.4066 18.1238 41.472 18.0073 41.5885C17.8908 41.705 17.8254 41.863 17.8254 42.0277C17.8254 42.1924 17.8908 42.3504 18.0073 42.4669C18.1238 42.5834 18.2818 42.6488 18.4465 42.6488H26.1299L25.4118 44.0054C25.3618 44.1 25.337 44.2059 25.3399 44.313C25.3429 44.42 25.3734 44.5244 25.4286 44.6162C25.4838 44.7079 25.5618 44.7838 25.655 44.8365C25.7482 44.8892 25.8534 44.917 25.9605 44.917C25.966 44.917 25.9715 44.917 25.9768 44.917L31.2258 44.7794C31.2385 44.7794 31.2511 44.777 31.2637 44.7759C31.2763 44.7749 31.2907 44.7742 31.3042 44.7721C31.3206 44.7696 31.3366 44.7654 31.3525 44.7617C31.3643 44.7589 31.3762 44.757 31.388 44.7535C31.4151 44.7453 31.4417 44.7353 31.4674 44.7235C31.4737 44.7208 31.4796 44.7168 31.4858 44.7132C31.5059 44.7034 31.5255 44.6926 31.5444 44.6807C31.5465 44.6793 31.5487 44.6786 31.5505 44.6773L37.2656 40.9242V46.4399ZM30.0776 43.5667L27.0066 43.6471L28.4001 41.0139L30.0776 43.5667ZM31.3876 43.2982L31.3399 43.2258L30.636 42.155L46.2831 31.8795L47.0344 33.0229L31.3876 43.2982ZM48.055 32.3132L45.9064 29.0432C46.1711 28.9319 46.4567 28.8787 46.7437 28.8874C47.0308 28.896 47.3126 28.9662 47.5702 29.0933C47.7194 29.1651 47.8578 29.2574 47.9815 29.3675C48.1908 29.5493 48.3599 29.7727 48.478 30.0235C48.5962 30.2743 48.6608 30.547 48.6677 30.8241C48.6746 31.1013 48.6237 31.3768 48.5182 31.6332C48.4127 31.8896 48.2549 32.1212 48.055 32.3132Z" fill="white"/>
</svg>
