<svg width="53" height="53" viewBox="0 0 53 53" fill="none" xmlns="http://www.w3.org/2000/svg">
<path d="M49.8433 17.6894C49.8431 17.6893 49.843 17.6892 49.8428 17.6891L48.3899 16.5744C47.9807 16.2609 47.3924 16.3383 47.0785 16.7474L45.5333 18.7618L45.4618 18.7071C44.9642 18.3251 44.2483 18.4193 43.866 18.9173L26.4261 41.6516C26.426 41.6518 26.4259 41.6519 26.4258 41.6521C26.4257 41.6522 26.4256 41.6524 26.4255 41.6525C26.412 41.6702 26.4013 41.6897 26.3895 41.7084C26.38 41.7235 26.3691 41.7375 26.3607 41.7531C26.3418 41.7884 26.3255 41.8251 26.3124 41.8631L24.0313 48.4266C24.0312 48.4269 24.0311 48.4272 24.031 48.4275L24.0296 48.4318C23.902 48.7988 24.0237 49.2042 24.3319 49.4406C24.4933 49.5643 24.686 49.6267 24.8792 49.6267C25.0551 49.6267 25.2314 49.5749 25.3845 49.471L25.3888 49.4681C25.3889 49.4681 25.3889 49.468 25.389 49.468L31.1373 45.5645C31.1696 45.5426 31.2004 45.5178 31.2292 45.4908C31.2413 45.4794 31.2515 45.4663 31.2628 45.4542C31.2778 45.4381 31.2939 45.4228 31.3074 45.4057C31.3085 45.4044 31.3093 45.4029 31.3103 45.4017C31.3108 45.4009 31.3116 45.4003 31.3122 45.3996L47.0076 24.9394L47.4753 25.2982L41.0465 33.6786C40.793 34.0092 40.8554 34.4826 41.1859 34.7361C41.3229 34.8412 41.4841 34.892 41.6444 34.892C41.871 34.892 42.0949 34.7904 42.2434 34.5968L48.8687 25.9601C49.2666 25.4415 49.1685 24.6959 48.6497 24.2978L47.9258 23.7425L48.7523 22.6651C49.134 22.1673 49.0396 21.4516 48.5418 21.0695L48.4704 21.0147L50.0155 19.0005C50.3293 18.5917 50.2521 18.0036 49.8433 17.6894ZM26.0579 47.1903L27.395 43.3427L29.4277 44.9021L26.0579 47.1903ZM30.5756 43.8814L28.0835 41.9697L44.8376 20.1295L47.3298 22.0412L30.5756 43.8814ZM47.2735 20.0967L46.7302 19.68L47.9265 18.1204L48.4698 18.5371L47.2735 20.0967Z" fill="white"/>
<path d="M37.9228 23.7598H8.18791C7.77126 23.7598 7.43359 24.0974 7.43359 24.5141C7.43359 24.9306 7.77126 25.2684 8.18791 25.2684H37.9228C38.3394 25.2683 38.6771 24.9306 38.6771 24.5141C38.6771 24.0975 38.3394 23.7598 37.9228 23.7598Z" fill="white"/>
<path d="M30.7151 31.543H8.18791C7.77126 31.543 7.43359 31.8806 7.43359 32.2973C7.43359 32.7138 7.77126 33.0516 8.18791 33.0516H30.7151C31.1317 33.0515 31.4694 32.7138 31.4694 32.2973C31.4694 31.8807 31.1317 31.543 30.7151 31.543Z" fill="white"/>
<path d="M21.7982 47.1094H8.18791C7.77126 47.1094 7.43359 47.447 7.43359 47.8637C7.43359 48.2803 7.77126 48.618 8.18791 48.618H21.7982C22.2149 48.618 22.5526 48.2803 22.5526 47.8637C22.5526 47.447 22.2149 47.1094 21.7982 47.1094Z" fill="white"/>
<path d="M37.9234 47.1094H31.2524C30.8357 47.1094 30.498 47.447 30.498 47.8637C30.498 48.2803 30.8357 48.618 31.2524 48.618H37.9234C38.3401 48.618 38.6777 48.2803 38.6777 47.8637C38.6777 47.447 38.3401 47.1094 37.9234 47.1094Z" fill="white"/>
<path d="M42.8322 18.661C43.2489 18.661 43.5865 18.3233 43.5865 17.9067V12.7985C43.5865 12.7899 43.5856 12.7815 43.5853 12.773C43.585 12.7645 43.5846 12.7561 43.584 12.7477C43.5819 12.7155 43.5783 12.6836 43.5721 12.6522C43.572 12.6519 43.572 12.6516 43.572 12.6513C43.5657 12.6193 43.5565 12.5881 43.5462 12.5574C43.5436 12.5495 43.5408 12.5418 43.5379 12.5341C43.5269 12.5049 43.5148 12.4763 43.5003 12.4487C43.4996 12.4472 43.499 12.4457 43.4982 12.4442C43.4829 12.4155 43.465 12.3879 43.4459 12.3612C43.4412 12.3545 43.4362 12.3479 43.4313 12.3413C43.411 12.3148 43.3896 12.2891 43.3657 12.2653L31.3215 0.220902C31.2976 0.197094 31.2719 0.175666 31.2454 0.155377C31.2388 0.150305 31.2321 0.145336 31.2253 0.140471C31.1986 0.121527 31.1713 0.103619 31.1425 0.0884023C31.1407 0.0874707 31.139 0.0868496 31.1372 0.085918C31.1099 0.0716328 31.0816 0.0595215 31.0527 0.0487559C31.0448 0.0457539 31.0369 0.042959 31.0288 0.0401641C30.9983 0.029916 30.9673 0.0208066 30.9357 0.0144922C30.9345 0.0142852 30.9334 0.0141816 30.9323 0.0139746C30.9018 0.00807422 30.8708 0.00455469 30.8395 0.00248437C30.8305 0.00186328 30.8216 0.00144922 30.8126 0.00113867C30.8044 0.000931641 30.7963 0 30.7881 0H4.35772C3.49389 0 2.79102 0.702768 2.79102 1.56661V51.4334C2.79102 52.2972 3.49378 53 4.35772 53H42.0197C42.8836 53 43.5864 52.2972 43.5864 51.4334V36.3008C43.5864 35.8842 43.2488 35.5465 42.8321 35.5465C42.4155 35.5465 42.0778 35.8842 42.0778 36.3009V51.4334C42.0778 51.4654 42.0517 51.4915 42.0196 51.4915H4.35772C4.32574 51.4915 4.29955 51.4654 4.29955 51.4334V1.56661C4.29955 1.53462 4.32563 1.50853 4.35772 1.50853H30.0338V11.9588C30.0338 12.8377 30.7488 13.5527 31.6277 13.5527H42.0779V17.9067C42.0779 18.3232 42.4156 18.661 42.8322 18.661ZM31.6276 12.044C31.5806 12.044 31.5423 12.0057 31.5423 11.9587V2.57526H31.5424L41.0112 12.044H31.6276Z" fill="white"/>
<path d="M21.3763 10.7546L15.0691 4.82957C14.7788 4.55681 14.3266 4.55681 14.0363 4.82957L7.72914 10.7546C7.42542 11.0398 7.41052 11.5172 7.6957 11.8208C7.98099 12.1243 8.4582 12.1393 8.76191 11.8541L14.5527 6.41429L20.3435 11.8541C20.4891 11.9908 20.6747 12.0586 20.8598 12.0586C21.0608 12.0586 21.2613 11.9788 21.4098 11.8208C21.695 11.5172 21.68 11.0398 21.3763 10.7546Z" fill="white"/>
<path d="M19.2674 11.7268L15.4068 8.09995C14.9281 7.65028 14.1779 7.65028 13.6993 8.09995L9.83846 11.7268C9.58858 11.9616 9.44531 12.2929 9.44531 12.6356V17.9114C9.44531 18.5989 10.0047 19.1583 10.6923 19.1583H18.4137C19.1013 19.1583 19.6607 18.5989 19.6607 17.9114V12.6356C19.6607 12.2929 19.5174 11.9616 19.2674 11.7268ZM15.1062 17.6498H13.9999V15.035H15.1062V17.6498ZM16.6147 17.6498V14.5571C16.6147 13.9887 16.1524 13.5264 15.5842 13.5264H13.522C12.9537 13.5264 12.4915 13.9887 12.4915 14.5571V17.6498H10.9538V12.7488L14.553 9.36771L18.1521 12.7488V17.6498H16.6147Z" fill="white"/>
<path d="M24.0034 39.3262H15.5893C15.1726 39.3262 14.835 39.6638 14.835 40.0805C14.835 40.4971 15.1726 40.8348 15.5893 40.8348H24.0034C24.4201 40.8347 24.7578 40.497 24.7578 40.0805C24.7578 39.6639 24.4201 39.3262 24.0034 39.3262Z" fill="white"/>
<path d="M10.9025 39.3262H8.28069C7.86404 39.3262 7.52637 39.6638 7.52637 40.0805C7.52637 40.4971 7.86414 40.8348 8.28069 40.8348H10.9025C11.3192 40.8348 11.6568 40.4971 11.6568 40.0805C11.6568 39.6638 11.3192 39.3262 10.9025 39.3262Z" fill="white"/>
</svg>
