<svg width="19" height="20" viewBox="0 0 19 20" fill="none" xmlns="http://www.w3.org/2000/svg">
<path d="M16.9623 9.24573L3.50395 2.57906C3.36843 2.51194 3.2176 2.48666 3.06898 2.50615C2.92035 2.52565 2.78003 2.58913 2.66431 2.68922C2.54859 2.7893 2.46221 2.92189 2.41521 3.07158C2.36821 3.22127 2.36252 3.38193 2.39879 3.5349L3.35829 7.57573L9.50003 9.99989L3.35829 12.4241L2.39879 16.4649C2.36183 16.618 2.36705 16.779 2.41384 16.929C2.46062 17.0791 2.54703 17.212 2.66296 17.3123C2.77889 17.4126 2.91955 17.476 3.06848 17.4952C3.21741 17.5144 3.36846 17.4886 3.50395 17.4207L16.9623 10.7541C17.0983 10.6868 17.2133 10.5801 17.2938 10.4466C17.3744 10.313 17.4172 10.1581 17.4172 9.99989C17.4172 9.8417 17.3744 9.68678 17.2938 9.55323C17.2133 9.41968 17.0983 9.31302 16.9623 9.24573Z" fill="white"/>
</svg>
