<svg width="34" height="34" viewBox="0 0 34 34" fill="none" xmlns="http://www.w3.org/2000/svg">
<path d="M29.7936 12.578L30.6943 11.6773C30.9037 11.4679 31.1822 11.3525 31.4784 11.3525C31.7745 11.3525 32.053 11.4678 32.2625 11.6773L33.6712 10.2686C33.0855 9.68289 32.3067 9.36029 31.4784 9.36029C30.65 9.36029 29.8713 9.68283 29.2856 10.2686L27.7932 11.761L25.1032 8.5332H13.5046L8.19214 13.1816H4.64844C2.08529 13.1816 0 15.2669 0 17.8301C0 20.3909 2.08164 22.4747 4.64166 22.4783C5.08506 24.195 6.6468 25.4668 8.5 25.4668C10.3531 25.4668 11.9149 24.1951 12.3583 22.4785H22.1065C22.55 24.1951 24.1116 25.4668 25.9648 25.4668C27.8424 25.4668 29.4198 24.1609 29.8391 22.4099C32.1966 22.0178 34 19.9651 34 17.498C34 15.0151 32.1734 12.951 29.7936 12.578ZM8.5 23.4746C7.40151 23.4746 6.50781 22.5809 6.50781 21.4824C6.50781 20.3839 7.40151 19.4902 8.5 19.4902C9.59849 19.4902 10.4922 20.3839 10.4922 21.4824C10.4922 22.5809 9.59849 23.4746 8.5 23.4746ZM25.9648 23.4746C24.8664 23.4746 23.9727 22.5809 23.9727 21.4824C23.9727 20.3839 24.8664 19.4902 25.9648 19.4902C27.0633 19.4902 27.957 20.3839 27.957 21.4824C27.957 22.5809 27.0633 23.4746 25.9648 23.4746ZM29.794 20.3839C29.3158 18.7197 27.7808 17.498 25.9648 17.498C24.1117 17.498 22.55 18.7698 22.1066 20.4863H12.3583C11.9148 18.7698 10.3531 17.498 8.5 17.498C6.64693 17.498 5.08526 18.7697 4.64173 20.4861C3.1802 20.4825 1.99219 19.2925 1.99219 17.8301C1.99219 16.3654 3.18378 15.1738 4.64844 15.1738H8.94067L14.2532 10.5254H24.1701L27.4905 14.5098H29.0195C30.6673 14.5098 32.0078 15.8503 32.0078 17.498C32.0078 18.878 31.0674 20.0419 29.794 20.3839Z" fill="white"/>
</svg>
