<svg width="34" height="34" viewBox="0 0 34 34" fill="none" xmlns="http://www.w3.org/2000/svg">
<path d="M29.0195 14.0886H28.4235L25.1032 10.1043H13.5046L9.12276 13.9384L2.14625 6.96191L0.737574 8.37059L7.11961 14.7526H4.64844C2.08529 14.7526 0 16.8379 0 19.4011C0 21.9619 2.08164 24.0457 4.64166 24.0493C5.08506 25.766 6.6468 27.0378 8.5 27.0378C10.3531 27.0378 11.9149 25.766 12.3583 24.0495H22.1065C22.55 25.766 24.1116 27.0378 25.9648 27.0378C27.8424 27.0378 29.4198 25.7318 29.8391 23.9809C32.1966 23.5888 34 21.5362 34 19.0691C34 16.3229 31.7658 14.0886 29.0195 14.0886ZM8.5 25.0457C7.40151 25.0457 6.50781 24.152 6.50781 23.0535C6.50781 21.955 7.40151 21.0613 8.5 21.0613C9.59849 21.0613 10.4922 21.955 10.4922 23.0535C10.4922 24.152 9.59849 25.0457 8.5 25.0457ZM25.9648 25.0457C24.8664 25.0457 23.9727 24.152 23.9727 23.0535C23.9727 21.955 24.8664 21.0613 25.9648 21.0613C27.0633 21.0613 27.957 21.955 27.957 23.0535C27.957 24.152 27.0633 25.0457 25.9648 25.0457ZM29.794 21.955C29.3158 20.2907 27.7809 19.069 25.9648 19.069C24.1117 19.069 22.55 20.3408 22.1066 22.0573H12.3583C11.9148 20.3408 10.3531 19.069 8.5 19.069C6.64693 19.069 5.08526 20.3406 4.64173 22.0571C3.1802 22.0535 1.99219 20.8635 1.99219 19.4011C1.99219 17.9365 3.18378 16.7449 4.64844 16.7449H8.94067L14.2532 12.0964H24.1701L27.4905 16.0808H29.0195C30.6673 16.0808 32.0078 17.4214 32.0078 19.0691C32.0078 20.449 31.0674 21.6129 29.794 21.955Z" fill="white"/>
</svg>
