<svg width="24" height="24" viewBox="0 0 24 24" fill="none" xmlns="http://www.w3.org/2000/svg">
<path d="M11.8367 7C9.01085 7 6.71167 9.29891 6.71167 12.125C6.71167 14.9511 9.01085 17.25 11.8367 17.25C14.6625 17.25 16.9617 14.9511 16.9617 12.125C16.9617 9.29891 14.6625 7 11.8367 7ZM11.8367 16.1111C11.5228 16.1111 11.2672 15.8558 11.2672 15.5417C11.2672 15.2275 11.5228 14.9722 11.8367 14.9722C12.1506 14.9722 12.4061 15.2275 12.4061 15.5417C12.4061 15.8559 12.1506 16.1111 11.8367 16.1111ZM12.8894 9.30169L12.4045 13.8634C12.4061 14.1091 12.2065 14.4028 11.8367 14.4028C11.4669 14.4028 11.2672 14.1091 11.2672 13.8333L10.7846 9.30337C10.7545 9.00529 10.8521 8.70833 11.0523 8.48702C11.4527 8.04438 12.2207 8.04438 12.6211 8.48702C12.821 8.70777 12.9188 9.00473 12.8894 9.30169Z" fill="white"/>
<path d="M16.8721 7.50643C16.7631 7.38781 16.5732 7.38759 16.4593 7.50144L16.0554 7.90509C15.9474 8.01308 15.9487 8.18397 16.0514 8.29699C17.0357 9.37954 17.5279 10.7524 17.5278 12.1254C17.5278 13.4981 17.0356 14.8708 16.0514 15.9532C15.9487 16.0662 15.9474 16.2371 16.0554 16.3451L16.4593 16.7488C16.5732 16.8626 16.7631 16.8624 16.8721 16.7438C18.0685 15.441 18.6667 13.7829 18.6666 12.1247C18.6666 10.4669 18.0684 8.80901 16.8721 7.50643Z" fill="white"/>
<path d="M6.13882 12.125C6.13884 10.7522 6.63098 9.37944 7.61519 8.297C7.71798 8.18395 7.71927 8.01309 7.61121 7.9051L7.20735 7.50145C7.09343 7.38758 6.90351 7.38782 6.79455 7.50644C5.59816 8.80912 4.99997 10.4672 5 12.1253C5.00003 13.7832 5.59824 15.4412 6.79455 16.7438C6.90348 16.8624 7.09343 16.8627 7.20735 16.7488L7.61121 16.3451C7.71927 16.2371 7.71798 16.0663 7.61519 15.9532C6.63092 14.8707 6.13879 13.4978 6.13882 12.125Z" fill="white"/>
</svg>
