<svg width="34" height="34" viewBox="0 0 34 34" fill="none" xmlns="http://www.w3.org/2000/svg">
<g clip-path="url(#clip0)">
<path d="M17.0083 4.25C9.9782 4.25 4.2583 9.96924 4.2583 17C4.2583 24.0308 9.9782 29.75 17.0083 29.75C24.0384 29.75 29.7583 24.0308 29.7583 17C29.7583 9.96924 24.0384 4.25 17.0083 4.25ZM17.0083 26.9166C16.2274 26.9166 15.5917 26.2816 15.5917 25.5C15.5917 24.7183 16.2274 24.0834 17.0083 24.0834C17.7892 24.0834 18.4249 24.7184 18.4249 25.5C18.4249 26.2817 17.7892 26.9166 17.0083 26.9166ZM19.6272 9.97614L18.4208 21.3247C18.425 21.9362 17.9283 22.6666 17.0083 22.6666C16.0883 22.6666 15.5917 21.9362 15.5917 21.25L14.3908 9.98033C14.3161 9.23877 14.5589 8.5 15.057 7.94943C16.053 6.84821 17.9636 6.84821 18.9597 7.94943C19.457 8.49861 19.7005 9.23738 19.6272 9.97614Z" fill="white"/>
<path d="M29.5355 5.50973C29.2645 5.21462 28.7921 5.21409 28.5086 5.49731L27.5039 6.50151C27.2351 6.77019 27.2383 7.19532 27.494 7.47649C29.9427 10.1697 31.1671 13.5852 31.1669 17.0007C31.1668 20.4158 29.9425 23.8308 27.494 26.5237C27.2383 26.8049 27.2351 27.23 27.5039 27.4986L28.5086 28.5028C28.7921 28.7861 29.2645 28.7855 29.5356 28.4904C32.5121 25.2495 34.0003 21.1243 34.0001 16.9992C33.9999 12.8748 32.5117 8.75029 29.5355 5.50973Z" fill="white"/>
<path d="M2.83316 16.9995C2.83322 13.5843 4.05755 10.1692 6.50609 7.47627C6.76182 7.19504 6.765 6.76997 6.49619 6.50129L5.49146 5.49709C5.20804 5.21381 4.73556 5.2144 4.46449 5.50951C1.4881 8.75034 -6.6404e-05 12.8753 2.22233e-09 17.0003C6.64085e-05 21.1249 1.4883 25.2496 4.46449 28.4903C4.7355 28.7854 5.20804 28.786 5.49146 28.5027L6.49619 27.4984C6.765 27.2297 6.76182 26.8047 6.50609 26.5234C4.05742 23.8303 2.83309 20.4149 2.83316 16.9995Z" fill="white"/>
</g>
<defs>
<clipPath id="clip0">
<rect width="34" height="34" fill="white"/>
</clipPath>
</defs>
</svg>
