<svg width="34" height="34" viewBox="0 0 34 34" fill="none" xmlns="http://www.w3.org/2000/svg">
<g clip-path="url(#clip0)">
<path d="M30.5752 0.000231189L28.0786 2.49683L31.5031 5.9213L33.9997 3.4247L30.5752 0.000231189Z" fill="white"/>
<path d="M23.5933 1.07788L19.8482 4.82292C19.7516 4.91961 19.674 5.03369 19.6198 5.15913L17.4572 10.1605C17.2808 10.5685 17.3713 11.0428 17.6856 11.3572L22.6426 16.314C22.8501 16.5215 23.1274 16.6316 23.4093 16.6316C23.5542 16.6316 23.7005 16.6024 23.8391 16.5425L28.8409 14.3803C28.9664 14.3261 29.0805 14.2485 29.1772 14.1518L32.9222 10.4068L23.5933 1.07788Z" fill="white"/>
<path d="M5.55975 25.0146L0.93811 29.6362L4.36258 33.0607L8.98422 28.4391L5.55975 25.0146Z" fill="white"/>
<path d="M19.038 21.6113C19.038 21.0344 18.8133 20.492 18.4053 20.0841L13.9163 15.595C13.5083 15.187 12.9659 14.9624 12.389 14.9624C11.8121 14.9624 11.2697 15.1871 10.8617 15.595L8.15666 18.3L5.39096 18.2423C5.09273 18.2357 4.81071 18.3506 4.60187 18.5595L0.317621 22.8437C-0.105711 23.267 -0.105711 23.9532 0.317621 24.3766L1.72567 25.7846L4.79464 22.7156C4.99791 22.5123 5.27362 22.398 5.56102 22.398C5.84842 22.398 6.1242 22.5122 6.32747 22.7156L11.2847 27.6728C11.7081 28.0962 11.7081 28.7824 11.2847 29.2057L8.21569 32.2748L9.62368 33.6828C9.83531 33.8944 10.1127 34.0003 10.3901 34.0003C10.6675 34.0003 10.9449 33.8945 11.1565 33.6828L15.4408 29.3984C15.6497 29.1896 15.7643 28.9047 15.7581 28.6094L15.7003 25.8437L18.4053 23.1387C18.8133 22.7307 19.038 22.1883 19.038 21.6113ZM14.6415 22.3132C14.4299 22.5248 14.1524 22.6307 13.8751 22.6307C13.5977 22.6307 13.3202 22.5249 13.1087 22.3132L11.6867 20.8912C11.2634 20.4679 11.2634 19.7817 11.6867 19.3583C12.11 18.935 12.7963 18.935 13.2196 19.3583L14.6416 20.7803C15.0648 21.2037 15.0648 21.89 14.6415 22.3132Z" fill="white"/>
</g>
<defs>
<clipPath id="clip0">
<rect width="34" height="34" fill="white"/>
</clipPath>
</defs>
</svg>
