<svg width="24" height="24" viewBox="0 0 24 24" fill="none" xmlns="http://www.w3.org/2000/svg">
<path d="M17.7 7H7.3C6.58305 7 6 7.56062 6 8.25V15.75C6 16.4394 6.58305 17 7.3 17H17.7C18.4169 17 19 16.4394 19 15.75V8.25C19 7.56062 18.4169 7 17.7 7ZM10.3647 9.5C11.1129 9.5 11.6647 10.0306 11.6647 10.75C11.6647 11.4694 11.1129 12 10.3647 12C9.6166 12 9.06475 11.4694 9.06475 10.75C9.06475 10.0306 9.61595 9.5 10.3647 9.5ZM12.7795 14.5H7.95V14.2094C7.95 13.3512 9.0394 12.4688 10.3647 12.4688C11.6901 12.4688 12.7795 13.3512 12.7795 14.2094V14.5ZM17.05 13.875H14.45V12.625H17.05V13.875ZM17.05 11.375H13.8V10.125H17.05V11.375Z" fill="white"/>
</svg>
