<svg width="66" height="67" viewBox="0 0 66 67" fill="none" xmlns="http://www.w3.org/2000/svg">
    <g filter="url(#filter0_d)">
        <path d="M45.6528 24.2758C45.8744 24.4968 46 24.7951 46 25.1081V47.8214C46 48.4733 45.4719 49 44.8182 49H21.1818C20.5281 49 20 48.4733 20 47.8214V17.1786C20 16.5267 20.5281 16 21.1818 16H36.8668C37.1807 16 37.4835 16.1252 37.7051 16.3462L45.6528 24.2758V24.2758ZM43.2744 25.6496L36.3239 18.7181V25.6496H43.2744ZM25.9091 31.3951C25.8307 31.3951 25.7556 31.4261 25.7002 31.4814C25.6448 31.5366 25.6136 31.6116 25.6136 31.6897V33.4576C25.6136 33.5357 25.6448 33.6107 25.7002 33.6659C25.7556 33.7212 25.8307 33.7522 25.9091 33.7522H40.0909C40.1693 33.7522 40.2444 33.7212 40.2998 33.6659C40.3552 33.6107 40.3864 33.5357 40.3864 33.4576V31.6897C40.3864 31.6116 40.3552 31.5366 40.2998 31.4814C40.2444 31.4261 40.1693 31.3951 40.0909 31.3951H25.9091ZM25.9091 36.404C25.8307 36.404 25.7556 36.4351 25.7002 36.4903C25.6448 36.5456 25.6136 36.6205 25.6136 36.6987V38.4665C25.6136 38.5447 25.6448 38.6196 25.7002 38.6749C25.7556 38.7301 25.8307 38.7612 25.9091 38.7612H32.7045C32.7829 38.7612 32.8581 38.7301 32.9135 38.6749C32.9689 38.6196 33 38.5447 33 38.4665V36.6987C33 36.6205 32.9689 36.5456 32.9135 36.4903C32.8581 36.4351 32.7829 36.404 32.7045 36.404H25.9091Z" fill="white"/>
    </g>
    <defs>
        <filter id="filter0_d" x="0" y="0" width="66" height="73" filterUnits="userSpaceOnUse" color-interpolation-filters="sRGB">
            <feFlood flood-opacity="0" result="BackgroundImageFix"/>
            <feColorMatrix in="SourceAlpha" type="matrix" values="0 0 0 0 0 0 0 0 0 0 0 0 0 0 0 0 0 0 127 0"/>
            <feOffset dy="4"/>
            <feGaussianBlur stdDeviation="10"/>
            <feColorMatrix type="matrix" values="0 0 0 0 0.898039 0 0 0 0 0.588235 0 0 0 0 0.117647 0 0 0 0.25 0"/>
            <feBlend mode="normal" in2="BackgroundImageFix" result="effect1_dropShadow"/>
            <feBlend mode="normal" in="SourceGraphic" in2="effect1_dropShadow" result="shape"/>
        </filter>
    </defs>
</svg>