<svg width="84" height="78" viewBox="0 0 84 78" fill="none" xmlns="http://www.w3.org/2000/svg">
<g filter="url(#filter0_d)">
<path d="M53.3334 27.6667H30.6667C29.1041 27.6667 27.8334 28.9375 27.8334 30.5001V47.5001C27.8334 49.0627 29.1041 50.3334 30.6667 50.3334H53.3334C54.896 50.3334 56.1667 49.0627 56.1667 47.5001V30.5001C56.1667 28.9375 54.896 27.6667 53.3334 27.6667ZM37.3463 33.3334C38.9769 33.3334 40.1796 34.5362 40.1796 36.1667C40.1796 37.7973 38.9769 39.0001 37.3463 39.0001C35.7157 39.0001 34.513 37.7973 34.513 36.1667C34.513 34.5362 35.7143 33.3334 37.3463 33.3334ZM42.6092 44.6667H32.0834V44.008C32.0834 42.0629 34.4577 40.0626 37.3463 40.0626C40.2349 40.0626 42.6092 42.0629 42.6092 44.008V44.6667ZM51.9167 43.2501H46.25V40.4167H51.9167V43.2501ZM51.9167 37.5834H44.8334V34.7501H51.9167V37.5834Z" fill="white"/>
</g>
<defs>
<filter id="filter0_d" x="-2" y="-5" width="88" height="88" filterUnits="userSpaceOnUse" color-interpolation-filters="sRGB">
<feFlood flood-opacity="0" result="BackgroundImageFix"/>
<feColorMatrix in="SourceAlpha" type="matrix" values="0 0 0 0 0 0 0 0 0 0 0 0 0 0 0 0 0 0 127 0"/>
<feOffset/>
<feGaussianBlur stdDeviation="13.5"/>
<feColorMatrix type="matrix" values="0 0 0 0 1 0 0 0 0 1 0 0 0 0 1 0 0 0 0.25 0"/>
<feBlend mode="normal" in2="BackgroundImageFix" result="effect1_dropShadow"/>
<feBlend mode="normal" in="SourceGraphic" in2="effect1_dropShadow" result="shape"/>
</filter>
</defs>
</svg>
