<svg width="34" height="34" viewBox="0 0 34 34" fill="none" xmlns="http://www.w3.org/2000/svg">
<path d="M20.7655 8.86878C20.7655 7.86447 20.3666 6.9013 19.6564 6.19114C18.9462 5.48099 17.9831 5.08203 16.9788 5.08203C15.9745 5.08203 15.0113 5.48099 14.3011 6.19114C13.591 6.9013 13.192 7.86447 13.192 8.86878C13.192 9.87309 13.591 10.8363 14.3011 11.5464C15.0113 12.2566 15.9745 12.6555 16.9788 12.6555C17.9831 12.6555 18.9462 12.2566 19.6564 11.5464C20.3666 10.8363 20.7655 9.87309 20.7655 8.86878V8.86878Z" fill="white"/>
<path d="M4.2781 20.4H9.3594V15.3238L9.373 15.0178C9.4172 14.5129 9.5736 14.0403 9.815 13.6238H5.1281L4.9292 13.6357C4.51567 13.6844 4.13441 13.8832 3.85772 14.1943C3.58103 14.5055 3.42816 14.9074 3.4281 15.3238V19.55C3.4281 19.7754 3.51765 19.9916 3.67706 20.151C3.83647 20.3104 4.05267 20.4 4.2781 20.4Z" fill="white"/>
<path d="M30.5831 19.55C30.5831 19.7754 30.4935 19.9916 30.3341 20.151C30.1747 20.3104 29.9585 20.4 29.7331 20.4H24.6059V15.3238L24.5957 15.0705C24.5586 14.5608 24.4063 14.0661 24.1503 13.6238H28.8831C29.2997 13.6239 29.7018 13.777 30.013 14.054C30.3242 14.3311 30.5228 14.7127 30.5712 15.1266L30.5831 15.3238V19.55Z" fill="white"/>
<path d="M22.8939 15.1266C22.8455 14.7125 22.6466 14.3305 22.3351 14.0535C22.0235 13.7764 21.621 13.6235 21.2041 13.6238H12.7585L12.5596 13.6357C12.146 13.6844 11.7648 13.8832 11.4881 14.1943C11.2114 14.5055 11.0585 14.9074 11.0585 15.3238V20.4H22.9041V15.3238L22.8939 15.1266V15.1266Z" fill="white"/>
<path d="M25.4575 6.14868C26.3203 6.14868 27.1477 6.4914 27.7577 7.10145C28.3678 7.71149 28.7105 8.5389 28.7105 9.40163C28.7105 10.2644 28.3678 11.0918 27.7577 11.7018C27.1477 12.3119 26.3203 12.6546 25.4575 12.6546C24.5948 12.6546 23.7674 12.3119 23.1574 11.7018C22.5473 11.0918 22.2046 10.2644 22.2046 9.40163C22.2046 8.5389 22.5473 7.71149 23.1574 7.10145C23.7674 6.4914 24.5948 6.14868 25.4575 6.14868V6.14868Z" fill="white"/>
<path d="M11.781 9.4009C11.781 8.53816 11.4383 7.71076 10.8283 7.10072C10.2182 6.49067 9.39083 6.14795 8.5281 6.14795C7.66536 6.14795 6.83796 6.49067 6.22791 7.10072C5.61787 7.71076 5.27515 8.53816 5.27515 9.4009C5.27515 10.2634 5.61778 11.0906 6.22766 11.7005C6.83755 12.3104 7.66474 12.653 8.52725 12.653C9.38976 12.653 10.2169 12.3104 10.8268 11.7005C11.4367 11.0906 11.7793 10.2634 11.7793 9.4009H11.781Z" fill="white"/>
<path d="M4.25002 22.0999C4.02459 22.0999 3.80839 22.1894 3.64898 22.3488C3.48958 22.5082 3.40002 22.7244 3.40002 22.9499V24.6499C3.40002 25.777 3.84779 26.858 4.64482 27.6551C5.44185 28.4521 6.52285 28.8999 7.65002 28.8999H26.35C27.4772 28.8999 28.5582 28.4521 29.3552 27.6551C30.1523 26.858 30.6 25.777 30.6 24.6499V22.9499C30.6 22.7244 30.5105 22.5082 30.3511 22.3488C30.1917 22.1894 29.9755 22.0999 29.75 22.0999H4.25002Z" fill="white"/>
</svg>
