<svg width="30" height="26" viewBox="0 0 30 26" fill="none" xmlns="http://www.w3.org/2000/svg">
    <path d="M18.9871 4.3906C18.9871 3.32722 18.5646 2.30739 17.8127 1.55546C17.0608 0.803532 16.0409 0.381104 14.9776 0.381104C13.9142 0.381104 12.8943 0.803532 12.1424 1.55546C11.3905 2.30739 10.9681 3.32722 10.9681 4.3906C10.9681 5.45399 11.3905 6.47382 12.1424 7.22575C12.8943 7.97768 13.9142 8.4001 14.9776 8.4001C16.0409 8.4001 17.0608 7.97768 17.8127 7.22575C18.5646 6.47382 18.9871 5.45399 18.9871 4.3906Z" fill="white" fill-opacity="0.3"/>
    <path d="M1.52895 16.6001H6.90915V11.2253L6.92355 10.9013C6.97035 10.3667 7.13595 9.86629 7.39155 9.42529H2.42895L2.21835 9.43789C1.7805 9.48948 1.37681 9.69996 1.08384 10.0294C0.790873 10.3589 0.62901 10.7844 0.628952 11.2253V15.7001C0.628952 15.9388 0.723773 16.1677 0.892556 16.3365C1.06134 16.5053 1.29026 16.6001 1.52895 16.6001Z" fill="white" fill-opacity="0.3"/>
    <path d="M29.3821 15.7001C29.3821 15.9388 29.2873 16.1677 29.1185 16.3365C28.9497 16.5053 28.7208 16.6001 28.4821 16.6001H23.0533V11.2253L23.0425 10.9571C23.0032 10.4174 22.842 9.89364 22.5709 9.42529H27.5821C28.0233 9.4254 28.449 9.58752 28.7785 9.88085C29.108 10.1742 29.3183 10.5783 29.3695 11.0165L29.3821 11.2253V15.7001Z" fill="white" fill-opacity="0.3"/>
    <path d="M21.2406 11.0165C21.1894 10.578 20.9788 10.1736 20.6489 9.88025C20.319 9.58688 19.8928 9.42496 19.4514 9.42529H10.509L10.2984 9.43789C9.86052 9.48948 9.45682 9.69996 9.16386 10.0294C8.87089 10.3589 8.70903 10.7844 8.70897 11.2253V16.6001H21.2514V11.2253L21.2406 11.0165Z" fill="white" fill-opacity="0.3"/>
    <path d="M23.9551 1.5105C24.8686 1.5105 25.7446 1.87338 26.3906 2.51931C27.0365 3.16524 27.3994 4.04131 27.3994 4.9548C27.3994 5.86828 27.0365 6.74435 26.3906 7.39028C25.7446 8.03622 24.8686 8.3991 23.9551 8.3991C23.0416 8.3991 22.1655 8.03622 21.5196 7.39028C20.8737 6.74435 20.5108 5.86828 20.5108 4.9548C20.5108 4.04131 20.8737 3.16524 21.5196 2.51931C22.1655 1.87338 23.0416 1.5105 23.9551 1.5105Z" fill="white" fill-opacity="0.3"/>
    <path d="M9.47408 4.95407C9.47408 4.04058 9.1112 3.16451 8.46527 2.51858C7.81934 1.87265 6.94327 1.50977 6.02978 1.50977C5.11629 1.50977 4.24022 1.87265 3.59429 2.51858C2.94836 3.16451 2.58548 4.04058 2.58548 4.95407C2.58548 5.86731 2.94827 6.74315 3.59403 7.38892C4.23979 8.03468 5.11563 8.39747 6.02888 8.39747C6.94213 8.39747 7.81797 8.03468 8.46373 7.38892C9.10949 6.74315 9.47228 5.86731 9.47228 4.95407H9.47408Z" fill="white" fill-opacity="0.3"/>
    <path d="M1.50006 18.3999C1.26136 18.3999 1.03245 18.4947 0.863664 18.6635C0.694881 18.8323 0.60006 19.0612 0.60006 19.2999V21.0999C0.60006 22.2934 1.07417 23.438 1.91808 24.2819C2.76199 25.1258 3.90658 25.5999 5.10006 25.5999H24.9001C26.0935 25.5999 27.2381 25.1258 28.082 24.2819C28.926 23.438 29.4001 22.2934 29.4001 21.0999V19.2999C29.4001 19.0612 29.3052 18.8323 29.1365 18.6635C28.9677 18.4947 28.7388 18.3999 28.5001 18.3999H1.50006Z" fill="white" fill-opacity="0.3"/>
</svg>