<svg width="34" height="26" viewBox="0 0 34 26" fill="none" xmlns="http://www.w3.org/2000/svg">
<path d="M14.8751 25.75C14.8751 25.75 12.7501 25.75 12.7501 23.625C12.7501 21.5 14.8751 15.125 23.3751 15.125C31.8751 15.125 34.0001 21.5 34.0001 23.625C34.0001 25.75 31.8751 25.75 31.8751 25.75H14.8751ZM23.3751 13C25.0658 13 26.6873 12.3284 27.8829 11.1328C29.0784 9.93726 29.7501 8.31575 29.7501 6.625C29.7501 4.93425 29.0784 3.31274 27.8829 2.11719C26.6873 0.92165 25.0658 0.25 23.3751 0.25C21.6843 0.25 20.0628 0.92165 18.8673 2.11719C17.6717 3.31274 17.0001 4.93425 17.0001 6.625C17.0001 8.31575 17.6717 9.93726 18.8673 11.1328C20.0628 12.3284 21.6843 13 23.3751 13Z" fill="white" fill-opacity="0.3"/>
<path fill-rule="evenodd" clip-rule="evenodd" d="M11.0841 25.7499C10.769 25.0865 10.6119 24.3592 10.6251 23.6249C10.6251 20.7456 12.0701 17.7812 14.7391 15.7199C13.4069 15.3095 12.019 15.1087 10.6251 15.1249C2.12506 15.1249 6.10352e-05 21.4999 6.10352e-05 23.6249C6.10352e-05 25.7499 2.12506 25.7499 2.12506 25.7499H11.0841Z" fill="white" fill-opacity="0.3"/>
<path d="M9.56256 13C10.9715 13 12.3228 12.4403 13.3191 11.444C14.3154 10.4477 14.8751 9.09646 14.8751 7.6875C14.8751 6.27854 14.3154 4.92728 13.3191 3.931C12.3228 2.93471 10.9715 2.375 9.56256 2.375C8.1536 2.375 6.80234 2.93471 5.80606 3.931C4.80977 4.92728 4.25006 6.27854 4.25006 7.6875C4.25006 9.09646 4.80977 10.4477 5.80606 11.444C6.80234 12.4403 8.1536 13 9.56256 13Z" fill="white" fill-opacity="0.3"/>
</svg>
