<svg width="34" height="34" viewBox="0 0 34 34" fill="none" xmlns="http://www.w3.org/2000/svg">
<path d="M2.83333 19.2222C3.22685 19.2222 3.50231 19.0648 3.65972 18.75C3.81713 18.4352 3.81713 18.1204 3.65972 17.8056C3.50231 17.4907 3.22685 17.3333 2.83333 17.3333C2.43981 17.3333 2.16435 17.4907 2.00694 17.8056C1.84954 18.1204 1.84954 18.4352 2.00694 18.75C2.16435 19.0648 2.43981 19.2222 2.83333 19.2222ZM24.5703 18.3663C24.4719 18.2384 24.2826 17.9925 24.0022 17.6285C23.7218 17.2645 23.5177 16.9988 23.3898 16.8316C23.2619 16.6644 23.0749 16.4233 22.829 16.1085C22.583 15.7937 22.374 15.533 22.2018 15.3264C22.0297 15.1198 21.8304 14.8886 21.6042 14.6328C21.3779 14.377 21.1565 14.136 20.9401 13.9097L19.0955 15.9757C18.2789 16.9005 17.2533 17.353 16.0187 17.3333C14.784 17.3137 13.7731 16.8316 12.9861 15.8872C12.4253 15.2083 12.1474 14.4311 12.1523 13.5556C12.1573 12.68 12.445 11.9077 13.0156 11.2387L15.6276 8.19878C15.4112 8.09057 15.1603 8.0094 14.875 7.9553C14.5897 7.90119 14.356 7.87167 14.174 7.86675C13.992 7.86183 13.7141 7.86429 13.3403 7.87413C12.9664 7.88397 12.7254 7.88889 12.6172 7.88889C11.7121 7.88889 10.9349 8.21354 10.2856 8.86285L7.95399 11.1944H5.66667V19.2222C5.71586 19.2222 5.81915 19.2198 5.97656 19.2148C6.13397 19.2099 6.24219 19.2099 6.30122 19.2148C6.36024 19.2198 6.45616 19.2296 6.58898 19.2444C6.72179 19.2591 6.82263 19.2812 6.89149 19.3108C6.96036 19.3403 7.04644 19.3821 7.14974 19.4362C7.25304 19.4903 7.34404 19.5567 7.42274 19.6354L11.8056 23.9444C12.9369 25.0365 14.0535 25.5825 15.1554 25.5825C15.9227 25.5825 16.5376 25.3513 17 24.8889C17.5608 25.0856 18.1141 25.0463 18.6602 24.7708C19.2062 24.4954 19.5628 24.0773 19.73 23.5165C20.458 23.5755 21.0828 23.3591 21.6042 22.8672C21.8009 22.6901 21.978 22.4663 22.1354 22.1957C22.2928 21.9252 22.3617 21.6768 22.342 21.4505C22.4404 21.5489 22.6519 21.5981 22.9766 21.5981C23.3996 21.5981 23.7784 21.4948 24.1128 21.2882C24.4473 21.0816 24.6908 20.8209 24.8433 20.5061C24.9958 20.1913 25.0548 19.8396 25.0204 19.451C24.986 19.0624 24.8359 18.7008 24.5703 18.3663ZM26.9167 19.2222H28.3333V11.6667H26.9609L24.6441 9.01042C23.9948 8.26273 23.1635 7.88889 22.1502 7.88889H19.6858C18.8102 7.88889 18.092 8.21846 17.5312 8.8776L14.447 12.4635C14.1716 12.7882 14.0339 13.1571 14.0339 13.5703C14.0339 13.9835 14.1667 14.3524 14.4323 14.6771C14.8553 15.1788 15.3964 15.4346 16.0556 15.4444C16.7147 15.4543 17.2607 15.2133 17.6936 14.7214L20.5417 11.5043C20.7876 11.2781 21.0508 11.1723 21.3312 11.1871C21.6115 11.2018 21.8427 11.3346 22.0247 11.5855C22.2067 11.8364 22.2486 12.1143 22.1502 12.4193C22.3076 12.6062 22.583 12.9161 22.9766 13.349C23.3701 13.7818 23.6652 14.1163 23.862 14.3524C24.1473 14.7066 24.5531 15.2255 25.0794 15.9093C25.6058 16.593 25.923 17.0087 26.0312 17.1562C26.5428 17.8056 26.838 18.4942 26.9167 19.2222ZM31.1667 19.2222C31.5602 19.2222 31.8356 19.0648 31.9931 18.75C32.1505 18.4352 32.1505 18.1204 31.9931 17.8056C31.8356 17.4907 31.5602 17.3333 31.1667 17.3333C30.7731 17.3333 30.4977 17.4907 30.3403 17.8056C30.1829 18.1204 30.1829 18.4352 30.3403 18.75C30.4977 19.0648 30.7731 19.2222 31.1667 19.2222ZM34 10.7222V20.1667C34 20.4225 33.9065 20.6438 33.7196 20.8307C33.5327 21.0176 33.3113 21.1111 33.0556 21.1111H26.651C26.3854 21.7506 25.9821 22.2745 25.441 22.6827C24.8999 23.091 24.285 23.3443 23.5964 23.4427C23.2717 23.9149 22.8757 24.3158 22.4084 24.6454C21.9411 24.975 21.4369 25.1988 20.8958 25.3168C20.4826 25.8383 19.9686 26.2391 19.3537 26.5195C18.7389 26.7999 18.1068 26.9204 17.4575 26.8811C16.8672 27.2156 16.2474 27.4099 15.5981 27.464C14.9488 27.5181 14.3216 27.4492 13.7166 27.2574C13.1115 27.0655 12.536 26.8024 11.99 26.4679C11.444 26.1334 10.9349 25.735 10.4627 25.2726L6.22743 21.1111H0.944444C0.688657 21.1111 0.467303 21.0176 0.280382 20.8307C0.0934606 20.6438 0 20.4225 0 20.1667V10.25C0 9.99421 0.0934606 9.77286 0.280382 9.58594C0.467303 9.39902 0.688657 9.30556 0.944444 9.30556H7.15712C7.29485 9.16782 7.52604 8.93171 7.85069 8.59722C8.17535 8.26273 8.409 8.02662 8.55165 7.88889C8.6943 7.75116 8.91074 7.5544 9.20095 7.29861C9.49117 7.04282 9.73958 6.85836 9.94618 6.74523C10.1528 6.63209 10.4036 6.50666 10.6988 6.36892C10.9939 6.23119 11.2989 6.13527 11.6137 6.08116C11.9285 6.02705 12.263 6 12.6172 6H14.3438C15.3177 6 16.208 6.27546 17.0148 6.82639C17.8215 6.27546 18.7118 6 19.6858 6H22.1502C22.4945 6 22.8241 6.02951 23.1389 6.08854C23.4537 6.14757 23.7316 6.21889 23.9727 6.30252C24.2137 6.38614 24.467 6.51649 24.7326 6.69358C24.9983 6.87066 25.2172 7.02315 25.3893 7.15104C25.5615 7.27894 25.773 7.47323 26.0239 7.73394C26.2747 7.99465 26.4666 8.20124 26.5994 8.35373C26.7322 8.50622 26.9339 8.74233 27.2044 9.06207C27.475 9.3818 27.6791 9.62037 27.8168 9.77778H33.0556C33.3113 9.77778 33.5327 9.87124 33.7196 10.0582C33.9065 10.2451 34 10.4664 34 10.7222Z" fill="white"/>
</svg>
