<svg width="38" height="38" viewBox="0 0 38 38" fill="none" xmlns="http://www.w3.org/2000/svg">
<path d="M19.0001 3.16675C10.2601 3.16675 3.16672 10.2601 3.16672 19.0001C3.16672 27.7401 10.2601 34.8334 19.0001 34.8334C27.7401 34.8334 34.8334 27.7401 34.8334 19.0001C34.8334 10.2601 27.7401 3.16675 19.0001 3.16675ZM19.0951 30.0834V26.9009H19.0001C16.9734 26.9009 14.9467 26.1251 13.3951 24.5893C12.1063 23.2991 11.3018 21.6041 11.1172 19.7899C10.9326 17.9757 11.3792 16.1533 12.3817 14.6301L14.1234 16.3717C12.9992 18.4776 13.2842 21.1376 15.0576 22.9109C16.1659 24.0193 17.6226 24.5417 19.0792 24.5101V21.1217L23.5601 25.6026L19.0951 30.0834ZM25.6026 23.3701L23.8609 21.6284C24.9851 19.5226 24.7001 16.8626 22.9267 15.0892C22.4127 14.571 21.801 14.16 21.1269 13.8801C20.4529 13.6001 19.7299 13.4568 19.0001 13.4584H18.9051V16.8626L14.4242 12.3976L18.9051 7.91675V11.1151C20.9634 11.0834 23.0376 11.8276 24.6051 13.4109C27.2967 16.1026 27.6292 20.2984 25.6026 23.3701Z" fill="white" fill-opacity="0.3"/>
</svg>
