<svg width="24" height="24" viewBox="0 0 24 24" fill="none" xmlns="http://www.w3.org/2000/svg">
<path d="M12.8438 15.25H7.6875C7.50516 15.25 7.3303 15.1776 7.20136 15.0486C7.07243 14.9197 7 14.7448 7 14.5625V7.6875C7 7.50516 7.07243 7.3303 7.20136 7.20136C7.3303 7.07243 7.50516 7 7.6875 7H17.3125C17.4948 7 17.6697 7.07243 17.7986 7.20136C17.9276 7.3303 18 7.50516 18 7.6875V11.2522C17.542 10.6689 16.8759 10.2858 16.1415 10.1833C15.407 10.0808 14.6614 10.2668 14.0612 10.7024C13.4611 11.1379 13.053 11.7891 12.9228 12.5191C12.7926 13.2492 12.9503 14.0013 13.3628 14.6175L13.0431 15.0094L12.8438 15.25ZM8.71875 9.0625V9.6125H14.5625V9.0625H8.71875ZM8.71875 10.9875H12.5V10.4375H8.71875V10.9875ZM8.71875 13.3937H12.1562V12.8437H8.71875V13.3937Z" fill="white"/>
<path d="M17.9415 13.0466C17.9424 12.6841 17.8534 12.3271 17.6823 12.0076C17.5112 11.688 17.2635 11.4159 16.9614 11.2157C16.6593 11.0155 16.3121 10.8934 15.9512 10.8604C15.5903 10.8274 15.2268 10.8845 14.8933 11.0266C14.5599 11.1687 14.267 11.3914 14.0408 11.6746C13.8146 11.9578 13.6623 12.2928 13.5974 12.6494C13.5326 13.006 13.5573 13.3731 13.6694 13.7178C13.7814 14.0625 13.9772 14.374 14.2393 14.6244L13.5724 15.4391L13.8818 16.68L15.1399 15.1469C15.5382 15.2646 15.962 15.2646 16.3603 15.1469L17.6184 16.68L17.9278 15.4391L17.2609 14.6244C17.4753 14.4212 17.6463 14.1766 17.7633 13.9054C17.8803 13.6341 17.9409 13.342 17.9415 13.0466V13.0466ZM14.2496 13.0466C14.2455 12.7486 14.3301 12.4562 14.4927 12.2064C14.6553 11.9567 14.8884 11.761 15.1625 11.6441C15.4366 11.5272 15.7393 11.4945 16.032 11.5501C16.3248 11.6058 16.5944 11.7472 16.8065 11.9564C17.0187 12.1657 17.1638 12.4333 17.2235 12.7252C17.2831 13.0171 17.2546 13.3202 17.1415 13.5959C17.0285 13.8716 16.836 14.1075 16.5885 14.2735C16.341 14.4394 16.0498 14.5281 15.7518 14.5281C15.357 14.529 14.9779 14.3738 14.6971 14.0962C14.4163 13.8187 14.2567 13.4414 14.2531 13.0466H14.2496Z" fill="white"/>
</svg>
