<svg width="34" height="34" viewBox="0 0 34 34" fill="none" xmlns="http://www.w3.org/2000/svg">
<path d="M17.9445 28.3334H3.77781C3.27684 28.3334 2.79639 28.1344 2.44216 27.7802C2.08792 27.4259 1.88892 26.9455 1.88892 26.4445V7.55564C1.88892 7.05467 2.08792 6.57423 2.44216 6.21999C2.79639 5.86576 3.27684 5.66675 3.77781 5.66675H30.2223C30.7232 5.66675 31.2037 5.86576 31.5579 6.21999C31.9121 6.57423 32.1111 7.05467 32.1111 7.55564V17.3495C30.8529 15.747 29.0227 14.6944 27.0049 14.4127C24.987 14.131 22.9385 14.6422 21.2895 15.8389C19.6406 17.0356 18.5195 18.8247 18.1616 20.8304C17.8038 22.8362 18.2371 24.9026 19.3706 26.5956L18.4923 27.6723L17.9445 28.3334ZM6.61114 11.3334V12.8445H22.6667V11.3334H6.61114ZM6.61114 16.6223H17V15.1112H6.61114V16.6223ZM6.61114 23.2334H16.0556V21.7223H6.61114V23.2334Z" fill="white"/>
<path d="M31.9505 22.2794C31.9531 21.2836 31.7084 20.3027 31.2384 19.4248C30.7684 18.5468 30.0878 17.7993 29.2577 17.2492C28.4276 16.6991 27.4739 16.3637 26.4822 16.273C25.4905 16.1824 24.4919 16.3393 23.5758 16.7297C22.6597 17.1201 21.8548 17.7319 21.2334 18.51C20.612 19.2882 20.1934 20.2084 20.0153 21.1882C19.8372 22.1679 19.9051 23.1766 20.2129 24.1237C20.5207 25.0707 21.0588 25.9266 21.7789 26.6144L19.9467 28.8528L20.7967 32.2622L24.2533 28.05C25.3475 28.3735 26.5119 28.3735 27.6061 28.05L31.0628 32.2622L31.9128 28.8528L30.0805 26.6144C30.6698 26.0563 31.1394 25.3842 31.4608 24.639C31.7823 23.8938 31.9489 23.091 31.9505 22.2794ZM21.8072 22.2794C21.796 21.4608 22.0284 20.6574 22.4751 19.9712C22.9217 19.2851 23.5623 18.7473 24.3153 18.4262C25.0684 18.1051 25.9 18.0153 26.7043 18.1681C27.5086 18.3208 28.2493 18.7094 28.8322 19.2843C29.4151 19.8591 29.8138 20.5944 29.9777 21.3965C30.1416 22.1986 30.0633 23.0313 29.7526 23.7888C29.442 24.5463 28.9131 25.1942 28.2332 25.6503C27.5533 26.1063 26.7531 26.3499 25.9344 26.35C24.8497 26.3525 23.808 25.926 23.0366 25.1634C22.2652 24.4008 21.8266 23.3641 21.8167 22.2794H21.8072Z" fill="white"/>
</svg>
