<svg width="34" height="34" viewBox="0 0 34 34" fill="none" xmlns="http://www.w3.org/2000/svg">
<path d="M17 2.83325C9.18004 2.83325 2.83337 9.17992 2.83337 16.9999C2.83337 24.8199 9.18004 31.1666 17 31.1666C24.82 31.1666 31.1667 24.8199 31.1667 16.9999C31.1667 9.17992 24.82 2.83325 17 2.83325ZM17.085 26.9166V24.0691H17C15.1867 24.0691 13.3734 23.3749 11.985 22.0008C10.8319 20.8464 10.1121 19.3298 9.94695 17.7066C9.78179 16.0834 10.1814 14.4528 11.0784 13.0899L12.6367 14.6483C11.6309 16.5324 11.8859 18.9124 13.4725 20.4991C14.4642 21.4908 15.7675 21.9583 17.0709 21.9299V18.8983L21.08 22.9074L17.085 26.9166ZM22.9075 20.9099L21.3492 19.3516C22.355 17.4674 22.1 15.0874 20.5134 13.5008C20.0535 13.0371 19.5061 12.6693 18.903 12.4189C18.2999 12.1684 17.6531 12.0401 17 12.0416H16.915V15.0874L12.9059 11.0924L16.915 7.08325V9.94492C18.7567 9.91659 20.6125 10.5824 22.015 11.9991C24.4234 14.4074 24.7209 18.1616 22.9075 20.9099V20.9099Z" fill="white"/>
</svg>
