<svg width="24" height="24" viewBox="0 0 24 24" fill="none" xmlns="http://www.w3.org/2000/svg">
<path d="M12 7C9.24 7 7 9.24 7 12C7 14.76 9.24 17 12 17C14.76 17 17 14.76 17 12C17 9.24 14.76 7 12 7ZM12.03 15.5V14.495H12C11.36 14.495 10.72 14.25 10.23 13.765C9.82302 13.3576 9.56897 12.8223 9.51067 12.2494C9.45238 11.6765 9.59342 11.101 9.91 10.62L10.46 11.17C10.105 11.835 10.195 12.675 10.755 13.235C11.105 13.585 11.565 13.75 12.025 13.74V12.67L13.44 14.085L12.03 15.5ZM14.085 13.38L13.535 12.83C13.89 12.165 13.8 11.325 13.24 10.765C13.0777 10.6014 12.8845 10.4716 12.6716 10.3832C12.4588 10.2947 12.2305 10.2495 12 10.25H11.97V11.325L10.555 9.915L11.97 8.5V9.51C12.62 9.5 13.275 9.735 13.77 10.235C14.62 11.085 14.725 12.41 14.085 13.38V13.38Z" fill="white"/>
</svg>
