<svg width="32" height="26" viewBox="0 0 32 26" fill="none" xmlns="http://www.w3.org/2000/svg">
<path d="M28.6667 0.333252H3.33335C1.58694 0.333252 0.166687 1.7535 0.166687 3.49992V22.4999C0.166687 24.2463 1.58694 25.6666 3.33335 25.6666H28.6667C30.4131 25.6666 31.8334 24.2463 31.8334 22.4999V3.49992C31.8334 1.7535 30.4131 0.333252 28.6667 0.333252ZM10.7988 6.66658C12.6212 6.66658 13.9654 8.01083 13.9654 9.83325C13.9654 11.6557 12.6212 12.9999 10.7988 12.9999C8.97635 12.9999 7.6321 11.6557 7.6321 9.83325C7.6321 8.01083 8.97477 6.66658 10.7988 6.66658ZM16.6809 19.3333H4.91669V18.597C4.91669 16.4231 7.57035 14.1874 10.7988 14.1874C14.0272 14.1874 16.6809 16.4231 16.6809 18.597V19.3333ZM27.0834 17.7499H20.75V14.5833H27.0834V17.7499ZM27.0834 11.4166H19.1667V8.24992H27.0834V11.4166Z" fill="white"/>
</svg>
