<svg width="32" height="24" viewBox="0 0 32 24" fill="none" xmlns="http://www.w3.org/2000/svg">
<path d="M16.9444 23.3334H2.77777C2.27681 23.3334 1.79636 23.1344 1.44213 22.7802C1.08789 22.4259 0.888885 21.9455 0.888885 21.4445V2.55564C0.888885 2.05467 1.08789 1.57423 1.44213 1.21999C1.79636 0.865755 2.27681 0.666748 2.77777 0.666748H29.2222C29.7232 0.666748 30.2036 0.865755 30.5579 1.21999C30.9121 1.57423 31.1111 2.05467 31.1111 2.55564V12.3495C29.8529 10.747 28.0227 9.6944 26.0048 9.41272C23.987 9.13104 21.9384 9.64222 20.2895 10.8389C18.6405 12.0356 17.5194 13.8247 17.1616 15.8304C16.8038 17.8362 17.2371 19.9026 18.3706 21.5956L17.4922 22.6723L16.9444 23.3334ZM5.61111 6.33341V7.84453H21.6667V6.33341H5.61111ZM5.61111 11.6223H16V10.1112H5.61111V11.6223ZM5.61111 18.2334H15.0556V16.7223H5.61111V18.2334Z" fill="white" fill-opacity="0.3"/>
</svg>
