<svg width="36" height="16" viewBox="0 0 36 16" fill="none" xmlns="http://www.w3.org/2000/svg">
<path d="M18 0.347168H10.0833L5.33334 4.3055H3.75001C1.99251 4.3055 0.583344 5.71467 0.583344 7.47217V12.2222H4.01918C4.70001 14.1222 6.48918 15.3888 8.50001 15.3888C10.5108 15.3888 12.3 14.1222 12.965 12.2222H23.0192C23.7 14.1222 25.4892 15.3888 27.5 15.3888C29.5108 15.3888 31.3 14.1222 31.965 12.2222H35.4167V10.6388C35.4167 8.88133 33.7858 8.31133 32.25 7.47217L18 0.347168ZM7.31251 5.88883L10.875 2.72217H17.2083L23.5417 5.88883H7.31251ZM8.50001 8.26383C9.1299 8.26383 9.73399 8.51406 10.1794 8.95945C10.6248 9.40485 10.875 10.0089 10.875 10.6388C10.875 11.2687 10.6248 11.8728 10.1794 12.3182C9.73399 12.7636 9.1299 13.0138 8.50001 13.0138C7.87012 13.0138 7.26603 12.7636 6.82063 12.3182C6.37523 11.8728 6.12501 11.2687 6.12501 10.6388C6.12501 10.0089 6.37523 9.40485 6.82063 8.95945C7.26603 8.51406 7.87012 8.26383 8.50001 8.26383ZM27.5 8.26383C28.1299 8.26383 28.734 8.51406 29.1794 8.95945C29.6248 9.40485 29.875 10.0089 29.875 10.6388C29.875 11.2687 29.6248 11.8728 29.1794 12.3182C28.734 12.7636 28.1299 13.0138 27.5 13.0138C26.8701 13.0138 26.266 12.7636 25.8206 12.3182C25.3752 11.8728 25.125 11.2687 25.125 10.6388C25.125 10.0089 25.3752 9.40485 25.8206 8.95945C26.266 8.51406 26.8701 8.26383 27.5 8.26383Z" fill="white" fill-opacity="0.3"/>
</svg>
