<svg width="31" height="30" viewBox="0 0 31 30" fill="none" xmlns="http://www.w3.org/2000/svg">
<path d="M29.115 14.115L15.87 0.87C15.315 0.315 14.55 0 13.755 0H3.00005C1.35005 0 4.57764e-05 1.35 4.57764e-05 3V13.755C4.57764e-05 14.55 0.315046 15.315 0.885045 15.87L14.13 29.115C15.3 30.285 17.205 30.285 18.375 29.115L29.13 18.36C30.3 17.19 30.3 15.3 29.115 14.115ZM6.75004 9C5.50504 9 4.50004 7.995 4.50004 6.75C4.50004 5.505 5.50504 4.5 6.75004 4.5C7.99504 4.5 9.00004 5.505 9.00004 6.75C9.00004 7.995 7.99504 9 6.75004 9Z" fill="white" fill-opacity="0.3"/>
</svg>
