<svg width="47" height="35" viewBox="0 0 47 35" fill="none" xmlns="http://www.w3.org/2000/svg">
<path d="M33 15.938V24.7686C33 30.4102 28.7036 35 23.4227 35H21.5773C16.2963 35 12 30.4102 12 24.7686V15.938H33ZM19.6103 9.88607V5.90539C19.6103 4.49704 20.4987 3.30851 21.7074 2.93915V0H21.5774C16.2963 0 12 4.58985 12 10.2314V14.2444H21.7073V12.8523C20.4985 12.483 19.6103 11.2944 19.6103 9.88607ZM23.8044 9.88607V5.90539C23.8044 5.13686 23.2193 4.51178 22.4999 4.51178C21.7805 4.51178 21.1954 5.13686 21.1954 5.90539V9.88624C21.1954 10.6546 21.7805 11.2799 22.4999 11.2799C23.2193 11.2799 23.8044 10.6546 23.8044 9.88607ZM23.4227 0H23.2927V2.93915C24.5015 3.30851 25.3899 4.49704 25.3899 5.90539V9.88624C25.3899 11.2946 24.5015 12.4831 23.2927 12.8523V14.2444H33V10.2314C33 4.58985 28.7036 0 23.4227 0Z" fill="white"/>
<path d="M37.6554 15.9167H41.7622L39.604 13.9958C39.348 13.768 39.348 13.3986 39.604 13.1708C39.8599 12.9431 40.2749 12.9431 40.5309 13.1708L43.808 16.0875C44.064 16.3153 44.064 16.6846 43.808 16.9125L40.5309 19.8291C40.4028 19.943 40.2351 20 40.0674 20C39.8996 20 39.7319 19.943 39.604 19.8291C39.348 19.6013 39.348 19.232 39.604 19.0042L41.7622 17.0833H37.6554C37.2935 17.0833 37 16.8222 37 16.5C37 16.1778 37.2935 15.9167 37.6554 15.9167Z" fill="white"/>
<path d="M8.34457 15.9167H4.23779L6.39604 13.9958C6.65201 13.768 6.65201 13.3986 6.39604 13.1708C6.14012 12.9431 5.7251 12.9431 5.46913 13.1708L2.19198 16.0875C1.93601 16.3153 1.93601 16.6846 2.19198 16.9125L5.46913 19.8291C5.59716 19.943 5.76486 20 5.93261 20C6.10035 20 6.2681 19.943 6.39604 19.8291C6.65201 19.6013 6.65201 19.232 6.39604 19.0042L4.23779 17.0833H8.34457C8.70654 17.0833 9 16.8222 9 16.5C9 16.1778 8.70654 15.9167 8.34457 15.9167Z" fill="white"/>
</svg>
