<svg width="35" height="35" viewBox="0 0 35 35" fill="none" xmlns="http://www.w3.org/2000/svg">
<path d="M9.89592 22.7933C12.401 23.335 14.9592 23.5919 17.5219 23.5593C20.0847 23.5919 22.6429 23.335 25.148 22.7933C27.3526 22.2594 28.7149 21.4067 28.7149 20.3945C28.7149 10.1133 25.4807 7.63135 22.2432 7.63135C20.0871 7.63481 18.0038 8.77178 16.8703 9.3888C16.586 9.54479 16.3711 9.66264 16.2706 9.69731C15.605 9.94689 14.6587 9.8013 13.6673 9.64878C12.9613 9.52069 12.246 9.44998 11.5286 9.43733C8.73122 9.46159 6.24929 11.0908 6.32902 20.3945C6.32902 21.4344 7.6913 22.2629 9.89592 22.7933Z" fill="black"/>
<path d="M33.0138 20.3805C31.9266 19.8683 30.7862 19.4776 29.6133 19.2158V20.3944C29.6133 22.4118 26.9199 23.3131 25.3392 23.6944C22.7691 24.2576 20.1429 24.5239 17.5121 24.4882C14.8767 24.525 12.2458 24.2586 9.67119 23.6944C8.09052 23.3131 5.37982 22.4118 5.37982 20.3944C5.37982 20.3736 5.37982 20.3528 5.37982 20.3355C5.37982 19.9888 5.37982 19.6006 5.37982 19.2193C4.20922 19.4814 3.07112 19.872 1.98623 20.384C0.714073 21.0253 0 21.8017 0 22.6891C0 24.1346 2.07983 25.3583 5.41101 26.1555C8.53075 26.9043 12.784 27.3688 17.4879 27.3688C22.1917 27.3688 26.4866 26.9077 29.589 26.1694C32.934 25.3617 35 24.1381 35 22.703C35 21.8017 34.2894 21.0218 33.0138 20.3805Z" fill="black"/>
</svg>
