<svg width="35" height="35" viewBox="0 0 35 35" fill="none" xmlns="http://www.w3.org/2000/svg">
<path d="M6.28906 7.73828C5.46191 8.62695 4.84668 9.68652 4.47754 10.8418C4.28613 11.457 4.1084 12.0791 3.95117 12.708L6.30957 12.8447C6.35742 12.5576 6.49414 12.2979 6.70605 12.1064C6.44629 11.8672 6.2959 11.5254 6.2959 11.1699V7.73828H6.28906Z" fill="black"/>
<path d="M1.59277 32.4434L4.95606 32.6211L5.31836 30.6934L1.75684 30.4883L1.59277 32.4434Z" fill="black"/>
<path d="M6.97266 19.0723V23.2285C6.97266 23.5566 7.23926 23.8232 7.56738 23.8232H17.1514V18.4707H7.56738C7.23926 18.4775 6.97266 18.7441 6.97266 19.0723Z" fill="black"/>
<path d="M17.1514 12.4414H7.56738C7.23926 12.4414 6.97266 12.708 6.97266 13.0361V17.1924C6.97266 17.5205 7.23926 17.7871 7.56738 17.7871H17.1514V12.4414Z" fill="black"/>
<path d="M1.49023 29.791L5.85156 30.0439L6.28906 28.6494V25.9287L2.02344 25.6826L1.49023 29.791Z" fill="black"/>
<path d="M6.28906 13.5215L3.78711 13.3779C3.54102 14.4443 3.34961 15.5176 3.20605 16.5977L2.91211 18.8535L6.28906 19.0518C6.2959 18.7031 6.44629 18.375 6.69922 18.1358C6.43945 17.8965 6.28906 17.5547 6.28906 17.1992V13.5215Z" fill="black"/>
<path d="M6.28906 19.7354L2.82324 19.5371L2.1123 25.0059L6.28223 25.2451V25.1084C6.28223 24.7529 6.43262 24.4111 6.69238 24.1719C6.43262 23.9326 6.28223 23.5908 6.28223 23.2354V19.7354H6.28906Z" fill="black"/>
<path d="M7.56738 11.7578H17.1514V8.44922L12.667 5.19531C12.5781 5.13379 12.5234 5.03125 12.5234 4.92188V4.38867C10.9375 4.73047 9.38574 5.22949 7.90234 5.87891L7.24609 6.16602C7.0752 6.24121 6.96582 6.40527 6.96582 6.58984V11.1631C6.97266 11.4912 7.23926 11.7578 7.56738 11.7578Z" fill="black"/>
<path d="M32.0742 18.8535L31.7803 16.5976C31.6436 15.5176 31.4453 14.4375 31.1992 13.3779L28.6973 13.5215V17.1924C28.6973 17.5478 28.5469 17.8896 28.2871 18.1289C28.54 18.3682 28.6904 18.6963 28.6973 19.0449L32.0742 18.8535Z" fill="black"/>
<path d="M31.0352 12.7012C30.8779 12.0723 30.7002 11.4502 30.5088 10.835C30.1465 9.67969 29.5244 8.62012 28.6973 7.73828V11.1631C28.6973 11.5186 28.5469 11.8604 28.2871 12.0996C28.499 12.2979 28.6357 12.5576 28.6836 12.8379L31.0352 12.7012Z" fill="black"/>
<path d="M21.1299 1.77734H13.8564L17.4932 4.62109L21.1299 1.77734Z" fill="black"/>
<path d="M17.1514 5.22266L13.207 2.13965V4.75098L17.1514 7.6084V5.22266Z" fill="black"/>
<path d="M17.835 7.6084L21.7793 4.75098V2.13965L17.835 5.22266V7.6084Z" fill="black"/>
<path d="M17.1514 24.5137H7.56738C7.23926 24.5137 6.97266 24.7803 6.97266 25.1084V29.2646C6.97266 29.5928 7.23926 29.8594 7.56738 29.8594H17.1514V24.5137Z" fill="black"/>
<path d="M27.4189 12.4414H17.835V17.7939H27.4189C27.7471 17.7939 28.0137 17.5273 28.0137 17.1992V13.043C28.0137 12.708 27.7471 12.4414 27.4189 12.4414Z" fill="black"/>
<path d="M27.4189 18.4775H17.835V23.8301H27.4189C27.7471 23.8301 28.0137 23.5635 28.0137 23.2354V19.0723C28.0137 18.7441 27.7471 18.4775 27.4189 18.4775Z" fill="black"/>
<path d="M27.7402 6.16602L27.084 5.87891C25.6006 5.22949 24.0488 4.73047 22.4629 4.39551V4.92187C22.4629 5.03125 22.4082 5.13379 22.3193 5.19531L17.835 8.44922V11.7578H27.4189C27.7471 11.7578 28.0137 11.4912 28.0137 11.1631V6.58984C28.0137 6.40527 27.9043 6.24121 27.7402 6.16602Z" fill="black"/>
<path d="M7.84766 33.2227H27.1387V30.5498H7.84766V33.2227ZM25.4502 31.5205C25.4502 31.3291 25.6006 31.1787 25.792 31.1787C25.9834 31.1787 26.1338 31.3291 26.1338 31.5205V32.1904C26.1338 32.3818 25.9834 32.5322 25.792 32.5322C25.6006 32.5322 25.4502 32.3818 25.4502 32.1904V31.5205ZM23.6045 31.5205C23.6045 31.3291 23.7549 31.1787 23.9463 31.1787C24.1377 31.1787 24.2881 31.3291 24.2881 31.5205V32.1904C24.2881 32.3818 24.1377 32.5322 23.9463 32.5322C23.7549 32.5322 23.6045 32.3818 23.6045 32.1904V31.5205ZM21.7588 31.5205C21.7588 31.3291 21.9092 31.1787 22.1006 31.1787C22.292 31.1787 22.4424 31.3291 22.4424 31.5205V32.1904C22.4424 32.3818 22.292 32.5322 22.1006 32.5322C21.9092 32.5322 21.7588 32.3818 21.7588 32.1904V31.5205ZM19.9199 31.5205C19.9199 31.3291 20.0703 31.1787 20.2617 31.1787C20.4531 31.1787 20.6035 31.3291 20.6035 31.5205V32.1904C20.6035 32.3818 20.4531 32.5322 20.2617 32.5322C20.0703 32.5322 19.9199 32.3818 19.9199 32.1904V31.5205ZM18.0742 31.5205C18.0742 31.3291 18.2246 31.1787 18.416 31.1787C18.6074 31.1787 18.7578 31.3291 18.7578 31.5205V32.1904C18.7578 32.3818 18.6074 32.5322 18.416 32.5322C18.2246 32.5322 18.0742 32.3818 18.0742 32.1904V31.5205ZM16.2285 31.5205C16.2285 31.3291 16.3789 31.1787 16.5703 31.1787C16.7617 31.1787 16.9121 31.3291 16.9121 31.5205V32.1904C16.9121 32.3818 16.7617 32.5322 16.5703 32.5322C16.3789 32.5322 16.2285 32.3818 16.2285 32.1904V31.5205ZM14.3828 31.5205C14.3828 31.3291 14.5332 31.1787 14.7246 31.1787C14.916 31.1787 15.0664 31.3291 15.0664 31.5205V32.1904C15.0664 32.3818 14.916 32.5322 14.7246 32.5322C14.5332 32.5322 14.3828 32.3818 14.3828 32.1904V31.5205ZM12.5371 31.5205C12.5371 31.3291 12.6875 31.1787 12.8789 31.1787C13.0703 31.1787 13.2207 31.3291 13.2207 31.5205V32.1904C13.2207 32.3818 13.0703 32.5322 12.8789 32.5322C12.6875 32.5322 12.5371 32.3818 12.5371 32.1904V31.5205ZM10.6914 31.5205C10.6914 31.3291 10.8418 31.1787 11.0332 31.1787C11.2246 31.1787 11.375 31.3291 11.375 31.5205V32.1904C11.375 32.3818 11.2246 32.5322 11.0332 32.5322C10.8418 32.5322 10.6914 32.3818 10.6914 32.1904V31.5205ZM8.85254 31.5205C8.85254 31.3291 9.00293 31.1787 9.19434 31.1787C9.38574 31.1787 9.53613 31.3291 9.53613 31.5205V32.1904C9.53613 32.3818 9.38574 32.5322 9.19434 32.5322C9.00293 32.5322 8.85254 32.3818 8.85254 32.1904V31.5205Z" fill="black"/>
<path d="M33.3389 30.4814L29.7773 30.6865L30.1396 32.6211L33.5098 32.4434L33.3389 30.4814Z" fill="black"/>
<path d="M32.9561 25.6826L28.6973 25.9287V28.6494L29.1348 30.0439L33.4893 29.791L32.9561 25.6826Z" fill="black"/>
<path d="M28.6973 25.2451L32.8672 25.0059L32.1562 19.5371L28.6904 19.7354V23.2354C28.6904 23.5908 28.54 23.9326 28.2803 24.1719C28.54 24.4111 28.6904 24.7529 28.6904 25.1084V25.2451H28.6973Z" fill="black"/>
<path d="M27.4189 24.5137H17.835V29.8662H27.4189C27.7471 29.8662 28.0137 29.5996 28.0137 29.2715V25.1152C28.0137 24.7803 27.7471 24.5137 27.4189 24.5137Z" fill="black"/>
</svg>
