<svg width="35" height="35" viewBox="0 0 35 35" fill="none" xmlns="http://www.w3.org/2000/svg">
<path d="M25.9375 19.2538L25.2239 19.4918L19.6312 12.2206L21.069 11.1412L25.9375 19.2538ZM9.60449 4.80811L13.1175 6.69381C13.6043 6.95109 13.8479 7.51145 13.7036 8.04313L13.1875 9.78307L9.6 7.63195L8.35749 6.88623L9.60449 4.80811ZM5.90372 10.773L6.22371 10.2732L8.28001 11.8023C9.32645 12.5881 9.86113 13.8824 9.67363 15.1773L9.59572 16.9838L4.0101 13.7642L5.90372 10.773ZM32.5 28.9755H23.3389L1.46387 16.8505L2.72692 14.4757L23.4373 26.3927C23.5326 26.447 23.6405 26.4757 23.75 26.4757H35C35 27.8565 33.8806 28.9755 32.5 28.9755ZM35 25.2257H23.917L19.6302 22.7576L21.0713 21.288C21.3095 21.0382 21.2999 20.6427 21.0499 20.4044C20.805 20.1711 20.4189 20.1752 20.179 20.413L18.5114 22.1131L16.1364 20.7443L18.5182 18.8389C18.7879 18.6232 18.8314 18.2296 18.6156 17.9601C18.3999 17.6904 18.0067 17.6469 17.737 17.8627L14.9726 20.0744L12.9375 18.9042L16.0249 16.3312C16.2905 16.1103 16.3265 15.7161 16.1056 15.4505C15.8849 15.185 15.4904 15.1491 15.225 15.37L11.7824 18.2394L10.8164 17.6831L10.9174 15.2837C11.149 13.5551 10.4245 11.8374 9.02551 10.7963L6.89623 9.21308L7.7006 7.95002L13.2331 11.2694C13.3074 11.3122 13.39 11.3385 13.4752 11.3473C13.49 11.3473 13.5033 11.3524 13.518 11.3537C13.533 11.3548 13.5426 11.358 13.5544 11.358C13.6319 11.3584 13.7085 11.3441 13.7806 11.316L20.1118 8.87446C20.2278 8.83037 20.3575 8.84535 20.46 8.91492C20.5632 8.98555 20.6242 9.10263 20.6231 9.22742V9.91513L18.3733 11.6024C18.0972 11.8098 18.0416 12.2015 18.249 12.4776C18.2505 12.4793 18.2518 12.4813 18.253 12.483L24.503 20.6082C24.6646 20.8197 24.9431 20.9049 25.1955 20.8199L26.9525 20.2343L32.5687 20.6354C33.9356 20.7366 34.9947 21.8726 35 23.2431V25.2257Z" fill="black"/>
</svg>
