<svg width="35" height="35" viewBox="0 0 35 35" fill="none" xmlns="http://www.w3.org/2000/svg">
<path d="M33.9746 14.238H32.9071C32.6123 13.5025 32.2127 12.9755 31.8501 12.6129C30.9321 11.6948 29.8955 11.4413 29.5997 11.3856C28.7002 11.216 27.2583 11.1716 25.807 11.1822C25.8027 11.1821 25.7986 11.1815 25.7942 11.1815C25.7942 11.1815 25.7941 11.1815 25.794 11.1815L9.50236 11.1848C9.50024 11.1848 9.49826 11.1851 9.49621 11.1851C7.94527 11.1659 6.36241 11.2042 5.40032 11.3856C5.10453 11.4413 4.06793 11.6948 3.14993 12.6129C2.78729 12.9756 2.38759 13.5025 2.09289 14.238H1.02539C0.459102 14.238 0 14.6971 0 15.2634C0 15.8297 0.459102 16.2888 1.02539 16.2888H1.66564C1.65901 16.4208 1.65539 16.5563 1.65539 16.6957C1.65539 21.1186 4.62793 23.4638 7.38985 23.7711C7.67778 23.8031 7.96571 23.8189 8.25255 23.8189C10.1267 23.8188 11.9501 23.1437 13.3584 21.907C14.4697 20.9313 15.7621 19.2086 16.2773 16.2887H18.7227C19.2379 19.2085 20.5303 20.9313 21.6416 21.907C23.05 23.1437 24.8732 23.8189 26.7475 23.8189C27.0342 23.8188 27.3224 23.8031 27.6101 23.7711C30.372 23.4638 33.3446 21.1186 33.3446 16.6957C33.3446 16.5563 33.341 16.4208 33.3344 16.2888H33.9746C34.5409 16.2888 35 15.8297 35 15.2634C35 14.6971 34.5409 14.238 33.9746 14.238ZM18.5076 14.238H16.4924C16.4971 14.1178 16.5011 13.9965 16.5035 13.873C16.5076 13.6549 16.482 13.4407 16.4296 13.2342L18.5706 13.2338C18.5181 13.4404 18.4924 13.6548 18.4966 13.8731C18.4989 13.9965 18.5029 14.1178 18.5076 14.238Z" fill="black"/>
</svg>
