<svg width="35" height="35" viewBox="0 0 35 35" fill="none" xmlns="http://www.w3.org/2000/svg">
<g clip-path="url(#clip0)">
<path d="M19.555 11.6531C19.3201 11.6531 19.1114 11.5044 19.0341 11.2831L17.48 6.82861L15.9262 11.2831C15.8745 11.4321 15.7612 11.5518 15.615 11.6118C15.469 11.6719 15.304 11.666 15.1624 11.5961L12.9033 30.0552L17.48 35L22.0567 30.0552L19.7976 11.5961C19.7222 11.6334 19.639 11.6528 19.555 11.6531Z" fill="black"/>
<path d="M18.165 5.44391L19.7502 9.98794L26.1251 2.16981L25.1818 0L18.165 5.44391Z" fill="black"/>
<path d="M16.794 5.44391L9.77727 0L8.83398 2.16981L15.2086 9.98794L16.794 5.44391Z" fill="black"/>
</g>
<defs>
<clipPath id="clip0">
<rect width="35" height="35" fill="white"/>
</clipPath>
</defs>
</svg>
