<svg width="35" height="35" viewBox="0 0 35 35" fill="none" xmlns="http://www.w3.org/2000/svg">
<path d="M13.0498 4.56641V3.62988H10.9648L10.6641 6.37793C10.6572 6.42578 10.6572 6.4668 10.6504 6.51465H11.1016C12.1748 6.51465 13.0498 5.64648 13.0498 4.56641Z" fill="black"/>
<path d="M10.0146 32.1289H12.5029V33.6396H10.0146V32.1289Z" fill="black"/>
<path d="M18.9697 2.94629H24.2334V1.36035H10.999V2.94629H17.5479H18.9697Z" fill="black"/>
<path d="M22.1416 4.56641C22.1416 5.63965 23.0166 6.51465 24.0898 6.51465H24.5479L24.2676 3.62988H22.1416V4.56641Z" fill="black"/>
<path d="M18.6279 7.28027V3.62988H17.8896V8.29883C18.334 8.15527 18.6279 7.74512 18.6279 7.28027Z" fill="black"/>
<path d="M24.6162 7.30078L24.6094 7.19824H24.083C22.6338 7.19824 21.458 6.02246 21.4512 4.56641V3.62988H19.3047V7.27344C19.3047 8.24414 18.5186 9.03711 17.541 9.03711C17.3496 9.03711 17.1992 8.88672 17.1992 8.69531V3.62988H13.7266V4.56641C13.7266 6.01563 12.5508 7.19141 11.0947 7.19824H10.5752C9.74805 15.0664 9.32422 22.9756 9.29688 30.8848V30.9053C9.29688 31.1992 9.53613 31.4453 9.83008 31.4453H12.7559C13.0293 31.4453 13.2549 31.2471 13.2891 30.9736L14.4512 21.8271C14.6426 20.3301 14.9297 18.8467 15.3193 17.3838V17.377L17.1855 11.0264C17.2266 10.8828 17.3633 10.7803 17.5137 10.7803C17.6641 10.7803 17.8008 10.8828 17.8418 11.0264L19.6875 17.5957V17.6025C20.0293 18.9355 20.2822 20.2959 20.46 21.6562L21.6426 30.9668C21.6768 31.2334 21.9023 31.4316 22.1758 31.4385H25.1562C25.4502 31.4385 25.6895 31.1992 25.6963 30.9053C25.7373 23.0303 25.375 15.1484 24.6162 7.30078ZM20.4326 17.7051C20.4121 17.6162 20.3916 17.5342 20.3643 17.4453C20.3164 17.2607 20.4258 17.0762 20.6104 17.0283C20.7949 16.9805 20.9795 17.0898 21.0273 17.2744V17.2813C21.0479 17.3701 21.0752 17.459 21.0957 17.5479C21.1436 17.7324 21.0273 17.917 20.8428 17.9648C20.6582 17.999 20.4736 17.8828 20.4326 17.7051ZM21.5332 21.875C21.3486 21.8955 21.1777 21.7656 21.1504 21.5811C21.0342 20.665 20.877 19.7422 20.6855 18.833C20.6445 18.6484 20.7607 18.4639 20.9453 18.4229C21.1299 18.3818 21.3145 18.498 21.3555 18.6826V18.6895C21.5537 19.6191 21.7109 20.5625 21.8271 21.4922C21.8545 21.6836 21.7246 21.8545 21.5332 21.875Z" fill="black"/>
<path d="M22.4766 32.1289H24.9648V33.6396H22.4766V32.1289Z" fill="black"/>
</svg>
