<svg width="35" height="35" viewBox="0 0 35 35" fill="none" xmlns="http://www.w3.org/2000/svg">
<g clip-path="url(#clip0)">
<path d="M25.5012 3.59033L25.0635 4.02889V3.59033H22.9074C21.9352 5.09259 19.8828 6.131 17.4999 6.131C15.118 6.131 13.0655 5.09259 12.0934 3.59033H9.93722V4.02889L9.49867 3.59033L1.74414 11.3492L5.98585 15.5944L9.93722 11.6413V31.4086H25.0618V11.6422L29.014 15.5953L33.2549 11.3492L25.5012 3.59033Z" fill="black"/>
<path d="M25.0613 33.1525H9.93675C8.97419 33.1525 8.19298 32.3713 8.19298 31.4087V15.8526L7.21821 16.8274C6.89126 17.1552 6.44747 17.3383 5.9845 17.3383C5.5224 17.3383 5.07774 17.1543 4.75079 16.8274L0.509075 12.5822C-0.170994 11.9012 -0.170994 10.7983 0.509075 10.1165L8.26535 2.3576C8.64374 1.97833 9.19041 1.79437 9.71703 1.86063C9.7894 1.85191 9.86264 1.84668 9.93675 1.84668H12.0929C12.684 1.84668 13.236 2.14661 13.5568 2.64271C14.243 3.70292 15.7906 4.38735 17.4995 4.38735C19.2083 4.38735 20.7568 3.70292 21.443 2.64271C21.7638 2.14661 22.3149 1.84668 22.9069 1.84668H25.063C25.1372 1.84668 25.2104 1.85104 25.2828 1.86063C25.3543 1.85191 25.4266 1.84668 25.4999 1.84668C25.5007 1.84668 25.5007 1.84668 25.5007 1.84668C25.9628 1.84668 26.4066 2.03065 26.7344 2.3576L34.489 10.1156C35.169 10.7966 35.169 11.8995 34.489 12.5813L30.2481 16.8274C29.9212 17.1543 29.4774 17.3383 29.0153 17.3383C29.0144 17.3383 29.0144 17.3383 29.0144 17.3383C28.5523 17.3392 28.1085 17.1552 27.7816 16.8282L26.8059 15.8517V31.4087C26.8051 32.3722 26.0247 33.1525 25.0613 33.1525ZM11.6805 29.665H23.3175V11.6423C23.3175 10.9369 23.7421 10.3013 24.3934 10.031C25.0456 9.75989 25.7946 9.90985 26.2941 10.4094L29.0127 13.128L30.7896 11.3493L25.2104 5.76667C24.9323 5.79195 24.6585 5.74836 24.3961 5.64024C24.2138 5.56526 24.049 5.46063 23.9061 5.33421H23.7561C22.3166 6.92104 20.0096 7.87488 17.4995 7.87488C14.9893 7.87488 12.6832 6.92104 11.2428 5.33421H11.0929C10.9507 5.46063 10.786 5.56439 10.6037 5.64024C10.3396 5.74923 10.0588 5.78759 9.78765 5.76667L4.2076 11.3502L5.9845 13.1288L8.70216 10.4094C9.20088 9.90985 9.9507 9.76076 10.6029 10.031C11.255 10.3013 11.6796 10.9369 11.6796 11.6423V29.665H11.6805Z" fill="black"/>
</g>
<defs>
<clipPath id="clip0">
<rect width="35" height="35" fill="white"/>
</clipPath>
</defs>
</svg>
