<svg width="24" height="24" viewBox="0 0 24 24" fill="none" xmlns="http://www.w3.org/2000/svg">
<path d="M18.5098 10.5499H18.2118L16.5516 8.56523H10.7523L8.56138 10.4751L5.07312 7L4.36879 7.70168L7.55981 10.8806H6.32422C5.04264 10.8806 4 11.9193 4 13.1961C4 14.4716 5.04082 15.5096 6.32083 15.5114C6.54253 16.3665 7.3234 17 8.25 17C9.17657 17 9.95744 16.3665 10.1791 15.5115H15.0533C15.275 16.3665 16.0558 17 16.9824 17C17.9212 17 18.7099 16.3495 18.9195 15.4773C20.0983 15.282 21 14.2596 21 13.0307C21 11.6628 19.8829 10.5499 18.5098 10.5499ZM8.25 16.0077C7.70075 16.0077 7.25391 15.5625 7.25391 15.0154C7.25391 14.4682 7.70075 14.023 8.25 14.023C8.79925 14.023 9.24609 14.4682 9.24609 15.0154C9.24609 15.5625 8.79925 16.0077 8.25 16.0077ZM16.9824 16.0077C16.4332 16.0077 15.9863 15.5625 15.9863 15.0154C15.9863 14.4682 16.4332 14.023 16.9824 14.023C17.5317 14.023 17.9785 14.4682 17.9785 15.0154C17.9785 15.5625 17.5317 16.0077 16.9824 16.0077ZM18.897 14.4682C18.6579 13.6392 17.8904 13.0307 16.9824 13.0307C16.0559 13.0307 15.275 13.6642 15.0533 14.5192H10.1791C9.9574 13.6642 9.17657 13.0307 8.25 13.0307C7.32347 13.0307 6.54263 13.6641 6.32087 14.5191C5.5901 14.5173 4.99609 13.9245 4.99609 13.1961C4.99609 12.4665 5.59189 11.873 6.32422 11.873H8.47034L11.1266 9.55756H16.0851L17.7452 11.5422H18.5098C19.3336 11.5422 20.0039 12.21 20.0039 13.0307C20.0039 13.7181 19.5337 14.2978 18.897 14.4682Z" fill="white"/>
</svg>
