<svg width="24" height="24" viewBox="0 0 24 24" fill="none" xmlns="http://www.w3.org/2000/svg">
<path d="M15.9928 7.00007L15.2585 7.73438L16.2658 8.74158L17 8.00728L15.9928 7.00007Z" fill="white"/>
<path d="M13.9393 7.31689L12.8378 8.41839C12.8094 8.44683 12.7866 8.48038 12.7707 8.51727L12.1346 9.98828C12.0827 10.1083 12.1093 10.2478 12.2018 10.3402L13.6597 11.7982C13.7207 11.8592 13.8023 11.8916 13.8852 11.8916C13.9279 11.8916 13.9709 11.883 14.0116 11.8654L15.4828 11.2294C15.5197 11.2135 15.5532 11.1907 15.5817 11.1622L16.6832 10.0607L13.9393 7.31689Z" fill="white"/>
<path d="M8.63532 14.3572L7.276 15.7166L8.28321 16.7238L9.64253 15.3644L8.63532 14.3572Z" fill="white"/>
<path d="M12.5994 13.3562C12.5994 13.1865 12.5334 13.027 12.4134 12.907L11.093 11.5867C10.973 11.4667 10.8135 11.4006 10.6438 11.4006C10.4741 11.4006 10.3146 11.4667 10.1946 11.5867L9.39901 12.3823L8.58556 12.3653C8.49784 12.3634 8.41489 12.3972 8.35347 12.4586L7.09338 13.7187C6.96887 13.8432 6.96887 14.045 7.09338 14.1695L7.50752 14.5837L8.41017 13.681C8.46995 13.6212 8.55105 13.5876 8.63558 13.5876C8.72011 13.5876 8.80122 13.6212 8.861 13.681L10.319 15.139C10.4435 15.2636 10.4435 15.4654 10.319 15.5899L9.41637 16.4926L9.83049 16.9067C9.89273 16.9689 9.97433 17.0001 10.0559 17.0001C10.1375 17.0001 10.2191 16.9689 10.2813 16.9067L11.5414 15.6466C11.6029 15.5851 11.6366 15.5013 11.6347 15.4145L11.6177 14.601L12.4133 13.8055C12.5334 13.6854 12.5994 13.5259 12.5994 13.3562ZM11.3063 13.5626C11.2441 13.6249 11.1625 13.656 11.0809 13.656C10.9993 13.656 10.9177 13.6249 10.8555 13.5626L10.4373 13.1444C10.3128 13.0199 10.3128 12.8181 10.4373 12.6936C10.5618 12.5691 10.7636 12.5691 10.8881 12.6936L11.3064 13.1118C11.4308 13.2363 11.4308 13.4382 11.3063 13.5626Z" fill="white"/>
</svg>
