<svg width="24" height="24" viewBox="0 0 24 24" fill="none" xmlns="http://www.w3.org/2000/svg">
<path d="M17.7731 10.1498L18.2499 9.67104C18.3608 9.55975 18.5082 9.49841 18.665 9.49841C18.8218 9.49841 18.9693 9.55972 19.0801 9.67104L19.8259 8.92234C19.5158 8.61105 19.1036 8.43959 18.665 8.43959C18.2265 8.43959 17.8142 8.61101 17.5042 8.92234L16.7141 9.71554L15.2899 8H9.14952L6.33702 10.4706H4.46094C3.10398 10.4706 2 11.5789 2 12.9412C2 14.3022 3.10204 15.4097 4.45735 15.4117C4.69209 16.324 5.51889 17 6.5 17C7.48107 17 8.30787 16.3241 8.54261 15.4118H13.7034C13.9382 16.3241 14.765 17 15.7461 17C16.7401 17 17.5752 16.3059 17.7971 15.3753C19.0453 15.1669 20 14.0759 20 12.7647C20 11.445 19.033 10.348 17.7731 10.1498ZM6.5 15.9412C5.91845 15.9412 5.44531 15.4662 5.44531 14.8824C5.44531 14.2985 5.91845 13.8235 6.5 13.8235C7.08155 13.8235 7.55469 14.2985 7.55469 14.8824C7.55469 15.4662 7.08155 15.9412 6.5 15.9412ZM15.7461 15.9412C15.1645 15.9412 14.6914 15.4662 14.6914 14.8824C14.6914 14.2985 15.1645 13.8235 15.7461 13.8235C16.3276 13.8235 16.8008 14.2985 16.8008 14.8824C16.8008 15.4662 16.3276 15.9412 15.7461 15.9412ZM17.7733 14.2985C17.5201 13.414 16.7075 12.7647 15.7461 12.7647C14.765 12.7647 13.9382 13.4406 13.7035 14.3529H8.54261C8.30784 13.4406 7.48107 12.7647 6.5 12.7647C5.51896 12.7647 4.6922 13.4406 4.45739 14.3528C3.68363 14.3509 3.05469 13.7184 3.05469 12.9412C3.05469 12.1627 3.68553 11.5294 4.46094 11.5294H6.7333L9.5458 9.05882H14.796L16.5538 11.1765H17.3633C18.2356 11.1765 18.9453 11.889 18.9453 12.7647C18.9453 13.4981 18.4475 14.1167 17.7733 14.2985Z" fill="white"/>
</svg>
