<svg width="24" height="24" viewBox="0 0 24 24" fill="none" xmlns="http://www.w3.org/2000/svg">
<path d="M14.0228 8.53141C14.0228 8.12525 13.8614 7.73573 13.5742 7.44854C13.287 7.16134 12.8975 7 12.4914 7C12.0852 7 11.6957 7.16134 11.4085 7.44854C11.1213 7.73573 10.96 8.12525 10.96 8.53141C10.96 8.93756 11.1213 9.32708 11.4085 9.61427C11.6957 9.90147 12.0852 10.0628 12.4914 10.0628C12.8975 10.0628 13.287 9.90147 13.5742 9.61427C13.8614 9.32708 14.0228 8.93756 14.0228 8.53141V8.53141Z" fill="white"/>
<path d="M7.3551 13.1945H9.41004V11.1416L9.41554 11.0179C9.43342 10.8137 9.49667 10.6225 9.59429 10.4541H7.69885L7.61842 10.4589C7.45118 10.4786 7.29699 10.559 7.18509 10.6848C7.0732 10.8107 7.01137 10.9732 7.01135 11.1416V12.8507C7.01135 12.9419 7.04757 13.0293 7.11203 13.0938C7.1765 13.1583 7.26393 13.1945 7.3551 13.1945Z" fill="white"/>
<path d="M17.9931 12.8507C17.9931 12.9419 17.9569 13.0293 17.8924 13.0938C17.828 13.1583 17.7405 13.1945 17.6494 13.1945H15.5759V11.1416L15.5717 11.0392C15.5567 10.833 15.4951 10.633 15.3916 10.4541H17.3056C17.4741 10.4541 17.6367 10.5161 17.7626 10.6281C17.8884 10.7401 17.9687 10.8945 17.9883 11.0619L17.9931 11.1416V12.8507Z" fill="white"/>
<path d="M14.8835 11.0619C14.864 10.8944 14.7836 10.7399 14.6576 10.6279C14.5316 10.5158 14.3688 10.454 14.2002 10.4541H10.7847L10.7042 10.4589C10.537 10.4786 10.3828 10.559 10.2709 10.6848C10.159 10.8107 10.0972 10.9732 10.0972 11.1416V13.1945H14.8877V11.1416L14.8835 11.0619V11.0619Z" fill="white"/>
<path d="M15.9203 7.4314C16.2692 7.4314 16.6038 7.57 16.8505 7.81671C17.0972 8.06342 17.2358 8.39803 17.2358 8.74693C17.2358 9.09583 17.0972 9.43044 16.8505 9.67715C16.6038 9.92386 16.2692 10.0625 15.9203 10.0625C15.5714 10.0625 15.2368 9.92386 14.99 9.67715C14.7433 9.43044 14.6047 9.09583 14.6047 8.74693C14.6047 8.39803 14.7433 8.06342 14.99 7.81671C15.2368 7.57 15.5714 7.4314 15.9203 7.4314V7.4314Z" fill="white"/>
<path d="M10.3894 8.74668C10.3894 8.39778 10.2508 8.06317 10.0041 7.81646C9.75734 7.56975 9.42273 7.43115 9.07383 7.43115C8.72493 7.43115 8.39032 7.56975 8.14361 7.81646C7.8969 8.06317 7.7583 8.39778 7.7583 8.74668C7.7583 9.09549 7.89686 9.43002 8.14351 9.67666C8.39016 9.92331 8.72468 10.0619 9.07349 10.0619C9.4223 10.0619 9.75682 9.92331 10.0035 9.67666C10.2501 9.43002 10.3887 9.09549 10.3887 8.74668H10.3894Z" fill="white"/>
<path d="M7.34375 13.8823C7.25258 13.8823 7.16515 13.9185 7.10068 13.983C7.03622 14.0475 7 14.1349 7 14.2261V14.9136C7 15.3694 7.18108 15.8066 7.50341 16.1289C7.82574 16.4512 8.26291 16.6323 8.71875 16.6323H16.2812C16.7371 16.6323 17.1743 16.4512 17.4966 16.1289C17.8189 15.8066 18 15.3694 18 14.9136V14.2261C18 14.1349 17.9638 14.0475 17.8993 13.983C17.8349 13.9185 17.7474 13.8823 17.6562 13.8823H7.34375Z" fill="white"/>
</svg>
