<svg width="24" height="24" viewBox="0 0 24 24" fill="none" xmlns="http://www.w3.org/2000/svg">
<path d="M5.33333 13.1551C5.51852 13.1551 5.64815 13.0818 5.72222 12.9352C5.7963 12.7887 5.7963 12.6421 5.72222 12.4956C5.64815 12.3491 5.51852 12.2758 5.33333 12.2758C5.14815 12.2758 5.01852 12.3491 4.94444 12.4956C4.87037 12.6421 4.87037 12.7887 4.94444 12.9352C5.01852 13.0818 5.14815 13.1551 5.33333 13.1551ZM15.5625 12.7566C15.5162 12.6971 15.4271 12.5826 15.2951 12.4132C15.1632 12.2437 15.0671 12.1201 15.0069 12.0422C14.9468 11.9644 14.8588 11.8522 14.7431 11.7056C14.6273 11.5591 14.5289 11.4377 14.4479 11.3415C14.3669 11.2454 14.2731 11.1377 14.1667 11.0187C14.0602 10.8996 13.956 10.7874 13.8542 10.6821L12.9861 11.6438C12.6019 12.0743 12.1192 12.2849 11.5382 12.2758C10.9572 12.2666 10.4815 12.0422 10.1111 11.6026C9.84722 11.2866 9.71644 10.9248 9.71875 10.5172C9.72106 10.1096 9.85648 9.75009 10.125 9.43867L11.3542 8.02356C11.2523 7.97318 11.1343 7.9354 11 7.91021C10.8657 7.88502 10.7558 7.87128 10.6701 7.86899C10.5845 7.8667 10.4537 7.86785 10.2778 7.87243C10.1019 7.87701 9.98843 7.8793 9.9375 7.8793C9.51157 7.8793 9.14583 8.03043 8.84028 8.33268L7.74306 9.41806H6.66667V13.1551C6.68981 13.1551 6.73843 13.1539 6.8125 13.1516C6.88657 13.1493 6.9375 13.1493 6.96528 13.1516C6.99306 13.1539 7.03819 13.1585 7.10069 13.1654C7.16319 13.1722 7.21065 13.1826 7.24306 13.1963C7.27546 13.21 7.31597 13.2295 7.36458 13.2547C7.41319 13.2799 7.45602 13.3108 7.49306 13.3474L9.55556 15.3533C10.088 15.8617 10.6134 16.1158 11.1319 16.1158C11.4931 16.1158 11.7824 16.0082 12 15.793C12.2639 15.8846 12.5243 15.8662 12.7813 15.738C13.0382 15.6098 13.206 15.4151 13.2847 15.1541C13.6273 15.1816 13.9213 15.0808 14.1667 14.8518C14.2593 14.7694 14.3426 14.6652 14.4167 14.5393C14.4907 14.4133 14.5231 14.2977 14.5139 14.1924C14.5602 14.2382 14.6597 14.2611 14.8125 14.2611C15.0116 14.2611 15.1898 14.213 15.3472 14.1168C15.5046 14.0206 15.6192 13.8993 15.691 13.7527C15.7627 13.6062 15.7905 13.4424 15.7743 13.2615C15.7581 13.0807 15.6875 12.9124 15.5625 12.7566ZM16.6667 13.1551H17.3333V9.63789H16.6875L15.5972 8.40138C15.2917 8.05332 14.9005 7.8793 14.4236 7.8793H13.2639C12.8519 7.8793 12.5139 8.03271 12.25 8.33955L10.7986 10.0088C10.669 10.16 10.6042 10.3317 10.6042 10.5241C10.6042 10.7164 10.6667 10.8881 10.7917 11.0393C10.9907 11.2728 11.2454 11.3919 11.5556 11.3965C11.8657 11.4011 12.1227 11.2889 12.3264 11.0599L13.6667 9.56232C13.7824 9.45699 13.9063 9.40776 14.0382 9.41463C14.1701 9.4215 14.2789 9.48332 14.3646 9.60011C14.4502 9.71689 14.4699 9.84626 14.4236 9.98823C14.4977 10.0752 14.6273 10.2195 14.8125 10.421C14.9977 10.6225 15.1366 10.7782 15.2292 10.8881C15.3634 11.053 15.5544 11.2946 15.8021 11.6129C16.0498 11.9312 16.1991 12.1246 16.25 12.1933C16.4907 12.4956 16.6296 12.8162 16.6667 13.1551ZM18.6667 13.1551C18.8519 13.1551 18.9815 13.0818 19.0556 12.9352C19.1296 12.7887 19.1296 12.6421 19.0556 12.4956C18.9815 12.3491 18.8519 12.2758 18.6667 12.2758C18.4815 12.2758 18.3519 12.3491 18.2778 12.4956C18.2037 12.6421 18.2037 12.7887 18.2778 12.9352C18.3519 13.0818 18.4815 13.1551 18.6667 13.1551ZM20 9.19824V13.5947C20 13.7138 19.956 13.8168 19.8681 13.9038C19.7801 13.9909 19.6759 14.0344 19.5556 14.0344H16.5417C16.4167 14.332 16.2269 14.5759 15.9722 14.766C15.7176 14.956 15.4282 15.074 15.1042 15.1197C14.9514 15.3396 14.765 15.5262 14.5451 15.6796C14.3252 15.833 14.088 15.9372 13.8333 15.9922C13.6389 16.2349 13.397 16.4215 13.1076 16.552C12.8183 16.6826 12.5208 16.7387 12.2153 16.7203C11.9375 16.8761 11.6458 16.9665 11.3403 16.9917C11.0347 17.0169 10.7396 16.9848 10.4549 16.8955C10.1701 16.8062 9.89931 16.6837 9.64236 16.528C9.38542 16.3723 9.14583 16.1868 8.92361 15.9716L6.93056 14.0344H4.44444C4.32407 14.0344 4.21991 13.9909 4.13194 13.9038C4.04398 13.8168 4 13.7138 4 13.5947V8.97842C4 8.85934 4.04398 8.7563 4.13194 8.66929C4.21991 8.58227 4.32407 8.53877 4.44444 8.53877H7.36806C7.43287 8.47465 7.54167 8.36474 7.69444 8.20903C7.84722 8.05332 7.95718 7.94341 8.02431 7.8793C8.09144 7.81518 8.19329 7.72359 8.32986 7.60452C8.46644 7.48544 8.58333 7.39958 8.68056 7.34691C8.77778 7.29424 8.89583 7.23585 9.03472 7.17174C9.17361 7.10762 9.31713 7.06297 9.46528 7.03778C9.61343 7.01259 9.77083 7 9.9375 7H10.75C11.2083 7 11.6273 7.12823 12.0069 7.38469C12.3866 7.12823 12.8056 7 13.2639 7H14.4236C14.5856 7 14.7407 7.01374 14.8889 7.04122C15.037 7.0687 15.1678 7.1019 15.2813 7.14082C15.3947 7.17975 15.5139 7.24043 15.6389 7.32287C15.7639 7.4053 15.8669 7.47629 15.9479 7.53582C16.0289 7.59536 16.1285 7.68581 16.2465 7.80717C16.3646 7.92853 16.4549 8.0247 16.5174 8.09569C16.5799 8.16667 16.6748 8.27658 16.8021 8.42542C16.9294 8.57426 17.0255 8.68532 17.0903 8.75859H19.5556C19.6759 8.75859 19.7801 8.8021 19.8681 8.88911C19.956 8.97613 20 9.07917 20 9.19824Z" fill="white"/>
</svg>
