<svg width="24" height="24" viewBox="0 0 24 24" fill="none" xmlns="http://www.w3.org/2000/svg">
<path d="M10.9792 17.25C10.9792 17.25 10.125 17.25 10.125 16.3958C10.125 15.5417 10.9792 12.9792 14.3958 12.9792C17.8125 12.9792 18.6667 15.5417 18.6667 16.3958C18.6667 17.25 17.8125 17.25 17.8125 17.25H10.9792ZM14.3958 12.125C15.0755 12.125 15.7272 11.855 16.2078 11.3745C16.6884 10.8939 16.9583 10.2421 16.9583 9.5625C16.9583 8.88288 16.6884 8.2311 16.2078 7.75054C15.7272 7.26998 15.0755 7 14.3958 7C13.7162 7 13.0644 7.26998 12.5839 7.75054C12.1033 8.2311 11.8333 8.88288 11.8333 9.5625C11.8333 10.2421 12.1033 10.8939 12.5839 11.3745C13.0644 11.855 13.7162 12.125 14.3958 12.125V12.125Z" fill="white"/>
<path fill-rule="evenodd" clip-rule="evenodd" d="M9.45533 17.25C9.32871 16.9833 9.26556 16.6909 9.27083 16.3958C9.27083 15.2384 9.85167 14.0468 10.9245 13.2183C10.389 13.0533 9.83112 12.9726 9.27083 12.9791C5.85417 12.9791 5 15.5416 5 16.3958C5 17.25 5.85417 17.25 5.85417 17.25H9.45533Z" fill="white"/>
<path d="M8.84379 12.1251C9.41014 12.1251 9.95329 11.9001 10.3538 11.4996C10.7542 11.0992 10.9792 10.556 10.9792 9.98966C10.9792 9.42332 10.7542 8.88017 10.3538 8.4797C9.95329 8.07923 9.41014 7.85425 8.84379 7.85425C8.27744 7.85425 7.73429 8.07923 7.33382 8.4797C6.93335 8.88017 6.70837 9.42332 6.70837 9.98966C6.70837 10.556 6.93335 11.0992 7.33382 11.4996C7.73429 11.9001 8.27744 12.1251 8.84379 12.1251V12.1251Z" fill="white"/>
</svg>
