<svg width="75" height="75" viewBox="0 0 75 75" fill="none" xmlns="http://www.w3.org/2000/svg">
<g opacity="0.15">
<path d="M37.6465 0C17.0493 0 0 16.7563 0 37.3535C0 57.9507 17.0493 75 37.6465 75C58.2437 75 75 57.9507 75 37.3535C75 16.7563 58.2437 0 37.6465 0ZM57.4219 41.748H42.041V57.4219C42.041 59.8447 40.0679 61.8164 37.6465 61.8164C35.2236 61.8164 33.252 59.8447 33.252 57.4219V41.748H17.5781C15.1553 41.748 13.1836 39.7764 13.1836 37.3535C13.1836 34.9307 15.1553 32.959 17.5781 32.959H33.252V17.5781C33.252 15.1553 35.2236 13.1836 37.6465 13.1836C40.0679 13.1836 42.041 15.1553 42.041 17.5781V32.959H57.4219C59.8433 32.959 61.8164 34.9307 61.8164 37.3535C61.8164 39.7764 59.8433 41.748 57.4219 41.748Z" fill="white"/>
</g>
</svg>
