<svg width="40" height="40" viewBox="0 0 40 40" fill="none" xmlns="http://www.w3.org/2000/svg">
<path d="M32.0875 21.5214C31.9308 21.5214 31.77 21.5438 31.6097 21.588L30.7024 21.8377L29.5414 19.0098C29.0072 17.7084 27.428 16.6494 26.0212 16.6494H13.9582C12.5514 16.6494 10.9722 17.7084 10.438 19.0098L9.27907 21.8331L8.38883 21.588C8.22834 21.5438 8.06753 21.5214 7.91087 21.5214C7.05267 21.5214 6.42969 22.1768 6.42969 23.0802V23.1135C6.42969 24.0456 7.10048 24.823 7.98434 24.991C7.50161 26.2084 7.11354 28.1975 7.11354 29.4781V35.3515C7.11354 36.4059 7.97159 37.2639 9.02599 37.2639H10.1279C11.1823 37.2639 12.0403 36.4059 12.0403 35.3515V34.1255H27.9394V35.3515C27.9394 36.4059 28.7974 37.2639 29.8518 37.2639H30.9537C32.0081 37.2639 32.8662 36.4059 32.8662 35.3515V29.4781C32.8662 28.1983 32.4786 26.211 31.9963 24.9937C32.889 24.8324 33.5687 24.0515 33.5687 23.1133V23.08C33.5687 22.177 32.9457 21.5214 32.0875 21.5214ZM10.5086 23.7965L12.3525 19.3042C12.6721 18.5257 13.6221 17.8888 14.4634 17.8888H25.516C26.3573 17.8888 27.3073 18.5257 27.6269 19.3042L29.4711 23.7965C29.7906 24.5751 29.3635 25.2119 28.5222 25.2119H11.4575C10.6162 25.2119 10.1891 24.5749 10.5086 23.7965ZM15.1311 30.5412C15.1311 30.962 14.7869 31.3062 14.3662 31.3062H10.6927C10.2719 31.3062 9.9277 30.962 9.9277 30.5412V28.978C9.9277 28.5572 10.2719 28.213 10.6927 28.213H14.3663C14.7871 28.213 15.1313 28.5572 15.1313 28.978V30.5412H15.1311ZM30.0136 30.5412C30.0136 30.962 29.6694 31.3062 29.2486 31.3062H25.575C25.1542 31.3062 24.81 30.962 24.81 30.5412V28.978C24.81 28.5572 25.1542 28.213 25.575 28.213H29.2486C29.6694 28.213 30.0136 28.5572 30.0136 28.978V30.5412Z" fill="#343434"/>
<path d="M36.4142 2.11377H3.58583C1.60868 2.11377 0 3.72229 0 5.6996V35.8937C0 36.9938 0.891995 37.8858 1.99213 37.8858C3.09226 37.8858 3.98425 36.9938 3.98425 35.8937V14.7926H36.0157V35.8939C36.0157 36.994 36.9077 37.886 38.0079 37.886C39.108 37.886 40 36.994 40 35.8939V5.6996C40 3.72245 38.3915 2.11377 36.4142 2.11377ZM3.98425 10.2128H36.0157V10.9091H3.98425V10.2128ZM3.98425 8.6191V8.06019H36.0157V8.6191H3.98425ZM3.98425 13.1989V12.5028H36.0157V13.1989H3.98425Z" fill="#343434"/>
</svg>
