<svg width="100" height="100" viewBox="0 0 100 100" fill="none" xmlns="http://www.w3.org/2000/svg">
<path d="M13.5982 92.0655C13.5982 92.0655 13.5093 94.3009 15.6929 94.3009C18.4094 94.3009 40.9002 94.2713 40.9002 94.2713L40.9372 73.6162C40.9372 73.6162 40.5819 70.2113 43.8868 70.2113H54.3458C58.254 70.2113 58.0134 73.6162 58.0134 73.6162L57.969 94.2046C57.969 94.2046 79.2939 94.2046 82.6433 94.2046C85.4153 94.2046 85.2895 91.4215 85.2895 91.4215V53.3423L50.5153 22.4097L13.5982 53.3423V92.0655Z" fill="#343434"/>
<path d="M0 50.4628C0 50.4628 3.13472 56.24 9.97039 50.4628L50.8216 15.9033L89.1229 50.2482C97.0355 55.9551 100 50.2482 100 50.2482L50.8216 5.69971L0 50.4628Z" fill="#343434"/>
<path d="M88.1957 15.8218H78.3438L78.3845 27.7685L88.1957 36.0919V15.8218Z" fill="#343434"/>
</svg>
