<svg width="40" height="40" viewBox="0 0 40 40" fill="none" xmlns="http://www.w3.org/2000/svg">
<path d="M33.6354 18.1819C34.3933 18.1819 35.037 18.4469 35.5674 18.9772C36.098 19.5076 36.3639 20.1515 36.3635 20.909V37.2727C36.3635 38.03 36.098 38.6743 35.5681 39.2048C35.0376 39.7349 34.394 39.9999 33.6361 39.9999H6.3639C5.60658 39.9999 4.9625 39.7346 4.43215 39.2048C3.90189 38.6743 3.63672 38.03 3.63672 37.2727V20.9093C3.63672 20.1512 3.90179 19.5072 4.43215 18.9772C4.9625 18.4469 5.60658 18.1819 6.3639 18.1819H7.27286H32.7268H33.6354Z" fill="#343434"/>
<path d="M32.1815 18.2729H26.9999V13.0908C26.9999 11.1837 26.3252 9.55515 24.9762 8.20605C23.6265 6.85657 21.9988 6.18211 20.0913 6.18211C18.184 6.18211 16.5558 6.85666 15.2063 8.20605L11.5625 4.56256C13.9372 2.18755 16.7801 1 20.091 1C23.402 1 26.2443 2.18755 28.6192 4.56266C30.9943 6.93767 32.1815 9.78022 32.1815 13.0908V18.2729Z" fill="#343434"/>
</svg>
