<svg width="40" height="40" viewBox="0 0 40 40" fill="none" xmlns="http://www.w3.org/2000/svg">
<path d="M20 0C8.95508 0 0 8.95508 0 20C0 31.0449 8.95508 40 20 40C31.0473 40 40 31.0449 40 20C40 8.95508 31.0473 0 20 0ZM25.4541 27.7222C24.4702 28.8257 23.0494 29.4752 21.1914 29.6705V32.5H18.8232V29.6851C15.7251 29.3677 13.8085 27.5659 13.0688 24.2847L16.7309 23.3301C17.0703 25.393 18.1934 26.4234 20.1001 26.4234C20.9912 26.4234 21.6504 26.2037 22.0703 25.7617C22.4902 25.3198 22.7002 24.7876 22.7002 24.1626C22.7002 23.5156 22.4902 23.0248 22.0703 22.6928C21.6504 22.3584 20.7153 21.9359 19.2676 21.4233C17.9663 20.9717 16.9482 20.5273 16.2158 20.083C15.4834 19.6436 14.8877 19.0259 14.4311 18.2324C13.9745 17.4365 13.7451 16.5087 13.7451 15.4541C13.7451 14.0698 14.1552 12.8222 14.9707 11.7138C15.7862 10.6079 17.0703 9.93156 18.8233 9.685V7.5H21.1915V9.68508C23.838 10.0025 25.5519 11.4991 26.3306 14.1773L23.0689 15.5152C22.4317 13.6792 21.4502 12.7612 20.1173 12.7612C19.4483 12.7612 18.9112 12.9663 18.5084 13.3765C18.103 13.7866 17.9005 14.2847 17.9005 14.8682C17.9005 15.4639 18.0958 15.9205 18.4864 16.2403C18.8746 16.5577 19.712 16.9508 20.9913 17.422C22.3976 17.9347 23.5011 18.4205 24.2995 18.877C25.1002 19.3336 25.7374 19.9659 26.2159 20.7691C26.692 21.5748 26.9312 22.5148 26.9312 23.5915C26.9312 25.2441 26.438 26.6211 25.4541 27.7222Z" fill="#343434"/>
</svg>
