<svg width="50" height="23" viewBox="0 0 50 23" fill="none" xmlns="http://www.w3.org/2000/svg">
<path fill-rule="evenodd" clip-rule="evenodd" d="M24.9401 18.3298H7.05409C5.36609 18.3298 3.99609 16.9368 3.99609 15.218V7.18601C3.99609 5.46923 5.36609 4.07422 7.05409 4.07422H24.9401C26.6281 4.07422 27.9961 5.46923 27.9961 7.18601V15.218C27.9961 16.9368 26.6281 18.3298 24.9401 18.3298" fill="white"/>
<path opacity="0.5" fill-rule="evenodd" clip-rule="evenodd" d="M41.998 17.1374C41.998 18.9194 40.578 20.3653 38.828 20.3653H5.16799C3.41799 20.3653 1.99799 18.9194 1.99799 17.1374V5.26457C1.99799 3.48262 3.41799 2.0367 5.16799 2.0367H38.828C40.578 2.0367 41.998 3.48262 41.998 5.26457V17.1374ZM39.49 0H4.51C2.02 0 0 2.05688 0 4.59234V17.8093C0 20.3448 2.02 22.4016 4.51 22.4016H39.49C41.98 22.4016 44 20.3448 44 17.8093V4.59234C44 2.05688 41.98 0 39.49 0Z" fill="white"/>
<path opacity="0.5" fill-rule="evenodd" clip-rule="evenodd" d="M45.5039 15.275V7.12891C47.1599 7.12891 48.5039 8.49744 48.5039 10.1837V12.2202C48.5039 13.9085 47.1599 15.275 45.5039 15.275Z" fill="white"/>
</svg>
