<svg width="841" height="422" viewBox="0 0 841 422" fill="none" xmlns="http://www.w3.org/2000/svg">
<g opacity="0.15">
<circle cx="420.5" cy="218.5" r="84.5" stroke="white" stroke-width="2"/>
<rect x="401" y="201" width="39" height="38" stroke="white" stroke-width="2"/>
<rect opacity="0.5" x="418" y="218" width="5" height="5" fill="white"/>
<rect x="801" y="201" width="39" height="38" stroke="white" stroke-width="2"/>
<rect opacity="0.5" x="818" y="218" width="5" height="5" fill="white"/>
<rect x="1" y="201" width="39" height="38" stroke="white" stroke-width="2"/>
<rect opacity="0.5" x="18" y="218" width="5" height="5" fill="white"/>
<rect x="200" y="62" width="39" height="38" stroke="white" stroke-width="2"/>
<rect opacity="0.5" x="217" y="79" width="5" height="5" fill="white"/>
<rect x="200" y="323" width="39" height="38" stroke="white" stroke-width="2"/>
<rect opacity="0.5" x="217" y="340" width="5" height="5" fill="white"/>
<rect x="601" y="323" width="39" height="38" stroke="white" stroke-width="2"/>
<rect opacity="0.5" x="618" y="340" width="5" height="5" fill="white"/>
<rect x="601" y="62" width="39" height="38" stroke="white" stroke-width="2"/>
<rect opacity="0.5" x="618" y="79" width="5" height="5" fill="white"/>
<rect x="399" y="1" width="39" height="38" stroke="white" stroke-width="2"/>
<rect opacity="0.5" x="416" y="18" width="5" height="5" fill="white"/>
<rect x="399" y="383" width="39" height="38" stroke="white" stroke-width="2"/>
<rect opacity="0.5" x="416" y="400" width="5" height="5" fill="white"/>
</g>
</svg>
