<svg width="135" height="39" viewBox="0 0 135 39" fill="none" xmlns="http://www.w3.org/2000/svg">
<path d="M38.7421 19.4937C38.7421 8.72761 30.0694 0 19.3711 0C8.67272 0 0 8.72761 0 19.4937C0 30.2597 8.67272 38.9873 19.3711 38.9873C30.0694 38.9873 38.7421 30.2597 38.7421 19.4937Z" fill="white"/>
<path d="M38.7421 19.4937C38.7421 8.72761 30.0694 0 19.3711 0C8.67272 0 0 8.72761 0 19.4937C0 30.2597 8.67272 38.9873 19.3711 38.9873C30.0694 38.9873 38.7421 30.2597 38.7421 19.4937Z" fill="url(#paint0_linear)"/>
<path d="M17.6544 13.1856L17.3057 17.7237H23.7214C24.1398 17.7237 24.4652 17.8251 24.6977 18.0278C24.9301 18.2305 25.0464 18.5035 25.0464 18.8465C25.0464 19.6731 24.5582 20.0863 23.5819 20.0863H17.0965L16.7245 24.9052H23.6284C24.0468 24.9052 24.3722 25.0143 24.6047 25.2327C24.8372 25.4354 24.9534 25.7083 24.9534 26.0514C24.9534 26.4569 24.8217 26.7688 24.5582 26.9871C24.3103 27.1898 23.9461 27.2912 23.4657 27.2912H15.0509C14.586 27.2912 14.2373 27.1664 14.0048 26.9169C13.7879 26.6674 13.6949 26.3165 13.7259 25.8643L14.7952 12.2031C14.8262 11.7664 14.9734 11.4234 15.2368 11.1738C15.5003 10.9243 15.8567 10.7996 16.3061 10.7996H24.7442C25.1626 10.7996 25.4803 10.9009 25.6972 11.1037C25.9297 11.3064 26.0459 11.5793 26.0459 11.9224C26.0459 12.7645 25.5578 13.1856 24.5815 13.1856H17.6544Z" fill="white"/>
<path d="M66.3966 18.9996C67.4887 19.2683 68.3301 19.7583 68.9209 20.4696C69.5295 21.1809 69.8339 22.0502 69.8339 23.0777C69.8339 24.5003 69.2521 25.6146 68.0884 26.4208C66.9426 27.2269 65.3583 27.63 63.3353 27.63H56.4071C55.8879 27.63 55.4761 27.5035 55.1718 27.2506C54.8853 26.9977 54.7421 26.642 54.7421 26.1837V12.3608C54.7421 11.9024 54.8853 11.5467 55.1718 11.2938C55.4761 11.0409 55.8879 10.9145 56.4071 10.9145H63.0668C65.036 10.9145 66.5756 11.3017 67.6856 12.0763C68.8134 12.835 69.3774 13.9019 69.3774 15.2771C69.3774 16.1623 69.1088 16.9289 68.5718 17.577C68.0526 18.225 67.3275 18.6992 66.3966 18.9996ZM58.1257 17.9563H62.5028C64.8839 17.9563 66.0744 17.1739 66.0744 15.609C66.0744 14.8187 65.779 14.2339 65.1882 13.8545C64.5974 13.4751 63.7023 13.2855 62.5028 13.2855H58.1257V17.9563ZM62.9593 25.259C64.2125 25.259 65.1255 25.0614 65.6984 24.6662C66.2713 24.2711 66.5577 23.6546 66.5577 22.8168C66.5577 21.9791 66.2623 21.3547 65.6716 20.9438C65.0987 20.5328 64.1946 20.3273 62.9593 20.3273H58.1257V25.259H62.9593ZM92.2082 25.8043C92.3156 26.0098 92.3693 26.2153 92.3693 26.4208C92.3693 26.7843 92.1992 27.0925 91.8591 27.3454C91.5368 27.5983 91.1609 27.7248 90.7312 27.7248C90.4448 27.7248 90.1763 27.6616 89.9256 27.5351C89.675 27.3929 89.4781 27.1795 89.3348 26.8949L87.7236 23.7178H78.2711L76.6599 26.8949C76.5167 27.1795 76.3198 27.3929 76.0691 27.5351C75.8185 27.6616 75.541 27.7248 75.2367 27.7248C74.8249 27.7248 74.449 27.5983 74.1088 27.3454C73.7687 27.0925 73.5986 26.7843 73.5986 26.4208C73.5986 26.2153 73.6523 26.0098 73.7597 25.8043L81.1713 11.7443C81.3325 11.4282 81.5741 11.1911 81.8964 11.033C82.2365 10.8592 82.5946 10.7722 82.9705 10.7722C83.3465 10.7722 83.6956 10.8592 84.0178 11.033C84.358 11.1911 84.6086 11.4282 84.7697 11.7443L92.2082 25.8043ZM79.4527 21.3468H86.5421L82.9974 14.305L79.4527 21.3468ZM111.557 10.7959C112.058 10.7959 112.452 10.9382 112.739 11.2227C113.043 11.4914 113.195 11.855 113.195 12.3134V26.2311C113.195 26.6895 113.043 27.0609 112.739 27.3454C112.434 27.63 112.04 27.7722 111.557 27.7722C110.984 27.7722 110.546 27.5904 110.241 27.2269L100.44 15.9647V26.2311C100.44 26.6895 100.296 27.0609 100.01 27.3454C99.7235 27.63 99.3296 27.7722 98.8284 27.7722C98.3271 27.7722 97.9332 27.63 97.6468 27.3454C97.3604 27.0609 97.2171 26.6895 97.2171 26.2311V12.3134C97.2171 11.855 97.3693 11.4914 97.6737 11.2227C97.978 10.9382 98.3808 10.7959 98.8821 10.7959C99.437 10.7959 99.8667 10.9777 100.171 11.3413L109.946 22.556V12.3134C109.946 11.855 110.089 11.4914 110.375 11.2227C110.68 10.9382 111.074 10.7959 111.557 10.7959ZM134.205 25.3301C134.563 25.6304 134.742 25.9703 134.742 26.3496C134.742 26.7132 134.581 27.0372 134.259 27.3217C133.954 27.5904 133.587 27.7248 133.158 27.7248C132.71 27.7248 132.298 27.5588 131.922 27.2269L122.98 19.8294V26.2311C122.98 26.6895 122.819 27.0609 122.497 27.3454C122.193 27.63 121.772 27.7722 121.235 27.7722C120.716 27.7722 120.295 27.63 119.973 27.3454C119.668 27.0609 119.516 26.6895 119.516 26.2311V12.3134C119.516 11.855 119.668 11.4914 119.973 11.2227C120.295 10.9382 120.716 10.7959 121.235 10.7959C121.772 10.7959 122.193 10.9382 122.497 11.2227C122.819 11.4914 122.98 11.855 122.98 12.3134V18.4068L131.627 11.2464C131.949 10.9619 132.316 10.8196 132.728 10.8196C133.14 10.8196 133.498 10.9619 133.802 11.2464C134.124 11.5151 134.286 11.8313 134.286 12.1948C134.286 12.5584 134.107 12.8903 133.749 13.1906L126.525 19.0233L134.205 25.3301Z" fill="white"/>
<path d="M66.3966 18.9996C67.4887 19.2683 68.3301 19.7583 68.9209 20.4696C69.5295 21.1809 69.8339 22.0502 69.8339 23.0777C69.8339 24.5003 69.2521 25.6146 68.0884 26.4208C66.9426 27.2269 65.3583 27.63 63.3353 27.63H56.4071C55.8879 27.63 55.4761 27.5035 55.1718 27.2506C54.8853 26.9977 54.7421 26.642 54.7421 26.1837V12.3608C54.7421 11.9024 54.8853 11.5467 55.1718 11.2938C55.4761 11.0409 55.8879 10.9145 56.4071 10.9145H63.0668C65.036 10.9145 66.5756 11.3017 67.6856 12.0763C68.8134 12.835 69.3774 13.9019 69.3774 15.2771C69.3774 16.1623 69.1088 16.9289 68.5718 17.577C68.0526 18.225 67.3275 18.6992 66.3966 18.9996ZM58.1257 17.9563H62.5028C64.8839 17.9563 66.0744 17.1739 66.0744 15.609C66.0744 14.8187 65.779 14.2339 65.1882 13.8545C64.5974 13.4751 63.7023 13.2855 62.5028 13.2855H58.1257V17.9563ZM62.9593 25.259C64.2125 25.259 65.1255 25.0614 65.6984 24.6662C66.2713 24.2711 66.5577 23.6546 66.5577 22.8168C66.5577 21.9791 66.2623 21.3547 65.6716 20.9438C65.0987 20.5328 64.1946 20.3273 62.9593 20.3273H58.1257V25.259H62.9593ZM92.2082 25.8043C92.3156 26.0098 92.3693 26.2153 92.3693 26.4208C92.3693 26.7843 92.1992 27.0925 91.8591 27.3454C91.5368 27.5983 91.1609 27.7248 90.7312 27.7248C90.4448 27.7248 90.1763 27.6616 89.9256 27.5351C89.675 27.3929 89.4781 27.1795 89.3348 26.8949L87.7236 23.7178H78.2711L76.6599 26.8949C76.5167 27.1795 76.3198 27.3929 76.0691 27.5351C75.8185 27.6616 75.541 27.7248 75.2367 27.7248C74.8249 27.7248 74.449 27.5983 74.1088 27.3454C73.7687 27.0925 73.5986 26.7843 73.5986 26.4208C73.5986 26.2153 73.6523 26.0098 73.7597 25.8043L81.1713 11.7443C81.3325 11.4282 81.5741 11.1911 81.8964 11.033C82.2365 10.8592 82.5946 10.7722 82.9705 10.7722C83.3465 10.7722 83.6956 10.8592 84.0178 11.033C84.358 11.1911 84.6086 11.4282 84.7697 11.7443L92.2082 25.8043ZM79.4527 21.3468H86.5421L82.9974 14.305L79.4527 21.3468ZM111.557 10.7959C112.058 10.7959 112.452 10.9382 112.739 11.2227C113.043 11.4914 113.195 11.855 113.195 12.3134V26.2311C113.195 26.6895 113.043 27.0609 112.739 27.3454C112.434 27.63 112.04 27.7722 111.557 27.7722C110.984 27.7722 110.546 27.5904 110.241 27.2269L100.44 15.9647V26.2311C100.44 26.6895 100.296 27.0609 100.01 27.3454C99.7235 27.63 99.3296 27.7722 98.8284 27.7722C98.3271 27.7722 97.9332 27.63 97.6468 27.3454C97.3604 27.0609 97.2171 26.6895 97.2171 26.2311V12.3134C97.2171 11.855 97.3693 11.4914 97.6737 11.2227C97.978 10.9382 98.3808 10.7959 98.8821 10.7959C99.437 10.7959 99.8667 10.9777 100.171 11.3413L109.946 22.556V12.3134C109.946 11.855 110.089 11.4914 110.375 11.2227C110.68 10.9382 111.074 10.7959 111.557 10.7959ZM134.205 25.3301C134.563 25.6304 134.742 25.9703 134.742 26.3496C134.742 26.7132 134.581 27.0372 134.259 27.3217C133.954 27.5904 133.587 27.7248 133.158 27.7248C132.71 27.7248 132.298 27.5588 131.922 27.2269L122.98 19.8294V26.2311C122.98 26.6895 122.819 27.0609 122.497 27.3454C122.193 27.63 121.772 27.7722 121.235 27.7722C120.716 27.7722 120.295 27.63 119.973 27.3454C119.668 27.0609 119.516 26.6895 119.516 26.2311V12.3134C119.516 11.855 119.668 11.4914 119.973 11.2227C120.295 10.9382 120.716 10.7959 121.235 10.7959C121.772 10.7959 122.193 10.9382 122.497 11.2227C122.819 11.4914 122.98 11.855 122.98 12.3134V18.4068L131.627 11.2464C131.949 10.9619 132.316 10.8196 132.728 10.8196C133.14 10.8196 133.498 10.9619 133.802 11.2464C134.124 11.5151 134.286 11.8313 134.286 12.1948C134.286 12.5584 134.107 12.8903 133.749 13.1906L126.525 19.0233L134.205 25.3301Z" fill="url(#paint1_linear)"/>
<defs>
<linearGradient id="paint0_linear" x1="4.37784" y1="1.78762e-05" x2="43.0081" y2="4.18673" gradientUnits="userSpaceOnUse">
<stop stop-color="#4271FF"/>
<stop offset="1" stop-color="#5165D7"/>
</linearGradient>
<linearGradient id="paint1_linear" x1="63.7821" y1="10.7722" x2="127.661" y2="43.5578" gradientUnits="userSpaceOnUse">
<stop stop-color="#4271FF"/>
<stop offset="1" stop-color="#5165D7"/>
</linearGradient>
</defs>
</svg>
