<svg width="27" height="27" viewBox="0 0 27 27" fill="none" xmlns="http://www.w3.org/2000/svg">
<path d="M20.7697 2.37905C20.588 2.2835 20.3837 2.23959 20.1788 2.25208C19.9739 2.26458 19.7763 2.33301 19.6076 2.44993L4.9826 12.5749C4.8336 12.6789 4.71192 12.8173 4.6279 12.9784C4.54388 13.1395 4.5 13.3185 4.5 13.5002C4.5 13.6819 4.54388 13.8609 4.6279 14.022C4.71192 14.1831 4.8336 14.3216 4.9826 14.4256L19.6076 24.5506C19.7764 24.6673 19.9739 24.7357 20.1787 24.7483C20.3836 24.7609 20.588 24.7172 20.7698 24.622C20.9516 24.5267 21.1039 24.3835 21.2102 24.2079C21.3164 24.0324 21.3727 23.831 21.3727 23.6258V3.3758C21.3728 3.17045 21.3166 2.969 21.2103 2.7933C21.104 2.61759 20.9516 2.47434 20.7697 2.37905ZM19.1227 21.4782V13.5008V5.52343V21.4782Z" fill="black" fill-opacity="0.15"/>
<path d="M20.7697 2.37905C20.588 2.2835 20.3837 2.23959 20.1788 2.25208C19.9739 2.26458 19.7763 2.33301 19.6076 2.44993L4.9826 12.5749C4.8336 12.6789 4.71192 12.8173 4.6279 12.9784C4.54388 13.1395 4.5 13.3185 4.5 13.5002C4.5 13.6819 4.54388 13.8609 4.6279 14.022C4.71192 14.1831 4.8336 14.3216 4.9826 14.4256L19.6076 24.5506C19.7764 24.6673 19.9739 24.7357 20.1787 24.7483C20.3836 24.7609 20.588 24.7172 20.7698 24.622C20.9516 24.5267 21.1039 24.3835 21.2102 24.2079C21.3164 24.0324 21.3727 23.831 21.3727 23.6258V3.3758C21.3728 3.17045 21.3166 2.969 21.2103 2.7933C21.104 2.61759 20.9516 2.47434 20.7697 2.37905ZM19.1227 21.4782V13.5008V5.52343V21.4782Z" fill="url(#paint0_linear)"/>
<path d="M22.5402 7.32121C22.4393 7.26812 22.3257 7.24373 22.2119 7.25067C22.0981 7.25761 21.9883 7.29563 21.8946 7.36058L13.7696 12.9856C13.6868 13.0434 13.6192 13.1203 13.5725 13.2098C13.5258 13.2993 13.5015 13.3987 13.5015 13.4996C13.5015 13.6006 13.5258 13.7 13.5725 13.7895C13.6192 13.879 13.6868 13.9559 13.7696 14.0137L21.8946 19.6387C21.9883 19.7036 22.0981 19.7416 22.2119 19.7486C22.3257 19.7556 22.4392 19.7313 22.5402 19.6784C22.6412 19.6255 22.7258 19.5459 22.7849 19.4484C22.8439 19.3508 22.8752 19.239 22.8752 19.125V7.87496C22.8752 7.76087 22.844 7.64896 22.785 7.55134C22.7259 7.45373 22.6413 7.37414 22.5402 7.32121ZM21.6252 17.9318V13.5V9.06808V17.9318Z" fill="black"/>
<defs>
<linearGradient id="paint0_linear" x1="6.40661" y1="2.25001" x2="23.3151" y2="3.63289" gradientUnits="userSpaceOnUse">
<stop stop-color="#4271FF"/>
<stop offset="1" stop-color="#5165D7"/>
</linearGradient>
</defs>
</svg>
