<svg width="265" height="151" viewBox="0 0 265 151" fill="none" xmlns="http://www.w3.org/2000/svg">
<g clip-path="url(#clip0)">
<rect width="420" height="250" rx="15" fill="url(#paint0_linear)"/>
<path fill-rule="evenodd" clip-rule="evenodd" d="M-77.5813 109.585L-58.0487 109.666C-38.598 110.135 0.467202 110.298 38.6315 114.723C76.8776 118.76 114.305 126.672 154.107 123.348C193.827 120.411 236.005 105.851 274.988 106.401C313.972 106.951 349.843 122.225 388.089 126.262C426.253 130.687 466.874 123.488 487.144 120.082L507.414 116.677L474.407 272.818L455.693 268.862C436.98 264.906 399.553 256.994 362.125 249.083C324.698 241.171 287.271 233.259 249.844 225.347C212.417 217.436 174.99 209.524 137.563 201.612C100.135 193.7 62.7084 185.788 25.2812 177.877C-12.1459 169.965 -49.573 162.053 -68.2866 158.097L-87.0001 154.141L-77.5813 109.585Z" fill="black" fill-opacity="0.3"/>
<path fill-rule="evenodd" clip-rule="evenodd" d="M536.211 119.507L509.288 120.272C482.447 121.496 428.6 123.026 375.67 129.605C322.657 135.725 270.477 146.436 215.88 143.834C161.366 141.692 104.351 125.779 50.5877 127.768C-3.17596 129.756 -53.7723 149.189 -106.786 155.309C-159.716 161.888 -215.147 154.696 -242.82 151.33L-270.494 147.964L-236.904 332.955L-210.814 327.6C-184.724 322.244 -132.544 311.534 -80.3636 300.823C-28.1836 290.113 23.9964 279.402 76.1764 268.691C128.356 257.981 180.536 247.27 232.716 236.56C284.896 225.849 337.076 215.138 389.256 204.428C441.436 193.717 493.616 183.007 519.706 177.651L545.796 172.296L536.211 119.507Z" fill="black" fill-opacity="0.3"/>
</g>
<defs>
<linearGradient id="paint0_linear" x1="47.4597" y1="0.000114628" x2="457.403" y2="75.1136" gradientUnits="userSpaceOnUse">
<stop stop-color="#4271FF"/>
<stop offset="1" stop-color="#5165D7"/>
</linearGradient>
<clipPath id="clip0">
<rect width="265" height="150.706" rx="15" fill="white"/>
</clipPath>
</defs>
</svg>
