<svg width="18" height="18" viewBox="0 0 18 18" fill="none" xmlns="http://www.w3.org/2000/svg">
<path d="M4.0502 2.69995C3.69215 2.69995 3.34878 2.84218 3.0956 3.09536C2.84243 3.34853 2.7002 3.69191 2.7002 4.04995V13.95C2.7002 14.308 2.84243 14.6514 3.0956 14.9045C3.34878 15.1577 3.69215 15.3 4.0502 15.3H13.9502C14.3082 15.3 14.6516 15.1577 14.9048 14.9045C15.158 14.6514 15.3002 14.308 15.3002 13.95V4.04995C15.3002 3.69191 15.158 3.34853 14.9048 3.09536C14.6516 2.84218 14.3082 2.69995 13.9502 2.69995H4.0502ZM8.4188 5.75635C8.4607 5.79815 8.49395 5.84781 8.51664 5.90248C8.53932 5.95715 8.551 6.01576 8.551 6.07495C8.551 6.13414 8.53932 6.19275 8.51664 6.24742C8.49395 6.30209 8.4607 6.35175 8.4188 6.39355L6.8438 7.96855C6.76181 8.05044 6.6514 8.09754 6.53555 8.10006C6.41971 8.10257 6.30736 8.0603 6.2219 7.98205L5.5469 7.36555C5.50103 7.32635 5.46351 7.27832 5.43658 7.22432C5.40965 7.17032 5.39385 7.11146 5.39013 7.05124C5.38641 6.99101 5.39484 6.93066 5.41491 6.87375C5.43499 6.81685 5.46631 6.76457 5.507 6.72001C5.54769 6.67546 5.59692 6.63954 5.65177 6.6144C5.70663 6.58926 5.76598 6.57541 5.82629 6.57367C5.8866 6.57192 5.94665 6.58233 6.00286 6.60427C6.05908 6.6262 6.1103 6.65922 6.1535 6.70135L6.5108 7.02715L7.7816 5.75635C7.8234 5.71444 7.87305 5.6812 7.92773 5.65851C7.9824 5.63582 8.041 5.62415 8.10019 5.62415C8.15939 5.62415 8.21799 5.63582 8.27267 5.65851C8.32734 5.6812 8.37699 5.71444 8.4188 5.75635ZM8.4188 10.2564C8.4607 10.2982 8.49395 10.3478 8.51664 10.4025C8.53932 10.4572 8.551 10.5158 8.551 10.575C8.551 10.6341 8.53932 10.6928 8.51664 10.7474C8.49395 10.8021 8.4607 10.8518 8.4188 10.8936L6.8438 12.4686C6.76181 12.5504 6.6514 12.5975 6.53555 12.6001C6.41971 12.6026 6.30736 12.5603 6.2219 12.4821L5.5469 11.8656C5.46329 11.784 5.41467 11.6731 5.4113 11.5564C5.40793 11.4397 5.45008 11.3262 5.52884 11.24C5.60759 11.1537 5.71679 11.1015 5.83335 11.0943C5.94992 11.0871 6.06472 11.1255 6.1535 11.2014L6.5108 11.5281L7.7816 10.2564C7.8234 10.2144 7.87305 10.1812 7.92773 10.1585C7.9824 10.1358 8.041 10.1241 8.10019 10.1241C8.15939 10.1241 8.21799 10.1358 8.27267 10.1585C8.32734 10.1812 8.37699 10.2144 8.4188 10.2564ZM9.9002 10.8H12.1502C12.2695 10.8 12.384 10.8474 12.4684 10.9318C12.5528 11.0161 12.6002 11.1306 12.6002 11.25C12.6002 11.3693 12.5528 11.4838 12.4684 11.5681C12.384 11.6525 12.2695 11.7 12.1502 11.7H9.9002C9.78085 11.7 9.66639 11.6525 9.582 11.5681C9.49761 11.4838 9.4502 11.3693 9.4502 11.25C9.4502 11.1306 9.49761 11.0161 9.582 10.9318C9.66639 10.8474 9.78085 10.8 9.9002 10.8ZM9.4502 6.74995C9.4502 6.6306 9.49761 6.51614 9.582 6.43175C9.66639 6.34736 9.78085 6.29995 9.9002 6.29995H12.1502C12.2695 6.29995 12.384 6.34736 12.4684 6.43175C12.5528 6.51614 12.6002 6.6306 12.6002 6.74995C12.6002 6.8693 12.5528 6.98376 12.4684 7.06815C12.384 7.15254 12.2695 7.19995 12.1502 7.19995H9.9002C9.78085 7.19995 9.66639 7.15254 9.582 7.06815C9.49761 6.98376 9.4502 6.8693 9.4502 6.74995Z" fill="#8F8F8F"/>
</svg>
