<svg width="100" height="29" viewBox="0 0 100 29" fill="none" xmlns="http://www.w3.org/2000/svg">
<path d="M28.7528 14.4674C28.7528 6.47727 22.3163 0 14.3764 0C6.43653 0 0 6.47727 0 14.4674C0 22.4575 6.43653 28.9348 14.3764 28.9348C22.3163 28.9348 28.7528 22.4575 28.7528 14.4674Z" fill="white"/>
<path d="M28.7528 14.4674C28.7528 6.47727 22.3163 0 14.3764 0C6.43653 0 0 6.47727 0 14.4674C0 22.4575 6.43653 28.9348 14.3764 28.9348C22.3163 28.9348 28.7528 22.4575 28.7528 14.4674Z" fill="url(#paint0_linear)"/>
<path d="M13.1025 9.78546L12.8437 13.1535H17.6051C17.9157 13.1535 18.1572 13.2287 18.3297 13.3792C18.5022 13.5296 18.5885 13.7322 18.5885 13.9868C18.5885 14.6002 18.2262 14.9069 17.5016 14.9069H12.6884L12.4124 18.4832H17.5361C17.8467 18.4832 18.0882 18.5643 18.2607 18.7263C18.4332 18.8768 18.5195 19.0793 18.5195 19.3339C18.5195 19.6349 18.4217 19.8663 18.2262 20.0284C18.0422 20.1788 17.7719 20.2541 17.4154 20.2541H11.1703C10.8252 20.2541 10.5665 20.1615 10.394 19.9763C10.2329 19.7911 10.1639 19.5307 10.1869 19.195L10.9805 9.0563C11.0035 8.73223 11.1128 8.4776 11.3083 8.29242C11.5038 8.10724 11.7683 8.01465 12.1019 8.01465H18.3642C18.6748 8.01465 18.9105 8.08988 19.0715 8.24034C19.2441 8.3908 19.3303 8.59334 19.3303 8.84797C19.3303 9.47296 18.968 9.78546 18.2435 9.78546H13.1025Z" fill="white"/>
<path d="M49.2764 14.1011C50.0869 14.3005 50.7114 14.6642 51.1498 15.1921C51.6015 15.72 51.8274 16.3652 51.8274 17.1277C51.8274 18.1835 51.3956 19.0105 50.532 19.6088C49.6817 20.2071 48.5058 20.5062 47.0044 20.5062H41.8626C41.4773 20.5062 41.1717 20.4124 40.9458 20.2247C40.7332 20.037 40.627 19.773 40.627 19.4328V9.17408C40.627 8.83388 40.7332 8.56994 40.9458 8.38224C41.1717 8.19454 41.4773 8.1007 41.8626 8.1007H46.8051C48.2667 8.1007 49.4093 8.38811 50.233 8.96293C51.0701 9.52601 51.4886 10.3179 51.4886 11.3385C51.4886 11.9954 51.2893 12.5643 50.8907 13.0453C50.5054 13.5263 49.9673 13.8782 49.2764 14.1011ZM43.1381 13.3269H46.3866C48.1537 13.3269 49.0373 12.7462 49.0373 11.5848C49.0373 10.9983 48.818 10.5642 48.3796 10.2827C47.9411 10.0011 47.2768 9.86035 46.3866 9.86035H43.1381V13.3269ZM46.7254 18.7466C47.6555 18.7466 48.3331 18.5999 48.7583 18.3067C49.1834 18.0134 49.396 17.5559 49.396 16.9341C49.396 16.3124 49.1768 15.849 48.7383 15.544C48.3132 15.239 47.6422 15.0865 46.7254 15.0865H43.1381V18.7466H46.7254ZM68.4327 19.1513C68.5124 19.3038 68.5523 19.4563 68.5523 19.6088C68.5523 19.8786 68.426 20.1074 68.1736 20.2951C67.9345 20.4828 67.6554 20.5766 67.3366 20.5766C67.124 20.5766 66.9247 20.5297 66.7387 20.4358C66.5527 20.3303 66.4065 20.1719 66.3002 19.9607L65.1044 17.6028H58.0892L56.8934 19.9607C56.7871 20.1719 56.641 20.3303 56.455 20.4358C56.269 20.5297 56.063 20.5766 55.8372 20.5766C55.5316 20.5766 55.2525 20.4828 55.0001 20.2951C54.7477 20.1074 54.6214 19.8786 54.6214 19.6088C54.6214 19.4563 54.6613 19.3038 54.741 19.1513L60.2416 8.71657C60.3612 8.48195 60.5405 8.30599 60.7797 8.18868C61.0321 8.05964 61.2979 7.99512 61.5769 7.99512C61.8559 7.99512 62.115 8.05964 62.3542 8.18868C62.6066 8.30599 62.7926 8.48195 62.9122 8.71657L68.4327 19.1513ZM58.9661 15.8432H64.2275L61.5968 10.617L58.9661 15.8432ZM82.7926 8.01271C83.1646 8.01271 83.4569 8.11829 83.6695 8.32945C83.8953 8.52888 84.0083 8.79869 84.0083 9.13889V19.468C84.0083 19.8082 83.8953 20.0839 83.6695 20.2951C83.4436 20.5062 83.1513 20.6118 82.7926 20.6118C82.3674 20.6118 82.0419 20.4769 81.816 20.2071L74.5417 11.8487V19.468C74.5417 19.8082 74.4354 20.0839 74.2228 20.2951C74.0102 20.5062 73.7179 20.6118 73.3459 20.6118C72.9739 20.6118 72.6816 20.5062 72.469 20.2951C72.2564 20.0839 72.1501 19.8082 72.1501 19.468V9.13889C72.1501 8.79869 72.2631 8.52888 72.4889 8.32945C72.7148 8.11829 73.0137 8.01271 73.3858 8.01271C73.7976 8.01271 74.1165 8.14762 74.3424 8.41743L81.5968 16.7406V9.13889C81.5968 8.79869 81.7031 8.52888 81.9157 8.32945C82.1415 8.11829 82.4338 8.01271 82.7926 8.01271ZM99.601 18.7994C99.8667 19.0223 99.9996 19.2745 99.9996 19.556C99.9996 19.8258 99.88 20.0663 99.6409 20.2775C99.415 20.4769 99.1426 20.5766 98.8237 20.5766C98.4916 20.5766 98.186 20.4534 97.907 20.2071L91.2704 14.717V19.468C91.2704 19.8082 91.1508 20.0839 90.9117 20.2951C90.6858 20.5062 90.3736 20.6118 89.975 20.6118C89.5897 20.6118 89.2774 20.5062 89.0383 20.2951C88.8124 20.0839 88.6995 19.8082 88.6995 19.468V9.13889C88.6995 8.79869 88.8124 8.52888 89.0383 8.32945C89.2774 8.11829 89.5897 8.01271 89.975 8.01271C90.3736 8.01271 90.6858 8.11829 90.9117 8.32945C91.1508 8.52888 91.2704 8.79869 91.2704 9.13889V13.6612L97.6878 8.34705C97.9269 8.13589 98.1993 8.03031 98.5049 8.03031C98.8105 8.03031 99.0762 8.13589 99.3021 8.34705C99.5412 8.54647 99.6608 8.78109 99.6608 9.05091C99.6608 9.32072 99.5279 9.56707 99.2622 9.78996L93.9011 14.1187L99.601 18.7994Z" fill="white"/>
<path d="M49.2764 14.1011C50.0869 14.3005 50.7114 14.6642 51.1498 15.1921C51.6015 15.72 51.8274 16.3652 51.8274 17.1277C51.8274 18.1835 51.3956 19.0105 50.532 19.6088C49.6817 20.2071 48.5058 20.5062 47.0044 20.5062H41.8626C41.4773 20.5062 41.1717 20.4124 40.9458 20.2247C40.7332 20.037 40.627 19.773 40.627 19.4328V9.17408C40.627 8.83388 40.7332 8.56994 40.9458 8.38224C41.1717 8.19454 41.4773 8.1007 41.8626 8.1007H46.8051C48.2667 8.1007 49.4093 8.38811 50.233 8.96293C51.0701 9.52601 51.4886 10.3179 51.4886 11.3385C51.4886 11.9954 51.2893 12.5643 50.8907 13.0453C50.5054 13.5263 49.9673 13.8782 49.2764 14.1011ZM43.1381 13.3269H46.3866C48.1537 13.3269 49.0373 12.7462 49.0373 11.5848C49.0373 10.9983 48.818 10.5642 48.3796 10.2827C47.9411 10.0011 47.2768 9.86035 46.3866 9.86035H43.1381V13.3269ZM46.7254 18.7466C47.6555 18.7466 48.3331 18.5999 48.7583 18.3067C49.1834 18.0134 49.396 17.5559 49.396 16.9341C49.396 16.3124 49.1768 15.849 48.7383 15.544C48.3132 15.239 47.6422 15.0865 46.7254 15.0865H43.1381V18.7466H46.7254ZM68.4327 19.1513C68.5124 19.3038 68.5523 19.4563 68.5523 19.6088C68.5523 19.8786 68.426 20.1074 68.1736 20.2951C67.9345 20.4828 67.6554 20.5766 67.3366 20.5766C67.124 20.5766 66.9247 20.5297 66.7387 20.4358C66.5527 20.3303 66.4065 20.1719 66.3002 19.9607L65.1044 17.6028H58.0892L56.8934 19.9607C56.7871 20.1719 56.641 20.3303 56.455 20.4358C56.269 20.5297 56.063 20.5766 55.8372 20.5766C55.5316 20.5766 55.2525 20.4828 55.0001 20.2951C54.7477 20.1074 54.6214 19.8786 54.6214 19.6088C54.6214 19.4563 54.6613 19.3038 54.741 19.1513L60.2416 8.71657C60.3612 8.48195 60.5405 8.30599 60.7797 8.18868C61.0321 8.05964 61.2979 7.99512 61.5769 7.99512C61.8559 7.99512 62.115 8.05964 62.3542 8.18868C62.6066 8.30599 62.7926 8.48195 62.9122 8.71657L68.4327 19.1513ZM58.9661 15.8432H64.2275L61.5968 10.617L58.9661 15.8432ZM82.7926 8.01271C83.1646 8.01271 83.4569 8.11829 83.6695 8.32945C83.8953 8.52888 84.0083 8.79869 84.0083 9.13889V19.468C84.0083 19.8082 83.8953 20.0839 83.6695 20.2951C83.4436 20.5062 83.1513 20.6118 82.7926 20.6118C82.3674 20.6118 82.0419 20.4769 81.816 20.2071L74.5417 11.8487V19.468C74.5417 19.8082 74.4354 20.0839 74.2228 20.2951C74.0102 20.5062 73.7179 20.6118 73.3459 20.6118C72.9739 20.6118 72.6816 20.5062 72.469 20.2951C72.2564 20.0839 72.1501 19.8082 72.1501 19.468V9.13889C72.1501 8.79869 72.2631 8.52888 72.4889 8.32945C72.7148 8.11829 73.0137 8.01271 73.3858 8.01271C73.7976 8.01271 74.1165 8.14762 74.3424 8.41743L81.5968 16.7406V9.13889C81.5968 8.79869 81.7031 8.52888 81.9157 8.32945C82.1415 8.11829 82.4338 8.01271 82.7926 8.01271ZM99.601 18.7994C99.8667 19.0223 99.9996 19.2745 99.9996 19.556C99.9996 19.8258 99.88 20.0663 99.6409 20.2775C99.415 20.4769 99.1426 20.5766 98.8237 20.5766C98.4916 20.5766 98.186 20.4534 97.907 20.2071L91.2704 14.717V19.468C91.2704 19.8082 91.1508 20.0839 90.9117 20.2951C90.6858 20.5062 90.3736 20.6118 89.975 20.6118C89.5897 20.6118 89.2774 20.5062 89.0383 20.2951C88.8124 20.0839 88.6995 19.8082 88.6995 19.468V9.13889C88.6995 8.79869 88.8124 8.52888 89.0383 8.32945C89.2774 8.11829 89.5897 8.01271 89.975 8.01271C90.3736 8.01271 90.6858 8.11829 90.9117 8.32945C91.1508 8.52888 91.2704 8.79869 91.2704 9.13889V13.6612L97.6878 8.34705C97.9269 8.13589 98.1993 8.03031 98.5049 8.03031C98.8105 8.03031 99.0762 8.13589 99.3021 8.34705C99.5412 8.54647 99.6608 8.78109 99.6608 9.05091C99.6608 9.32072 99.5279 9.56707 99.2622 9.78996L93.9011 14.1187L99.601 18.7994Z" fill="url(#paint1_linear)"/>
<defs>
<linearGradient id="paint0_linear" x1="3.24905" y1="1.32669e-05" x2="31.9188" y2="3.10721" gradientUnits="userSpaceOnUse">
<stop stop-color="#4271FF"/>
<stop offset="1" stop-color="#5165D7"/>
</linearGradient>
<linearGradient id="paint1_linear" x1="47.336" y1="7.99512" x2="94.7442" y2="32.3272" gradientUnits="userSpaceOnUse">
<stop stop-color="#4271FF"/>
<stop offset="1" stop-color="#5165D7"/>
</linearGradient>
</defs>
</svg>
