<svg width="300" height="229" viewBox="0 0 300 229" fill="none" xmlns="http://www.w3.org/2000/svg">
<g filter="url(#filter0_d)">
<path d="M128.753 114.467C128.753 106.477 122.316 100 114.376 100C106.437 100 100 106.477 100 114.467C100 122.458 106.437 128.935 114.376 128.935C122.316 128.935 128.753 122.458 128.753 114.467Z" fill="white"/>
<path d="M128.753 114.467C128.753 106.477 122.316 100 114.376 100C106.437 100 100 106.477 100 114.467C100 122.458 106.437 128.935 114.376 128.935C122.316 128.935 128.753 122.458 128.753 114.467Z" fill="url(#paint0_linear)"/>
<path d="M113.102 109.785L112.844 113.153H117.605C117.916 113.153 118.157 113.229 118.33 113.379C118.502 113.53 118.588 113.732 118.588 113.987C118.588 114.6 118.226 114.907 117.502 114.907H112.688L112.412 118.483H117.536C117.847 118.483 118.088 118.564 118.261 118.726C118.433 118.877 118.519 119.079 118.519 119.334C118.519 119.635 118.422 119.866 118.226 120.028C118.042 120.179 117.772 120.254 117.415 120.254H111.17C110.825 120.254 110.566 120.161 110.394 119.976C110.233 119.791 110.164 119.531 110.187 119.195L110.981 109.056C111.004 108.732 111.113 108.478 111.308 108.292C111.504 108.107 111.768 108.015 112.102 108.015H118.364C118.675 108.015 118.911 108.09 119.072 108.24C119.244 108.391 119.33 108.593 119.33 108.848C119.33 109.473 118.968 109.785 118.243 109.785H113.102Z" fill="white"/>
<path d="M149.276 114.101C150.087 114.301 150.711 114.664 151.15 115.192C151.602 115.72 151.827 116.365 151.827 117.128C151.827 118.183 151.396 119.011 150.532 119.609C149.682 120.207 148.506 120.506 147.004 120.506H141.863C141.477 120.506 141.172 120.412 140.946 120.225C140.733 120.037 140.627 119.773 140.627 119.433V109.174C140.627 108.834 140.733 108.57 140.946 108.382C141.172 108.195 141.477 108.101 141.863 108.101H146.805C148.267 108.101 149.409 108.388 150.233 108.963C151.07 109.526 151.489 110.318 151.489 111.338C151.489 111.995 151.289 112.564 150.891 113.045C150.505 113.526 149.967 113.878 149.276 114.101ZM143.138 113.327H146.387C148.154 113.327 149.037 112.746 149.037 111.585C149.037 110.998 148.818 110.564 148.38 110.283C147.941 110.001 147.277 109.86 146.387 109.86H143.138V113.327ZM146.725 118.747C147.655 118.747 148.333 118.6 148.758 118.307C149.183 118.013 149.396 117.556 149.396 116.934C149.396 116.312 149.177 115.849 148.738 115.544C148.313 115.239 147.642 115.087 146.725 115.087H143.138V118.747H146.725ZM168.433 119.151C168.512 119.304 168.552 119.456 168.552 119.609C168.552 119.879 168.426 120.107 168.174 120.295C167.934 120.483 167.655 120.577 167.337 120.577C167.124 120.577 166.925 120.53 166.739 120.436C166.553 120.33 166.407 120.172 166.3 119.961L165.104 117.603H158.089L156.893 119.961C156.787 120.172 156.641 120.33 156.455 120.436C156.269 120.53 156.063 120.577 155.837 120.577C155.532 120.577 155.253 120.483 155 120.295C154.748 120.107 154.621 119.879 154.621 119.609C154.621 119.456 154.661 119.304 154.741 119.151L160.242 108.717C160.361 108.482 160.541 108.306 160.78 108.189C161.032 108.06 161.298 107.995 161.577 107.995C161.856 107.995 162.115 108.06 162.354 108.189C162.607 108.306 162.793 108.482 162.912 108.717L168.433 119.151ZM158.966 115.843H164.228L161.597 110.617L158.966 115.843ZM182.793 108.013C183.165 108.013 183.457 108.118 183.669 108.329C183.895 108.529 184.008 108.799 184.008 109.139V119.468C184.008 119.808 183.895 120.084 183.669 120.295C183.444 120.506 183.151 120.612 182.793 120.612C182.367 120.612 182.042 120.477 181.816 120.207L174.542 111.849V119.468C174.542 119.808 174.435 120.084 174.223 120.295C174.01 120.506 173.718 120.612 173.346 120.612C172.974 120.612 172.682 120.506 172.469 120.295C172.256 120.084 172.15 119.808 172.15 119.468V109.139C172.15 108.799 172.263 108.529 172.489 108.329C172.715 108.118 173.014 108.013 173.386 108.013C173.798 108.013 174.117 108.148 174.342 108.417L181.597 116.741V109.139C181.597 108.799 181.703 108.529 181.916 108.329C182.142 108.118 182.434 108.013 182.793 108.013ZM199.601 118.799C199.867 119.022 200 119.274 200 119.556C200 119.826 199.88 120.066 199.641 120.277C199.415 120.477 199.143 120.577 198.824 120.577C198.492 120.577 198.186 120.453 197.907 120.207L191.27 114.717V119.468C191.27 119.808 191.151 120.084 190.912 120.295C190.686 120.506 190.374 120.612 189.975 120.612C189.59 120.612 189.277 120.506 189.038 120.295C188.812 120.084 188.699 119.808 188.699 119.468V109.139C188.699 108.799 188.812 108.529 189.038 108.329C189.277 108.118 189.59 108.013 189.975 108.013C190.374 108.013 190.686 108.118 190.912 108.329C191.151 108.529 191.27 108.799 191.27 109.139V113.661L197.688 108.347C197.927 108.136 198.199 108.03 198.505 108.03C198.81 108.03 199.076 108.136 199.302 108.347C199.541 108.546 199.661 108.781 199.661 109.051C199.661 109.321 199.528 109.567 199.262 109.79L193.901 114.119L199.601 118.799Z" fill="white"/>
<path d="M149.276 114.101C150.087 114.301 150.711 114.664 151.15 115.192C151.602 115.72 151.827 116.365 151.827 117.128C151.827 118.183 151.396 119.011 150.532 119.609C149.682 120.207 148.506 120.506 147.004 120.506H141.863C141.477 120.506 141.172 120.412 140.946 120.225C140.733 120.037 140.627 119.773 140.627 119.433V109.174C140.627 108.834 140.733 108.57 140.946 108.382C141.172 108.195 141.477 108.101 141.863 108.101H146.805C148.267 108.101 149.409 108.388 150.233 108.963C151.07 109.526 151.489 110.318 151.489 111.338C151.489 111.995 151.289 112.564 150.891 113.045C150.505 113.526 149.967 113.878 149.276 114.101ZM143.138 113.327H146.387C148.154 113.327 149.037 112.746 149.037 111.585C149.037 110.998 148.818 110.564 148.38 110.283C147.941 110.001 147.277 109.86 146.387 109.86H143.138V113.327ZM146.725 118.747C147.655 118.747 148.333 118.6 148.758 118.307C149.183 118.013 149.396 117.556 149.396 116.934C149.396 116.312 149.177 115.849 148.738 115.544C148.313 115.239 147.642 115.087 146.725 115.087H143.138V118.747H146.725ZM168.433 119.151C168.512 119.304 168.552 119.456 168.552 119.609C168.552 119.879 168.426 120.107 168.174 120.295C167.934 120.483 167.655 120.577 167.337 120.577C167.124 120.577 166.925 120.53 166.739 120.436C166.553 120.33 166.407 120.172 166.3 119.961L165.104 117.603H158.089L156.893 119.961C156.787 120.172 156.641 120.33 156.455 120.436C156.269 120.53 156.063 120.577 155.837 120.577C155.532 120.577 155.253 120.483 155 120.295C154.748 120.107 154.621 119.879 154.621 119.609C154.621 119.456 154.661 119.304 154.741 119.151L160.242 108.717C160.361 108.482 160.541 108.306 160.78 108.189C161.032 108.06 161.298 107.995 161.577 107.995C161.856 107.995 162.115 108.06 162.354 108.189C162.607 108.306 162.793 108.482 162.912 108.717L168.433 119.151ZM158.966 115.843H164.228L161.597 110.617L158.966 115.843ZM182.793 108.013C183.165 108.013 183.457 108.118 183.669 108.329C183.895 108.529 184.008 108.799 184.008 109.139V119.468C184.008 119.808 183.895 120.084 183.669 120.295C183.444 120.506 183.151 120.612 182.793 120.612C182.367 120.612 182.042 120.477 181.816 120.207L174.542 111.849V119.468C174.542 119.808 174.435 120.084 174.223 120.295C174.01 120.506 173.718 120.612 173.346 120.612C172.974 120.612 172.682 120.506 172.469 120.295C172.256 120.084 172.15 119.808 172.15 119.468V109.139C172.15 108.799 172.263 108.529 172.489 108.329C172.715 108.118 173.014 108.013 173.386 108.013C173.798 108.013 174.117 108.148 174.342 108.417L181.597 116.741V109.139C181.597 108.799 181.703 108.529 181.916 108.329C182.142 108.118 182.434 108.013 182.793 108.013ZM199.601 118.799C199.867 119.022 200 119.274 200 119.556C200 119.826 199.88 120.066 199.641 120.277C199.415 120.477 199.143 120.577 198.824 120.577C198.492 120.577 198.186 120.453 197.907 120.207L191.27 114.717V119.468C191.27 119.808 191.151 120.084 190.912 120.295C190.686 120.506 190.374 120.612 189.975 120.612C189.59 120.612 189.277 120.506 189.038 120.295C188.812 120.084 188.699 119.808 188.699 119.468V109.139C188.699 108.799 188.812 108.529 189.038 108.329C189.277 108.118 189.59 108.013 189.975 108.013C190.374 108.013 190.686 108.118 190.912 108.329C191.151 108.529 191.27 108.799 191.27 109.139V113.661L197.688 108.347C197.927 108.136 198.199 108.03 198.505 108.03C198.81 108.03 199.076 108.136 199.302 108.347C199.541 108.546 199.661 108.781 199.661 109.051C199.661 109.321 199.528 109.567 199.262 109.79L193.901 114.119L199.601 118.799Z" fill="url(#paint1_linear)"/>
</g>
<defs>
<filter id="filter0_d" x="0" y="0" width="300" height="228.935" filterUnits="userSpaceOnUse" color-interpolation-filters="sRGB">
<feFlood flood-opacity="0" result="BackgroundImageFix"/>
<feColorMatrix in="SourceAlpha" type="matrix" values="0 0 0 0 0 0 0 0 0 0 0 0 0 0 0 0 0 0 127 0"/>
<feOffset/>
<feGaussianBlur stdDeviation="50"/>
<feColorMatrix type="matrix" values="0 0 0 0 0.258824 0 0 0 0 0.443137 0 0 0 0 1 0 0 0 0.3 0"/>
<feBlend mode="normal" in2="BackgroundImageFix" result="effect1_dropShadow"/>
<feBlend mode="normal" in="SourceGraphic" in2="effect1_dropShadow" result="shape"/>
</filter>
<linearGradient id="paint0_linear" x1="103.249" y1="100" x2="131.919" y2="103.107" gradientUnits="userSpaceOnUse">
<stop stop-color="#4271FF"/>
<stop offset="1" stop-color="#5165D7"/>
</linearGradient>
<linearGradient id="paint1_linear" x1="147.336" y1="107.995" x2="194.744" y2="132.327" gradientUnits="userSpaceOnUse">
<stop stop-color="#4271FF"/>
<stop offset="1" stop-color="#5165D7"/>
</linearGradient>
</defs>
</svg>
