<svg width="54" height="41" viewBox="0 0 54 41" fill="none" xmlns="http://www.w3.org/2000/svg">
<path d="M50.2481 25.938L50.2507 25.9237L50.2515 25.9092C50.7614 17.241 43.125 8.66938 30.6087 5.1628L30.6088 5.16255L30.5977 5.15998C24.1634 3.66912 17.9653 3.70469 13.1207 5.17235C8.27635 6.63998 4.75022 9.55457 3.75775 13.8379C2.80811 17.933 4.22047 22.7605 7.61886 26.8889C11.0201 31.0207 16.4222 34.4699 23.498 35.8226C29.9378 37.3139 36.2237 37.0193 41.0997 35.2718C45.9746 33.5246 49.4771 30.3074 50.2481 25.938Z" fill="#E4E8E8" stroke="black" stroke-width="0.5"/>
<path d="M23.4399 35.0909L23.4304 35.0887L23.4208 35.0868C16.5056 33.7659 11.2603 30.4029 7.97525 26.4122C4.68291 22.4127 3.38213 17.8175 4.26571 14.0073L4.26573 14.0072C5.17678 10.0753 8.42536 7.31104 13.1155 5.89014C17.8026 4.47016 23.8589 4.42172 30.1947 5.88806C42.5228 9.34566 49.7431 17.6841 49.2818 25.8361C48.5637 29.8333 45.3378 32.8763 40.624 34.5657C35.9039 36.2574 29.7653 36.5565 23.4399 35.0909Z" fill="#E4E8E8" stroke="white"/>
<path d="M22.74 20.6345C22.9133 20.6345 23.0467 20.6879 23.14 20.7945C23.2467 20.8879 23.3 21.0145 23.3 21.1745C23.3 21.3479 23.2467 21.4812 23.14 21.5745C23.0467 21.6545 22.9133 21.6945 22.74 21.6945H21.02V24.3545C21.02 24.5412 20.96 24.6945 20.84 24.8145C20.7333 24.9345 20.5867 24.9945 20.4 24.9945C20.2133 24.9945 20.06 24.9345 19.94 24.8145C19.8333 24.6945 19.78 24.5412 19.78 24.3545V21.6945H13.58C13.3933 21.6945 13.2467 21.6479 13.14 21.5545C13.0333 21.4612 12.98 21.3345 12.98 21.1745C12.98 21.0145 13.04 20.8545 13.16 20.6945L19.88 10.9745C19.9333 10.8812 20.0067 10.8145 20.1 10.7745C20.2067 10.7212 20.3133 10.6945 20.42 10.6945C20.58 10.6945 20.72 10.7479 20.84 10.8545C20.96 10.9612 21.02 11.1212 21.02 11.3345V20.6345H22.74ZM14.48 20.6345H19.78V12.9745L14.48 20.6345Z" fill="#2F343E"/>
<path d="M26.72 19.9245C27.3067 19.9245 27.7433 20.0779 28.03 20.3845C28.3233 20.6912 28.47 21.1545 28.47 21.7745V24.6245C28.47 24.7179 28.4433 24.7945 28.39 24.8545C28.3367 24.9079 28.2633 24.9345 28.17 24.9345C28.0767 24.9345 28.0033 24.9079 27.95 24.8545C27.8967 24.7945 27.87 24.7179 27.87 24.6245V24.0245C27.73 24.3245 27.5267 24.5579 27.26 24.7245C26.9933 24.8845 26.6867 24.9645 26.34 24.9645C26.0267 24.9645 25.74 24.9012 25.48 24.7745C25.2267 24.6479 25.0233 24.4745 24.87 24.2545C24.7167 24.0345 24.64 23.7879 24.64 23.5145C24.6333 23.1479 24.7233 22.8645 24.91 22.6645C25.0967 22.4579 25.4067 22.3112 25.84 22.2245C26.2733 22.1379 26.88 22.0945 27.66 22.0945H27.87V21.7245C27.87 21.2845 27.78 20.9645 27.6 20.7645C27.42 20.5579 27.1367 20.4545 26.75 20.4545C26.2567 20.4545 25.7867 20.5845 25.34 20.8445C25.32 20.8579 25.2667 20.8945 25.18 20.9545C25.1 21.0079 25.03 21.0345 24.97 21.0345C24.9033 21.0345 24.8467 21.0112 24.8 20.9645C24.76 20.9112 24.74 20.8479 24.74 20.7745C24.74 20.6279 24.8567 20.4845 25.09 20.3445C25.3233 20.2112 25.5833 20.1079 25.87 20.0345C26.1567 19.9612 26.44 19.9245 26.72 19.9245ZM26.39 24.4345C26.8233 24.4345 27.1767 24.2879 27.45 23.9945C27.73 23.7012 27.87 23.3279 27.87 22.8745V22.5445H27.68C27.04 22.5445 26.55 22.5712 26.21 22.6245C25.87 22.6779 25.63 22.7712 25.49 22.9045C25.35 23.0312 25.28 23.2179 25.28 23.4645C25.28 23.7445 25.3867 23.9779 25.6 24.1645C25.8133 24.3445 26.0767 24.4345 26.39 24.4345ZM32.1437 24.9645C31.6037 24.9645 31.1637 24.8245 30.8237 24.5445C30.4903 24.2579 30.2503 23.9012 30.1037 23.4745C29.957 23.0479 29.8837 22.6045 29.8837 22.1445C29.8837 21.3312 29.9503 20.6779 30.0837 20.1845C30.217 19.6912 30.4003 19.3145 30.6337 19.0545C30.8737 18.7879 31.1803 18.5645 31.5537 18.3845C31.7337 18.2979 31.9337 18.2212 32.1537 18.1545C32.3803 18.0812 32.517 18.0379 32.5637 18.0245C32.6237 18.0045 32.777 17.9579 33.0237 17.8845C33.277 17.8045 33.5137 17.7112 33.7337 17.6045C33.787 17.5779 33.8403 17.5645 33.8937 17.5645C33.9737 17.5645 34.037 17.5912 34.0837 17.6445C34.137 17.6912 34.1637 17.7512 34.1637 17.8245C34.1637 17.9312 34.1037 18.0212 33.9837 18.0945C33.817 18.1945 33.6337 18.2812 33.4337 18.3545C33.2337 18.4212 32.9803 18.5012 32.6737 18.5945C32.6137 18.6145 32.4903 18.6512 32.3037 18.7045C32.1237 18.7579 31.9637 18.8145 31.8237 18.8745C30.957 19.2012 30.5103 19.9679 30.4837 21.1745C30.637 20.8345 30.8637 20.5512 31.1637 20.3245C31.4703 20.0979 31.8637 19.9845 32.3437 19.9845C32.717 19.9845 33.057 20.0712 33.3637 20.2445C33.6703 20.4179 33.917 20.6879 34.1037 21.0545C34.2903 21.4212 34.3837 21.8879 34.3837 22.4545C34.3837 22.9012 34.297 23.3179 34.1237 23.7045C33.9503 24.0845 33.6937 24.3912 33.3537 24.6245C33.0203 24.8512 32.617 24.9645 32.1437 24.9645ZM32.1437 24.4245C32.537 24.4245 32.8537 24.3212 33.0937 24.1145C33.3337 23.9079 33.5003 23.6579 33.5937 23.3645C33.6937 23.0645 33.7437 22.7645 33.7437 22.4645C33.7437 21.8645 33.6137 21.3912 33.3537 21.0445C33.1003 20.6979 32.7303 20.5245 32.2437 20.5245C31.857 20.5245 31.537 20.6279 31.2837 20.8345C31.0303 21.0345 30.8437 21.2845 30.7237 21.5845C30.6037 21.8779 30.5437 22.1745 30.5437 22.4745C30.5437 23.0079 30.667 23.4679 30.9137 23.8545C31.167 24.2345 31.577 24.4245 32.1437 24.4245ZM35.9791 24.8945C35.8791 24.8945 35.7991 24.8645 35.7391 24.8045C35.6791 24.7445 35.6491 24.6679 35.6491 24.5745V20.3645C35.6491 20.2712 35.6791 20.1945 35.7391 20.1345C35.7991 20.0745 35.8758 20.0445 35.9691 20.0445H37.6591C38.1791 20.0445 38.5825 20.1445 38.8691 20.3445C39.1558 20.5445 39.2991 20.8545 39.2991 21.2745C39.2991 21.5079 39.2291 21.7312 39.0891 21.9445C38.9491 22.1512 38.7325 22.3045 38.4391 22.4045C38.7258 22.4512 38.9591 22.5745 39.1391 22.7745C39.3258 22.9745 39.4191 23.2312 39.4191 23.5445C39.4191 23.7645 39.3591 23.9779 39.2391 24.1845C39.1258 24.3845 38.9391 24.5545 38.6791 24.6945C38.4258 24.8279 38.0991 24.8945 37.6991 24.8945H35.9791ZM37.6591 22.1845C37.9591 22.1845 38.2025 22.1045 38.3891 21.9445C38.5825 21.7779 38.6791 21.5612 38.6791 21.2945C38.6791 21.0545 38.5925 20.8679 38.4191 20.7345C38.2525 20.5945 37.9858 20.5245 37.6191 20.5245H36.2591V22.1845H37.6591ZM37.6791 24.4045C38.4191 24.4045 38.7891 24.1179 38.7891 23.5445C38.7891 23.2512 38.6758 23.0312 38.4491 22.8845C38.2225 22.7312 37.9225 22.6545 37.5491 22.6545H36.2591V24.4045H37.6791Z" fill="#2F343E"/>
</svg>
