<svg width="48" height="35" viewBox="0 0 48 35" fill="none" xmlns="http://www.w3.org/2000/svg">
<path d="M47.2481 23.0434L47.2507 23.0292L47.2515 23.0147C47.7614 14.3465 40.125 5.77485 27.6087 2.26827L27.6088 2.26802L27.5977 2.26545C21.1634 0.774586 14.9653 0.810156 10.1207 2.27782C5.27635 3.74544 1.75022 6.66004 0.757749 10.9434C-0.191892 15.0385 1.22047 19.866 4.61886 23.9943C8.02012 28.1262 13.4222 31.5753 20.498 32.9281C26.9378 34.4194 33.2237 34.1248 38.0997 32.3772C42.9746 30.6301 46.4771 27.4128 47.2481 23.0434Z" fill="#E4E8E8" stroke="black" stroke-width="0.5"/>
<path d="M20.4399 32.1963L20.4304 32.1941L20.4208 32.1923C13.5056 30.8714 8.26031 27.5084 4.97525 23.5177C1.68291 19.5181 0.382127 14.923 1.26571 11.1128L1.26573 11.1127C2.17678 7.18079 5.42536 4.41651 10.1155 2.99561C14.8026 1.57563 20.8589 1.52719 27.1947 2.99353C39.5228 6.45112 46.7431 14.7896 46.2818 22.9416C45.5637 26.9388 42.3378 29.9818 37.624 31.6712C32.9039 33.3629 26.7653 33.662 20.4399 32.1963Z" fill="#E4E8E8" stroke="white"/>
<path d="M18.74 20.92C18.9133 20.92 19.0533 20.9733 19.16 21.08C19.2667 21.1733 19.32 21.3 19.32 21.46C19.32 21.6333 19.2667 21.7667 19.16 21.86C19.0667 21.9533 18.9267 22 18.74 22H12.2C12.0267 22 11.8867 21.9533 11.78 21.86C11.6867 21.7667 11.64 21.6333 11.64 21.46C11.64 21.3 11.6867 21.1733 11.78 21.08C11.8867 20.9733 12.0267 20.92 12.2 20.92H14.86V9.5L12.56 11C12.4933 11.0533 12.4067 11.08 12.3 11.08C12.1533 11.08 12.02 11.0133 11.9 10.88C11.7933 10.7467 11.74 10.5933 11.74 10.42C11.74 10.2333 11.8267 10.08 12 9.96L15 7.96C15.1733 7.85333 15.34 7.8 15.5 7.8C15.6733 7.8 15.8133 7.86 15.92 7.98C16.04 8.08667 16.1 8.24 16.1 8.44V20.92H18.74Z" fill="#2F343E"/>
<path d="M23.72 17.03C24.3067 17.03 24.7433 17.1833 25.03 17.49C25.3233 17.7967 25.47 18.26 25.47 18.88V21.73C25.47 21.8233 25.4433 21.9 25.39 21.96C25.3367 22.0133 25.2633 22.04 25.17 22.04C25.0767 22.04 25.0033 22.0133 24.95 21.96C24.8967 21.9 24.87 21.8233 24.87 21.73V21.13C24.73 21.43 24.5267 21.6633 24.26 21.83C23.9933 21.99 23.6867 22.07 23.34 22.07C23.0267 22.07 22.74 22.0067 22.48 21.88C22.2267 21.7533 22.0233 21.58 21.87 21.36C21.7167 21.14 21.64 20.8933 21.64 20.62C21.6333 20.2533 21.7233 19.97 21.91 19.77C22.0967 19.5633 22.4067 19.4167 22.84 19.33C23.2733 19.2433 23.88 19.2 24.66 19.2H24.87V18.83C24.87 18.39 24.78 18.07 24.6 17.87C24.42 17.6633 24.1367 17.56 23.75 17.56C23.2567 17.56 22.7867 17.69 22.34 17.95C22.32 17.9633 22.2667 18 22.18 18.06C22.1 18.1133 22.03 18.14 21.97 18.14C21.9033 18.14 21.8467 18.1167 21.8 18.07C21.76 18.0167 21.74 17.9533 21.74 17.88C21.74 17.7333 21.8567 17.59 22.09 17.45C22.3233 17.3167 22.5833 17.2133 22.87 17.14C23.1567 17.0667 23.44 17.03 23.72 17.03ZM23.39 21.54C23.8233 21.54 24.1767 21.3933 24.45 21.1C24.73 20.8067 24.87 20.4333 24.87 19.98V19.65H24.68C24.04 19.65 23.55 19.6767 23.21 19.73C22.87 19.7833 22.63 19.8767 22.49 20.01C22.35 20.1367 22.28 20.3233 22.28 20.57C22.28 20.85 22.3867 21.0833 22.6 21.27C22.8133 21.45 23.0767 21.54 23.39 21.54ZM29.1437 22.07C28.6037 22.07 28.1637 21.93 27.8237 21.65C27.4903 21.3633 27.2503 21.0067 27.1037 20.58C26.957 20.1533 26.8837 19.71 26.8837 19.25C26.8837 18.4367 26.9503 17.7833 27.0837 17.29C27.217 16.7967 27.4003 16.42 27.6337 16.16C27.8737 15.8933 28.1803 15.67 28.5537 15.49C28.7337 15.4033 28.9337 15.3267 29.1537 15.26C29.3803 15.1867 29.517 15.1433 29.5637 15.13C29.6237 15.11 29.777 15.0633 30.0237 14.99C30.277 14.91 30.5137 14.8167 30.7337 14.71C30.787 14.6833 30.8403 14.67 30.8937 14.67C30.9737 14.67 31.037 14.6967 31.0837 14.75C31.137 14.7967 31.1637 14.8567 31.1637 14.93C31.1637 15.0367 31.1037 15.1267 30.9837 15.2C30.817 15.3 30.6337 15.3867 30.4337 15.46C30.2337 15.5267 29.9803 15.6067 29.6737 15.7C29.6137 15.72 29.4903 15.7567 29.3037 15.81C29.1237 15.8633 28.9637 15.92 28.8237 15.98C27.957 16.3067 27.5103 17.0733 27.4837 18.28C27.637 17.94 27.8637 17.6567 28.1637 17.43C28.4703 17.2033 28.8637 17.09 29.3437 17.09C29.717 17.09 30.057 17.1767 30.3637 17.35C30.6703 17.5233 30.917 17.7933 31.1037 18.16C31.2903 18.5267 31.3837 18.9933 31.3837 19.56C31.3837 20.0067 31.297 20.4233 31.1237 20.81C30.9503 21.19 30.6937 21.4967 30.3537 21.73C30.0203 21.9567 29.617 22.07 29.1437 22.07ZM29.1437 21.53C29.537 21.53 29.8537 21.4267 30.0937 21.22C30.3337 21.0133 30.5003 20.7633 30.5937 20.47C30.6937 20.17 30.7437 19.87 30.7437 19.57C30.7437 18.97 30.6137 18.4967 30.3537 18.15C30.1003 17.8033 29.7303 17.63 29.2437 17.63C28.857 17.63 28.537 17.7333 28.2837 17.94C28.0303 18.14 27.8437 18.39 27.7237 18.69C27.6037 18.9833 27.5437 19.28 27.5437 19.58C27.5437 20.1133 27.667 20.5733 27.9137 20.96C28.167 21.34 28.577 21.53 29.1437 21.53ZM32.9791 22C32.8791 22 32.7991 21.97 32.7391 21.91C32.6791 21.85 32.6491 21.7733 32.6491 21.68V17.47C32.6491 17.3767 32.6791 17.3 32.7391 17.24C32.7991 17.18 32.8758 17.15 32.9691 17.15H34.6591C35.1791 17.15 35.5825 17.25 35.8691 17.45C36.1558 17.65 36.2991 17.96 36.2991 18.38C36.2991 18.6133 36.2291 18.8367 36.0891 19.05C35.9491 19.2567 35.7325 19.41 35.4391 19.51C35.7258 19.5567 35.9591 19.68 36.1391 19.88C36.3258 20.08 36.4191 20.3367 36.4191 20.65C36.4191 20.87 36.3591 21.0833 36.2391 21.29C36.1258 21.49 35.9391 21.66 35.6791 21.8C35.4258 21.9333 35.0991 22 34.6991 22H32.9791ZM34.6591 19.29C34.9591 19.29 35.2025 19.21 35.3891 19.05C35.5825 18.8833 35.6791 18.6667 35.6791 18.4C35.6791 18.16 35.5925 17.9733 35.4191 17.84C35.2525 17.7 34.9858 17.63 34.6191 17.63H33.2591V19.29H34.6591ZM34.6791 21.51C35.4191 21.51 35.7891 21.2233 35.7891 20.65C35.7891 20.3567 35.6758 20.1367 35.4491 19.99C35.2225 19.8367 34.9225 19.76 34.5491 19.76H33.2591V21.51H34.6791Z" fill="#2F343E"/>
</svg>
