<svg width="49" height="32" viewBox="0 0 49 32" fill="none" xmlns="http://www.w3.org/2000/svg">
<path d="M24.5 31.25C31.0297 31.25 36.9529 29.5611 41.2515 26.8173C45.5472 24.0754 48.25 20.2569 48.25 16C48.25 11.7431 45.5472 7.92461 41.2515 5.18267C36.9529 2.43889 31.0297 0.75 24.5 0.75C17.9703 0.75 12.0471 2.43889 7.74848 5.18267C3.45277 7.92461 0.75 11.7431 0.75 16C0.75 20.2569 3.45277 24.0754 7.74848 26.8173C12.0471 29.5611 17.9703 31.25 24.5 31.25Z" fill="#E4E8E8" stroke="black" stroke-width="0.5"/>
<path d="M47.5 16C47.5 19.9126 45.0146 23.5256 40.848 26.1851C36.6872 28.841 30.9087 30.5 24.5 30.5C18.0913 30.5 12.3128 28.841 8.15201 26.1851C3.98545 23.5256 1.5 19.9126 1.5 16C1.5 12.0874 3.98545 8.47437 8.15201 5.81486C12.3128 3.15902 18.0913 1.5 24.5 1.5C30.9087 1.5 36.6872 3.15902 40.848 5.81486C45.0146 8.47437 47.5 12.0874 47.5 16Z" fill="#E4E8E8" stroke="white"/>
<path d="M16.46 13.24C17.3533 13.24 18.1333 13.4267 18.8 13.8C19.48 14.1733 20 14.6933 20.36 15.36C20.7333 16.0267 20.92 16.8 20.92 17.68C20.92 18.5467 20.7267 19.32 20.34 20C19.9533 20.6667 19.4133 21.1933 18.72 21.58C18.0267 21.9533 17.2267 22.14 16.32 22.14C15.48 22.14 14.6667 21.9867 13.88 21.68C13.0933 21.3733 12.44 20.96 11.92 20.44C11.7467 20.28 11.66 20.0867 11.66 19.86C11.66 19.7133 11.7 19.5867 11.78 19.48C11.86 19.3733 11.9533 19.32 12.06 19.32C12.1933 19.32 12.3467 19.3867 12.52 19.52C13.16 20.0533 13.78 20.4467 14.38 20.7C14.9933 20.94 15.6333 21.06 16.3 21.06C17.34 21.06 18.16 20.76 18.76 20.16C19.36 19.5467 19.66 18.72 19.66 17.68C19.66 16.68 19.36 15.8733 18.76 15.26C18.1733 14.6333 17.38 14.32 16.38 14.32C15.0467 14.32 14 14.8467 13.24 15.9C13.08 16.1133 12.88 16.22 12.64 16.22C12.4933 16.22 12.3667 16.1733 12.26 16.08C12.1533 15.9867 12.1 15.8533 12.1 15.68V8.48C12.1 8.32 12.1533 8.18667 12.26 8.08C12.3667 7.96 12.5133 7.9 12.7 7.9H19.92C20.0933 7.9 20.2333 7.94667 20.34 8.04C20.4467 8.13333 20.5 8.26667 20.5 8.44C20.5 8.58667 20.4467 8.71333 20.34 8.82C20.2333 8.91333 20.0933 8.96 19.92 8.96H13.32V14.56C13.6933 14.1333 14.1467 13.8067 14.68 13.58C15.2267 13.3533 15.82 13.24 16.46 13.24Z" fill="#2F343E"/>
<path d="M23.09 22.05C22.9967 22.05 22.92 22.0233 22.86 21.97C22.8067 21.91 22.78 21.8367 22.78 21.75V17.47C22.78 17.3767 22.81 17.3 22.87 17.24C22.93 17.18 23.0067 17.15 23.1 17.15H25.63C25.71 17.15 25.7733 17.1733 25.82 17.22C25.8667 17.26 25.89 17.3167 25.89 17.39C25.89 17.4633 25.8667 17.5233 25.82 17.57C25.7733 17.6167 25.71 17.64 25.63 17.64H23.39V21.75C23.39 21.8367 23.3633 21.91 23.31 21.97C23.2567 22.0233 23.1833 22.05 23.09 22.05ZM26.3744 23.31C26.2877 23.31 26.2177 23.2833 26.1644 23.23C26.111 23.1833 26.0844 23.1133 26.0844 23.02V21.82C26.0844 21.7267 26.1077 21.65 26.1544 21.59C26.201 21.53 26.2644 21.5 26.3444 21.5H26.5544C26.8144 21.1533 27.001 20.7267 27.1144 20.22C27.2344 19.7133 27.2944 19.0367 27.2944 18.19V17.47C27.2944 17.3767 27.3244 17.3 27.3844 17.24C27.4444 17.18 27.521 17.15 27.6144 17.15H30.1444C30.2377 17.15 30.3144 17.18 30.3744 17.24C30.441 17.3 30.4744 17.3767 30.4744 17.47V21.5H30.8944C30.9877 21.5 31.0644 21.53 31.1244 21.59C31.1844 21.65 31.2144 21.7267 31.2144 21.82V23.02C31.2144 23.1133 31.1877 23.1833 31.1344 23.23C31.0877 23.2833 31.0177 23.31 30.9244 23.31C30.8377 23.31 30.7677 23.2833 30.7144 23.23C30.661 23.1833 30.6344 23.1133 30.6344 23.02V22H26.6644V23.02C26.6644 23.1133 26.6377 23.1833 26.5844 23.23C26.5377 23.2833 26.4677 23.31 26.3744 23.31ZM29.8644 17.64H27.8644V18.19C27.8644 19.7167 27.6377 20.82 27.1844 21.5H29.8644V17.64ZM35.8657 20.96C35.9257 20.96 35.9757 20.9867 36.0157 21.04C36.0624 21.0867 36.0857 21.1433 36.0857 21.21C36.0857 21.3567 35.9724 21.5 35.7457 21.64C35.2657 21.9267 34.759 22.07 34.2257 22.07C33.4857 22.07 32.9024 21.8467 32.4757 21.4C32.049 20.9533 31.8357 20.34 31.8357 19.56C31.8357 19.06 31.929 18.62 32.1157 18.24C32.309 17.8533 32.5757 17.5567 32.9157 17.35C33.2624 17.1367 33.659 17.03 34.1057 17.03C34.7324 17.03 35.2257 17.2333 35.5857 17.64C35.9524 18.04 36.1357 18.5933 36.1357 19.3C36.1357 19.42 36.109 19.51 36.0557 19.57C36.0024 19.6233 35.9157 19.65 35.7957 19.65H32.4657C32.4857 20.2633 32.6457 20.73 32.9457 21.05C33.2457 21.37 33.669 21.53 34.2157 21.53C34.5024 21.53 34.7424 21.4933 34.9357 21.42C35.129 21.34 35.3357 21.2367 35.5557 21.11C35.7024 21.01 35.8057 20.96 35.8657 20.96ZM34.1057 17.53C33.639 17.53 33.2657 17.6767 32.9857 17.97C32.7057 18.2633 32.539 18.6733 32.4857 19.2H35.5757C35.5624 18.6667 35.429 18.2567 35.1757 17.97C34.9224 17.6767 34.5657 17.53 34.1057 17.53Z" fill="#2F343E"/>
</svg>
