<svg width="54" height="41" viewBox="0 0 54 41" fill="none" xmlns="http://www.w3.org/2000/svg">
<path d="M3.28115 25.938L3.27863 25.9237L3.27778 25.9092C2.76788 17.241 10.4043 8.66938 22.9206 5.1628L22.9205 5.16255L22.9316 5.15998C29.3659 3.66912 35.564 3.70469 40.4086 5.17235C45.2529 6.63998 48.7791 9.55457 49.7715 13.8379C50.7212 17.933 49.3088 22.7605 45.9104 26.8889C42.5092 31.0207 37.1071 34.4699 30.0313 35.8226C23.5915 37.3139 17.3056 37.0193 12.4295 35.2718C7.55472 33.5246 4.05222 30.3074 3.28115 25.938Z" fill="#E4E8E8" stroke="black" stroke-width="0.5"/>
<path d="M30.0894 35.0909L30.0989 35.0887L30.1085 35.0868C37.0237 33.7659 42.269 30.4029 45.5541 26.4122C48.8464 22.4127 50.1472 17.8175 49.2636 14.0073L49.2636 14.0072C48.3525 10.0753 45.1039 7.31104 40.4138 5.89014C35.7266 4.47016 29.6703 4.42172 23.3346 5.88806C11.0065 9.34566 3.78624 17.6841 4.24746 25.8361C4.96556 29.8333 8.19147 32.8763 12.9052 34.5657C17.6254 36.2574 23.764 36.5565 30.0894 35.0909Z" fill="#E4E8E8" stroke="white"/>
<path d="M32.32 17.46L31.38 22.28H33.58C33.7267 22.28 33.8467 22.3333 33.94 22.44C34.0467 22.5467 34.1 22.6733 34.1 22.82C34.1 22.9533 34.0467 23.0667 33.94 23.16C33.8467 23.24 33.7267 23.28 33.58 23.28H31.18L30.52 26.7C30.5067 26.82 30.4533 26.92 30.36 27C30.2667 27.0667 30.1533 27.1 30.02 27.1C29.8467 27.1 29.7067 27.0333 29.6 26.9C29.5067 26.7667 29.48 26.6067 29.52 26.42L30.14 23.28H26.64L25.98 26.7C25.9667 26.82 25.9067 26.92 25.8 27C25.7067 27.0667 25.5933 27.1 25.46 27.1C25.2867 27.1 25.1467 27.0333 25.04 26.9C24.9467 26.7667 24.92 26.6067 24.96 26.42L25.58 23.28H24.02C23.8733 23.28 23.7467 23.2267 23.64 23.12C23.5467 23.0133 23.5 22.8867 23.5 22.74C23.5 22.6067 23.5467 22.5 23.64 22.42C23.7467 22.3267 23.8733 22.28 24.02 22.28H25.78L26.72 17.46H24.42C24.2733 17.46 24.1467 17.4067 24.04 17.3C23.9467 17.1933 23.9 17.0667 23.9 16.92C23.9 16.7867 23.9467 16.68 24.04 16.6C24.1467 16.5067 24.2733 16.46 24.42 16.46H26.92L27.56 13.14C27.5867 13.02 27.64 12.9267 27.72 12.86C27.8133 12.78 27.9267 12.74 28.06 12.74C28.2333 12.74 28.3667 12.8067 28.46 12.94C28.5667 13.0733 28.6 13.2333 28.56 13.42L27.96 16.46H31.46L32.1 13.14C32.1133 13.02 32.1667 12.9267 32.26 12.86C32.3667 12.78 32.4867 12.74 32.62 12.74C32.7933 12.74 32.9267 12.8067 33.02 12.94C33.1267 13.0733 33.16 13.2333 33.12 13.42L32.52 16.46H33.98C34.1267 16.46 34.2467 16.5133 34.34 16.62C34.4467 16.7267 34.5 16.8533 34.5 17C34.5 17.1333 34.4467 17.2467 34.34 17.34C34.2467 17.42 34.1267 17.46 33.98 17.46H32.32ZM30.32 22.28L31.26 17.46H27.78L26.84 22.28H30.32Z" fill="#2F343E"/>
</svg>
