<svg width="60" height="63" viewBox="0 0 60 63" fill="none" xmlns="http://www.w3.org/2000/svg">
<path d="M20.5603 0.703998L20.5603 0.70399C20.0038 0.534213 19.0748 0.458396 18.145 0.522795C17.2208 0.586802 16.1838 0.796264 15.4602 1.2821C14.1751 2.14483 12.3607 3.83591 10.599 6.20135C10.2058 6.72934 9.88025 7.12544 9.53411 7.54665C8.5513 8.74257 7.40219 10.1409 4.06475 15.3351C-0.578727 22.5619 2.12431 30.0264 4.0674 32.8787C5.86879 35.7286 9.05018 40.3008 12.7574 44.7834C16.4604 49.2609 20.7211 53.69 24.6775 56.2063C29.5532 59.3074 32.7492 60.7726 35.4441 61.3853C37.9879 61.9637 40.0559 61.7732 42.5706 61.5415C42.727 61.5271 42.8852 61.5125 43.0453 61.4979C48.9244 60.9635 52.0481 56.0396 53.0874 53.9463C53.2741 53.5703 53.4615 52.9767 53.6518 52.2554C53.845 51.5228 54.0505 50.6207 54.2664 49.6046C54.5679 48.1861 54.8927 46.5308 55.235 44.7858C55.3827 44.0329 55.5337 43.2633 55.6875 42.4888C56.3502 39.1523 57.0573 36.7894 57.6035 34.9639C57.8572 34.1162 58.0762 33.3843 58.2399 32.7247C58.754 30.6538 59.5927 26.7528 59.4916 22.998C59.3916 19.2781 58.3576 15.4732 54.8882 13.9359C42.0919 8.26585 31.841 4.14649 20.5603 0.703998Z" fill="#D7DBDB" stroke="black"/>
<g clip-path="url(#clip0)">
<path d="M39.5933 48.9231C39.1683 49.4144 36.1082 52.4949 31.4984 45.3219C26.6393 37.7595 29.5526 35.6886 30.8164 35.1776L30.8166 35.176C30.8367 35.1679 30.8567 35.1617 30.8771 35.1539C30.9125 35.1404 30.9457 35.1285 30.9781 35.1172C30.992 35.1127 31.0065 35.1073 31.0206 35.1028C31.1984 35.0443 31.3116 35.0253 31.3116 35.0253C31.3116 35.0253 31.3108 35.0286 31.3102 35.034C32.1477 34.8874 32.9332 35.2192 33.0835 35.9532L33.3477 37.6197C33.5273 38.4951 32.8338 39.5468 31.799 39.9698L31.7152 40.0037C32.2628 41.9043 33.3685 44.0919 35.5359 46.083L35.6953 45.9443C36.5384 45.2099 37.7896 45.0648 38.4905 45.6185L39.7224 46.689C40.4059 47.2296 40.38 48.1928 39.5933 48.9231Z" fill="#2F343E"/>
</g>
<defs>
<clipPath id="clip0">
<rect width="15" height="15" fill="white" transform="translate(27 35)"/>
</clipPath>
</defs>
</svg>
