<svg width="54" height="42" viewBox="0 0 54 42" fill="none" xmlns="http://www.w3.org/2000/svg">
<path d="M50.2481 26.0434L50.2507 26.0292L50.2515 26.0147C50.7614 17.3465 43.125 8.77485 30.6087 5.26827L30.6088 5.26802L30.5977 5.26545C24.1634 3.77459 17.9653 3.81016 13.1207 5.27782C8.27635 6.74544 4.75022 9.66004 3.75775 13.9434C2.80811 18.0385 4.22047 22.866 7.61886 26.9943C11.0201 31.1262 16.4222 34.5753 23.498 35.9281C29.9378 37.4194 36.2237 37.1248 41.0997 35.3772C45.9746 33.6301 49.4771 30.4128 50.2481 26.0434Z" fill="#E4E8E8" stroke="black" stroke-width="0.5"/>
<path d="M23.4399 35.1963L23.4304 35.1941L23.4208 35.1923C16.5056 33.8714 11.2603 30.5084 7.97525 26.5177C4.68291 22.5181 3.38213 17.923 4.26571 14.1128L4.26573 14.1127C5.17678 10.1808 8.42536 7.41651 13.1155 5.99561C17.8026 4.57563 23.8589 4.52719 30.1947 5.99353C42.5228 9.45112 49.7431 17.7896 49.2818 25.9416C48.5637 29.9388 45.3378 32.9818 40.624 34.6712C35.9039 36.3629 29.7653 36.662 23.4399 35.1963Z" fill="#E4E8E8" stroke="white"/>
<path d="M21.74 23.92C21.9133 23.92 22.0533 23.9733 22.16 24.08C22.2667 24.1733 22.32 24.3 22.32 24.46C22.32 24.6333 22.2667 24.7667 22.16 24.86C22.0667 24.9533 21.9267 25 21.74 25H15.2C15.0267 25 14.8867 24.9533 14.78 24.86C14.6867 24.7667 14.64 24.6333 14.64 24.46C14.64 24.3 14.6867 24.1733 14.78 24.08C14.8867 23.9733 15.0267 23.92 15.2 23.92H17.86V12.5L15.56 14C15.4933 14.0533 15.4067 14.08 15.3 14.08C15.1533 14.08 15.02 14.0133 14.9 13.88C14.7933 13.7467 14.74 13.5933 14.74 13.42C14.74 13.2333 14.8267 13.08 15 12.96L18 10.96C18.1733 10.8533 18.34 10.8 18.5 10.8C18.6733 10.8 18.8133 10.86 18.92 10.98C19.04 11.0867 19.1 11.24 19.1 11.44V23.92H21.74Z" fill="#2F343E"/>
<path d="M26.72 20.03C27.3067 20.03 27.7433 20.1833 28.03 20.49C28.3233 20.7967 28.47 21.26 28.47 21.88V24.73C28.47 24.8233 28.4433 24.9 28.39 24.96C28.3367 25.0133 28.2633 25.04 28.17 25.04C28.0767 25.04 28.0033 25.0133 27.95 24.96C27.8967 24.9 27.87 24.8233 27.87 24.73V24.13C27.73 24.43 27.5267 24.6633 27.26 24.83C26.9933 24.99 26.6867 25.07 26.34 25.07C26.0267 25.07 25.74 25.0067 25.48 24.88C25.2267 24.7533 25.0233 24.58 24.87 24.36C24.7167 24.14 24.64 23.8933 24.64 23.62C24.6333 23.2533 24.7233 22.97 24.91 22.77C25.0967 22.5633 25.4067 22.4167 25.84 22.33C26.2733 22.2433 26.88 22.2 27.66 22.2H27.87V21.83C27.87 21.39 27.78 21.07 27.6 20.87C27.42 20.6633 27.1367 20.56 26.75 20.56C26.2567 20.56 25.7867 20.69 25.34 20.95C25.32 20.9633 25.2667 21 25.18 21.06C25.1 21.1133 25.03 21.14 24.97 21.14C24.9033 21.14 24.8467 21.1167 24.8 21.07C24.76 21.0167 24.74 20.9533 24.74 20.88C24.74 20.7333 24.8567 20.59 25.09 20.45C25.3233 20.3167 25.5833 20.2133 25.87 20.14C26.1567 20.0667 26.44 20.03 26.72 20.03ZM26.39 24.54C26.8233 24.54 27.1767 24.3933 27.45 24.1C27.73 23.8067 27.87 23.4333 27.87 22.98V22.65H27.68C27.04 22.65 26.55 22.6767 26.21 22.73C25.87 22.7833 25.63 22.8767 25.49 23.01C25.35 23.1367 25.28 23.3233 25.28 23.57C25.28 23.85 25.3867 24.0833 25.6 24.27C25.8133 24.45 26.0767 24.54 26.39 24.54ZM32.1437 25.07C31.6037 25.07 31.1637 24.93 30.8237 24.65C30.4903 24.3633 30.2503 24.0067 30.1037 23.58C29.957 23.1533 29.8837 22.71 29.8837 22.25C29.8837 21.4367 29.9503 20.7833 30.0837 20.29C30.217 19.7967 30.4003 19.42 30.6337 19.16C30.8737 18.8933 31.1803 18.67 31.5537 18.49C31.7337 18.4033 31.9337 18.3267 32.1537 18.26C32.3803 18.1867 32.517 18.1433 32.5637 18.13C32.6237 18.11 32.777 18.0633 33.0237 17.99C33.277 17.91 33.5137 17.8167 33.7337 17.71C33.787 17.6833 33.8403 17.67 33.8937 17.67C33.9737 17.67 34.037 17.6967 34.0837 17.75C34.137 17.7967 34.1637 17.8567 34.1637 17.93C34.1637 18.0367 34.1037 18.1267 33.9837 18.2C33.817 18.3 33.6337 18.3867 33.4337 18.46C33.2337 18.5267 32.9803 18.6067 32.6737 18.7C32.6137 18.72 32.4903 18.7567 32.3037 18.81C32.1237 18.8633 31.9637 18.92 31.8237 18.98C30.957 19.3067 30.5103 20.0733 30.4837 21.28C30.637 20.94 30.8637 20.6567 31.1637 20.43C31.4703 20.2033 31.8637 20.09 32.3437 20.09C32.717 20.09 33.057 20.1767 33.3637 20.35C33.6703 20.5233 33.917 20.7933 34.1037 21.16C34.2903 21.5267 34.3837 21.9933 34.3837 22.56C34.3837 23.0067 34.297 23.4233 34.1237 23.81C33.9503 24.19 33.6937 24.4967 33.3537 24.73C33.0203 24.9567 32.617 25.07 32.1437 25.07ZM32.1437 24.53C32.537 24.53 32.8537 24.4267 33.0937 24.22C33.3337 24.0133 33.5003 23.7633 33.5937 23.47C33.6937 23.17 33.7437 22.87 33.7437 22.57C33.7437 21.97 33.6137 21.4967 33.3537 21.15C33.1003 20.8033 32.7303 20.63 32.2437 20.63C31.857 20.63 31.537 20.7333 31.2837 20.94C31.0303 21.14 30.8437 21.39 30.7237 21.69C30.6037 21.9833 30.5437 22.28 30.5437 22.58C30.5437 23.1133 30.667 23.5733 30.9137 23.96C31.167 24.34 31.577 24.53 32.1437 24.53ZM35.9791 25C35.8791 25 35.7991 24.97 35.7391 24.91C35.6791 24.85 35.6491 24.7733 35.6491 24.68V20.47C35.6491 20.3767 35.6791 20.3 35.7391 20.24C35.7991 20.18 35.8758 20.15 35.9691 20.15H37.6591C38.1791 20.15 38.5825 20.25 38.8691 20.45C39.1558 20.65 39.2991 20.96 39.2991 21.38C39.2991 21.6133 39.2291 21.8367 39.0891 22.05C38.9491 22.2567 38.7325 22.41 38.4391 22.51C38.7258 22.5567 38.9591 22.68 39.1391 22.88C39.3258 23.08 39.4191 23.3367 39.4191 23.65C39.4191 23.87 39.3591 24.0833 39.2391 24.29C39.1258 24.49 38.9391 24.66 38.6791 24.8C38.4258 24.9333 38.0991 25 37.6991 25H35.9791ZM37.6591 22.29C37.9591 22.29 38.2025 22.21 38.3891 22.05C38.5825 21.8833 38.6791 21.6667 38.6791 21.4C38.6791 21.16 38.5925 20.9733 38.4191 20.84C38.2525 20.7 37.9858 20.63 37.6191 20.63H36.2591V22.29H37.6591ZM37.6791 24.51C38.4191 24.51 38.7891 24.2233 38.7891 23.65C38.7891 23.3567 38.6758 23.1367 38.4491 22.99C38.2225 22.8367 37.9225 22.76 37.5491 22.76H36.2591V24.51H37.6791Z" fill="#2F343E"/>
</svg>
