<svg width="49" height="32" viewBox="0 0 49 32" fill="none" xmlns="http://www.w3.org/2000/svg">
<path d="M24.5 31.25C31.0297 31.25 36.9529 29.5611 41.2515 26.8173C45.5472 24.0754 48.25 20.2569 48.25 16C48.25 11.7431 45.5472 7.92461 41.2515 5.18267C36.9529 2.43889 31.0297 0.75 24.5 0.75C17.9703 0.75 12.0471 2.43889 7.74848 5.18267C3.45277 7.92461 0.75 11.7431 0.75 16C0.75 20.2569 3.45277 24.0754 7.74848 26.8173C12.0471 29.5611 17.9703 31.25 24.5 31.25Z" fill="#E4E8E8" stroke="black" stroke-width="0.5"/>
<path d="M47.5 16C47.5 19.9126 45.0146 23.5256 40.848 26.1851C36.6872 28.841 30.9087 30.5 24.5 30.5C18.0913 30.5 12.3128 28.841 8.15201 26.1851C3.98545 23.5256 1.5 19.9126 1.5 16C1.5 12.0874 3.98545 8.47437 8.15201 5.81486C12.3128 3.15902 18.0913 1.5 24.5 1.5C30.9087 1.5 36.6872 3.15902 40.848 5.81486C45.0146 8.47437 47.5 12.0874 47.5 16Z" fill="#E4E8E8" stroke="white"/>
<path d="M20.24 20.92C20.4133 20.92 20.5533 20.9733 20.66 21.08C20.7667 21.1733 20.82 21.3 20.82 21.46C20.82 21.82 20.6267 22 20.24 22H12.28C12.0933 22 11.9467 21.9467 11.84 21.84C11.7333 21.7333 11.68 21.6067 11.68 21.46C11.68 21.2733 11.7467 21.1133 11.88 20.98L16.82 15.48C17.5267 14.6667 18.04 13.9467 18.36 13.32C18.68 12.6933 18.84 12.0667 18.84 11.44C18.84 10.6 18.5933 9.95333 18.1 9.5C17.62 9.04667 16.94 8.82 16.06 8.82C15.38 8.82 14.7333 8.94667 14.12 9.2C13.52 9.44 12.9 9.82667 12.26 10.36C12.1133 10.4933 11.96 10.56 11.8 10.56C11.6933 10.56 11.6 10.5067 11.52 10.4C11.44 10.2933 11.4 10.1667 11.4 10.02C11.4 9.79333 11.4867 9.6 11.66 9.44C12.1933 8.92 12.8533 8.50667 13.64 8.2C14.4267 7.89333 15.2333 7.74 16.06 7.74C17.3 7.74 18.28 8.06667 19 8.72C19.72 9.36 20.08 10.2467 20.08 11.38C20.08 12.1933 19.8933 12.98 19.52 13.74C19.1467 14.5 18.5333 15.3533 17.68 16.3L13.46 20.92H20.24Z" fill="#2F343E"/>
<path d="M23.09 22.05C22.9967 22.05 22.92 22.0233 22.86 21.97C22.8067 21.91 22.78 21.8367 22.78 21.75V17.47C22.78 17.3767 22.81 17.3 22.87 17.24C22.93 17.18 23.0067 17.15 23.1 17.15H25.63C25.71 17.15 25.7733 17.1733 25.82 17.22C25.8667 17.26 25.89 17.3167 25.89 17.39C25.89 17.4633 25.8667 17.5233 25.82 17.57C25.7733 17.6167 25.71 17.64 25.63 17.64H23.39V21.75C23.39 21.8367 23.3633 21.91 23.31 21.97C23.2567 22.0233 23.1833 22.05 23.09 22.05ZM26.3744 23.31C26.2877 23.31 26.2177 23.2833 26.1644 23.23C26.111 23.1833 26.0844 23.1133 26.0844 23.02V21.82C26.0844 21.7267 26.1077 21.65 26.1544 21.59C26.201 21.53 26.2644 21.5 26.3444 21.5H26.5544C26.8144 21.1533 27.001 20.7267 27.1144 20.22C27.2344 19.7133 27.2944 19.0367 27.2944 18.19V17.47C27.2944 17.3767 27.3244 17.3 27.3844 17.24C27.4444 17.18 27.521 17.15 27.6144 17.15H30.1444C30.2377 17.15 30.3144 17.18 30.3744 17.24C30.441 17.3 30.4744 17.3767 30.4744 17.47V21.5H30.8944C30.9877 21.5 31.0644 21.53 31.1244 21.59C31.1844 21.65 31.2144 21.7267 31.2144 21.82V23.02C31.2144 23.1133 31.1877 23.1833 31.1344 23.23C31.0877 23.2833 31.0177 23.31 30.9244 23.31C30.8377 23.31 30.7677 23.2833 30.7144 23.23C30.661 23.1833 30.6344 23.1133 30.6344 23.02V22H26.6644V23.02C26.6644 23.1133 26.6377 23.1833 26.5844 23.23C26.5377 23.2833 26.4677 23.31 26.3744 23.31ZM29.8644 17.64H27.8644V18.19C27.8644 19.7167 27.6377 20.82 27.1844 21.5H29.8644V17.64ZM35.8657 20.96C35.9257 20.96 35.9757 20.9867 36.0157 21.04C36.0624 21.0867 36.0857 21.1433 36.0857 21.21C36.0857 21.3567 35.9724 21.5 35.7457 21.64C35.2657 21.9267 34.759 22.07 34.2257 22.07C33.4857 22.07 32.9024 21.8467 32.4757 21.4C32.049 20.9533 31.8357 20.34 31.8357 19.56C31.8357 19.06 31.929 18.62 32.1157 18.24C32.309 17.8533 32.5757 17.5567 32.9157 17.35C33.2624 17.1367 33.659 17.03 34.1057 17.03C34.7324 17.03 35.2257 17.2333 35.5857 17.64C35.9524 18.04 36.1357 18.5933 36.1357 19.3C36.1357 19.42 36.109 19.51 36.0557 19.57C36.0024 19.6233 35.9157 19.65 35.7957 19.65H32.4657C32.4857 20.2633 32.6457 20.73 32.9457 21.05C33.2457 21.37 33.669 21.53 34.2157 21.53C34.5024 21.53 34.7424 21.4933 34.9357 21.42C35.129 21.34 35.3357 21.2367 35.5557 21.11C35.7024 21.01 35.8057 20.96 35.8657 20.96ZM34.1057 17.53C33.639 17.53 33.2657 17.6767 32.9857 17.97C32.7057 18.2633 32.539 18.6733 32.4857 19.2H35.5757C35.5624 18.6667 35.429 18.2567 35.1757 17.97C34.9224 17.6767 34.5657 17.53 34.1057 17.53Z" fill="#2F343E"/>
</svg>
