<svg width="48" height="35" viewBox="0 0 48 35" fill="none" xmlns="http://www.w3.org/2000/svg">
<path d="M0.285054 23.0434L0.282534 23.0292L0.281681 23.0147C-0.228211 14.3465 7.40819 5.77485 19.9245 2.26827L19.9244 2.26802L19.9355 2.26545C26.3698 0.774586 32.5679 0.810156 37.4125 2.27782C42.2569 3.74544 45.783 6.66004 46.7755 10.9434C47.7251 15.0385 46.3127 19.866 42.9143 23.9943C39.5131 28.1262 34.111 31.5753 27.0352 32.9281C20.5954 34.4194 14.3095 34.1248 9.43346 32.3772C4.55863 30.6301 1.05612 27.4128 0.285054 23.0434Z" fill="#E4E8E8" stroke="black" stroke-width="0.5"/>
<path d="M27.0933 32.1963L27.1028 32.1941L27.1124 32.1923C34.0276 30.8714 39.2729 27.5084 42.558 23.5177C45.8503 19.5181 47.1511 14.923 46.2675 11.1128L46.2675 11.1127C45.3564 7.18079 42.1078 4.41651 37.4177 2.99561C32.7306 1.57563 26.6743 1.52719 20.3385 2.99353C8.01042 6.45112 0.790147 14.7896 1.25137 22.9416C1.96946 26.9388 5.19538 29.9818 9.90915 31.6712C14.6293 33.3629 20.7679 33.662 27.0933 32.1963Z" fill="#E4E8E8" stroke="white"/>
<path d="M17.74 18.76C18.6067 18.9867 19.26 19.3933 19.7 19.98C20.1533 20.5667 20.38 21.3067 20.38 22.2C20.38 23.4133 19.98 24.3733 19.18 25.08C18.38 25.7867 17.2933 26.14 15.92 26.14C15.0533 26.14 14.22 25.9867 13.42 25.68C12.62 25.3733 11.96 24.96 11.44 24.44C11.2667 24.28 11.18 24.0867 11.18 23.86C11.18 23.7133 11.22 23.5867 11.3 23.48C11.38 23.3733 11.4733 23.32 11.58 23.32C11.74 23.32 11.8933 23.3867 12.04 23.52C12.6667 24.0667 13.2867 24.46 13.9 24.7C14.5267 24.94 15.2 25.06 15.92 25.06C16.9467 25.06 17.74 24.8133 18.3 24.32C18.86 23.8267 19.14 23.12 19.14 22.2C19.14 20.32 17.98 19.38 15.66 19.38H14.64C14.4667 19.38 14.3267 19.3267 14.22 19.22C14.1133 19.1133 14.06 18.9867 14.06 18.84C14.06 18.6933 14.1067 18.5667 14.2 18.46C14.3067 18.3533 14.4533 18.3 14.64 18.3H15.36C16.4667 18.3 17.32 18.0467 17.92 17.54C18.5333 17.02 18.84 16.2867 18.84 15.34C18.84 14.54 18.5933 13.92 18.1 13.48C17.62 13.04 16.94 12.82 16.06 12.82C15.38 12.82 14.7333 12.9467 14.12 13.2C13.52 13.44 12.9 13.8267 12.26 14.36C12.1133 14.4933 11.96 14.56 11.8 14.56C11.6933 14.56 11.6 14.5067 11.52 14.4C11.44 14.2933 11.4 14.1667 11.4 14.02C11.4 13.7933 11.4867 13.6 11.66 13.44C12.18 12.92 12.8333 12.5067 13.62 12.2C14.4067 11.8933 15.22 11.74 16.06 11.74C17.3 11.74 18.28 12.0667 19 12.72C19.7333 13.36 20.0933 14.2267 20.08 15.32C20.0667 16.1333 19.8533 16.8467 19.44 17.46C19.0267 18.0733 18.46 18.5067 17.74 18.76Z" fill="#2F343E"/>
<path d="M26.3 22.05C26.2133 22.05 26.14 22.0233 26.08 21.97C26.0267 21.91 26 21.8333 26 21.74V19.72H25.59C25.2833 19.72 25.0367 19.7867 24.85 19.92C24.67 20.0533 24.5133 20.2667 24.38 20.56L23.78 21.86C23.7267 21.9867 23.6333 22.05 23.5 22.05C23.42 22.05 23.3467 22.0233 23.28 21.97C23.22 21.91 23.19 21.8367 23.19 21.75C23.19 21.71 23.2 21.6667 23.22 21.62L23.77 20.46C23.93 20.1333 24.09 19.8867 24.25 19.72C24.4167 19.5467 24.6267 19.4333 24.88 19.38L23.54 17.51C23.5 17.4633 23.48 17.4033 23.48 17.33C23.48 17.25 23.5067 17.1833 23.56 17.13C23.62 17.0767 23.69 17.05 23.77 17.05C23.87 17.05 23.9533 17.0967 24.02 17.19L25.47 19.27H26V17.36C26 17.2667 26.0267 17.1933 26.08 17.14C26.14 17.08 26.2133 17.05 26.3 17.05C26.3933 17.05 26.4667 17.08 26.52 17.14C26.58 17.1933 26.61 17.2667 26.61 17.36V19.27H27.14L28.59 17.2C28.6633 17.1 28.7467 17.05 28.84 17.05C28.92 17.05 28.99 17.0767 29.05 17.13C29.11 17.1833 29.14 17.25 29.14 17.33C29.14 17.4033 29.1167 17.4667 29.07 17.52L27.73 19.38C27.9833 19.4333 28.19 19.5433 28.35 19.71C28.5167 19.87 28.68 20.12 28.84 20.46L29.4 21.62C29.42 21.6667 29.43 21.7133 29.43 21.76C29.43 21.84 29.3967 21.91 29.33 21.97C29.2633 22.0233 29.19 22.05 29.11 22.05C29.0567 22.05 29.0033 22.0333 28.95 22C28.9033 21.9667 28.8667 21.92 28.84 21.86L28.23 20.56C28.09 20.26 27.9267 20.0467 27.74 19.92C27.56 19.7867 27.32 19.72 27.02 19.72H26.61V21.74C26.61 21.8333 26.58 21.91 26.52 21.97C26.4667 22.0233 26.3933 22.05 26.3 22.05ZM31.7613 22.07C31.028 22.07 30.4447 21.8967 30.0113 21.55C29.9313 21.4967 29.8913 21.4267 29.8913 21.34C29.8913 21.2667 29.918 21.2067 29.9713 21.16C30.0247 21.1067 30.0847 21.08 30.1513 21.08C30.2047 21.08 30.258 21.0967 30.3113 21.13C30.5113 21.27 30.7213 21.3733 30.9413 21.44C31.168 21.5 31.4347 21.53 31.7413 21.53C32.108 21.53 32.4313 21.4467 32.7113 21.28C32.998 21.1133 33.1413 20.8733 33.1413 20.56C33.1413 20.32 33.058 20.1233 32.8913 19.97C32.7247 19.8167 32.4413 19.74 32.0413 19.74H31.2413C31.1747 19.74 31.1147 19.7167 31.0613 19.67C31.0147 19.6167 30.9913 19.5567 30.9913 19.49C30.9913 19.4233 31.0147 19.3667 31.0613 19.32C31.1147 19.2733 31.1747 19.25 31.2413 19.25H31.9713C32.278 19.25 32.5347 19.1667 32.7413 19C32.948 18.8267 33.0513 18.61 33.0513 18.35C33.0513 18.11 32.958 17.92 32.7713 17.78C32.5847 17.6333 32.3013 17.56 31.9213 17.56C31.5947 17.56 31.3113 17.6 31.0713 17.68C30.838 17.7533 30.628 17.8567 30.4413 17.99C30.3747 18.0167 30.3247 18.03 30.2913 18.03C30.2247 18.03 30.1647 18.0033 30.1113 17.95C30.058 17.8967 30.0313 17.8367 30.0313 17.77C30.0313 17.6833 30.0747 17.61 30.1613 17.55C30.688 17.2033 31.288 17.03 31.9613 17.03C32.5613 17.03 32.998 17.1467 33.2713 17.38C33.5447 17.6133 33.6813 17.9267 33.6813 18.32C33.6813 18.5533 33.6047 18.7767 33.4513 18.99C33.3047 19.2033 33.0947 19.3533 32.8213 19.44C33.148 19.4933 33.388 19.6267 33.5413 19.84C33.6947 20.0467 33.7713 20.2933 33.7713 20.58C33.7713 21.0467 33.578 21.4133 33.1913 21.68C32.8047 21.94 32.328 22.07 31.7613 22.07ZM38.4705 17.2C38.5438 17.1 38.6438 17.05 38.7705 17.05C38.8638 17.05 38.9405 17.08 39.0005 17.14C39.0671 17.2 39.1005 17.2767 39.1005 17.37V21.75C39.1005 21.8367 39.0705 21.91 39.0105 21.97C38.9571 22.0233 38.8871 22.05 38.8005 22.05C38.7138 22.05 38.6405 22.0233 38.5805 21.97C38.5271 21.91 38.5005 21.8367 38.5005 21.75V17.96L35.6405 21.9C35.5738 22 35.4771 22.05 35.3505 22.05C35.2505 22.05 35.1671 22.02 35.1005 21.96C35.0405 21.8933 35.0105 21.8133 35.0105 21.72V17.35C35.0105 17.2633 35.0371 17.1933 35.0905 17.14C35.1505 17.08 35.2238 17.05 35.3105 17.05C35.3971 17.05 35.4705 17.08 35.5305 17.14C35.5905 17.1933 35.6205 17.2633 35.6205 17.35V21.09L38.4705 17.2Z" fill="#2F343E"/>
</svg>
