<svg width="55" height="43" viewBox="0 0 55 43" fill="none" xmlns="http://www.w3.org/2000/svg">
<path d="M4.28115 26.938L4.27863 26.9237L4.27778 26.9092C3.76788 18.241 11.4043 9.66938 23.9206 6.1628L23.9205 6.16255L23.9316 6.15998C30.3659 4.66912 36.564 4.70469 41.4086 6.17235C46.2529 7.63998 49.7791 10.5546 50.7715 14.8379C51.7212 18.933 50.3088 23.7605 46.9104 27.8889C43.5092 32.0207 38.1071 35.4699 31.0313 36.8226C24.5915 38.3139 18.3056 38.0193 13.4295 36.2718C8.55472 34.5246 5.05222 31.3074 4.28115 26.938Z" fill="#E4E8E8" stroke="black" stroke-width="0.5"/>
<path d="M31.0894 36.0909L31.0989 36.0887L31.1085 36.0868C38.0237 34.7659 43.269 31.4029 46.5541 27.4122C49.8464 23.4127 51.1472 18.8175 50.2636 15.0073L50.2636 15.0072C49.3525 11.0753 46.1039 8.31104 41.4138 6.89014C36.7266 5.47016 30.6703 5.42172 24.3346 6.88806C12.0065 10.3457 4.78624 18.6841 5.24746 26.8361C5.96556 30.8333 9.19147 33.8763 13.9052 35.5657C18.6254 37.2574 24.764 37.5565 31.0894 36.0909Z" fill="#E4E8E8" stroke="white"/>
<path d="M19.5761 15.6345C21.2428 15.6345 22.5294 16.2279 23.4361 17.4145C24.3428 18.5879 24.7961 20.2679 24.7961 22.4545C24.7961 24.8545 24.3294 26.7212 23.3961 28.0545C22.4628 29.3879 21.1628 30.0545 19.4961 30.0545C18.7228 30.0545 17.9628 29.9012 17.2161 29.5945C16.4694 29.2879 15.8361 28.8745 15.3161 28.3545C15.1428 28.1945 15.0561 28.0012 15.0561 27.7745C15.0561 27.6279 15.0961 27.5012 15.1761 27.3945C15.2561 27.2879 15.3494 27.2345 15.4561 27.2345C15.5894 27.2345 15.7428 27.3012 15.9161 27.4345C17.1294 28.4612 18.3228 28.9745 19.4961 28.9745C20.7628 28.9745 21.7561 28.4012 22.4761 27.2545C23.1961 26.1079 23.5561 24.5079 23.5561 22.4545V21.9145C23.2494 22.7412 22.7361 23.3945 22.0161 23.8745C21.2961 24.3412 20.4694 24.5745 19.5361 24.5745C18.6694 24.5745 17.8961 24.3879 17.2161 24.0145C16.5494 23.6412 16.0294 23.1212 15.6561 22.4545C15.2828 21.7745 15.0961 20.9945 15.0961 20.1145C15.0961 19.2612 15.2894 18.4945 15.6761 17.8145C16.0628 17.1345 16.5961 16.6012 17.2761 16.2145C17.9561 15.8279 18.7228 15.6345 19.5761 15.6345ZM19.6361 23.4745C20.6361 23.4745 21.4561 23.1612 22.0961 22.5345C22.7361 21.9079 23.0561 21.1012 23.0561 20.1145C23.0561 19.1012 22.7361 18.2812 22.0961 17.6545C21.4694 17.0279 20.6428 16.7145 19.6161 16.7145C18.6294 16.7145 17.8361 17.0279 17.2361 17.6545C16.6494 18.2679 16.3561 19.0879 16.3561 20.1145C16.3561 21.1279 16.6561 21.9412 17.2561 22.5545C17.8561 23.1679 18.6494 23.4745 19.6361 23.4745Z" fill="#2F343E"/>
<path d="M30.2961 25.9445C30.2094 25.9445 30.1361 25.9179 30.0761 25.8645C30.0228 25.8045 29.9961 25.7279 29.9961 25.6345V23.6145H29.5861C29.2794 23.6145 29.0328 23.6812 28.8461 23.8145C28.6661 23.9479 28.5094 24.1612 28.3761 24.4545L27.7761 25.7545C27.7228 25.8812 27.6294 25.9445 27.4961 25.9445C27.4161 25.9445 27.3428 25.9179 27.2761 25.8645C27.2161 25.8045 27.1861 25.7312 27.1861 25.6445C27.1861 25.6045 27.1961 25.5612 27.2161 25.5145L27.7661 24.3545C27.9261 24.0279 28.0861 23.7812 28.2461 23.6145C28.4128 23.4412 28.6228 23.3279 28.8761 23.2745L27.5361 21.4045C27.4961 21.3579 27.4761 21.2979 27.4761 21.2245C27.4761 21.1445 27.5028 21.0779 27.5561 21.0245C27.6161 20.9712 27.6861 20.9445 27.7661 20.9445C27.8661 20.9445 27.9494 20.9912 28.0161 21.0845L29.4661 23.1645H29.9961V21.2545C29.9961 21.1612 30.0228 21.0879 30.0761 21.0345C30.1361 20.9745 30.2094 20.9445 30.2961 20.9445C30.3894 20.9445 30.4628 20.9745 30.5161 21.0345C30.5761 21.0879 30.6061 21.1612 30.6061 21.2545V23.1645H31.1361L32.5861 21.0945C32.6594 20.9945 32.7428 20.9445 32.8361 20.9445C32.9161 20.9445 32.9861 20.9712 33.0461 21.0245C33.1061 21.0779 33.1361 21.1445 33.1361 21.2245C33.1361 21.2979 33.1128 21.3612 33.0661 21.4145L31.7261 23.2745C31.9794 23.3279 32.1861 23.4379 32.3461 23.6045C32.5128 23.7645 32.6761 24.0145 32.8361 24.3545L33.3961 25.5145C33.4161 25.5612 33.4261 25.6079 33.4261 25.6545C33.4261 25.7345 33.3928 25.8045 33.3261 25.8645C33.2594 25.9179 33.1861 25.9445 33.1061 25.9445C33.0528 25.9445 32.9994 25.9279 32.9461 25.8945C32.8994 25.8612 32.8628 25.8145 32.8361 25.7545L32.2261 24.4545C32.0861 24.1545 31.9228 23.9412 31.7361 23.8145C31.5561 23.6812 31.3161 23.6145 31.0161 23.6145H30.6061V25.6345C30.6061 25.7279 30.5761 25.8045 30.5161 25.8645C30.4628 25.9179 30.3894 25.9445 30.2961 25.9445ZM35.7574 25.9645C35.0241 25.9645 34.4408 25.7912 34.0074 25.4445C33.9274 25.3912 33.8874 25.3212 33.8874 25.2345C33.8874 25.1612 33.9141 25.1012 33.9674 25.0545C34.0208 25.0012 34.0808 24.9745 34.1474 24.9745C34.2008 24.9745 34.2541 24.9912 34.3074 25.0245C34.5074 25.1645 34.7174 25.2679 34.9374 25.3345C35.1641 25.3945 35.4308 25.4245 35.7374 25.4245C36.1041 25.4245 36.4274 25.3412 36.7074 25.1745C36.9941 25.0079 37.1374 24.7679 37.1374 24.4545C37.1374 24.2145 37.0541 24.0179 36.8874 23.8645C36.7208 23.7112 36.4374 23.6345 36.0374 23.6345H35.2374C35.1708 23.6345 35.1108 23.6112 35.0574 23.5645C35.0108 23.5112 34.9874 23.4512 34.9874 23.3845C34.9874 23.3179 35.0108 23.2612 35.0574 23.2145C35.1108 23.1679 35.1708 23.1445 35.2374 23.1445H35.9674C36.2741 23.1445 36.5308 23.0612 36.7374 22.8945C36.9441 22.7212 37.0474 22.5045 37.0474 22.2445C37.0474 22.0045 36.9541 21.8145 36.7674 21.6745C36.5808 21.5279 36.2974 21.4545 35.9174 21.4545C35.5908 21.4545 35.3074 21.4945 35.0674 21.5745C34.8341 21.6479 34.6241 21.7512 34.4374 21.8845C34.3708 21.9112 34.3208 21.9245 34.2874 21.9245C34.2208 21.9245 34.1608 21.8979 34.1074 21.8445C34.0541 21.7912 34.0274 21.7312 34.0274 21.6645C34.0274 21.5779 34.0708 21.5045 34.1574 21.4445C34.6841 21.0979 35.2841 20.9245 35.9574 20.9245C36.5574 20.9245 36.9941 21.0412 37.2674 21.2745C37.5408 21.5079 37.6774 21.8212 37.6774 22.2145C37.6774 22.4479 37.6008 22.6712 37.4474 22.8845C37.3008 23.0979 37.0908 23.2479 36.8174 23.3345C37.1441 23.3879 37.3841 23.5212 37.5374 23.7345C37.6908 23.9412 37.7674 24.1879 37.7674 24.4745C37.7674 24.9412 37.5741 25.3079 37.1874 25.5745C36.8008 25.8345 36.3241 25.9645 35.7574 25.9645ZM42.4666 21.0945C42.5399 20.9945 42.6399 20.9445 42.7666 20.9445C42.8599 20.9445 42.9366 20.9745 42.9966 21.0345C43.0632 21.0945 43.0966 21.1712 43.0966 21.2645V25.6445C43.0966 25.7312 43.0666 25.8045 43.0066 25.8645C42.9532 25.9179 42.8832 25.9445 42.7966 25.9445C42.7099 25.9445 42.6366 25.9179 42.5766 25.8645C42.5232 25.8045 42.4966 25.7312 42.4966 25.6445V21.8545L39.6366 25.7945C39.5699 25.8945 39.4732 25.9445 39.3466 25.9445C39.2466 25.9445 39.1632 25.9145 39.0966 25.8545C39.0366 25.7879 39.0066 25.7079 39.0066 25.6145V21.2445C39.0066 21.1579 39.0332 21.0879 39.0866 21.0345C39.1466 20.9745 39.2199 20.9445 39.3066 20.9445C39.3932 20.9445 39.4666 20.9745 39.5266 21.0345C39.5866 21.0879 39.6166 21.1579 39.6166 21.2445V24.9845L42.4666 21.0945Z" fill="#2F343E"/>
</svg>
