<svg width="49" height="32" viewBox="0 0 49 32" fill="none" xmlns="http://www.w3.org/2000/svg">
<path d="M24.5 31.25C31.0297 31.25 36.9529 29.5611 41.2515 26.8173C45.5472 24.0754 48.25 20.2569 48.25 16C48.25 11.7431 45.5472 7.92461 41.2515 5.18267C36.9529 2.43889 31.0297 0.75 24.5 0.75C17.9703 0.75 12.0471 2.43889 7.74848 5.18267C3.45277 7.92461 0.75 11.7431 0.75 16C0.75 20.2569 3.45277 24.0754 7.74848 26.8173C12.0471 29.5611 17.9703 31.25 24.5 31.25Z" fill="#E4E8E8" stroke="black" stroke-width="0.5"/>
<path d="M47.5 16C47.5 19.9126 45.0146 23.5256 40.848 26.1851C36.6872 28.841 30.9087 30.5 24.5 30.5C18.0913 30.5 12.3128 28.841 8.15201 26.1851C3.98545 23.5256 1.5 19.9126 1.5 16C1.5 12.0874 3.98545 8.47437 8.15201 5.81486C12.3128 3.15902 18.0913 1.5 24.5 1.5C30.9087 1.5 36.6872 3.15902 40.848 5.81486C45.0146 8.47437 47.5 12.0874 47.5 16Z" fill="#E4E8E8" stroke="white"/>
<path d="M16 23.16C14.4133 23.16 13.2067 22.5533 12.38 21.34C11.5533 20.1133 11.14 18.32 11.14 15.96C11.14 13.5867 11.5533 11.7933 12.38 10.58C13.2067 9.35333 14.4133 8.74 16 8.74C17.5867 8.74 18.7933 9.35333 19.62 10.58C20.4467 11.7933 20.86 13.58 20.86 15.94C20.86 18.3 20.4467 20.0933 19.62 21.32C18.7933 22.5467 17.5867 23.16 16 23.16ZM16 22.06C17.2267 22.06 18.1267 21.5667 18.7 20.58C19.2867 19.58 19.58 18.0333 19.58 15.94C19.58 13.8467 19.2867 12.3067 18.7 11.32C18.1267 10.3333 17.2267 9.84 16 9.84C14.7733 9.84 13.8667 10.3333 13.28 11.32C12.7067 12.3067 12.42 13.8467 12.42 15.94C12.42 18.02 12.7133 19.56 13.3 20.56C13.8867 21.56 14.7867 22.06 16 22.06Z" fill="#2F343E"/>
</svg>
