<svg width="54" height="42" viewBox="0 0 54 42" fill="none" xmlns="http://www.w3.org/2000/svg">
<path d="M3.28505 26.0434L3.28253 26.0292L3.28168 26.0147C2.77179 17.3465 10.4082 8.77485 22.9245 5.26827L22.9244 5.26802L22.9355 5.26545C29.3698 3.77459 35.5679 3.81016 40.4125 5.27782C45.2569 6.74544 48.783 9.66004 49.7755 13.9434C50.7251 18.0385 49.3127 22.866 45.9143 26.9943C42.5131 31.1262 37.111 34.5753 30.0352 35.9281C23.5954 37.4194 17.3095 37.1248 12.4335 35.3772C7.55863 33.6301 4.05612 30.4128 3.28505 26.0434Z" fill="#E4E8E8" stroke="black" stroke-width="0.5"/>
<path d="M30.0933 35.1963L30.1028 35.1941L30.1124 35.1923C37.0276 33.8714 42.2729 30.5084 45.558 26.5177C48.8503 22.5181 50.1511 17.923 49.2675 14.1128L49.2675 14.1127C48.3564 10.1808 45.1078 7.41651 40.4177 5.99561C35.7306 4.57563 29.6743 4.52719 23.3385 5.99353C11.0104 9.45112 3.79015 17.7896 4.25137 25.9416C4.96946 29.9388 8.19538 32.9818 12.9092 34.6712C17.6293 36.3629 23.7679 36.662 30.0933 35.1963Z" fill="#E4E8E8" stroke="white"/>
<path d="M20.74 21.76C21.6067 21.9867 22.26 22.3933 22.7 22.98C23.1533 23.5667 23.38 24.3067 23.38 25.2C23.38 26.4133 22.98 27.3733 22.18 28.08C21.38 28.7867 20.2933 29.14 18.92 29.14C18.0533 29.14 17.22 28.9867 16.42 28.68C15.62 28.3733 14.96 27.96 14.44 27.44C14.2667 27.28 14.18 27.0867 14.18 26.86C14.18 26.7133 14.22 26.5867 14.3 26.48C14.38 26.3733 14.4733 26.32 14.58 26.32C14.74 26.32 14.8933 26.3867 15.04 26.52C15.6667 27.0667 16.2867 27.46 16.9 27.7C17.5267 27.94 18.2 28.06 18.92 28.06C19.9467 28.06 20.74 27.8133 21.3 27.32C21.86 26.8267 22.14 26.12 22.14 25.2C22.14 23.32 20.98 22.38 18.66 22.38H17.64C17.4667 22.38 17.3267 22.3267 17.22 22.22C17.1133 22.1133 17.06 21.9867 17.06 21.84C17.06 21.6933 17.1067 21.5667 17.2 21.46C17.3067 21.3533 17.4533 21.3 17.64 21.3H18.36C19.4667 21.3 20.32 21.0467 20.92 20.54C21.5333 20.02 21.84 19.2867 21.84 18.34C21.84 17.54 21.5933 16.92 21.1 16.48C20.62 16.04 19.94 15.82 19.06 15.82C18.38 15.82 17.7333 15.9467 17.12 16.2C16.52 16.44 15.9 16.8267 15.26 17.36C15.1133 17.4933 14.96 17.56 14.8 17.56C14.6933 17.56 14.6 17.5067 14.52 17.4C14.44 17.2933 14.4 17.1667 14.4 17.02C14.4 16.7933 14.4867 16.6 14.66 16.44C15.18 15.92 15.8333 15.5067 16.62 15.2C17.4067 14.8933 18.22 14.74 19.06 14.74C20.3 14.74 21.28 15.0667 22 15.72C22.7333 16.36 23.0933 17.2267 23.08 18.32C23.0667 19.1333 22.8533 19.8467 22.44 20.46C22.0267 21.0733 21.46 21.5067 20.74 21.76Z" fill="#2F343E"/>
<path d="M29.3 25.05C29.2133 25.05 29.14 25.0233 29.08 24.97C29.0267 24.91 29 24.8333 29 24.74V22.72H28.59C28.2833 22.72 28.0367 22.7867 27.85 22.92C27.67 23.0533 27.5133 23.2667 27.38 23.56L26.78 24.86C26.7267 24.9867 26.6333 25.05 26.5 25.05C26.42 25.05 26.3467 25.0233 26.28 24.97C26.22 24.91 26.19 24.8367 26.19 24.75C26.19 24.71 26.2 24.6667 26.22 24.62L26.77 23.46C26.93 23.1333 27.09 22.8867 27.25 22.72C27.4167 22.5467 27.6267 22.4333 27.88 22.38L26.54 20.51C26.5 20.4633 26.48 20.4033 26.48 20.33C26.48 20.25 26.5067 20.1833 26.56 20.13C26.62 20.0767 26.69 20.05 26.77 20.05C26.87 20.05 26.9533 20.0967 27.02 20.19L28.47 22.27H29V20.36C29 20.2667 29.0267 20.1933 29.08 20.14C29.14 20.08 29.2133 20.05 29.3 20.05C29.3933 20.05 29.4667 20.08 29.52 20.14C29.58 20.1933 29.61 20.2667 29.61 20.36V22.27H30.14L31.59 20.2C31.6633 20.1 31.7467 20.05 31.84 20.05C31.92 20.05 31.99 20.0767 32.05 20.13C32.11 20.1833 32.14 20.25 32.14 20.33C32.14 20.4033 32.1167 20.4667 32.07 20.52L30.73 22.38C30.9833 22.4333 31.19 22.5433 31.35 22.71C31.5167 22.87 31.68 23.12 31.84 23.46L32.4 24.62C32.42 24.6667 32.43 24.7133 32.43 24.76C32.43 24.84 32.3967 24.91 32.33 24.97C32.2633 25.0233 32.19 25.05 32.11 25.05C32.0567 25.05 32.0033 25.0333 31.95 25C31.9033 24.9667 31.8667 24.92 31.84 24.86L31.23 23.56C31.09 23.26 30.9267 23.0467 30.74 22.92C30.56 22.7867 30.32 22.72 30.02 22.72H29.61V24.74C29.61 24.8333 29.58 24.91 29.52 24.97C29.4667 25.0233 29.3933 25.05 29.3 25.05ZM34.7613 25.07C34.028 25.07 33.4447 24.8967 33.0113 24.55C32.9313 24.4967 32.8913 24.4267 32.8913 24.34C32.8913 24.2667 32.918 24.2067 32.9713 24.16C33.0247 24.1067 33.0847 24.08 33.1513 24.08C33.2047 24.08 33.258 24.0967 33.3113 24.13C33.5113 24.27 33.7213 24.3733 33.9413 24.44C34.168 24.5 34.4347 24.53 34.7413 24.53C35.108 24.53 35.4313 24.4467 35.7113 24.28C35.998 24.1133 36.1413 23.8733 36.1413 23.56C36.1413 23.32 36.058 23.1233 35.8913 22.97C35.7247 22.8167 35.4413 22.74 35.0413 22.74H34.2413C34.1747 22.74 34.1147 22.7167 34.0613 22.67C34.0147 22.6167 33.9913 22.5567 33.9913 22.49C33.9913 22.4233 34.0147 22.3667 34.0613 22.32C34.1147 22.2733 34.1747 22.25 34.2413 22.25H34.9713C35.278 22.25 35.5347 22.1667 35.7413 22C35.948 21.8267 36.0513 21.61 36.0513 21.35C36.0513 21.11 35.958 20.92 35.7713 20.78C35.5847 20.6333 35.3013 20.56 34.9213 20.56C34.5947 20.56 34.3113 20.6 34.0713 20.68C33.838 20.7533 33.628 20.8567 33.4413 20.99C33.3747 21.0167 33.3247 21.03 33.2913 21.03C33.2247 21.03 33.1647 21.0033 33.1113 20.95C33.058 20.8967 33.0313 20.8367 33.0313 20.77C33.0313 20.6833 33.0747 20.61 33.1613 20.55C33.688 20.2033 34.288 20.03 34.9613 20.03C35.5613 20.03 35.998 20.1467 36.2713 20.38C36.5447 20.6133 36.6813 20.9267 36.6813 21.32C36.6813 21.5533 36.6047 21.7767 36.4513 21.99C36.3047 22.2033 36.0947 22.3533 35.8213 22.44C36.148 22.4933 36.388 22.6267 36.5413 22.84C36.6947 23.0467 36.7713 23.2933 36.7713 23.58C36.7713 24.0467 36.578 24.4133 36.1913 24.68C35.8047 24.94 35.328 25.07 34.7613 25.07ZM41.4705 20.2C41.5438 20.1 41.6438 20.05 41.7705 20.05C41.8638 20.05 41.9405 20.08 42.0005 20.14C42.0671 20.2 42.1005 20.2767 42.1005 20.37V24.75C42.1005 24.8367 42.0705 24.91 42.0105 24.97C41.9571 25.0233 41.8871 25.05 41.8005 25.05C41.7138 25.05 41.6405 25.0233 41.5805 24.97C41.5271 24.91 41.5005 24.8367 41.5005 24.75V20.96L38.6405 24.9C38.5738 25 38.4771 25.05 38.3505 25.05C38.2505 25.05 38.1671 25.02 38.1005 24.96C38.0405 24.8933 38.0105 24.8133 38.0105 24.72V20.35C38.0105 20.2633 38.0371 20.1933 38.0905 20.14C38.1505 20.08 38.2238 20.05 38.3105 20.05C38.3971 20.05 38.4705 20.08 38.5305 20.14C38.5905 20.1933 38.6205 20.2633 38.6205 20.35V24.09L41.4705 20.2Z" fill="#2F343E"/>
</svg>
