<svg width="54" height="41" viewBox="0 0 54 41" fill="none" xmlns="http://www.w3.org/2000/svg">
<path d="M50.2481 25.938L50.2507 25.9237L50.2515 25.9092C50.7614 17.241 43.125 8.66938 30.6087 5.1628L30.6088 5.16255L30.5977 5.15998C24.1634 3.66912 17.9653 3.70469 13.1207 5.17235C8.27635 6.63998 4.75022 9.55457 3.75775 13.8379C2.80811 17.933 4.22047 22.7605 7.61886 26.8889C11.0201 31.0207 16.4222 34.4699 23.498 35.8226C29.9378 37.3139 36.2237 37.0193 41.0997 35.2718C45.9746 33.5246 49.4771 30.3074 50.2481 25.938Z" fill="#E4E8E8" stroke="black" stroke-width="0.5"/>
<path d="M23.4399 35.0909L23.4304 35.0887L23.4208 35.0868C16.5056 33.7659 11.2603 30.4029 7.97525 26.4122C4.68291 22.4127 3.38213 17.8175 4.26571 14.0073L4.26573 14.0072C5.17678 10.0753 8.42536 7.31104 13.1155 5.89014C17.8026 4.47016 23.8589 4.42172 30.1947 5.88806C42.5228 9.34566 49.7431 17.6841 49.2818 25.8361C48.5637 29.8333 45.3378 32.8763 40.624 34.5657C35.9039 36.2574 29.7653 36.5565 23.4399 35.0909Z" fill="#E4E8E8" stroke="white"/>
<path d="M29.8 19.76C29.9867 19.76 30.1333 19.8133 30.24 19.92C30.3467 20.0133 30.4 20.1267 30.4 20.26C30.4 20.4067 30.3467 20.5333 30.24 20.64C30.1333 20.7333 29.9867 20.7733 29.8 20.76L27.22 20.68L28.58 22.88C28.6467 22.9733 28.68 23.0867 28.68 23.22C28.68 23.3533 28.6267 23.4733 28.52 23.58C28.4267 23.6733 28.32 23.72 28.2 23.72C27.9867 23.72 27.82 23.6067 27.7 23.38L26.5 21.1L25.26 23.4C25.14 23.6133 24.98 23.72 24.78 23.72C24.6467 23.72 24.5267 23.6733 24.42 23.58C24.3267 23.4867 24.28 23.3733 24.28 23.24C24.28 23.1333 24.32 23.02 24.4 22.9L25.78 20.68L23.18 20.76C22.9933 20.76 22.8467 20.7133 22.74 20.62C22.6333 20.5133 22.58 20.3933 22.58 20.26C22.58 20.1133 22.6333 19.9933 22.74 19.9C22.8467 19.7933 22.9933 19.7467 23.18 19.76L25.78 19.86L24.4 17.62C24.3333 17.5133 24.3 17.4 24.3 17.28C24.3 17.1467 24.3467 17.0333 24.44 16.94C24.5333 16.8467 24.6467 16.8 24.78 16.8C24.9667 16.8 25.1267 16.9133 25.26 17.14L26.5 19.42L27.7 17.14C27.82 16.9133 27.9867 16.8 28.2 16.8C28.32 16.8 28.4267 16.8467 28.52 16.94C28.6267 17.0333 28.68 17.1533 28.68 17.3C28.68 17.42 28.6467 17.5333 28.58 17.64L27.22 19.86L29.8 19.76Z" fill="#2F343E"/>
</svg>
