<svg width="55" height="43" viewBox="0 0 55 43" fill="none" xmlns="http://www.w3.org/2000/svg">
<path d="M4.28115 26.938L4.27863 26.9237L4.27778 26.9092C3.76788 18.241 11.4043 9.66938 23.9206 6.1628L23.9205 6.16255L23.9316 6.15998C30.3659 4.66912 36.564 4.70469 41.4086 6.17235C46.2529 7.63998 49.7791 10.5546 50.7715 14.8379C51.7212 18.933 50.3088 23.7605 46.9104 27.8889C43.5092 32.0207 38.1071 35.4699 31.0313 36.8226C24.5915 38.3139 18.3056 38.0193 13.4295 36.2718C8.55472 34.5246 5.05222 31.3074 4.28115 26.938Z" fill="#E4E8E8" stroke="black" stroke-width="0.5"/>
<path d="M31.0894 36.0909L31.0989 36.0887L31.1085 36.0868C38.0237 34.7659 43.269 31.4029 46.5541 27.4122C49.8464 23.4127 51.1472 18.8175 50.2636 15.0073L50.2636 15.0072C49.3525 11.0753 46.1039 8.31104 41.4138 6.89014C36.7266 5.47016 30.6703 5.42172 24.3346 6.88806C12.0065 10.3457 4.78624 18.6841 5.24746 26.8361C5.96556 30.8333 9.19147 33.8763 13.9052 35.5657C18.6254 37.2574 24.764 37.5565 31.0894 36.0909Z" fill="#E4E8E8" stroke="white"/>
<path d="M33.32 18.46L32.38 23.28H34.58C34.7267 23.28 34.8467 23.3333 34.94 23.44C35.0467 23.5467 35.1 23.6733 35.1 23.82C35.1 23.9533 35.0467 24.0667 34.94 24.16C34.8467 24.24 34.7267 24.28 34.58 24.28H32.18L31.52 27.7C31.5067 27.82 31.4533 27.92 31.36 28C31.2667 28.0667 31.1533 28.1 31.02 28.1C30.8467 28.1 30.7067 28.0333 30.6 27.9C30.5067 27.7667 30.48 27.6067 30.52 27.42L31.14 24.28H27.64L26.98 27.7C26.9667 27.82 26.9067 27.92 26.8 28C26.7067 28.0667 26.5933 28.1 26.46 28.1C26.2867 28.1 26.1467 28.0333 26.04 27.9C25.9467 27.7667 25.92 27.6067 25.96 27.42L26.58 24.28H25.02C24.8733 24.28 24.7467 24.2267 24.64 24.12C24.5467 24.0133 24.5 23.8867 24.5 23.74C24.5 23.6067 24.5467 23.5 24.64 23.42C24.7467 23.3267 24.8733 23.28 25.02 23.28H26.78L27.72 18.46H25.42C25.2733 18.46 25.1467 18.4067 25.04 18.3C24.9467 18.1933 24.9 18.0667 24.9 17.92C24.9 17.7867 24.9467 17.68 25.04 17.6C25.1467 17.5067 25.2733 17.46 25.42 17.46H27.92L28.56 14.14C28.5867 14.02 28.64 13.9267 28.72 13.86C28.8133 13.78 28.9267 13.74 29.06 13.74C29.2333 13.74 29.3667 13.8067 29.46 13.94C29.5667 14.0733 29.6 14.2333 29.56 14.42L28.96 17.46H32.46L33.1 14.14C33.1133 14.02 33.1667 13.9267 33.26 13.86C33.3667 13.78 33.4867 13.74 33.62 13.74C33.7933 13.74 33.9267 13.8067 34.02 13.94C34.1267 14.0733 34.16 14.2333 34.12 14.42L33.52 17.46H34.98C35.1267 17.46 35.2467 17.5133 35.34 17.62C35.4467 17.7267 35.5 17.8533 35.5 18C35.5 18.1333 35.4467 18.2467 35.34 18.34C35.2467 18.42 35.1267 18.46 34.98 18.46H33.32ZM31.32 23.28L32.26 18.46H28.78L27.84 23.28H31.32Z" fill="#2F343E"/>
</svg>
