<svg width="56" height="43" viewBox="0 0 56 43" fill="none" xmlns="http://www.w3.org/2000/svg">
<path d="M51.2481 26.938L51.2507 26.9237L51.2515 26.9092C51.7614 18.241 44.125 9.66938 31.6087 6.1628L31.6088 6.16255L31.5977 6.15998C25.1634 4.66912 18.9653 4.70469 14.1207 6.17235C9.27635 7.63998 5.75022 10.5546 4.75775 14.8379C3.80811 18.933 5.22047 23.7605 8.61886 27.8889C12.0201 32.0207 17.4222 35.4699 24.498 36.8226C30.9378 38.3139 37.2237 38.0193 42.0997 36.2718C46.9746 34.5246 50.4771 31.3074 51.2481 26.938Z" fill="#E4E8E8" stroke="black" stroke-width="0.5"/>
<path d="M24.4399 36.0909L24.4304 36.0887L24.4208 36.0868C17.5056 34.7659 12.2603 31.4029 8.97525 27.4122C5.68291 23.4127 4.38213 18.8175 5.26571 15.0073L5.26573 15.0072C6.17678 11.0753 9.42536 8.31104 14.1155 6.89014C18.8026 5.47016 24.8589 5.42172 31.1947 6.88806C43.5228 10.3457 50.7431 18.6841 50.2818 26.8361C49.5637 30.8333 46.3378 33.8763 41.624 35.5657C36.9039 37.2574 30.7653 37.5565 24.4399 36.0909Z" fill="#E4E8E8" stroke="white"/>
<path d="M23.74 21.6345C23.9133 21.6345 24.0467 21.6879 24.14 21.7945C24.2467 21.8879 24.3 22.0145 24.3 22.1745C24.3 22.3479 24.2467 22.4812 24.14 22.5745C24.0467 22.6545 23.9133 22.6945 23.74 22.6945H22.02V25.3545C22.02 25.5412 21.96 25.6945 21.84 25.8145C21.7333 25.9345 21.5867 25.9945 21.4 25.9945C21.2133 25.9945 21.06 25.9345 20.94 25.8145C20.8333 25.6945 20.78 25.5412 20.78 25.3545V22.6945H14.58C14.3933 22.6945 14.2467 22.6479 14.14 22.5545C14.0333 22.4612 13.98 22.3345 13.98 22.1745C13.98 22.0145 14.04 21.8545 14.16 21.6945L20.88 11.9745C20.9333 11.8812 21.0067 11.8145 21.1 11.7745C21.2067 11.7212 21.3133 11.6945 21.42 11.6945C21.58 11.6945 21.72 11.7479 21.84 11.8545C21.96 11.9612 22.02 12.1212 22.02 12.3345V21.6345H23.74ZM15.48 21.6345H20.78V13.9745L15.48 21.6345Z" fill="#2F343E"/>
<path d="M27.72 20.9245C28.3067 20.9245 28.7433 21.0779 29.03 21.3845C29.3233 21.6912 29.47 22.1545 29.47 22.7745V25.6245C29.47 25.7179 29.4433 25.7945 29.39 25.8545C29.3367 25.9079 29.2633 25.9345 29.17 25.9345C29.0767 25.9345 29.0033 25.9079 28.95 25.8545C28.8967 25.7945 28.87 25.7179 28.87 25.6245V25.0245C28.73 25.3245 28.5267 25.5579 28.26 25.7245C27.9933 25.8845 27.6867 25.9645 27.34 25.9645C27.0267 25.9645 26.74 25.9012 26.48 25.7745C26.2267 25.6479 26.0233 25.4745 25.87 25.2545C25.7167 25.0345 25.64 24.7879 25.64 24.5145C25.6333 24.1479 25.7233 23.8645 25.91 23.6645C26.0967 23.4579 26.4067 23.3112 26.84 23.2245C27.2733 23.1379 27.88 23.0945 28.66 23.0945H28.87V22.7245C28.87 22.2845 28.78 21.9645 28.6 21.7645C28.42 21.5579 28.1367 21.4545 27.75 21.4545C27.2567 21.4545 26.7867 21.5845 26.34 21.8445C26.32 21.8579 26.2667 21.8945 26.18 21.9545C26.1 22.0079 26.03 22.0345 25.97 22.0345C25.9033 22.0345 25.8467 22.0112 25.8 21.9645C25.76 21.9112 25.74 21.8479 25.74 21.7745C25.74 21.6279 25.8567 21.4845 26.09 21.3445C26.3233 21.2112 26.5833 21.1079 26.87 21.0345C27.1567 20.9612 27.44 20.9245 27.72 20.9245ZM27.39 25.4345C27.8233 25.4345 28.1767 25.2879 28.45 24.9945C28.73 24.7012 28.87 24.3279 28.87 23.8745V23.5445H28.68C28.04 23.5445 27.55 23.5712 27.21 23.6245C26.87 23.6779 26.63 23.7712 26.49 23.9045C26.35 24.0312 26.28 24.2179 26.28 24.4645C26.28 24.7445 26.3867 24.9779 26.6 25.1645C26.8133 25.3445 27.0767 25.4345 27.39 25.4345ZM33.1437 25.9645C32.6037 25.9645 32.1637 25.8245 31.8237 25.5445C31.4903 25.2579 31.2503 24.9012 31.1037 24.4745C30.957 24.0479 30.8837 23.6045 30.8837 23.1445C30.8837 22.3312 30.9503 21.6779 31.0837 21.1845C31.217 20.6912 31.4003 20.3145 31.6337 20.0545C31.8737 19.7879 32.1803 19.5645 32.5537 19.3845C32.7337 19.2979 32.9337 19.2212 33.1537 19.1545C33.3803 19.0812 33.517 19.0379 33.5637 19.0245C33.6237 19.0045 33.777 18.9579 34.0237 18.8845C34.277 18.8045 34.5137 18.7112 34.7337 18.6045C34.787 18.5779 34.8403 18.5645 34.8937 18.5645C34.9737 18.5645 35.037 18.5912 35.0837 18.6445C35.137 18.6912 35.1637 18.7512 35.1637 18.8245C35.1637 18.9312 35.1037 19.0212 34.9837 19.0945C34.817 19.1945 34.6337 19.2812 34.4337 19.3545C34.2337 19.4212 33.9803 19.5012 33.6737 19.5945C33.6137 19.6145 33.4903 19.6512 33.3037 19.7045C33.1237 19.7579 32.9637 19.8145 32.8237 19.8745C31.957 20.2012 31.5103 20.9679 31.4837 22.1745C31.637 21.8345 31.8637 21.5512 32.1637 21.3245C32.4703 21.0979 32.8637 20.9845 33.3437 20.9845C33.717 20.9845 34.057 21.0712 34.3637 21.2445C34.6703 21.4179 34.917 21.6879 35.1037 22.0545C35.2903 22.4212 35.3837 22.8879 35.3837 23.4545C35.3837 23.9012 35.297 24.3179 35.1237 24.7045C34.9503 25.0845 34.6937 25.3912 34.3537 25.6245C34.0203 25.8512 33.617 25.9645 33.1437 25.9645ZM33.1437 25.4245C33.537 25.4245 33.8537 25.3212 34.0937 25.1145C34.3337 24.9079 34.5003 24.6579 34.5937 24.3645C34.6937 24.0645 34.7437 23.7645 34.7437 23.4645C34.7437 22.8645 34.6137 22.3912 34.3537 22.0445C34.1003 21.6979 33.7303 21.5245 33.2437 21.5245C32.857 21.5245 32.537 21.6279 32.2837 21.8345C32.0303 22.0345 31.8437 22.2845 31.7237 22.5845C31.6037 22.8779 31.5437 23.1745 31.5437 23.4745C31.5437 24.0079 31.667 24.4679 31.9137 24.8545C32.167 25.2345 32.577 25.4245 33.1437 25.4245ZM36.9791 25.8945C36.8791 25.8945 36.7991 25.8645 36.7391 25.8045C36.6791 25.7445 36.6491 25.6679 36.6491 25.5745V21.3645C36.6491 21.2712 36.6791 21.1945 36.7391 21.1345C36.7991 21.0745 36.8758 21.0445 36.9691 21.0445H38.6591C39.1791 21.0445 39.5825 21.1445 39.8691 21.3445C40.1558 21.5445 40.2991 21.8545 40.2991 22.2745C40.2991 22.5079 40.2291 22.7312 40.0891 22.9445C39.9491 23.1512 39.7325 23.3045 39.4391 23.4045C39.7258 23.4512 39.9591 23.5745 40.1391 23.7745C40.3258 23.9745 40.4191 24.2312 40.4191 24.5445C40.4191 24.7645 40.3591 24.9779 40.2391 25.1845C40.1258 25.3845 39.9391 25.5545 39.6791 25.6945C39.4258 25.8279 39.0991 25.8945 38.6991 25.8945H36.9791ZM38.6591 23.1845C38.9591 23.1845 39.2025 23.1045 39.3891 22.9445C39.5825 22.7779 39.6791 22.5612 39.6791 22.2945C39.6791 22.0545 39.5925 21.8679 39.4191 21.7345C39.2525 21.5945 38.9858 21.5245 38.6191 21.5245H37.2591V23.1845H38.6591ZM38.6791 25.4045C39.4191 25.4045 39.7891 25.1179 39.7891 24.5445C39.7891 24.2512 39.6758 24.0312 39.4491 23.8845C39.2225 23.7312 38.9225 23.6545 38.5491 23.6545H37.2591V25.4045H38.6791Z" fill="#2F343E"/>
</svg>
