<svg width="49" height="32" viewBox="0 0 49 32" fill="none" xmlns="http://www.w3.org/2000/svg">
<path d="M24.5 31.25C31.0297 31.25 36.9529 29.5611 41.2515 26.8173C45.5472 24.0754 48.25 20.2569 48.25 16C48.25 11.7431 45.5472 7.92461 41.2515 5.18267C36.9529 2.43889 31.0297 0.75 24.5 0.75C17.9703 0.75 12.0471 2.43889 7.74848 5.18267C3.45277 7.92461 0.75 11.7431 0.75 16C0.75 20.2569 3.45277 24.0754 7.74848 26.8173C12.0471 29.5611 17.9703 31.25 24.5 31.25Z" fill="#E4E8E8" stroke="black" stroke-width="0.5"/>
<path d="M47.5 16C47.5 19.9126 45.0146 23.5256 40.848 26.1851C36.6872 28.841 30.9087 30.5 24.5 30.5C18.0913 30.5 12.3128 28.841 8.15201 26.1851C3.98545 23.5256 1.5 19.9126 1.5 16C1.5 12.0874 3.98545 8.47437 8.15201 5.81486C12.3128 3.15902 18.0913 1.5 24.5 1.5C30.9087 1.5 36.6872 3.15902 40.848 5.81486C45.0146 8.47437 47.5 12.0874 47.5 16Z" fill="#E4E8E8" stroke="white"/>
<path d="M18.3 14.78C19.1267 15.02 19.7733 15.4533 20.24 16.08C20.72 16.6933 20.96 17.4333 20.96 18.3C20.96 19.5 20.5267 20.44 19.66 21.12C18.8067 21.8 17.5867 22.14 16 22.14C14.4133 22.14 13.1867 21.8 12.32 21.12C11.4667 20.44 11.04 19.5 11.04 18.3C11.04 17.42 11.2733 16.6733 11.74 16.06C12.2067 15.4467 12.86 15.02 13.7 14.78C12.98 14.5133 12.4067 14.0867 11.98 13.5C11.5667 12.9133 11.36 12.2333 11.36 11.46C11.36 10.3133 11.7667 9.40667 12.58 8.74C13.3933 8.07333 14.5333 7.74 16 7.74C17.4667 7.74 18.6067 8.07333 19.42 8.74C20.2333 9.40667 20.64 10.3133 20.64 11.46C20.64 12.2333 20.4267 12.9133 20 13.5C19.5867 14.0867 19.02 14.5133 18.3 14.78ZM12.62 11.52C12.62 12.4 12.9067 13.0867 13.48 13.58C14.0533 14.0733 14.8933 14.32 16 14.32C17.1067 14.32 17.9467 14.0733 18.52 13.58C19.0933 13.0867 19.38 12.4 19.38 11.52C19.38 10.6667 19.0933 10.0067 18.52 9.54C17.9467 9.06 17.1067 8.82 16 8.82C14.8933 8.82 14.0533 9.06 13.48 9.54C12.9067 10.0067 12.62 10.6667 12.62 11.52ZM16 21.06C18.4667 21.06 19.7 20.12 19.7 18.24C19.7 16.3467 18.4667 15.4 16 15.4C13.5333 15.4 12.3 16.3467 12.3 18.24C12.3 20.12 13.5333 21.06 16 21.06Z" fill="#2F343E"/>
<path d="M23.09 22.05C22.9967 22.05 22.92 22.0233 22.86 21.97C22.8067 21.91 22.78 21.8367 22.78 21.75V17.47C22.78 17.3767 22.81 17.3 22.87 17.24C22.93 17.18 23.0067 17.15 23.1 17.15H25.63C25.71 17.15 25.7733 17.1733 25.82 17.22C25.8667 17.26 25.89 17.3167 25.89 17.39C25.89 17.4633 25.8667 17.5233 25.82 17.57C25.7733 17.6167 25.71 17.64 25.63 17.64H23.39V21.75C23.39 21.8367 23.3633 21.91 23.31 21.97C23.2567 22.0233 23.1833 22.05 23.09 22.05ZM26.3744 23.31C26.2877 23.31 26.2177 23.2833 26.1644 23.23C26.111 23.1833 26.0844 23.1133 26.0844 23.02V21.82C26.0844 21.7267 26.1077 21.65 26.1544 21.59C26.201 21.53 26.2644 21.5 26.3444 21.5H26.5544C26.8144 21.1533 27.001 20.7267 27.1144 20.22C27.2344 19.7133 27.2944 19.0367 27.2944 18.19V17.47C27.2944 17.3767 27.3244 17.3 27.3844 17.24C27.4444 17.18 27.521 17.15 27.6144 17.15H30.1444C30.2377 17.15 30.3144 17.18 30.3744 17.24C30.441 17.3 30.4744 17.3767 30.4744 17.47V21.5H30.8944C30.9877 21.5 31.0644 21.53 31.1244 21.59C31.1844 21.65 31.2144 21.7267 31.2144 21.82V23.02C31.2144 23.1133 31.1877 23.1833 31.1344 23.23C31.0877 23.2833 31.0177 23.31 30.9244 23.31C30.8377 23.31 30.7677 23.2833 30.7144 23.23C30.661 23.1833 30.6344 23.1133 30.6344 23.02V22H26.6644V23.02C26.6644 23.1133 26.6377 23.1833 26.5844 23.23C26.5377 23.2833 26.4677 23.31 26.3744 23.31ZM29.8644 17.64H27.8644V18.19C27.8644 19.7167 27.6377 20.82 27.1844 21.5H29.8644V17.64ZM35.8657 20.96C35.9257 20.96 35.9757 20.9867 36.0157 21.04C36.0624 21.0867 36.0857 21.1433 36.0857 21.21C36.0857 21.3567 35.9724 21.5 35.7457 21.64C35.2657 21.9267 34.759 22.07 34.2257 22.07C33.4857 22.07 32.9024 21.8467 32.4757 21.4C32.049 20.9533 31.8357 20.34 31.8357 19.56C31.8357 19.06 31.929 18.62 32.1157 18.24C32.309 17.8533 32.5757 17.5567 32.9157 17.35C33.2624 17.1367 33.659 17.03 34.1057 17.03C34.7324 17.03 35.2257 17.2333 35.5857 17.64C35.9524 18.04 36.1357 18.5933 36.1357 19.3C36.1357 19.42 36.109 19.51 36.0557 19.57C36.0024 19.6233 35.9157 19.65 35.7957 19.65H32.4657C32.4857 20.2633 32.6457 20.73 32.9457 21.05C33.2457 21.37 33.669 21.53 34.2157 21.53C34.5024 21.53 34.7424 21.4933 34.9357 21.42C35.129 21.34 35.3357 21.2367 35.5557 21.11C35.7024 21.01 35.8057 20.96 35.8657 20.96ZM34.1057 17.53C33.639 17.53 33.2657 17.6767 32.9857 17.97C32.7057 18.2633 32.539 18.6733 32.4857 19.2H35.5757C35.5624 18.6667 35.429 18.2567 35.1757 17.97C34.9224 17.6767 34.5657 17.53 34.1057 17.53Z" fill="#2F343E"/>
</svg>
