<svg width="54" height="41" viewBox="0 0 54 41" fill="none" xmlns="http://www.w3.org/2000/svg">
<path d="M3.28115 25.938L3.27863 25.9237L3.27778 25.9092C2.76788 17.241 10.4043 8.66938 22.9206 5.1628L22.9205 5.16255L22.9316 5.15998C29.3659 3.66912 35.564 3.70469 40.4086 5.17235C45.2529 6.63998 48.7791 9.55457 49.7715 13.8379C50.7212 17.933 49.3088 22.7605 45.9104 26.8889C42.5092 31.0207 37.1071 34.4699 30.0313 35.8226C23.5915 37.3139 17.3056 37.0193 12.4295 35.2718C7.55472 33.5246 4.05222 30.3074 3.28115 25.938Z" fill="#E4E8E8" stroke="black" stroke-width="0.5"/>
<path d="M30.0894 35.0909L30.0989 35.0887L30.1085 35.0868C37.0237 33.7659 42.269 30.4029 45.5541 26.4122C48.8464 22.4127 50.1472 17.8175 49.2636 14.0073L49.2636 14.0072C48.3525 10.0753 45.1039 7.31104 40.4138 5.89014C35.7266 4.47016 29.6703 4.42172 23.3346 5.88806C11.0065 9.34566 3.78624 17.6841 4.24746 25.8361C4.96556 29.8333 8.19147 32.8763 12.9052 34.5657C17.6254 36.2574 23.764 36.5565 30.0894 35.0909Z" fill="#E4E8E8" stroke="white"/>
<path d="M19.4561 20.1145C20.3228 20.1145 21.0894 20.3012 21.7561 20.6745C22.4361 21.0479 22.9628 21.5745 23.3361 22.2545C23.7094 22.9212 23.8961 23.6945 23.8961 24.5745C23.8961 25.4279 23.7028 26.1945 23.3161 26.8745C22.9294 27.5545 22.3961 28.0879 21.7161 28.4745C21.0361 28.8612 20.2694 29.0545 19.4161 29.0545C17.7494 29.0545 16.4628 28.4679 15.5561 27.2945C14.6494 26.1079 14.1961 24.4212 14.1961 22.2345C14.1961 19.8345 14.6628 17.9679 15.5961 16.6345C16.5294 15.3012 17.8294 14.6345 19.4961 14.6345C20.2694 14.6345 21.0294 14.7879 21.7761 15.0945C22.5228 15.4012 23.1561 15.8145 23.6761 16.3345C23.8494 16.4945 23.9361 16.6879 23.9361 16.9145C23.9361 17.0612 23.8961 17.1879 23.8161 17.2945C23.7361 17.4012 23.6428 17.4545 23.5361 17.4545C23.4028 17.4545 23.2494 17.3879 23.0761 17.2545C21.8628 16.2279 20.6694 15.7145 19.4961 15.7145C18.2294 15.7145 17.2361 16.2879 16.5161 17.4345C15.7961 18.5812 15.4361 20.1812 15.4361 22.2345V22.7745C15.7428 21.9479 16.2561 21.3012 16.9761 20.8345C17.6961 20.3545 18.5228 20.1145 19.4561 20.1145ZM19.3761 27.9745C20.3628 27.9745 21.1494 27.6679 21.7361 27.0545C22.3361 26.4279 22.6361 25.6012 22.6361 24.5745C22.6361 23.5612 22.3361 22.7479 21.7361 22.1345C21.1361 21.5212 20.3428 21.2145 19.3561 21.2145C18.3561 21.2145 17.5361 21.5279 16.8961 22.1545C16.2561 22.7812 15.9361 23.5879 15.9361 24.5745C15.9361 25.5879 16.2494 26.4079 16.8761 27.0345C17.5161 27.6612 18.3494 27.9745 19.3761 27.9745Z" fill="#2F343E"/>
<path d="M29.2961 24.9445C29.2094 24.9445 29.1361 24.9179 29.0761 24.8645C29.0228 24.8045 28.9961 24.7279 28.9961 24.6345V22.6145H28.5861C28.2794 22.6145 28.0328 22.6812 27.8461 22.8145C27.6661 22.9479 27.5094 23.1612 27.3761 23.4545L26.7761 24.7545C26.7228 24.8812 26.6294 24.9445 26.4961 24.9445C26.4161 24.9445 26.3428 24.9179 26.2761 24.8645C26.2161 24.8045 26.1861 24.7312 26.1861 24.6445C26.1861 24.6045 26.1961 24.5612 26.2161 24.5145L26.7661 23.3545C26.9261 23.0279 27.0861 22.7812 27.2461 22.6145C27.4128 22.4412 27.6228 22.3279 27.8761 22.2745L26.5361 20.4045C26.4961 20.3579 26.4761 20.2979 26.4761 20.2245C26.4761 20.1445 26.5028 20.0779 26.5561 20.0245C26.6161 19.9712 26.6861 19.9445 26.7661 19.9445C26.8661 19.9445 26.9494 19.9912 27.0161 20.0845L28.4661 22.1645H28.9961V20.2545C28.9961 20.1612 29.0228 20.0879 29.0761 20.0345C29.1361 19.9745 29.2094 19.9445 29.2961 19.9445C29.3894 19.9445 29.4628 19.9745 29.5161 20.0345C29.5761 20.0879 29.6061 20.1612 29.6061 20.2545V22.1645H30.1361L31.5861 20.0945C31.6594 19.9945 31.7428 19.9445 31.8361 19.9445C31.9161 19.9445 31.9861 19.9712 32.0461 20.0245C32.1061 20.0779 32.1361 20.1445 32.1361 20.2245C32.1361 20.2979 32.1128 20.3612 32.0661 20.4145L30.7261 22.2745C30.9794 22.3279 31.1861 22.4379 31.3461 22.6045C31.5128 22.7645 31.6761 23.0145 31.8361 23.3545L32.3961 24.5145C32.4161 24.5612 32.4261 24.6079 32.4261 24.6545C32.4261 24.7345 32.3928 24.8045 32.3261 24.8645C32.2594 24.9179 32.1861 24.9445 32.1061 24.9445C32.0528 24.9445 31.9994 24.9279 31.9461 24.8945C31.8994 24.8612 31.8628 24.8145 31.8361 24.7545L31.2261 23.4545C31.0861 23.1545 30.9228 22.9412 30.7361 22.8145C30.5561 22.6812 30.3161 22.6145 30.0161 22.6145H29.6061V24.6345C29.6061 24.7279 29.5761 24.8045 29.5161 24.8645C29.4628 24.9179 29.3894 24.9445 29.2961 24.9445ZM34.7574 24.9645C34.0241 24.9645 33.4408 24.7912 33.0074 24.4445C32.9274 24.3912 32.8874 24.3212 32.8874 24.2345C32.8874 24.1612 32.9141 24.1012 32.9674 24.0545C33.0208 24.0012 33.0808 23.9745 33.1474 23.9745C33.2008 23.9745 33.2541 23.9912 33.3074 24.0245C33.5074 24.1645 33.7174 24.2679 33.9374 24.3345C34.1641 24.3945 34.4308 24.4245 34.7374 24.4245C35.1041 24.4245 35.4274 24.3412 35.7074 24.1745C35.9941 24.0079 36.1374 23.7679 36.1374 23.4545C36.1374 23.2145 36.0541 23.0179 35.8874 22.8645C35.7208 22.7112 35.4374 22.6345 35.0374 22.6345H34.2374C34.1708 22.6345 34.1108 22.6112 34.0574 22.5645C34.0108 22.5112 33.9874 22.4512 33.9874 22.3845C33.9874 22.3179 34.0108 22.2612 34.0574 22.2145C34.1108 22.1679 34.1708 22.1445 34.2374 22.1445H34.9674C35.2741 22.1445 35.5308 22.0612 35.7374 21.8945C35.9441 21.7212 36.0474 21.5045 36.0474 21.2445C36.0474 21.0045 35.9541 20.8145 35.7674 20.6745C35.5808 20.5279 35.2974 20.4545 34.9174 20.4545C34.5908 20.4545 34.3074 20.4945 34.0674 20.5745C33.8341 20.6479 33.6241 20.7512 33.4374 20.8845C33.3708 20.9112 33.3208 20.9245 33.2874 20.9245C33.2208 20.9245 33.1608 20.8979 33.1074 20.8445C33.0541 20.7912 33.0274 20.7312 33.0274 20.6645C33.0274 20.5779 33.0708 20.5045 33.1574 20.4445C33.6841 20.0979 34.2841 19.9245 34.9574 19.9245C35.5574 19.9245 35.9941 20.0412 36.2674 20.2745C36.5408 20.5079 36.6774 20.8212 36.6774 21.2145C36.6774 21.4479 36.6008 21.6712 36.4474 21.8845C36.3008 22.0979 36.0908 22.2479 35.8174 22.3345C36.1441 22.3879 36.3841 22.5212 36.5374 22.7345C36.6908 22.9412 36.7674 23.1879 36.7674 23.4745C36.7674 23.9412 36.5741 24.3079 36.1874 24.5745C35.8008 24.8345 35.3241 24.9645 34.7574 24.9645ZM41.4666 20.0945C41.5399 19.9945 41.6399 19.9445 41.7666 19.9445C41.8599 19.9445 41.9366 19.9745 41.9966 20.0345C42.0632 20.0945 42.0966 20.1712 42.0966 20.2645V24.6445C42.0966 24.7312 42.0666 24.8045 42.0066 24.8645C41.9532 24.9179 41.8832 24.9445 41.7966 24.9445C41.7099 24.9445 41.6366 24.9179 41.5766 24.8645C41.5232 24.8045 41.4966 24.7312 41.4966 24.6445V20.8545L38.6366 24.7945C38.5699 24.8945 38.4732 24.9445 38.3466 24.9445C38.2466 24.9445 38.1632 24.9145 38.0966 24.8545C38.0366 24.7879 38.0066 24.7079 38.0066 24.6145V20.2445C38.0066 20.1579 38.0332 20.0879 38.0866 20.0345C38.1466 19.9745 38.2199 19.9445 38.3066 19.9445C38.3932 19.9445 38.4666 19.9745 38.5266 20.0345C38.5866 20.0879 38.6166 20.1579 38.6166 20.2445V23.9845L41.4666 20.0945Z" fill="#2F343E"/>
</svg>
