<svg width="60" height="63" viewBox="0 0 60 63" fill="none" xmlns="http://www.w3.org/2000/svg">
<path d="M39.4397 0.703998L39.4397 0.70399C39.9962 0.534213 40.9252 0.458396 41.855 0.522795C42.7792 0.586802 43.8162 0.796264 44.5398 1.2821C45.8249 2.14483 47.6393 3.83591 49.401 6.20135C49.7942 6.72934 50.1197 7.12544 50.4659 7.54665C51.4487 8.74257 52.5978 10.1409 55.9353 15.3351C60.5787 22.5619 57.8757 30.0264 55.9326 32.8787C54.1312 35.7286 50.9498 40.3008 47.2426 44.7834C43.5396 49.2609 39.2789 53.69 35.3225 56.2063C30.4468 59.3074 27.2508 60.7726 24.5559 61.3853C22.0121 61.9637 19.9441 61.7732 17.4294 61.5415C17.273 61.5271 17.1148 61.5125 16.9547 61.4979C11.0756 60.9635 7.95188 56.0396 6.91259 53.9463C6.72591 53.5703 6.53849 52.9767 6.34825 52.2554C6.15503 51.5228 5.94951 50.6207 5.73358 49.6046C5.43211 48.1861 5.10735 46.5308 4.76499 44.7858C4.61727 44.0329 4.46627 43.2633 4.31246 42.4888C3.64983 39.1523 2.94275 36.7894 2.3965 34.9639C2.14281 34.1162 1.92381 33.3843 1.76005 32.7247C1.24596 30.6538 0.407349 26.7528 0.508358 22.998C0.608425 19.2781 1.64244 15.4732 5.11183 13.9359C17.9081 8.26585 28.159 4.14649 39.4397 0.703998Z" fill="#D7DBDB" stroke="black"/>
<g clip-path="url(#clip0)">
<path d="M26.8576 44.6028C26.8901 44.6458 26.8899 44.7051 26.8568 44.7482L24.5953 47.6895C24.5727 47.7194 24.5374 47.7366 24.5003 47.7366C24.4631 47.7366 24.428 47.7194 24.4052 47.6895L22.1436 44.7482C22.1272 44.7268 22.1187 44.7011 22.1187 44.6752C22.1187 44.6497 22.1269 44.6241 22.143 44.6028C22.1754 44.5597 22.2327 44.5435 22.283 44.5637L23.7803 45.1547V41.6885C23.7803 41.6222 23.8339 41.5688 23.9003 41.5688H25.1004C25.1664 41.5688 25.2203 41.6222 25.2203 41.6885V45.1549L26.7176 44.5638C26.7678 44.5437 26.8252 44.5599 26.8576 44.6028ZM23.7762 37.2681C16.0231 37.417 16.9493 41.2556 17.127 41.8193C17.3173 42.777 18.0509 43.2562 18.7954 42.9845L20.2119 42.5413C20.975 42.2627 21.4592 41.2244 21.2926 40.2215L21.2611 40.0316C23.8365 39.3027 26.0579 39.4898 27.7908 39.9722L27.7772 40.0532C27.6113 41.0561 28.0948 42.0947 28.8584 42.3731L30.2748 42.9636C30.915 43.1972 31.5467 42.7472 31.8325 42.0286C31.8362 42.0317 31.8385 42.0338 31.8385 42.0338C31.8385 42.0338 31.8777 41.937 31.9172 41.7714C31.9204 41.7585 31.9228 41.7444 31.9262 41.7317C31.9328 41.7014 31.9394 41.67 31.946 41.6359C31.95 41.6166 31.9545 41.5983 31.9582 41.5788L31.9568 41.5776C32.1638 40.3556 31.9497 37.1121 23.7762 37.2681Z" fill="#2F343E"/>
</g>
<defs>
<clipPath id="clip0">
<rect width="15" height="15" fill="white" transform="translate(17 35)"/>
</clipPath>
</defs>
</svg>
