<svg width="56" height="43" viewBox="0 0 56 43" fill="none" xmlns="http://www.w3.org/2000/svg">
<path d="M51.2481 26.938L51.2507 26.9237L51.2515 26.9092C51.7614 18.241 44.125 9.66938 31.6087 6.1628L31.6088 6.16255L31.5977 6.15998C25.1634 4.66912 18.9653 4.70469 14.1207 6.17235C9.27635 7.63998 5.75022 10.5546 4.75775 14.8379C3.80811 18.933 5.22047 23.7605 8.61886 27.8889C12.0201 32.0207 17.4222 35.4699 24.498 36.8226C30.9378 38.3139 37.2237 38.0193 42.0997 36.2718C46.9746 34.5246 50.4771 31.3074 51.2481 26.938Z" fill="#E4E8E8" stroke="black" stroke-width="0.5"/>
<path d="M24.4399 36.0909L24.4304 36.0887L24.4208 36.0868C17.5056 34.7659 12.2603 31.4029 8.97525 27.4122C5.68291 23.4127 4.38213 18.8175 5.26571 15.0073L5.26573 15.0072C6.17678 11.0753 9.42536 8.31104 14.1155 6.89014C18.8026 5.47016 24.8589 5.42172 31.1947 6.88806C43.5228 10.3457 50.7431 18.6841 50.2818 26.8361C49.5637 30.8333 46.3378 33.8763 41.624 35.5657C36.9039 37.2574 30.7653 37.5565 24.4399 36.0909Z" fill="#E4E8E8" stroke="white"/>
<path d="M30.8 20.76C30.9867 20.76 31.1333 20.8133 31.24 20.92C31.3467 21.0133 31.4 21.1267 31.4 21.26C31.4 21.4067 31.3467 21.5333 31.24 21.64C31.1333 21.7333 30.9867 21.7733 30.8 21.76L28.22 21.68L29.58 23.88C29.6467 23.9733 29.68 24.0867 29.68 24.22C29.68 24.3533 29.6267 24.4733 29.52 24.58C29.4267 24.6733 29.32 24.72 29.2 24.72C28.9867 24.72 28.82 24.6067 28.7 24.38L27.5 22.1L26.26 24.4C26.14 24.6133 25.98 24.72 25.78 24.72C25.6467 24.72 25.5267 24.6733 25.42 24.58C25.3267 24.4867 25.28 24.3733 25.28 24.24C25.28 24.1333 25.32 24.02 25.4 23.9L26.78 21.68L24.18 21.76C23.9933 21.76 23.8467 21.7133 23.74 21.62C23.6333 21.5133 23.58 21.3933 23.58 21.26C23.58 21.1133 23.6333 20.9933 23.74 20.9C23.8467 20.7933 23.9933 20.7467 24.18 20.76L26.78 20.86L25.4 18.62C25.3333 18.5133 25.3 18.4 25.3 18.28C25.3 18.1467 25.3467 18.0333 25.44 17.94C25.5333 17.8467 25.6467 17.8 25.78 17.8C25.9667 17.8 26.1267 17.9133 26.26 18.14L27.5 20.42L28.7 18.14C28.82 17.9133 28.9867 17.8 29.2 17.8C29.32 17.8 29.4267 17.8467 29.52 17.94C29.6267 18.0333 29.68 18.1533 29.68 18.3C29.68 18.42 29.6467 18.5333 29.58 18.64L28.22 20.86L30.8 20.76Z" fill="#2F343E"/>
</svg>
