<svg width="20" height="20" viewBox="0 0 20 20" fill="none" xmlns="http://www.w3.org/2000/svg">
<g clip-path="url(#clip0)">
<path d="M9.99923 9.78131C12.2229 9.78131 14.0257 7.59171 14.0257 4.89069C14.0257 2.1896 13.4338 0 9.99923 0C6.56466 0 5.97266 2.1896 5.97266 4.89069C5.97266 7.59171 7.77546 9.78131 9.99923 9.78131Z" fill="white"/>
<path d="M17.6016 17.3782C17.6037 17.3331 17.6023 17.0653 17.6016 17.3782V17.3782Z" fill="white"/>
<path d="M17.5961 17.051C17.5215 12.3457 16.907 11.0049 12.2045 10.1562C12.2045 10.1562 11.5426 10.9997 9.99973 10.9997C8.45687 10.9997 7.79482 10.1562 7.79482 10.1562C3.14367 10.9957 2.49179 12.3165 2.40607 16.8981C2.39905 17.2722 2.39579 17.2919 2.39453 17.2485C2.39482 17.3298 2.39516 17.4803 2.39516 17.7428C2.39516 17.7428 3.5147 19.9997 9.99973 19.9997C16.4846 19.9997 17.6043 17.7428 17.6043 17.7428C17.6043 17.5742 17.6044 17.4569 17.6046 17.3771C17.6033 17.404 17.6008 17.3519 17.5961 17.051Z" fill="white"/>
</g>
<defs>
<clipPath id="clip0">
<rect width="20" height="20" fill="white"/>
</clipPath>
</defs>
</svg>
