<svg width="10" height="10" viewBox="0 0 10 10" fill="none" xmlns="http://www.w3.org/2000/svg">
<g clip-path="url(#clip0)">
<path d="M2.08596 6.25H0.419277C0.304277 6.25 0.210938 6.34334 0.210938 6.45834V9.79168C0.210938 9.90668 0.304277 10 0.419277 10H2.08594C2.20094 10 2.29428 9.90668 2.29428 9.79168V6.45834C2.29428 6.34334 2.20096 6.25 2.08596 6.25Z" fill="white"/>
<path d="M4.58203 4.16699H2.91537C2.80037 4.16699 2.70703 4.26033 2.70703 4.37533V9.79199C2.70703 9.90699 2.80037 10.0003 2.91537 10.0003H4.58203C4.69703 10.0003 4.79037 9.90699 4.79037 9.79199V4.37533C4.79035 4.26033 4.69703 4.16699 4.58203 4.16699Z" fill="white"/>
<path d="M7.08203 2.08301H5.41537C5.30037 2.08301 5.20703 2.17635 5.20703 2.29135V9.79135C5.20703 9.90635 5.30037 9.99969 5.41537 9.99969H7.08203C7.19703 9.99969 7.29037 9.90635 7.29037 9.79135V2.29135C7.29035 2.17633 7.19703 2.08301 7.08203 2.08301Z" fill="white"/>
<path d="M9.58203 0H7.91537C7.80037 0 7.70703 0.0933398 7.70703 0.20834V9.79168C7.70703 9.90668 7.80037 10 7.91537 10H9.58203C9.69703 10 9.79037 9.90668 9.79037 9.79168V0.20834C9.79035 0.0933398 9.69703 0 9.58203 0Z" fill="white"/>
</g>
<defs>
<clipPath id="clip0">
<rect width="10" height="10" fill="white"/>
</clipPath>
</defs>
</svg>
