<svg width="10" height="10" viewBox="0 0 10 10" fill="none" xmlns="http://www.w3.org/2000/svg">
<path d="M9.12068 1.19141H0.878496C0.743203 1.19141 0.616543 1.22467 0.501953 1.27949L4.98006 5.7576L5.98375 4.79301C5.98375 4.79301 5.98383 4.79291 5.98385 4.79287C5.98387 4.79283 5.98394 4.79279 5.98394 4.79279L9.49736 1.27957C9.38275 1.22471 9.25602 1.19141 9.12068 1.19141Z" fill="white"/>
<path d="M9.91178 1.69336L6.60547 4.99949L9.91166 8.30568C9.96648 8.19109 9.99975 8.06443 9.99975 7.92914V2.06977C9.99975 1.93455 9.96656 1.80791 9.91178 1.69336Z" fill="white"/>
<path d="M0.0880859 1.69336C0.0332617 1.80795 0 1.93461 0 2.0699V7.92928C0 8.06449 0.0332227 8.19117 0.0880078 8.30572L3.39432 4.99959L0.0880859 1.69336Z" fill="white"/>
<path d="M6.18922 5.4141L5.18539 6.37881C5.12816 6.43604 5.0532 6.46465 4.97826 6.46465C4.90332 6.46465 4.82834 6.43604 4.77113 6.37881L3.80637 5.41406L0.5 8.72022C0.614609 8.77508 0.741348 8.80838 0.87668 8.80838H9.11887C9.25416 8.80838 9.38082 8.77512 9.49541 8.72029L6.18922 5.4141Z" fill="white"/>
</svg>
