<svg width="8" height="8" viewBox="0 0 8 8" fill="none" xmlns="http://www.w3.org/2000/svg">
<g clip-path="url(#clip0)">
<path d="M7.45452 3.27273H4.72725V0.545455C4.72725 0.244363 4.48289 0 4.1818 0H3.81818C3.51709 0 3.27273 0.244363 3.27273 0.545455V3.27273H0.545455C0.244363 3.27273 0 3.51709 0 3.81818V4.1818C0 4.48289 0.244363 4.72725 0.545455 4.72725H3.27273V7.45452C3.27273 7.75562 3.51709 7.99998 3.81818 7.99998H4.1818C4.48289 7.99998 4.72725 7.75562 4.72725 7.45452V4.72725H7.45452C7.75562 4.72725 7.99998 4.48289 7.99998 4.1818V3.81818C7.99998 3.51709 7.75562 3.27273 7.45452 3.27273Z" fill="white"/>
</g>
<defs>
<clipPath id="clip0">
<rect width="8" height="8" fill="white"/>
</clipPath>
</defs>
</svg>
