<svg width="30" height="30" viewBox="0 0 30 30" fill="none" xmlns="http://www.w3.org/2000/svg">
<path d="M26.2383 3.75H23.4258V0.9375C23.4258 0.42 23.0058 0 22.4883 0H5.61328C4.06266 0 2.80078 1.26187 2.80078 2.8125V26.25C2.80078 28.3181 4.48266 30 6.55078 30H26.2383C26.7558 30 27.1758 29.58 27.1758 29.0625V4.6875C27.1758 4.17 26.7558 3.75 26.2383 3.75ZM21.5508 23.4375C21.5508 23.955 21.1308 24.375 20.6133 24.375H9.36328C8.84578 24.375 8.42578 23.955 8.42578 23.4375V21.5625C8.42578 18.9769 10.5295 16.875 13.1133 16.875H16.8633C19.4489 16.875 21.5508 18.9769 21.5508 21.5625V23.4375ZM11.2383 11.25C11.2383 9.18188 12.9202 7.5 14.9883 7.5C17.0564 7.5 18.7383 9.18188 18.7383 11.25C18.7383 13.3181 17.0564 15 14.9883 15C12.9202 15 11.2383 13.3181 11.2383 11.25ZM21.5508 3.75H5.61328C5.09578 3.75 4.67578 3.33 4.67578 2.8125C4.67578 2.295 5.09578 1.875 5.61328 1.875H21.5508V3.75Z" fill="white"/>
</svg>
