<svg width="30" height="30" viewBox="0 0 30 30" fill="none" xmlns="http://www.w3.org/2000/svg">
<path d="M27.3621 3.57422H2.63549C2.22961 3.57422 1.84963 3.674 1.50586 3.83848L14.9402 17.2728L17.9513 14.379C17.9513 14.379 17.9515 14.3787 17.9515 14.3786C17.9516 14.3785 17.9518 14.3784 17.9518 14.3784L28.4921 3.83871C28.1483 3.67412 27.768 3.57422 27.3621 3.57422Z" fill="white"/>
<path d="M29.7353 5.08203L19.8164 15.0004L29.735 24.919C29.8995 24.5752 29.9992 24.1953 29.9992 23.7894V6.21125C29.9992 5.80561 29.8997 5.42568 29.7353 5.08203Z" fill="white"/>
<path d="M0.264258 5.08105C0.0997852 5.42482 0 5.8048 0 6.21068V23.7888C0 24.1945 0.099668 24.5745 0.264023 24.9181L10.1829 14.9997L0.264258 5.08105Z" fill="white"/>
<path d="M18.5735 16.2433L15.562 19.1374C15.3904 19.3091 15.1655 19.3949 14.9406 19.3949C14.7158 19.3949 14.4909 19.3091 14.3193 19.1374L11.425 16.2432L1.50586 26.1616C1.84969 26.3262 2.2299 26.4261 2.6359 26.4261H27.3625C27.7683 26.4261 28.1483 26.3263 28.4921 26.1619L18.5735 16.2433Z" fill="white"/>
</svg>
