<svg width="30" height="30" viewBox="0 0 30 30" fill="none" xmlns="http://www.w3.org/2000/svg">
<path d="M22.0312 11.6982V17.3443H22.9566C22.913 15.3104 22.5895 13.36 22.0312 11.6982Z" fill="white"/>
<path d="M12.7891 20.1562C12.8973 21.1537 13.0717 22.0978 13.3037 22.9688H22.3187C22.697 21.5573 22.9276 19.9622 22.9642 18.2812H22.0323V18.75C22.0323 19.5253 21.4014 20.1562 20.6261 20.1562H12.7891ZM15.0011 22.0312H14.0636V21.0938H15.0011V22.0312ZM16.8761 22.0312H15.9386V21.0938H16.8761V22.0312ZM18.7511 22.0312H17.8136V21.0938H18.7511V22.0312Z" fill="white"/>
<path d="M26.6962 11.7191C25.5553 10.056 23.9522 8.71398 22.0312 7.89648V9.32008C22.4184 10.0335 22.7489 10.8435 23.0222 11.7191H26.6962Z" fill="white"/>
<path d="M23.8941 17.3438H28.5755C28.5023 15.6703 28.043 14.0742 27.2686 12.6562H23.2852C23.6498 14.108 23.8603 15.7017 23.8941 17.3438Z" fill="white"/>
<path d="M21.0938 1.875C21.0938 1.61625 20.8838 1.40625 20.625 1.40625H1.875C1.61625 1.40625 1.40625 1.61625 1.40625 1.875V4.21875H21.0938V1.875ZM3.28125 3.28125H2.34375V2.34375H3.28125V3.28125ZM5.15625 3.28125H4.21875V2.34375H5.15625V3.28125ZM7.03125 3.28125H6.09375V2.34375H7.03125V3.28125Z" fill="white"/>
<path d="M11.8448 20.1562H7.29883C7.52008 21.158 7.87352 22.1011 8.3432 22.9688H12.3327C12.112 22.0917 11.9479 21.1495 11.8448 20.1562Z" fill="white"/>
<path d="M13.5801 23.9062C14.5274 26.7417 16.1005 28.5938 17.812 28.5938C19.5355 28.5938 21.0927 26.7155 22.0345 23.9062H13.5801Z" fill="white"/>
<path d="M8.91016 23.9062C10.3478 26.0123 12.5022 27.5573 15.0063 28.2253C14.0125 27.2433 13.1781 25.7527 12.5983 23.9062H8.91016Z" fill="white"/>
<path d="M23.9015 18.2812C23.8687 19.9669 23.6596 21.5512 23.3066 22.9688H27.2793C28.0471 21.5653 28.5102 19.973 28.5829 18.2812H23.9015Z" fill="white"/>
<path d="M20.6699 28.207C23.1524 27.5245 25.2787 25.9758 26.7023 23.9062H23.046C22.4784 25.7339 21.6571 27.2212 20.6699 28.207Z" fill="white"/>
<path d="M21.0938 18.75V5.15625H1.40625V18.75C1.40625 19.0087 1.61625 19.2188 1.875 19.2188H20.625C20.8838 19.2188 21.0938 19.0087 21.0938 18.75ZM12.6562 6.09375H13.5938V7.03125H12.6562V6.09375ZM2.8125 6.5625H11.25V11.25H2.8125V6.5625ZM7.96875 16.3673C7.96875 16.9055 7.53047 17.3438 6.99234 17.3438C6.51328 17.3438 6.10828 17.0011 6.02953 16.5281L5.70797 14.6025C5.69438 14.52 5.55516 14.5205 5.54156 14.602L5.22 16.5281C5.14172 17.0011 4.73672 17.3438 4.25766 17.3438C3.71953 17.3438 3.28125 16.9055 3.28125 16.3673V12.6562H4.21875V16.3673C4.21828 16.4081 4.28859 16.4142 4.29562 16.3744L4.61719 14.4483C4.69922 13.9533 5.12344 13.5938 5.625 13.5938C6.12656 13.5938 6.55078 13.9533 6.63281 14.4478L6.95438 16.3734C6.96141 16.4147 7.03125 16.4081 7.03125 16.3673V12.6562H7.96875V16.3673ZM13.5938 16.3673C13.5938 16.9055 13.1555 17.3438 12.6173 17.3438C12.1383 17.3438 11.7333 17.0011 11.6545 16.5281L11.333 14.6025C11.3194 14.52 11.1802 14.5205 11.1666 14.602L10.845 16.5281C10.7667 17.0011 10.3617 17.3438 9.88266 17.3438C9.34453 17.3438 8.90625 16.9055 8.90625 16.3673V12.6562H9.84375V16.3673C9.84375 16.4081 9.91359 16.4142 9.92062 16.3744L10.2422 14.4483C10.3242 13.9533 10.7484 13.5938 11.25 13.5938C11.7516 13.5938 12.1758 13.9533 12.2578 14.4478L12.5794 16.3734C12.5864 16.4147 12.6562 16.4081 12.6562 16.3673V12.6562H13.5938V16.3673ZM19.2188 16.3673C19.2188 16.9055 18.7805 17.3438 18.2423 17.3438C17.7633 17.3438 17.3583 17.0011 17.2795 16.5281L16.958 14.6025C16.9444 14.52 16.8052 14.5205 16.7916 14.602L16.47 16.5281C16.3917 17.0011 15.9867 17.3438 15.5077 17.3438C14.9695 17.3438 14.5312 16.9055 14.5312 16.3673V12.6562H15.4688V16.3673C15.4688 16.4081 15.5386 16.4142 15.5456 16.3744L15.8672 14.4483C15.9492 13.9533 16.3734 13.5938 16.875 13.5938C17.3766 13.5938 17.8008 13.9533 17.8828 14.4478L18.2044 16.3734C18.2114 16.4147 18.2812 16.4081 18.2812 16.3673V12.6562H19.2188V16.3673ZM20.1562 10.7812H12.6562V9.84375H20.1562V10.7812ZM20.1562 8.90625H12.6562V7.96875H20.1562V8.90625ZM20.1562 7.03125H14.5312V6.09375H20.1562V7.03125Z" fill="white"/>
</svg>
