<svg width="24" height="24" viewBox="0 0 24 24" fill="none" xmlns="http://www.w3.org/2000/svg">
<path fill-rule="evenodd" clip-rule="evenodd" d="M16.455 7.45493C16.6649 7.24684 16.9483 7.12973 17.2439 7.12891C17.5395 7.1281 17.8235 7.24364 18.0346 7.45057C18.2457 7.6575 18.3668 7.93919 18.3718 8.23473C18.3769 8.53028 18.2654 8.81593 18.0615 9.02993L12.0735 16.5149C11.9706 16.6258 11.8464 16.7147 11.7083 16.7765C11.5702 16.8382 11.4211 16.8715 11.2699 16.8743C11.1187 16.8771 10.9684 16.8494 10.8281 16.7928C10.6879 16.7362 10.5605 16.6519 10.4535 16.5449L6.48601 12.5759C6.37548 12.4729 6.28682 12.3487 6.22534 12.2107C6.16385 12.0727 6.13079 11.9238 6.12812 11.7727C6.12545 11.6217 6.15324 11.4716 6.20982 11.3315C6.26641 11.1915 6.35062 11.0642 6.45745 10.9574C6.56428 10.8505 6.69153 10.7663 6.83161 10.7097C6.97169 10.6532 7.12174 10.6254 7.27279 10.628C7.42385 10.6307 7.57282 10.6638 7.71081 10.7253C7.84881 10.7867 7.97301 10.8754 8.07601 10.9859L11.217 14.1254L16.4265 7.48793C16.4358 7.47631 16.4458 7.46529 16.4565 7.45493H16.455Z" fill="white"/>
</svg>
