<svg width="24" height="24" viewBox="0 0 24 24" fill="none" xmlns="http://www.w3.org/2000/svg">
<path d="M12 20C12.5523 20 13 19.5523 13 19C13 18.4477 12.5523 18 12 18C11.4477 18 11 18.4477 11 19C11 19.5523 11.4477 20 12 20Z" fill="white"/>
<path d="M11.9957 14.4575C11.8862 14.4575 11.7779 14.436 11.6768 14.3941C11.5757 14.3522 11.4838 14.2908 11.4064 14.2135C11.329 14.1361 11.2677 14.0442 11.2258 13.9431C11.1839 13.842 11.1623 13.7336 11.1623 13.6242V1.88753C11.1623 1.66652 11.2501 1.45456 11.4064 1.29828C11.5627 1.142 11.7747 1.0542 11.9957 1.0542C12.2167 1.0542 12.4286 1.142 12.5849 1.29828C12.7412 1.45456 12.829 1.66652 12.829 1.88753V13.6242C12.829 13.7336 12.8075 13.842 12.7656 13.9431C12.7237 14.0442 12.6623 14.1361 12.5849 14.2135C12.5075 14.2908 12.4157 14.3522 12.3146 14.3941C12.2135 14.436 12.1051 14.4575 11.9957 14.4575Z" fill="white"/>
<path d="M12 20C12.5523 20 13 19.5523 13 19C13 18.4477 12.5523 18 12 18C11.4477 18 11 18.4477 11 19C11 19.5523 11.4477 20 12 20Z" stroke="white" stroke-miterlimit="10" stroke-linecap="round" stroke-linejoin="round"/>
<path d="M11.9957 14.4575C11.8862 14.4575 11.7779 14.436 11.6768 14.3941C11.5757 14.3522 11.4838 14.2908 11.4064 14.2135C11.329 14.1361 11.2677 14.0442 11.2258 13.9431C11.1839 13.842 11.1623 13.7336 11.1623 13.6242V1.88753C11.1623 1.66652 11.2501 1.45456 11.4064 1.29828C11.5627 1.142 11.7747 1.0542 11.9957 1.0542C12.2167 1.0542 12.4286 1.142 12.5849 1.29828C12.7412 1.45456 12.829 1.66652 12.829 1.88753V13.6242C12.829 13.7336 12.8075 13.842 12.7656 13.9431C12.7237 14.0442 12.6623 14.1361 12.5849 14.2135C12.5075 14.2908 12.4157 14.3522 12.3146 14.3941C12.2135 14.436 12.1051 14.4575 11.9957 14.4575V14.4575Z" stroke="white" stroke-miterlimit="10" stroke-linecap="round" stroke-linejoin="round"/>
</svg>
