<svg width="20" height="20" viewBox="0 0 20 20" fill="none" xmlns="http://www.w3.org/2000/svg">
<path d="M18.919 2.63503L12.966 18.715C12.59 19.731 11.507 20.253 10.548 19.88C10.3105 19.786 10.0951 19.6437 9.91525 19.4624C9.7354 19.281 9.59505 19.0643 9.50302 18.826L7.61602 14.056C7.2614 13.1404 6.55844 12.4025 5.66102 12.004L1.11902 10.023C0.174016 9.61003 -0.255984 8.46503 0.157016 7.46503C0.254703 7.22357 0.399305 7.00388 0.582454 6.81867C0.765603 6.63346 0.983663 6.48641 1.22402 6.38603L16.54 0.136029C17.507 -0.258971 18.58 0.237029 18.935 1.24503C19.092 1.69103 19.086 2.18503 18.92 2.63503H18.919Z" fill="white" fill-opacity="0.5"/>
</svg>
