<svg width="13" height="11" viewBox="0 0 13 11" fill="none" xmlns="http://www.w3.org/2000/svg">
<path d="M2.68622 10.9397L0.29364 10.9397L0.29364 0.986572L2.68622 0.986572L2.68622 10.9397ZM4.35419 10.9397L4.35419 0.986572L7.56024 0.986572C8.4398 0.986572 9.23049 1.18709 9.93231 1.58813C10.6341 1.98462 11.181 2.54744 11.5729 3.27661C11.9694 4.00122 12.1699 4.8147 12.1745 5.71704L12.1745 6.17505C12.1745 7.08651 11.9808 7.90454 11.5934 8.62915C11.2106 9.3492 10.6683 9.91431 9.96649 10.3245C9.26923 10.7301 8.48993 10.9351 7.6286 10.9397L4.35419 10.9397ZM6.7536 2.83911L6.7536 9.09399L7.58759 9.09399C8.27574 9.09399 8.80438 8.85018 9.17352 8.36255C9.54266 7.87036 9.72723 7.14119 9.72723 6.17505L9.72723 5.74438C9.72723 4.7828 9.54266 4.05819 9.17352 3.57056C8.80438 3.08293 8.26662 2.83911 7.56024 2.83911L6.7536 2.83911Z" fill="white" fill-opacity="0.5"/>
</svg>
