<svg width="17" height="13" viewBox="0 0 17 13" fill="none" xmlns="http://www.w3.org/2000/svg">
<path fill-rule="evenodd" clip-rule="evenodd" d="M7.01526 12.0378C7.01526 12.0378 6.01526 12.0378 6.01526 11.0378C6.01526 10.0378 7.01526 7.03784 11.0153 7.03784C15.0153 7.03784 16.0153 10.0378 16.0153 11.0378C16.0153 12.0378 15.0153 12.0378 15.0153 12.0378L7.01526 12.0378ZM11.0153 6.03784C11.8109 6.03784 12.574 5.72177 13.1366 5.15916C13.6992 4.59655 14.0153 3.83349 14.0153 3.03784C14.0153 2.24219 13.6992 1.47913 13.1366 0.916522C12.574 0.353912 11.8109 0.0378418 11.0153 0.0378418C10.2196 0.0378418 9.45655 0.353912 8.89394 0.916522C8.33133 1.47913 8.01526 2.24219 8.01526 3.03784C8.01526 3.83349 8.33133 4.59655 8.89394 5.15916C9.45655 5.72177 10.2196 6.03784 11.0153 6.03784ZM5.23126 12.0378C5.08301 11.7257 5.00908 11.3834 5.01526 11.0378C5.01526 9.68284 5.69526 8.28784 6.95126 7.31784C6.32435 7.12468 5.67121 7.03021 5.01526 7.03784C1.01526 7.03784 0.0152588 10.0378 0.0152588 11.0378C0.0152588 12.0378 1.01526 12.0378 1.01526 12.0378L5.23126 12.0378ZM4.51526 6.03784C5.1783 6.03784 5.81418 5.77445 6.28303 5.30561C6.75187 4.83677 7.01526 4.20088 7.01526 3.53784C7.01526 2.8748 6.75187 2.23892 6.28303 1.77007C5.81418 1.30123 5.1783 1.03784 4.51526 1.03784C3.85222 1.03784 3.21633 1.30123 2.74749 1.77007C2.27865 2.23892 2.01526 2.8748 2.01526 3.53784C2.01526 4.20088 2.27865 4.83677 2.74749 5.30561C3.21633 5.77445 3.85222 6.03784 4.51526 6.03784Z" fill="white" fill-opacity="0.5"/>
</svg>
