<svg width="13" height="13" viewBox="0 0 13 13" fill="none" xmlns="http://www.w3.org/2000/svg">
<g clip-path="url(#clip0)">
<path d="M6.01915 0.86091C3.12226 0.858579 0.771497 3.20558 0.769178 6.10246C0.76686 8.99934 3.11387 11.3501 6.01075 11.3524C8.90763 11.3548 11.2584 9.00778 11.2607 6.1109C11.263 3.21402 8.91603 0.863241 6.01915 0.86091ZM8.08035 7.72071L7.7451 8.17711C7.73781 8.18705 7.72862 8.19544 7.71807 8.20182C7.70753 8.2082 7.69582 8.21243 7.68363 8.21427C7.67144 8.21611 7.65901 8.21552 7.64705 8.21254C7.63509 8.20956 7.62384 8.20425 7.61394 8.19691L5.67835 6.78321C5.66629 6.77453 5.65649 6.76309 5.64978 6.74984C5.64306 6.73659 5.63963 6.72192 5.63977 6.70707L5.64235 3.48349C5.64239 3.43197 5.68458 3.38985 5.7361 3.38989L6.29931 3.39035C6.35084 3.39039 6.39296 3.43258 6.39291 3.4841L6.3906 6.38215L8.05938 7.59072C8.10151 7.62003 8.11083 7.67858 8.08035 7.72071Z" fill="white" fill-opacity="0.5"/>
</g>
<defs>
<clipPath id="clip0">
<rect width="11.9903" height="11.9903" fill="white" transform="matrix(1 0.00080463 -0.000800322 1 0.0248413 0.106689)"/>
</clipPath>
</defs>
</svg>
