<svg width="482" height="234" viewBox="0 0 482 234" fill="none" xmlns="http://www.w3.org/2000/svg">
<path d="M152.343 39.6305L161.064 5.16871C161.94 1.70448 158.318 -1.17016 155.153 0.47728L7.13134 77.5089C0.336814 81.0447 -2.0498 89.6041 1.93161 96.1558L80.7797 225.911C87.7829 237.436 105.16 234.919 108.619 221.88L123.651 165.208C124.612 161.584 120.655 158.649 117.477 160.627L93.9976 175.233C92.0416 176.45 89.4703 175.831 88.28 173.856L84.7855 168.06C83.6064 166.105 84.2309 163.562 86.1811 162.379L120.693 141.426C126.486 137.91 130.59 132.171 132.053 125.545L142.163 79.7484C142.952 76.1769 139.068 73.4103 135.96 75.3294L66.5546 118.18C64.6015 119.385 62.0426 118.767 60.8528 116.802L57.2177 110.797C56.0353 108.844 56.6548 106.301 58.6021 105.113L141.199 54.7457C146.746 51.3634 150.747 45.9367 152.343 39.6305Z" fill="#F2C94C"/>
<path d="M152.343 39.6305L161.064 5.16871C161.94 1.70448 158.318 -1.17016 155.153 0.47728L7.13134 77.5089C0.336814 81.0447 -2.0498 89.6041 1.93161 96.1558L80.7797 225.911C87.7829 237.436 105.16 234.919 108.619 221.88L123.651 165.208C124.612 161.584 120.655 158.649 117.477 160.627L93.9976 175.233C92.0416 176.45 89.4703 175.831 88.28 173.856L84.7855 168.06C83.6064 166.105 84.2309 163.562 86.1811 162.379L120.693 141.426C126.486 137.91 130.59 132.171 132.053 125.545L142.163 79.7484C142.952 76.1769 139.068 73.4103 135.96 75.3294L66.5546 118.18C64.6015 119.385 62.0426 118.767 60.8528 116.802L57.2177 110.797C56.0353 108.844 56.6548 106.301 58.6021 105.113L141.199 54.7457C146.746 51.3634 150.747 45.9367 152.343 39.6305Z" fill="url(#paint0_linear)" fill-opacity="0.5"/>
<path d="M152.343 39.6305L161.064 5.16871C161.94 1.70448 158.318 -1.17016 155.153 0.47728L7.13134 77.5089C0.336814 81.0447 -2.0498 89.6041 1.93161 96.1558L80.7797 225.911C87.7829 237.436 105.16 234.919 108.619 221.88L123.651 165.208C124.612 161.584 120.655 158.649 117.477 160.627L93.9976 175.233C92.0416 176.45 89.4703 175.831 88.28 173.856L84.7855 168.06C83.6064 166.105 84.2309 163.562 86.1811 162.379L120.693 141.426C126.486 137.91 130.59 132.171 132.053 125.545L142.163 79.7484C142.952 76.1769 139.068 73.4103 135.96 75.3294L66.5546 118.18C64.6015 119.385 62.0426 118.767 60.8528 116.802L57.2177 110.797C56.0353 108.844 56.6548 106.301 58.6021 105.113L141.199 54.7457C146.746 51.3634 150.747 45.9367 152.343 39.6305Z" fill="url(#paint1_linear)"/>
<path d="M201.893 118.307H246.569L242.332 138.2H174.167L192.51 51.2288H259.464L255.226 71.1219H211.821L208.976 84.768H242.453L238.518 103.448H205.041L201.893 118.307ZM275.567 51.2288H312.858C320.97 51.2288 327.709 53.8165 333.077 58.9919C338.445 64.1673 341.128 70.2727 341.128 77.308C341.128 87.4974 337.577 95.8468 330.474 102.357C323.371 108.866 314.452 112.121 303.717 112.121H286.221L280.773 138.2H257.224L275.567 51.2288ZM308.801 72.3955H294.636L290.701 91.015H305.775C308.923 91.015 311.587 89.9435 313.766 87.8004C315.985 85.6172 317.095 83.09 317.095 80.2195C317.095 78.1572 316.308 76.3379 314.734 74.7608C313.16 73.1842 311.183 72.3955 308.801 72.3955ZM343.429 138.2L361.772 51.2288H385.321L366.978 138.2H343.429ZM443.798 69.9088C435.686 69.9088 428.664 72.8 422.734 78.582C416.841 84.3639 413.894 91.3992 413.894 99.6878C413.894 105.389 415.791 110.14 419.585 113.94C423.42 117.701 428.342 119.581 434.355 119.581C437.182 119.581 439.946 119.177 442.649 118.368C445.393 117.519 447.732 116.508 449.671 115.335C451.609 114.163 453.344 112.99 454.878 111.818C456.411 110.605 457.543 109.594 458.267 108.785L459.539 107.512L470.437 123.281C470.032 123.766 469.466 124.413 468.739 125.221C468.053 125.99 466.441 127.385 463.899 129.406C461.395 131.387 458.733 133.146 455.907 134.683C453.121 136.219 449.468 137.594 444.951 138.807C440.471 140.06 435.867 140.687 431.148 140.687C419.403 140.687 409.596 136.724 401.727 128.8C393.896 120.834 389.982 111.555 389.982 100.961C389.982 86.7289 395.45 74.478 406.389 64.2079C417.365 53.8976 430.503 48.7421 445.798 48.7421C450.439 48.7421 454.836 49.3487 458.994 50.5618C463.151 51.7749 466.561 53.2302 469.226 54.9286C471.929 56.6265 474.289 58.3249 476.31 60.0229C478.368 61.7212 479.798 63.177 480.608 64.3897L482 66.1485L465.23 80.3408C465.069 80.0982 464.804 79.7342 464.441 79.249C464.081 78.7231 463.251 77.8744 461.961 76.7018C460.668 75.4887 459.258 74.4172 457.721 73.4873C456.188 72.5573 454.171 71.7284 451.671 71.0006C449.166 70.2727 446.542 69.9088 443.798 69.9088Z" fill="white"/>
<path d="M170.611 152.701H186.68C189.858 152.701 192.492 153.749 194.584 155.844C196.696 157.921 197.751 160.415 197.751 163.326C197.751 169.052 195.156 173.205 189.964 175.786C189.17 176.174 187.94 176.631 186.274 177.154L192.463 194.447H187.697L181.799 177.766H169.769L166.253 194.447H161.807L170.611 152.701ZM186.157 156.893H174.186L170.67 173.574H182.467C185.412 173.574 187.94 172.671 190.051 170.866C192.163 169.061 193.218 166.645 193.218 163.617C193.218 161.676 192.569 160.075 191.271 158.814C189.974 157.533 188.269 156.893 186.157 156.893ZM226.897 156.223C221.86 156.223 217.394 158.203 213.501 162.162C209.607 166.121 207.66 170.701 207.66 175.903C207.66 180.192 209.123 183.773 212.048 186.645C214.973 189.498 218.712 190.924 223.264 190.924C228.262 190.924 232.718 188.993 236.631 185.131C240.544 181.25 242.5 176.601 242.5 171.186C242.5 166.936 241.038 163.384 238.113 160.532C235.207 157.659 231.468 156.223 226.897 156.223ZM247.005 171.128C247.005 175.107 245.9 178.95 243.692 182.656C241.503 186.344 238.529 189.333 234.771 191.623C231.032 193.894 227.042 195.029 222.8 195.029C217.123 195.029 212.426 193.195 208.706 189.527C205.006 185.859 203.156 181.356 203.156 176.019C203.156 171.807 204.309 167.848 206.614 164.141C208.939 160.415 211.961 157.484 215.68 155.35C219.419 153.195 223.313 152.118 227.362 152.118C233.037 152.118 237.726 153.962 241.425 157.65C245.145 161.317 247.005 165.811 247.005 171.128ZM277.835 194.447H251.944L260.749 152.701H265.224L257.233 190.284H278.648L277.835 194.447ZM290.533 190.284H315.232L314.39 194.447H285.245L294.049 152.701H322.613L321.712 156.893H297.623L294.776 170.604H314.099L313.198 174.767H293.875L290.533 190.284ZM332.115 152.701H347.341C350.635 152.701 353.375 153.826 355.564 156.077C357.754 158.329 358.848 160.987 358.848 164.054C358.848 168.382 357.289 171.953 354.17 174.767C351.051 177.562 347.312 178.959 342.954 178.959H331.04L327.756 194.447H323.31L332.115 152.701ZM346.702 156.893H335.689L331.94 174.767H343.476C346.499 174.767 349.056 173.806 351.148 171.885C353.259 169.964 354.315 167.412 354.315 164.229C354.315 162.113 353.608 160.366 352.194 158.989C350.799 157.591 348.968 156.893 346.702 156.893ZM387.908 194.447H362.016L370.82 152.701H375.295L367.304 190.284H388.718L387.908 194.447ZM421.383 178.639L417.514 158.96L405.311 178.639H421.383ZM422.279 182.831H402.637L395.434 194.447H390.549L416.613 152.701H420.771L429.226 194.447H424.577L422.279 182.831ZM448.286 175.058H448.58L465.78 152.701H471.07L449.886 179.833L446.807 194.447H442.331L445.439 179.833L435.678 152.701H440.442L448.286 175.058Z" fill="white"/>
<defs>
<linearGradient id="paint0_linear" x1="85.357" y1="-13.1821" x2="53.486" y2="251.038" gradientUnits="userSpaceOnUse">
<stop stop-color="#E6961E"/>
<stop offset="1" stop-color="#F2C94C" stop-opacity="0"/>
</linearGradient>
<linearGradient id="paint1_linear" x1="64.4626" y1="233.269" x2="64.4626" y2="4.05128e-07" gradientUnits="userSpaceOnUse">
<stop stop-color="#E6961E"/>
<stop offset="1" stop-color="#F2C94C"/>
</linearGradient>
</defs>
</svg>
