<svg width="15" height="32" viewBox="0 0 15 32" fill="none" xmlns="http://www.w3.org/2000/svg">
<path d="M13.7155 28.5467L13.2684 30.3744C11.927 30.9039 10.8556 31.3068 10.0577 31.5839C9.25897 31.8618 8.33089 32 7.27347 32C5.64962 32 4.38657 31.6022 3.48574 30.8121C2.5849 30.0188 2.13435 29.0136 2.13435 27.7941C2.13435 27.322 2.16704 26.8365 2.23501 26.3418C2.30356 25.8465 2.41254 25.2887 2.56167 24.6652L4.23801 18.7319C4.38714 18.1637 4.5139 17.6254 4.61543 17.1164C4.71839 16.6104 4.76801 16.145 4.76801 15.726C4.76801 14.9682 4.61113 14.4382 4.29881 14.1403C3.98648 13.8431 3.39052 13.6923 2.50575 13.6923C2.0724 13.6923 1.627 13.7617 1.173 13.8959C0.716993 14.0307 0.327236 14.1609 0 14.2819L0.448264 12.4527C1.54641 12.0056 2.59609 11.6228 3.60017 11.305C4.60425 10.9864 5.55297 10.8269 6.45036 10.8269C8.06302 10.8269 9.30744 11.2166 10.1813 11.9962C11.0552 12.7763 11.492 13.7875 11.492 15.0336C11.492 15.2915 11.4633 15.7458 11.4016 16.3951C11.3414 17.0458 11.2293 17.6421 11.0658 18.1844L9.39663 24.0939C9.25983 24.5685 9.13679 25.1111 9.02982 25.7217C8.9194 26.3283 8.86663 26.7918 8.86663 27.1026C8.86663 27.8873 9.04157 28.4231 9.39233 28.7079C9.74566 28.9926 10.3542 29.1343 11.2187 29.1343C11.6245 29.1343 12.0862 29.0623 12.5993 28.9209C13.1109 28.7796 13.4841 28.6554 13.7155 28.5467ZM14.1388 3.73697C14.1388 4.76657 13.7508 5.6459 12.971 6.36891C12.1932 7.09451 11.2559 7.45759 10.1595 7.45759C9.05964 7.45759 8.12009 7.09451 7.33341 6.36891C6.54816 5.64561 6.15467 4.76657 6.15467 3.73697C6.15467 2.70938 6.54816 1.82862 7.33341 1.09643C8.11866 0.36538 9.05993 0 10.1595 0C11.2557 0 12.1932 0.36624 12.971 1.09643C13.7514 1.82862 14.1388 2.70966 14.1388 3.73697Z" fill="#F2C94C"/>
</svg>
