<svg width="15" height="15" viewBox="0 0 15 15" fill="none" xmlns="http://www.w3.org/2000/svg">
<g clip-path="url(#clip0)">
<path d="M13.0139 5.6962L12.9426 5.67077L12.6639 5.00557L12.6941 4.93722C13.5383 3.0226 13.4801 2.96549 13.3401 2.82668L12.214 1.72814C12.168 1.68247 12.0871 1.65034 12.0174 1.65034C11.9541 1.65034 11.7622 1.65034 10.099 2.4036L10.0323 2.43354L9.34617 2.15722L9.31863 2.08891C8.53653 0.152344 8.45642 0.152344 8.2618 0.152344H6.67152C6.47762 0.152344 6.38932 0.152344 5.66409 2.09228L5.63679 2.1629L4.95419 2.44116L4.88892 2.41403C3.76321 1.93944 3.10593 1.69878 2.93459 1.69878C2.86506 1.69878 2.78394 1.72997 2.73769 1.77552L1.61056 2.87722C1.46758 3.01826 1.40827 3.07732 2.29669 4.95199L2.32934 5.02151L2.05023 5.68598L1.98192 5.71239C0 6.4783 0 6.55298 0 6.75247V8.31083C0 8.51084 0 8.59392 1.98585 9.3056L2.05684 9.33067L2.336 9.99319L2.30602 10.0609C1.46182 11.9764 1.51536 12.0282 1.65908 12.1712L2.78345 13.2712C2.83058 13.3165 2.91216 13.3489 2.98172 13.3489C3.04468 13.3489 3.23613 13.3489 4.90036 12.596L4.96701 12.5648L5.65362 12.8425L5.68031 12.9112C6.4629 14.8471 6.5433 14.8471 6.73804 14.8471H8.32881C8.52854 14.8471 8.61137 14.8471 9.33717 12.9059L9.36423 12.8352L10.0479 12.5588L10.113 12.5853C11.2378 13.0613 11.8947 13.3014 12.065 13.3014C12.1339 13.3014 12.2157 13.2712 12.2628 13.2247L13.3917 12.1206C13.5337 11.9788 13.5929 11.9208 12.7029 10.0479L12.6698 9.97761L12.9484 9.31602L13.015 9.28994C15 8.52001 15 8.44497 15 8.24524V6.68781C15 6.48783 15 6.40525 13.0139 5.6962ZM7.49998 10.0271C6.07872 10.0271 4.92251 8.89299 4.92251 7.50001C4.92251 6.10699 6.07877 4.97438 7.49998 4.97438C8.92063 4.97438 10.0766 6.10723 10.0766 7.50001C10.0767 8.89275 8.92067 10.0271 7.49998 10.0271Z" fill="white"/>
</g>
<defs>
<clipPath id="clip0">
<rect width="15" height="15" fill="white"/>
</clipPath>
</defs>
</svg>
