<svg width="219" height="204" viewBox="0 0 219 204" fill="none" xmlns="http://www.w3.org/2000/svg">
<path d="M38.0288 171.023C38.0926 170.726 38.2351 170.519 38.4564 170.403C38.6655 170.268 38.9186 170.232 39.2158 170.296L54.0224 173.475C54.3196 173.539 54.5436 173.677 54.6944 173.89C54.8329 174.083 54.8702 174.328 54.8064 174.625C54.7426 174.923 54.6062 175.139 54.3971 175.274C54.1725 175.406 53.9115 175.44 53.6143 175.376L46.9032 173.935L44.7772 183.837L51.4882 185.278C51.7855 185.342 52.0095 185.48 52.1602 185.693C52.2954 185.902 52.331 186.155 52.2672 186.452C52.2034 186.749 52.067 186.965 51.8579 187.1C51.6366 187.217 51.3774 187.243 51.0801 187.179L36.2736 184C35.9763 183.936 35.7585 183.807 35.62 183.614C35.4692 183.402 35.4257 183.147 35.4896 182.85C35.5534 182.552 35.6976 182.338 35.9223 182.206C36.1313 182.071 36.3844 182.035 36.6817 182.099L43.1346 183.485L45.2607 173.582L38.8077 172.197C38.5105 172.133 38.2943 171.997 38.1592 171.788C38.0084 171.575 37.9649 171.32 38.0288 171.023Z" fill="white"/>
<path d="M47.4836 157.505C48.4443 154.739 50.3756 153.86 53.2775 154.868L59.4441 157.01C59.7162 157.104 59.9065 157.264 60.015 157.488C60.1288 157.696 60.1384 157.937 60.0439 158.209C59.9494 158.481 59.7901 158.671 59.5661 158.78C59.3421 158.888 59.0941 158.895 58.8221 158.801L57.7338 158.423C58.284 158.936 58.6381 159.55 58.7961 160.265C58.939 160.976 58.8765 161.716 58.6088 162.487C58.3621 163.197 57.9901 163.805 57.493 164.31C57.0011 164.799 56.4378 165.129 55.8032 165.298C55.1685 165.467 54.5414 165.444 53.9217 165.229C53.0904 164.94 52.5215 164.505 52.2151 163.925C51.8936 163.339 51.8025 162.528 51.942 161.493C52.0664 160.452 52.4278 159.07 53.0263 157.347L53.1996 156.848L52.4514 156.588C51.5445 156.273 50.8139 156.231 50.2595 156.462C49.7103 156.678 49.2913 157.201 49.0026 158.032C48.6456 159.06 48.563 160.2 48.7547 161.453C48.8699 161.95 48.8986 162.282 48.8409 162.448C48.7779 162.629 48.6574 162.757 48.4794 162.83C48.3013 162.904 48.1065 162.904 47.8949 162.831C47.6833 162.757 47.5229 162.634 47.4138 162.46C47.2948 162.267 47.202 161.997 47.1355 161.652C47.017 161.018 46.9901 160.34 47.0548 159.617C47.1097 158.874 47.2526 158.17 47.4836 157.505ZM57.2445 161.734C57.5594 160.827 57.5144 159.981 57.1093 159.197C56.6944 158.392 56.0032 157.822 55.0359 157.486L54.3785 157.257L54.2367 157.666C53.7747 158.996 53.4835 160.029 53.3629 160.767C53.2272 161.499 53.2429 162.063 53.41 162.46C53.5672 162.836 53.9027 163.114 54.4166 163.292C55.006 163.497 55.5707 163.456 56.1107 163.169C56.6408 162.862 57.0187 162.384 57.2445 161.734Z" fill="white"/>
<path d="M63.6577 149.477C63.5308 149.753 63.3579 149.938 63.139 150.031C62.9056 150.117 62.658 150.1 62.3964 149.98L53.4336 145.861C53.1574 145.734 52.976 145.554 52.8896 145.32C52.7886 145.08 52.8016 144.822 52.9286 144.546L55.4441 139.072C55.5444 138.854 55.69 138.71 55.8809 138.639C56.0719 138.568 56.2692 138.58 56.4727 138.673C56.6762 138.767 56.8134 138.909 56.8841 139.1C56.9548 139.291 56.94 139.495 56.8398 139.714L54.7251 144.315L63.2082 148.213C63.4698 148.334 63.6439 148.511 63.7303 148.744C63.8022 148.971 63.778 149.215 63.6577 149.477Z" fill="white"/>
<path d="M61.8927 126.629C62.4105 125.746 63.0885 125.095 63.9267 124.678C64.7649 124.261 65.6935 124.1 66.7126 124.197C67.7178 124.285 68.745 124.637 69.794 125.252C70.8431 125.867 71.6518 126.591 72.2201 127.425C72.7746 128.251 73.0676 129.128 73.099 130.055C73.1385 130.968 72.8953 131.873 72.3693 132.771C71.9081 133.557 71.331 134.147 70.638 134.538C69.9531 134.915 69.2041 135.07 68.3912 135.001L73.2568 137.853C73.5053 137.999 73.654 138.188 73.7031 138.421C73.774 138.648 73.7326 138.893 73.5788 139.155C73.4251 139.417 73.2278 139.58 72.987 139.643C72.7461 139.705 72.5084 139.668 72.2737 139.53L59.7887 132.212C59.5402 132.066 59.3846 131.873 59.3218 131.632C59.2589 131.391 59.3044 131.14 59.4581 130.877C59.6119 130.615 59.8051 130.459 60.0379 130.41C60.2787 130.348 60.5233 130.389 60.7718 130.535L61.8899 131.19C61.4329 130.514 61.2018 129.785 61.1966 129.003C61.1994 128.207 61.4315 127.416 61.8927 126.629ZM70.7879 132.289C71.3624 131.309 71.4762 130.355 71.1292 129.429C70.7822 128.502 70.0013 127.683 68.7867 126.971C67.572 126.258 66.4687 125.973 65.4767 126.115C64.471 126.249 63.6809 126.806 63.1064 127.786C62.5319 128.766 62.4182 129.719 62.7652 130.646C63.1203 131.559 63.912 132.375 65.1405 133.096C66.369 133.816 67.4752 134.112 68.459 133.984C69.4371 133.834 70.2134 133.269 70.7879 132.289Z" fill="white"/>
<path d="M74.506 109.237C74.3025 108.867 74.3152 108.527 74.544 108.219C74.687 108.026 74.88 107.9 75.1229 107.842C75.3658 107.783 75.5836 107.825 75.7764 107.968C75.892 108.054 75.9757 108.156 76.0275 108.274L83.6883 122.356C83.782 122.526 83.8197 122.703 83.8015 122.889C83.7927 123.062 83.7407 123.212 83.6454 123.341C83.5024 123.533 83.3094 123.659 83.0665 123.718C82.846 123.774 82.6393 123.73 82.4466 123.587C82.3438 123.511 82.2601 123.409 82.1954 123.281L80.2863 119.772L69.2056 117.467C69.0775 117.452 68.9621 117.406 68.8593 117.33C68.6665 117.187 68.5615 116.979 68.5441 116.707C68.5362 116.423 68.6086 116.177 68.7611 115.972C68.8565 115.843 68.9856 115.75 69.1485 115.691C69.321 115.62 69.5017 115.605 69.6907 115.645L79.3066 117.79L74.506 109.237Z" fill="white"/>
<path d="M93.3776 104.895C93.1911 105.093 92.968 105.201 92.7083 105.22C92.4595 105.228 92.2302 105.133 92.0206 104.935L88.7706 101.875L88.1125 102.574C87.6409 103.075 87.3789 103.586 87.3267 104.109C87.2855 104.619 87.4052 105.216 87.6861 105.898L88.8769 108.799C89.0474 109.201 88.9956 109.548 88.7214 109.839C88.5459 110.026 88.3228 110.134 88.052 110.165C87.7923 110.184 87.5692 110.106 87.3828 109.931C87.3246 109.876 87.2475 109.759 87.1516 109.581L86.1427 107.082C85.8235 106.254 85.6441 105.557 85.6045 104.992C85.5649 104.428 85.7011 103.875 86.0131 103.333L80.9326 102.637C80.6934 102.588 80.5156 102.508 80.3991 102.398C80.2244 102.234 80.1391 102.033 80.1433 101.795C80.1468 101.534 80.2308 101.317 80.3953 101.142C80.6147 100.909 80.9009 100.827 81.2538 100.896L86.9685 101.793L87.7747 100.937L84.6646 98.0086C84.4549 97.8112 84.3463 97.5881 84.3388 97.3393C84.3307 97.0679 84.4198 96.8332 84.6063 96.6351C84.8037 96.4255 85.0269 96.3169 85.2756 96.3094C85.5244 96.3019 85.7595 96.4024 85.9808 96.6108L89.0909 99.5395L89.9136 98.6658L88.6587 93.0668C88.5683 92.696 88.6328 92.3941 88.8522 92.1611C89.0168 91.9864 89.2234 91.8953 89.4722 91.8878C89.7203 91.8577 89.9317 91.9249 90.1065 92.0895C90.2462 92.2211 90.3363 92.3938 90.3767 92.6077L91.3932 97.6196C91.9149 97.2757 92.4587 97.1066 93.0249 97.1122C93.5793 97.1069 94.2797 97.2499 95.1261 97.5414L97.698 98.3809C97.8351 98.4221 97.9561 98.492 98.0609 98.5908C98.2589 98.7772 98.3507 99.0065 98.3362 99.2786C98.3218 99.5507 98.2268 99.7799 98.0513 99.9663C97.9306 100.094 97.7805 100.184 97.6009 100.234C97.4207 100.263 97.2332 100.24 97.0386 100.167L94.0534 99.1357C93.3448 98.9079 92.7314 98.8358 92.2133 98.9193C91.7061 98.9911 91.2167 99.2775 90.745 99.7784L90.0869 100.477L93.3368 103.538C93.5465 103.735 93.6551 103.958 93.6625 104.207C93.67 104.456 93.575 104.685 93.3776 104.895Z" fill="white"/>
<path d="M108.473 87.148C108.608 87.0348 108.77 86.9922 108.961 87.0201C109.152 87.0481 109.319 87.1479 109.463 87.3194C109.72 87.6257 109.742 88.0876 109.53 88.705C109.304 89.3328 109.003 89.9198 108.627 90.4661C108.239 91.0002 107.813 91.4627 107.347 91.8537C105.963 93.0164 104.521 93.5267 103.023 93.3849C101.537 93.2327 100.188 92.4337 98.9734 90.9878C98.2018 90.0688 97.7004 89.1109 97.4692 88.1141C97.2278 87.1051 97.2611 86.137 97.569 85.2098C97.8891 84.2724 98.4597 83.459 99.2807 82.7697C100.445 81.7922 101.689 81.3953 103.013 81.5788C104.337 81.7623 105.544 82.5035 106.635 83.8023C106.841 84.0474 106.941 84.2662 106.935 84.4588C106.93 84.6514 106.817 84.8403 106.596 85.0255L100.678 89.995C102.558 92.0099 104.442 92.2252 106.329 90.6407C106.807 90.2394 107.166 89.8335 107.406 89.4228C107.636 89 107.854 88.5136 108.061 87.9638C108.225 87.5125 108.362 87.2406 108.473 87.148ZM100.271 83.9122C99.4872 84.5707 99.0619 85.3456 98.9956 86.237C98.9415 87.1181 99.2472 88.0419 99.9125 89.0084L105.114 84.6408C104.328 83.7546 103.52 83.2526 102.69 83.1349C101.849 83.0049 101.043 83.264 100.271 83.9122Z" fill="white"/>
<path d="M117.205 84.1813C116.953 84.3505 116.709 84.4177 116.474 84.3827C116.229 84.3344 116.027 84.1907 115.867 83.9514L110.216 75.5174C110.056 75.2781 110 75.0364 110.048 74.7922C110.096 74.548 110.247 74.3413 110.499 74.1721C110.739 74.0118 110.98 73.9558 111.224 74.0041C111.469 74.0523 111.671 74.1961 111.831 74.4353L114.156 77.9047L119.379 74.4047L117.055 70.9354C116.895 70.6961 116.839 70.4544 116.887 70.2102C116.949 69.9571 117.099 69.7505 117.338 69.5901C117.577 69.4298 117.819 69.3738 118.063 69.4221C118.308 69.4703 118.51 69.6141 118.67 69.8533L124.314 78.2341C124.483 78.4867 124.544 78.7351 124.495 78.9793C124.447 79.2234 124.297 79.4301 124.044 79.5993C123.805 79.7596 123.557 79.8201 123.299 79.7808C123.055 79.7325 122.848 79.5821 122.679 79.3296L120.248 75.7007L115.024 79.2007L117.482 82.8694C117.642 83.1086 117.698 83.3504 117.65 83.5945C117.593 83.8254 117.445 84.021 117.205 84.1813Z" fill="white"/>
<path d="M132.168 74.8204C131.898 74.9606 131.648 75.0002 131.418 74.9394C131.181 74.8644 130.996 74.6991 130.863 74.4435L126.182 65.4349C126.05 65.1793 126.021 64.9329 126.096 64.6956C126.171 64.4583 126.343 64.2695 126.613 64.1294C126.869 63.9966 127.115 63.9677 127.352 64.0427C127.59 64.1178 127.775 64.2831 127.907 64.5386L129.833 68.2443L135.413 65.3452L133.487 61.6395C133.354 61.3839 133.326 61.1375 133.401 60.9002C133.49 60.6555 133.662 60.4667 133.918 60.3339C134.173 60.2012 134.42 60.1723 134.657 60.2473C134.894 60.3223 135.08 60.4876 135.212 60.7432L139.892 69.6981C140.032 69.9679 140.065 70.2214 139.99 70.4588C139.915 70.6961 139.742 70.8848 139.473 71.025C139.217 71.1578 138.964 71.1903 138.712 71.1227C138.475 71.0476 138.286 70.8753 138.146 70.6055L136.132 66.7295L130.552 69.6286L132.588 73.5472C132.721 73.8028 132.75 74.0492 132.675 74.2865C132.592 74.5097 132.423 74.6876 132.168 74.8204Z" fill="white"/>
<path d="M151.744 65.8132C150.714 66.2104 149.714 66.3302 148.744 66.1726C147.789 66.0092 146.931 65.5855 146.17 64.9015C145.418 64.1969 144.824 63.2773 144.386 62.1427C143.949 61.0082 143.775 59.9348 143.865 58.9227C143.964 57.8899 144.312 56.9925 144.91 56.2303C145.523 55.4624 146.344 54.8798 147.374 54.4826C148.404 54.0853 149.404 53.9655 150.374 54.1232C151.343 54.2809 152.204 54.712 152.956 55.4166C153.717 56.1006 154.316 57.0099 154.754 58.1444C155.191 59.279 155.361 60.3627 155.262 61.3955C155.172 62.4076 154.821 63.2976 154.208 64.0655C153.595 64.8334 152.774 65.416 151.744 65.8132ZM151.165 64.3129C152.24 63.8984 152.926 63.2309 153.222 62.3105C153.528 61.3694 153.419 60.2197 152.895 58.8612C152.383 57.5326 151.697 56.6222 150.839 56.1302C149.975 55.6232 149.012 55.5741 147.953 55.9829C146.893 56.3916 146.213 57.074 145.913 58.03C145.607 58.9711 145.71 60.106 146.222 61.4346C146.74 62.7782 147.421 63.6988 148.265 64.1966C149.124 64.6887 150.09 64.7274 151.165 64.3129Z" fill="white"/>
<path d="M168.52 60.3945C167.469 60.6771 166.47 60.6891 165.522 60.4305C164.59 60.1677 163.781 59.6562 163.096 58.896C162.427 58.1317 161.936 57.1702 161.624 56.0114C161.313 54.8526 161.26 53.7649 161.467 52.7482C161.69 51.7274 162.144 50.8596 162.83 50.1448C163.515 49.4301 164.391 48.9293 165.458 48.6425C166.045 48.4846 166.647 48.4137 167.264 48.4298C167.893 48.4264 168.465 48.521 168.981 48.7136C169.309 48.8242 169.552 48.9576 169.71 49.1139C169.879 49.2506 169.993 49.4271 170.051 49.6435C170.109 49.8598 170.095 50.0541 170.009 50.2264C169.939 50.3945 169.81 50.5036 169.625 50.5534C169.517 50.5825 169.393 50.5828 169.252 50.5543C169.112 50.5257 168.987 50.493 168.878 50.4561C168.784 50.4151 168.72 50.391 168.685 50.3839C168.212 50.2293 167.77 50.1247 167.358 50.0699C166.961 50.011 166.5 50.0522 165.974 50.1936C164.846 50.497 164.07 51.1202 163.644 52.0631C163.23 52.9865 163.205 54.128 163.571 55.4877C163.937 56.8473 164.529 57.8148 165.346 58.3902C166.179 58.9614 167.16 59.0953 168.287 58.7918C168.813 58.6505 169.24 58.4527 169.569 58.1984C169.914 57.94 170.244 57.6275 170.56 57.2609C170.701 57.107 170.838 56.9707 170.972 56.8519C171.105 56.733 171.226 56.6591 171.334 56.63C171.504 56.5843 171.662 56.6164 171.808 56.7263C171.969 56.8321 172.078 56.9932 172.137 57.2095C172.191 57.4104 172.186 57.6103 172.124 57.8094C172.057 57.993 171.904 58.2247 171.665 58.5045C171.311 58.9145 170.85 59.2953 170.282 59.647C169.725 59.979 169.138 60.2282 168.52 60.3945Z" fill="white"/>
<path d="M182.735 57.305C182.451 57.3527 182.209 57.3122 182.009 57.1836C181.806 57.0391 181.681 56.8249 181.633 56.5409L180.087 47.3337L176.703 47.9019C176.466 47.9416 176.265 47.9024 176.099 47.7842C175.933 47.6661 175.832 47.4965 175.795 47.2756C175.757 47.0547 175.798 46.8613 175.916 46.6955C176.034 46.5296 176.212 46.4268 176.448 46.3871L185.111 44.9329C185.348 44.8931 185.549 44.9324 185.715 45.0505C185.881 45.1687 185.982 45.3382 186.019 45.5592C186.057 45.7801 186.016 45.9734 185.898 46.1393C185.78 46.3051 185.602 46.4079 185.366 46.4477L182.005 47.0119L183.55 56.2191C183.598 56.5031 183.542 56.7478 183.381 56.9531C183.234 57.1401 183.019 57.2574 182.735 57.305Z" fill="white"/>
<path d="M194.867 55.6134C194.564 55.6346 194.31 55.5641 194.107 55.4019C193.919 55.2386 193.815 55.0134 193.795 54.7261L193.096 44.7424C193.076 44.4551 193.148 44.2176 193.311 44.0297C193.474 43.8419 193.708 43.7373 194.011 43.7161C194.298 43.696 194.536 43.7676 194.724 43.9309C194.912 44.0942 195.016 44.3195 195.036 44.6068L195.277 48.0544L197.743 47.8819C200.712 47.6743 202.279 48.7595 202.445 51.1377C202.507 52.0156 202.343 52.7649 201.953 53.3856C201.563 54.0063 201.027 54.4848 200.345 54.8212C199.678 55.1406 198.953 55.3276 198.171 55.3823L194.867 55.6134ZM197.758 53.9436C198.572 53.8867 199.244 53.6392 199.775 53.2011C200.306 52.763 200.542 52.129 200.484 51.299C200.385 49.8785 199.369 49.2357 197.438 49.3708L195.379 49.5148L195.699 54.0876L197.758 53.9436Z" fill="white"/>
</svg>
