<svg width="119" height="59" viewBox="0 0 119 59" fill="none" xmlns="http://www.w3.org/2000/svg">
<path d="M37.61 10.5972L39.7571 2.11284C39.9729 1.25997 39.0812 0.552244 38.3018 0.957836L1.8597 19.9226C0.186926 20.7931 -0.400646 22.9004 0.579557 24.5134L19.9915 56.4585C21.7157 59.2957 25.9938 58.6761 26.8453 55.4659L30.5462 41.5136C30.7827 40.6216 29.8087 39.899 29.0261 40.3858L23.2457 43.9818C22.7642 44.2814 22.1311 44.1289 21.8381 43.6429L20.9777 42.2158C20.6875 41.7345 20.8412 41.1085 21.3213 40.8171L29.8179 35.6588C31.2441 34.7929 32.2547 33.3802 32.6148 31.7489L35.1038 20.474C35.2979 19.5947 34.3418 18.9136 33.5766 19.386L16.4894 29.9355C16.0086 30.2323 15.3786 30.0802 15.0856 29.5964L14.1907 28.118C13.8996 27.6372 14.0521 27.0111 14.5315 26.7187L34.8665 14.3184C36.2322 13.4857 37.2171 12.1497 37.61 10.5972Z" fill="#F2C94C"/>
<path d="M37.61 10.5972L39.7571 2.11284C39.9729 1.25997 39.0812 0.552244 38.3018 0.957836L1.8597 19.9226C0.186926 20.7931 -0.400646 22.9004 0.579557 24.5134L19.9915 56.4585C21.7157 59.2957 25.9938 58.6761 26.8453 55.4659L30.5462 41.5136C30.7827 40.6216 29.8087 39.899 29.0261 40.3858L23.2457 43.9818C22.7642 44.2814 22.1311 44.1289 21.8381 43.6429L20.9777 42.2158C20.6875 41.7345 20.8412 41.1085 21.3213 40.8171L29.8179 35.6588C31.2441 34.7929 32.2547 33.3802 32.6148 31.7489L35.1038 20.474C35.2979 19.5947 34.3418 18.9136 33.5766 19.386L16.4894 29.9355C16.0086 30.2323 15.3786 30.0802 15.0856 29.5964L14.1907 28.118C13.8996 27.6372 14.0521 27.0111 14.5315 26.7187L34.8665 14.3184C36.2322 13.4857 37.2171 12.1497 37.61 10.5972Z" fill="url(#paint0_linear)" fill-opacity="0.5"/>
<path d="M49.8079 29.8499L60.807 29.8499L59.7637 34.7474L42.9819 34.7474L47.4978 13.3355L63.9815 13.3355L62.9383 18.2331L52.2522 18.2331L51.5517 21.5927L59.7935 21.5927L58.8248 26.1916L50.5829 26.1916L49.8079 29.8499ZM67.946 13.3355L77.1269 13.3355C79.124 13.3355 80.7833 13.9726 82.1047 15.2467C83.4263 16.5209 84.087 18.024 84.087 19.756C84.087 22.2646 83.2126 24.3202 81.4639 25.9229C79.7151 27.5255 77.5193 28.3269 74.8764 28.3269L70.5691 28.3269L69.2278 34.7474L63.4302 34.7474L67.946 13.3355ZM76.1282 18.5466L72.6408 18.5466L71.672 23.1306L75.3831 23.1306C76.1581 23.1306 76.8139 22.8668 77.3504 22.3392C77.8969 21.8017 78.1702 21.1795 78.1702 20.4728C78.1702 19.9651 77.9763 19.5172 77.5889 19.1289C77.2013 18.7408 76.7145 18.5466 76.1282 18.5466ZM84.6533 34.7474L89.1692 13.3355L94.9669 13.3355L90.451 34.7474L84.6533 34.7474ZM109.364 17.9344C107.366 17.9344 105.638 18.6462 104.178 20.0697C102.727 21.4932 102.001 23.2252 102.001 25.2658C102.001 26.6694 102.468 27.839 103.403 28.7748C104.347 29.7005 105.558 30.1634 107.039 30.1634C107.735 30.1634 108.415 30.0639 109.081 29.8647C109.756 29.6558 110.332 29.4069 110.809 29.1182C111.287 28.8295 111.714 28.5408 112.091 28.2522C112.469 27.9535 112.748 27.7047 112.926 27.5056L113.239 27.1921L115.922 31.0743C115.822 31.1937 115.683 31.353 115.504 31.552C115.335 31.7412 114.938 32.0846 114.313 32.5824C113.696 33.0701 113.041 33.5031 112.345 33.8814C111.659 34.2597 110.76 34.5981 109.648 34.8968C108.545 35.2053 107.411 35.3596 106.249 35.3596C103.358 35.3596 100.943 34.384 99.0061 32.4331C97.0781 30.472 96.1146 28.1874 96.1146 25.5794C96.1146 22.0754 97.4606 19.0593 100.154 16.5309C102.856 13.9925 106.091 12.7233 109.856 12.7233C110.999 12.7233 112.081 12.8726 113.105 13.1713C114.128 13.4699 114.968 13.8282 115.624 14.2463C116.289 14.6644 116.87 15.0825 117.368 15.5005C117.875 15.9187 118.227 16.2771 118.426 16.5756L118.769 17.0086L114.64 20.5027C114.6 20.443 114.535 20.3534 114.446 20.2339C114.357 20.1044 114.153 19.8955 113.835 19.6068C113.517 19.3081 113.17 19.0443 112.791 18.8154C112.414 18.5865 111.917 18.3824 111.302 18.2032C110.685 18.024 110.039 17.9344 109.364 17.9344Z" fill="white"/>
<path d="M42.1075 38.4347L46.0636 38.4347C46.8458 38.4347 47.4944 38.6927 48.0095 39.2087C48.5293 39.72 48.7892 40.3339 48.7892 41.0507C48.7892 42.4602 48.1502 43.4827 46.872 44.1182C46.6765 44.2138 46.3736 44.3261 45.9635 44.4551L47.4872 48.7124L46.314 48.7124L44.8618 44.6056L41.9 44.6056L41.0344 48.7124L39.9399 48.7124L42.1075 38.4347ZM45.9348 39.4668L42.9875 39.4668L42.1218 43.5735L45.0263 43.5735C45.7513 43.5735 46.3736 43.3513 46.8934 42.907C47.4134 42.4626 47.6732 41.8677 47.6732 41.1224C47.6732 40.6445 47.5135 40.2503 47.1939 39.9397C46.8744 39.6244 46.4547 39.4668 45.9348 39.4668ZM55.9647 39.3018C54.7246 39.3018 53.6252 39.7893 52.6667 40.764C51.7081 41.7387 51.2288 42.8663 51.2288 44.1469C51.2288 45.2028 51.5888 46.0845 52.309 46.7916C53.0291 47.494 53.9496 47.8452 55.0704 47.8452C56.3008 47.8452 57.3978 47.3697 58.3611 46.4189C59.3245 45.4633 59.8062 44.3189 59.8062 42.9858C59.8062 41.9393 59.4461 41.065 58.726 40.3626C58.0106 39.6554 57.0901 39.3018 55.9647 39.3018ZM60.9151 42.9714C60.9151 43.951 60.6433 44.897 60.0995 45.8097C59.5606 46.7175 58.8285 47.4533 57.9033 48.0171C56.9828 48.5762 56.0004 48.8557 54.956 48.8557C53.5585 48.8557 52.402 48.4042 51.4863 47.5011C50.5754 46.5981 50.1199 45.4896 50.1199 44.1756C50.1199 43.1387 50.4036 42.164 50.9711 41.2513C51.5435 40.3339 52.2875 39.6124 53.2032 39.0868C54.1237 38.5565 55.0823 38.2913 56.0791 38.2913C57.4765 38.2913 58.6307 38.7453 59.5416 39.6531C60.4573 40.5561 60.9151 41.6623 60.9151 42.9714ZM68.5053 48.7124L62.1313 48.7124L64.2989 38.4347L65.4006 38.4347L63.4333 47.6875L68.7057 47.6875L68.5053 48.7124ZM71.6316 47.6875L77.7125 47.6875L77.505 48.7124L70.3296 48.7124L72.4973 38.4347L79.5295 38.4347L79.3077 39.4668L73.3771 39.4668L72.6761 42.8425L77.4334 42.8425L77.2117 43.8674L72.4543 43.8674L71.6316 47.6875ZM81.8688 38.4347L85.6175 38.4347C86.4283 38.4347 87.1031 38.7117 87.642 39.266C88.1809 39.8203 88.4505 40.4749 88.4505 41.2299C88.4505 42.2954 88.0665 43.1746 87.2986 43.8674C86.5307 44.5555 85.6104 44.8995 84.5373 44.8995L81.6042 44.8995L80.7957 48.7124L79.7012 48.7124L81.8688 38.4347ZM85.4601 39.4668L82.7488 39.4668L81.8259 43.8674L84.666 43.8674C85.41 43.8674 86.0395 43.6308 86.5547 43.1579C87.0745 42.6848 87.3344 42.0565 87.3344 41.2728C87.3344 40.752 87.1603 40.322 86.8122 39.9827C86.4688 39.6387 86.018 39.4668 85.4601 39.4668ZM95.6048 48.7124L89.2302 48.7124L91.3978 38.4347L92.4996 38.4347L90.5322 47.6875L95.8042 47.6875L95.6048 48.7124ZM103.846 44.8206L102.894 39.9756L99.8892 44.8206L103.846 44.8206ZM104.067 45.8527L99.231 45.8527L97.4576 48.7124L96.2549 48.7124L102.672 38.4347L103.696 38.4347L105.777 48.7124L104.633 48.7124L104.067 45.8527ZM110.47 43.9391L110.542 43.9391L114.776 38.4347L116.079 38.4347L110.863 45.1145L110.105 48.7124L109.003 48.7124L109.769 45.1145L107.365 38.4347L108.539 38.4347L110.47 43.9391Z" fill="white"/>
<defs>
<linearGradient id="paint0_linear" x1="21.1185" y1="-2.40504" x2="13.272" y2="62.6446" gradientUnits="userSpaceOnUse">
<stop stop-color="#E6961E"/>
<stop offset="1" stop-color="#F2C94C" stop-opacity="0"/>
</linearGradient>
</defs>
</svg>
