<svg width="214" height="218" viewBox="0 0 214 218" fill="none" xmlns="http://www.w3.org/2000/svg">
<path d="M124.691 154.066L124.691 148.792L124.691 135.023L124.691 113.682L124.691 105.699L124.304 95.0646C123.433 92.5158 121.201 90.6985 118.582 90.6985L94.1433 90.6985C90.7708 90.6985 88.0337 93.7139 88.0337 97.4293L88.0337 135.023L88.0337 143.848L88.0337 154.066L88.0337 175.407L88.0337 184.461L88.0337 194.451L88.0337 198.39C88.0337 202.106 90.7708 205.121 94.1433 205.121L118.582 205.121C121.954 205.121 124.691 202.106 124.691 198.39L124.691 154.066Z" fill="#EFF6FE"/>
<path d="M101.608 126.171L82.855 126.171C81.8972 126.171 80.9756 126.308 80.1264 126.554L80.8357 127.195L81.3265 127.195L88.3316 127.158L88.3316 132.937L124.4 160.994L124.4 143.901L101.608 126.171Z" fill="#D2DCE7"/>
<mask id="mask0" mask-type="alpha" maskUnits="userSpaceOnUse" x="88" y="36" width="37" height="170">
<path d="M124.517 129.803L124.517 122.033L124.517 101.746L124.517 70.3041L124.517 58.5429L124.133 42.875C123.27 39.1199 121.058 36.4425 118.464 36.4425L94.2513 36.4424C90.9101 36.4424 88.1983 40.8851 88.1983 46.359L88.1983 101.746L88.1983 114.749L88.1983 129.803L88.1983 161.245L88.1982 174.585L88.1982 189.302L88.1982 195.107C88.1982 200.581 90.91 205.023 94.2513 205.023L118.463 205.023C121.805 205.023 124.517 200.581 124.517 195.107L124.517 129.803Z" fill="#EFF6FE"/>
</mask>
<g mask="url(#mask0)">
<path d="M87.7044 146.426L86.7651 154.312C85.8007 154.324 82.6266 158.007 81.7746 158.263L121.385 188.422L126.481 188.361L143.508 188.158L87.7044 146.426Z" fill="#D2DCE7"/>
<path d="M126.481 192.294L121.385 188.422L126.481 188.361L126.481 192.294Z" fill="#D2DCE7"/>
<path d="M87.7044 176.186L86.7651 184.072C85.8007 184.084 82.6266 187.767 81.7746 188.023L121.385 218.182L126.481 218.121L143.508 217.917L87.7044 176.186Z" fill="#D2DCE7"/>
<path d="M126.481 222.054L121.385 218.182L126.481 218.121L126.481 222.054Z" fill="#D2DCE7"/>
</g>
<path d="M83 214L131 214C134.312 214 137 213.269 137 212.368L137 186.04C137 185.139 134.312 184.408 131 184.408L83 184.408C79.688 184.408 77 185.139 77 186.04L77 212.368C77 213.269 79.688 214 83 214Z" fill="#6E6E6E"/>
<g filter="url(#filter0_d)">
<path d="M83 214L131 214C134.312 214 137 213.951 137 213.89L137 212.11C137 212.049 134.312 212 131 212L83 212C79.688 212 77 212.049 77 212.11L77 213.89C77 213.951 79.688 214 83 214Z" fill="#444444"/>
</g>
<g clip-path="url(#clip0)">
<path d="M152.277 120.169V155.31C152.277 161.045 147.589 165.713 141.828 165.713H72.1665C66.4055 165.713 61.7173 161.045 61.7173 155.31V120.169C61.7173 118.255 63.2777 116.701 65.2004 116.701H148.794C150.717 116.701 152.277 118.255 152.277 120.169Z" fill="#D2DCE7"/>
<path d="M152.278 120.169V155.31C152.278 161.045 147.589 165.713 141.828 165.713H106.998V116.701H148.794C150.717 116.701 152.278 118.255 152.278 120.169Z" fill="#A1AEBC"/>
<path d="M138.345 120.169V148.374C138.345 150.288 136.785 151.842 134.862 151.842H79.133C77.2103 151.842 75.6499 150.288 75.6499 148.374V120.169C75.6499 118.255 77.2103 116.701 79.133 116.701H134.862C136.785 116.701 138.345 118.255 138.345 120.169Z" fill="#6E6E6E"/>
<path d="M138.345 120.169V148.374C138.345 150.288 136.785 151.842 134.862 151.842H106.998V116.701H134.862C136.785 116.701 138.345 118.255 138.345 120.169Z" fill="#444444"/>
<path d="M93.0651 137.508C91.1415 137.508 89.582 135.955 89.582 134.04V120.169C89.582 118.254 91.1415 116.701 93.0651 116.701C94.9887 116.701 96.5482 118.254 96.5482 120.169V134.04C96.5482 135.955 94.9887 137.508 93.0651 137.508Z" fill="#FED843"/>
<path d="M110.48 120.169V134.04C110.48 135.954 108.92 137.508 106.997 137.508C105.075 137.508 103.514 135.954 103.514 134.04V120.169C103.514 118.255 105.075 116.701 106.997 116.701C108.92 116.701 110.48 118.255 110.48 120.169Z" fill="#FED843"/>
<path d="M110.481 120.169V134.04C110.481 135.954 108.92 137.508 106.998 137.508V116.701C108.92 116.701 110.481 118.255 110.481 120.169Z" fill="#FFB64C"/>
<path d="M120.929 137.508C119.006 137.508 117.446 135.955 117.446 134.04V120.169C117.446 118.254 119.006 116.701 120.929 116.701C122.853 116.701 124.412 118.254 124.412 120.169V134.04C124.412 135.955 122.853 137.508 120.929 137.508Z" fill="#FFB64C"/>
<path d="M162.959 82.0235H155.76C153.837 82.0235 152.277 80.4709 152.277 78.5557C152.277 76.6405 153.837 75.0879 155.76 75.0879H162.959C164.882 75.0879 166.442 76.6405 166.442 78.5557C166.442 80.4709 164.882 82.0235 162.959 82.0235Z" fill="#292929"/>
<path d="M58.2342 82.0235H51.0358C49.1122 82.0235 47.5527 80.4709 47.5527 78.5557C47.5527 76.6405 49.1122 75.0879 51.0358 75.0879H58.2342C60.1577 75.0879 61.7172 76.6405 61.7172 78.5557C61.7172 80.4709 60.1577 82.0235 58.2342 82.0235Z" fill="#444444"/>
<path d="M148.794 47.3457H65.2002C59.4392 47.3457 54.751 52.0134 54.751 57.7492V120.17C54.751 122.084 56.3114 123.638 58.234 123.638H155.76C157.683 123.638 159.243 122.084 159.243 120.17V57.7492C159.243 52.0134 154.555 47.3457 148.794 47.3457Z" fill="#EFF6FE"/>
<path d="M159.244 57.7492V120.17C159.244 122.084 157.683 123.638 155.761 123.638H106.998V47.3457H148.794C154.555 47.3457 159.244 52.0134 159.244 57.7492Z" fill="#D2DCE7"/>
<path d="M93.0651 102.832C94.9888 102.832 96.5482 101.28 96.5482 99.3643C96.5482 97.4491 94.9888 95.8965 93.0651 95.8965C91.1415 95.8965 89.582 97.4491 89.582 99.3643C89.582 101.28 91.1415 102.832 93.0651 102.832Z" fill="#FF6C6C"/>
<path d="M106.997 102.832C108.921 102.832 110.48 101.28 110.48 99.3643C110.48 97.4491 108.921 95.8965 106.997 95.8965C105.074 95.8965 103.514 97.4491 103.514 99.3643C103.514 101.28 105.074 102.832 106.997 102.832Z" fill="#FF6C6C"/>
<path d="M110.481 99.3643C110.481 101.279 108.92 102.832 106.998 102.832V95.8965C108.92 95.8965 110.481 97.4501 110.481 99.3643Z" fill="#E63950"/>
<path d="M120.929 102.832C122.853 102.832 124.412 101.28 124.412 99.3643C124.412 97.4491 122.853 95.8965 120.929 95.8965C119.006 95.8965 117.446 97.4491 117.446 99.3643C117.446 101.28 119.006 102.832 120.929 102.832Z" fill="#E63950"/>
<path d="M134.861 102.832C136.785 102.832 138.345 101.28 138.345 99.3643C138.345 97.4491 136.785 95.8965 134.861 95.8965C132.938 95.8965 131.378 97.4491 131.378 99.3643C131.378 101.28 132.938 102.832 134.861 102.832Z" fill="#E63950"/>
<path d="M79.133 102.832C81.0566 102.832 82.6161 101.28 82.6161 99.3643C82.6161 97.4491 81.0566 95.8965 79.133 95.8965C77.2093 95.8965 75.6499 97.4491 75.6499 99.3643C75.6499 101.28 77.2093 102.832 79.133 102.832Z" fill="#FF6C6C"/>
<path d="M127.896 68.1523H72.1667C70.244 68.1523 68.6836 69.7059 68.6836 71.6202V85.4914C68.6836 87.4057 70.244 88.9593 72.1667 88.9593H127.896C129.818 88.9593 131.379 87.4057 131.379 85.4914V71.6202C131.379 69.7059 129.818 68.1523 127.896 68.1523Z" fill="#6E6E6E"/>
<path d="M131.379 71.6202V85.4914C131.379 87.4057 129.819 88.9593 127.896 88.9593H106.998V68.1523H127.896C129.819 68.1523 131.379 69.7059 131.379 71.6202Z" fill="#444444"/>
<path d="M75.6499 75.0898H82.6161V82.0255H75.6499V75.0898Z" fill="#444444"/>
<path d="M89.582 75.0898H96.5482V82.0255H89.582V75.0898Z" fill="#444444"/>
<path d="M103.515 75.0898H110.481V82.0255H103.515V75.0898Z" fill="#444444"/>
<path d="M106.998 75.0898H110.481V82.0255H106.998V75.0898Z" fill="#292929"/>
<path d="M117.447 75.0898H124.413V82.0255H117.447V75.0898Z" fill="#292929"/>
<path d="M141.828 88.9593C139.905 88.9593 138.345 87.4066 138.345 85.4914V71.6202C138.345 69.705 139.905 68.1523 141.828 68.1523C143.752 68.1523 145.311 69.705 145.311 71.6202V85.4914C145.311 87.4066 143.752 88.9593 141.828 88.9593Z" fill="#444444"/>
</g>
<defs>
<filter id="filter0_d" x="74" y="208" width="68" height="10" filterUnits="userSpaceOnUse" color-interpolation-filters="sRGB">
<feFlood flood-opacity="0" result="BackgroundImageFix"/>
<feColorMatrix in="SourceAlpha" type="matrix" values="0 0 0 0 0 0 0 0 0 0 0 0 0 0 0 0 0 0 127 0"/>
<feOffset dx="1"/>
<feGaussianBlur stdDeviation="2"/>
<feColorMatrix type="matrix" values="0 0 0 0 0 0 0 0 0 0 0 0 0 0 0 0 0 0 0.1 0"/>
<feBlend mode="normal" in2="BackgroundImageFix" result="effect1_dropShadow"/>
<feBlend mode="normal" in="SourceGraphic" in2="effect1_dropShadow" result="shape"/>
</filter>
<clipPath id="clip0">
<rect width="118.889" height="118.368" fill="white" transform="translate(47.5527 47.3457)"/>
</clipPath>
</defs>
</svg>
