<svg width="214" height="218" viewBox="0 0 214 218" fill="none" xmlns="http://www.w3.org/2000/svg">
<path d="M88.4539 64.1961L88.4539 69.4929L88.4539 83.3229L88.4539 104.757L88.4539 112.775L88.8408 123.456C89.7125 126.016 91.9445 127.841 94.5635 127.841L119.002 127.841C122.374 127.841 125.111 124.812 125.111 121.081L125.111 83.3229L125.111 74.4588L125.111 64.1961L125.111 42.7619L125.111 33.668L125.111 23.6351L125.111 19.6781C125.111 15.9465 122.374 12.918 119.002 12.918L94.5635 12.918C91.191 12.918 88.4539 15.9465 88.4539 19.6781L88.4539 64.1961Z" fill="#EFF6FE"/>
<path d="M111.536 92.2145L130.29 92.2145C131.247 92.2145 132.169 92.077 133.018 91.8302L132.309 91.1857L131.818 91.1857L124.813 91.2237L124.813 85.4194L88.7441 57.2383L88.7441 74.4068L111.536 92.2145Z" fill="#D2DCE7"/>
<mask id="mask0" mask-type="alpha" maskUnits="userSpaceOnUse" x="88" y="13" width="37" height="170">
<path d="M88.628 88.5608L88.628 96.3647L88.628 116.741L88.6279 148.32L88.6279 160.133L89.0113 175.869C89.8749 179.641 92.0862 182.33 94.681 182.33L118.893 182.33C122.234 182.33 124.946 177.868 124.946 172.37L124.946 116.741L124.946 103.681L124.946 88.5608L124.946 56.9813L124.946 43.5832L124.946 28.8015L124.946 22.9716C124.946 17.4737 122.235 13.0117 118.893 13.0117L94.681 13.0117C91.3398 13.0117 88.628 17.4737 88.628 22.9716L88.628 88.5608Z" fill="#EFF6FE"/>
</mask>
<g mask="url(#mask0)">
<path d="M125.441 71.8651L126.38 63.9447C127.344 63.9331 130.518 60.2335 131.37 59.9765L91.7596 29.6857L86.6645 29.7469L69.6366 29.9515L125.441 71.8651Z" fill="#D2DCE7"/>
<path d="M86.6645 25.7968L91.7596 29.6857L86.6645 29.7469L86.6645 25.7968Z" fill="#D2DCE7"/>
<path d="M125.441 41.9745L126.38 34.0541C127.344 34.0425 130.518 30.3429 131.37 30.0859L91.7595 -0.204895L86.6645 -0.143688L69.6366 0.0608683L125.441 41.9745Z" fill="#D2DCE7"/>
<path d="M86.6645 -4.09379L91.7595 -0.204895L86.6645 -0.143688L86.6645 -4.09379Z" fill="#D2DCE7"/>
</g>
<path d="M131 4.00002L83 4C79.688 4 77 4.74118 77 5.65441L77 32.3456C77 33.2588 79.688 34 83 34L131 34C134.312 34 137 33.2588 137 32.3456L137 5.65443C137 4.7412 134.312 4.00002 131 4.00002Z" fill="#6E6E6E"/>
<g filter="url(#filter0_d)">
<path d="M131 4.00002L83 4C79.688 4 77 4.04941 77 4.11029L77 5.88969C77 5.95057 79.688 5.99998 83 5.99998L131 6C134.312 6 137 5.95059 137 5.88971L137 4.11031C137 4.04943 134.312 4.00002 131 4.00002Z" fill="#444444"/>
</g>
<g clip-path="url(#clip0)">
<path d="M92.4425 170.029C90.5176 170.029 88.957 168.469 88.957 166.544V159.108C88.957 157.184 90.5176 155.623 92.4425 155.623C94.3673 155.623 95.9279 157.184 95.9279 159.108V166.544C95.9279 168.469 94.3673 170.029 92.4425 170.029Z" fill="#FF6C6C"/>
<path d="M120.326 170.029C118.401 170.029 116.84 168.469 116.84 166.544V159.108C116.84 157.184 118.401 155.623 120.326 155.623C122.251 155.623 123.811 157.184 123.811 159.108V166.544C123.811 168.469 122.251 170.029 120.326 170.029Z" fill="#5BC980"/>
<path d="M109.869 159.108V166.544C109.869 168.468 108.308 170.029 106.384 170.029C104.46 170.029 102.898 168.468 102.898 166.544V159.108C102.898 157.185 104.46 155.623 106.384 155.623C108.308 155.623 109.869 157.185 109.869 159.108Z" fill="#FED843"/>
<path d="M109.869 159.108V166.544C109.869 168.468 108.308 170.029 106.384 170.029V155.623C108.308 155.623 109.869 157.185 109.869 159.108Z" fill="#FFB64C"/>
<path d="M151.695 93.4836V54.5478C151.695 52.6239 150.133 51.0625 148.209 51.0625H64.5592C62.6352 51.0625 61.0737 52.6239 61.0737 54.5478V159.108C61.0737 161.032 62.6352 162.593 64.5592 162.593H148.209C150.133 162.593 151.695 161.032 151.695 159.108V113.201C151.695 108.875 151.695 107.815 151.695 103.27C151.695 98.7249 151.695 97.4476 151.695 93.4836Z" fill="#EFF6FE"/>
<path d="M151.694 113.201V159.108C151.694 161.032 150.133 162.593 148.209 162.593H106.384V51.0625H148.209C150.133 51.0625 151.694 52.6239 151.694 54.5478V93.4836V113.201Z" fill="#D2DCE7"/>
<path d="M130.085 101.252L109.173 73.3688C108.476 72.4393 107.43 71.9746 106.384 71.9746C105.339 71.9746 104.293 72.4393 103.596 73.3688L82.6835 101.252C80.9617 103.548 82.6068 106.829 85.4718 106.829H127.297C130.167 106.829 131.805 103.543 130.085 101.252Z" fill="#6E6E6E"/>
<path d="M127.296 106.829H106.384V71.9746C107.429 71.9746 108.475 72.4393 109.172 73.3688L130.085 101.252C131.804 103.543 130.166 106.829 127.296 106.829Z" fill="#444444"/>
<path d="M120.326 99.8584H92.4424L106.384 81.2695L120.326 99.8584Z" fill="#FED843"/>
<path d="M120.325 99.8584H106.384V81.2695L120.325 99.8584Z" fill="#FFB64C"/>
<path d="M130.782 131.226C130.782 133.15 129.221 134.711 127.297 134.711H85.4718C83.5478 134.711 81.9863 133.15 81.9863 131.226C81.9863 129.302 83.5478 127.74 85.4718 127.74H127.297C129.221 127.74 130.782 129.302 130.782 131.226Z" fill="#6E6E6E"/>
<path d="M130.782 117.284C130.782 119.208 129.221 120.77 127.297 120.77H85.4718C83.5478 120.77 81.9863 119.208 81.9863 117.284C81.9863 115.36 83.5478 113.799 85.4718 113.799H127.297C129.221 113.799 130.782 115.36 130.782 117.284Z" fill="#6E6E6E"/>
<path d="M130.782 131.226C130.782 133.15 129.22 134.711 127.296 134.711H106.384V127.74H127.296C129.22 127.74 130.782 129.302 130.782 131.226Z" fill="#444444"/>
<path d="M130.782 117.284C130.782 119.208 129.22 120.77 127.296 120.77H106.384V113.799H127.296C129.22 113.799 130.782 115.36 130.782 117.284Z" fill="#444444"/>
<path d="M78.5006 71.9747C80.4255 71.9747 81.986 70.4143 81.986 68.4893C81.986 66.5644 80.4255 65.0039 78.5006 65.0039C76.5756 65.0039 75.0151 66.5644 75.0151 68.4893C75.0151 70.4143 76.5756 71.9747 78.5006 71.9747Z" fill="#D2DCE7"/>
<path d="M78.5006 148.652C80.4255 148.652 81.986 147.092 81.986 145.167C81.986 143.242 80.4255 141.682 78.5006 141.682C76.5756 141.682 75.0151 143.242 75.0151 145.167C75.0151 147.092 76.5756 148.652 78.5006 148.652Z" fill="#D2DCE7"/>
<path d="M134.268 71.9747C136.193 71.9747 137.754 70.4143 137.754 68.4893C137.754 66.5644 136.193 65.0039 134.268 65.0039C132.343 65.0039 130.783 66.5644 130.783 68.4893C130.783 70.4143 132.343 71.9747 134.268 71.9747Z" fill="#A1AEBC"/>
<path d="M134.268 148.652C136.193 148.652 137.754 147.092 137.754 145.167C137.754 143.242 136.193 141.682 134.268 141.682C132.343 141.682 130.783 143.242 130.783 145.167C130.783 147.092 132.343 148.652 134.268 148.652Z" fill="#A1AEBC"/>
</g>
<defs>
<filter id="filter0_d" x="74" y="0" width="68" height="10" filterUnits="userSpaceOnUse" color-interpolation-filters="sRGB">
<feFlood flood-opacity="0" result="BackgroundImageFix"/>
<feColorMatrix in="SourceAlpha" type="matrix" values="0 0 0 0 0 0 0 0 0 0 0 0 0 0 0 0 0 0 127 0"/>
<feOffset dx="1"/>
<feGaussianBlur stdDeviation="2"/>
<feColorMatrix type="matrix" values="0 0 0 0 0 0 0 0 0 0 0 0 0 0 0 0 0 0 0.1 0"/>
<feBlend mode="normal" in2="BackgroundImageFix" result="effect1_dropShadow"/>
<feBlend mode="normal" in="SourceGraphic" in2="effect1_dropShadow" result="shape"/>
</filter>
<clipPath id="clip0">
<rect width="118.969" height="118.966" fill="white" transform="translate(48 51.0625)"/>
</clipPath>
</defs>
</svg>
