<svg width="214" height="214" viewBox="0 0 214 214" fill="none" xmlns="http://www.w3.org/2000/svg">
<path d="M59.8324 124.693L65.0972 124.693L78.8436 124.693L100.148 124.693L108.117 124.693L118.734 124.306C121.278 123.434 123.092 121.202 123.092 118.583L123.092 94.1448C123.092 90.7723 120.082 88.0352 116.373 88.0352L78.8436 88.0352L70.033 88.0352L59.8324 88.0352L38.5278 88.0352L29.4889 88.0352L19.5166 88.0352L15.5836 88.0352C11.8745 88.0352 8.86426 90.7722 8.86426 94.1447L8.86425 118.583C8.86425 121.955 11.8745 124.693 15.5836 124.693L59.8324 124.693Z" fill="#EFF6FE"/>
<path d="M87.6806 101.606L87.6806 82.8531C87.6806 81.8952 87.5439 80.9736 87.2987 80.1245L86.658 80.8337L86.658 81.3245L86.6958 88.3297L80.9267 88.3297L52.9167 124.398L69.9811 124.398L87.6806 101.606Z" fill="#D2DCE7"/>
<mask id="mask0" mask-type="alpha" maskUnits="userSpaceOnUse" x="8" y="88" width="170" height="37">
<path d="M84.0519 124.516L91.8086 124.516L112.061 124.516L143.45 124.516L155.191 124.516L170.833 124.132C174.581 123.269 177.254 121.057 177.254 118.463L177.254 94.2504C177.254 90.9091 172.819 88.1973 167.354 88.1973L112.061 88.1973L99.0806 88.1973L84.0519 88.1973L52.6633 88.1973L39.3461 88.1973L24.6538 88.1973L18.8592 88.1973C13.3945 88.1973 8.95947 90.909 8.95947 94.2503L8.95946 118.463C8.95946 121.804 13.3945 124.516 18.8591 124.516L84.0519 124.516Z" fill="#EFF6FE"/>
</mask>
<g mask="url(#mask0)">
<path d="M67.4565 87.6995L59.584 86.7602C59.5724 85.7959 55.8952 82.6217 55.6398 81.7698L25.5321 121.381L25.5929 126.476L25.7963 143.504L67.4565 87.6995Z" fill="#D2DCE7"/>
<path d="M21.6667 126.476L25.5321 121.381L25.5929 126.476L21.6667 126.476Z" fill="#D2DCE7"/>
<path d="M37.747 87.6995L29.8745 86.7602C29.863 85.7959 26.1858 82.6217 25.9303 81.7698L-4.17736 121.381L-4.11653 126.476L-3.91321 143.504L37.747 87.6995Z" fill="#D2DCE7"/>
<path d="M-8.04275 126.476L-4.17736 121.381L-4.11653 126.476L-8.04275 126.476Z" fill="#D2DCE7"/>
</g>
<path d="M1.73575e-05 83L1.92861e-06 131C8.64017e-07 134.312 0.741176 137 1.65441 137L28.3456 137C29.2588 137 30 134.312 30 131L30 83C30 79.688 29.2588 77 28.3456 77L1.65443 77C0.741195 77 1.84221e-05 79.688 1.73575e-05 83V83Z" fill="#6E6E6E"/>
<path d="M1.73575e-05 83L1.92861e-06 131C8.64017e-07 134.312 0.0494113 137 0.110293 137L1.88969 137C1.95057 137 1.99998 134.312 1.99998 131L2 83C2 79.688 1.95059 77 1.88971 77L0.110312 77C0.0494306 77 1.84221e-05 79.688 1.73575e-05 83V83Z" fill="#444444"/>
<g clip-path="url(#clip0)">
<path d="M152.652 120.7V155.995C152.652 161.756 147.992 166.444 142.266 166.444H73.0274C67.3014 166.444 62.6416 161.756 62.6416 155.995V120.7C62.6416 118.777 64.1925 117.217 66.1035 117.217H149.19C151.101 117.217 152.652 118.777 152.652 120.7Z" fill="#D2DCE7"/>
<path d="M152.652 120.7V155.995C152.652 161.756 147.992 166.444 142.266 166.444H107.647V117.217H149.19C151.101 117.217 152.652 118.777 152.652 120.7Z" fill="#A1AEBC"/>
<path d="M138.804 120.7V149.029C138.804 150.952 137.253 152.512 135.342 152.512H79.9514C78.0404 152.512 76.4895 150.952 76.4895 149.029V120.7C76.4895 118.777 78.0404 117.217 79.9514 117.217H135.342C137.253 117.217 138.804 118.777 138.804 120.7Z" fill="#6E6E6E"/>
<path d="M138.804 120.7V149.029C138.804 150.952 137.253 152.512 135.342 152.512H107.647V117.217H135.342C137.253 117.217 138.804 118.777 138.804 120.7Z" fill="#444444"/>
<path d="M93.7988 138.115C91.8869 138.115 90.3369 136.556 90.3369 134.632V120.7C90.3369 118.776 91.8869 117.217 93.7988 117.217C95.7107 117.217 97.2608 118.776 97.2608 120.7V134.632C97.2608 136.556 95.7107 138.115 93.7988 138.115Z" fill="#FED843"/>
<path d="M111.108 120.7V134.632C111.108 136.555 109.557 138.115 107.647 138.115C105.736 138.115 104.185 136.555 104.185 134.632V120.7C104.185 118.777 105.736 117.217 107.647 117.217C109.557 117.217 111.108 118.777 111.108 120.7Z" fill="#FED843"/>
<path d="M111.109 120.7V134.632C111.109 136.555 109.558 138.115 107.647 138.115V117.217C109.558 117.217 111.109 118.777 111.109 120.7Z" fill="#FFB64C"/>
<path d="M121.494 138.115C119.582 138.115 118.032 136.556 118.032 134.632V120.7C118.032 118.776 119.582 117.217 121.494 117.217C123.406 117.217 124.956 118.776 124.956 120.7V134.632C124.956 136.556 123.406 138.115 121.494 138.115Z" fill="#FFB64C"/>
<path d="M163.268 82.3861H156.114C154.202 82.3861 152.652 80.8266 152.652 78.903C152.652 76.9794 154.202 75.4199 156.114 75.4199H163.268C165.18 75.4199 166.73 76.9794 166.73 78.903C166.73 80.8266 165.18 82.3861 163.268 82.3861Z" fill="#292929"/>
<path d="M59.1796 82.3861H52.0249C50.113 82.3861 48.563 80.8266 48.563 78.903C48.563 76.9794 50.113 75.4199 52.0249 75.4199H59.1796C61.0915 75.4199 62.6415 76.9794 62.6415 78.903C62.6415 80.8266 61.0915 82.3861 59.1796 82.3861Z" fill="#444444"/>
<path d="M149.19 47.5547H66.1036C60.3775 47.5547 55.7178 52.2429 55.7178 58.0039V120.699C55.7178 122.622 57.2687 124.182 59.1797 124.182H156.114C158.025 124.182 159.576 122.622 159.576 120.699V58.0039C159.576 52.2429 154.916 47.5547 149.19 47.5547Z" fill="#EFF6FE"/>
<path d="M159.576 58.0039V120.699C159.576 122.622 158.025 124.182 156.114 124.182H107.647V47.5547H149.19C154.916 47.5547 159.576 52.2429 159.576 58.0039Z" fill="#D2DCE7"/>
<path d="M93.7988 103.285C95.7108 103.285 97.2608 101.725 97.2608 99.8014C97.2608 97.8778 95.7108 96.3184 93.7988 96.3184C91.8869 96.3184 90.3369 97.8778 90.3369 99.8014C90.3369 101.725 91.8869 103.285 93.7988 103.285Z" fill="#FF6C6C"/>
<path d="M107.647 103.285C109.558 103.285 111.108 101.725 111.108 99.8014C111.108 97.8778 109.558 96.3184 107.647 96.3184C105.735 96.3184 104.185 97.8778 104.185 99.8014C104.185 101.725 105.735 103.285 107.647 103.285Z" fill="#FF6C6C"/>
<path d="M111.109 99.8014C111.109 101.724 109.558 103.285 107.647 103.285V96.3184C109.558 96.3184 111.109 97.8788 111.109 99.8014Z" fill="#E63950"/>
<path d="M121.494 103.285C123.406 103.285 124.956 101.725 124.956 99.8014C124.956 97.8778 123.406 96.3184 121.494 96.3184C119.582 96.3184 118.032 97.8778 118.032 99.8014C118.032 101.725 119.582 103.285 121.494 103.285Z" fill="#E63950"/>
<path d="M135.342 103.285C137.254 103.285 138.804 101.725 138.804 99.8014C138.804 97.8778 137.254 96.3184 135.342 96.3184C133.43 96.3184 131.88 97.8778 131.88 99.8014C131.88 101.725 133.43 103.285 135.342 103.285Z" fill="#E63950"/>
<path d="M79.9514 103.285C81.8634 103.285 83.4134 101.725 83.4134 99.8014C83.4134 97.8778 81.8634 96.3184 79.9514 96.3184C78.0395 96.3184 76.4895 97.8778 76.4895 99.8014C76.4895 101.725 78.0395 103.285 79.9514 103.285Z" fill="#FF6C6C"/>
<path d="M128.418 68.4531H73.0274C71.1164 68.4531 69.5654 70.0135 69.5654 71.9362V85.8685C69.5654 87.7912 71.1164 89.3516 73.0274 89.3516H128.418C130.329 89.3516 131.88 87.7912 131.88 85.8685V71.9362C131.88 70.0135 130.329 68.4531 128.418 68.4531Z" fill="#6E6E6E"/>
<path d="M131.88 71.9362V85.8685C131.88 87.7912 130.33 89.3516 128.419 89.3516H107.647V68.4531H128.419C130.33 68.4531 131.88 70.0135 131.88 71.9362Z" fill="#444444"/>
<path d="M76.4897 75.4199H83.4136V82.3861H76.4897V75.4199Z" fill="#444444"/>
<path d="M90.3372 75.4199H97.261V82.3861H90.3372V75.4199Z" fill="#444444"/>
<path d="M104.185 75.4199H111.109V82.3861H104.185V75.4199Z" fill="#444444"/>
<path d="M107.647 75.4199H111.109V82.3861H107.647V75.4199Z" fill="#292929"/>
<path d="M118.032 75.4199H124.956V82.3861H118.032V75.4199Z" fill="#292929"/>
<path d="M142.266 89.3516C140.354 89.3516 138.804 87.7921 138.804 85.8685V71.9362C138.804 70.0126 140.354 68.4531 142.266 68.4531C144.178 68.4531 145.728 70.0126 145.728 71.9362V85.8685C145.728 87.7921 144.178 89.3516 142.266 89.3516Z" fill="#444444"/>
</g>
<defs>
<clipPath id="clip0">
<rect width="118.167" height="118.889" fill="white" transform="translate(48.563 47.5547)"/>
</clipPath>
</defs>
</svg>
