<svg width="217" height="214" viewBox="0 0 217 214" fill="none" xmlns="http://www.w3.org/2000/svg">
<path d="M62.8324 124.693L68.0972 124.693L81.8436 124.693L103.148 124.693L111.117 124.693L121.734 124.306C124.278 123.434 126.092 121.202 126.092 118.583L126.092 94.1448C126.092 90.7723 123.082 88.0352 119.373 88.0352L81.8436 88.0352L73.033 88.0352L62.8324 88.0352L41.5278 88.0352L32.4889 88.0352L22.5166 88.0352L18.5836 88.0352C14.8745 88.0352 11.8643 90.7722 11.8643 94.1447L11.8642 118.583C11.8642 121.955 14.8745 124.693 18.5836 124.693L62.8324 124.693Z" fill="#EFF6FE"/>
<path d="M90.6806 101.606L90.6806 82.8531C90.6806 81.8952 90.5439 80.9736 90.2987 80.1245L89.658 80.8337L89.658 81.3245L89.6958 88.3297L83.9267 88.3297L55.9167 124.398L72.9811 124.398L90.6806 101.606Z" fill="#D2DCE7"/>
<mask id="mask0" mask-type="alpha" maskUnits="userSpaceOnUse" x="11" y="88" width="170" height="37">
<path d="M87.0519 124.516L94.8086 124.516L115.061 124.516L146.45 124.516L158.191 124.516L173.833 124.132C177.581 123.269 180.254 121.057 180.254 118.463L180.254 94.2504C180.254 90.9091 175.819 88.1973 170.354 88.1973L115.061 88.1973L102.081 88.1973L87.0519 88.1973L55.6633 88.1973L42.3461 88.1973L27.6538 88.1973L21.8592 88.1973C16.3945 88.1973 11.9595 90.909 11.9595 94.2503L11.9595 118.463C11.9595 121.804 16.3945 124.516 21.8591 124.516L87.0519 124.516Z" fill="#EFF6FE"/>
</mask>
<g mask="url(#mask0)">
<path d="M70.4565 87.6995L62.584 86.7602C62.5724 85.7959 58.8952 82.6217 58.6398 81.7698L28.5321 121.381L28.5929 126.476L28.7963 143.504L70.4565 87.6995Z" fill="#D2DCE7"/>
<path d="M24.6667 126.476L28.5321 121.381L28.5929 126.476L24.6667 126.476Z" fill="#D2DCE7"/>
<path d="M40.747 87.6995L32.8745 86.7602C32.863 85.7959 29.1858 82.6217 28.9303 81.7698L-1.17736 121.381L-1.11653 126.476L-0.913205 143.504L40.747 87.6995Z" fill="#D2DCE7"/>
<path d="M-5.04275 126.476L-1.17736 121.381L-1.11653 126.476L-5.04275 126.476Z" fill="#D2DCE7"/>
</g>
<path d="M3.00002 83L3 131C3 134.312 3.74118 137 4.65441 137L31.3456 137C32.2588 137 33 134.312 33 131L33 83C33 79.688 32.2588 77 31.3456 77L4.65443 77C3.7412 77 3.00002 79.688 3.00002 83V83Z" fill="#6E6E6E"/>
<g filter="url(#filter0_d)">
<path d="M3.00002 83L3 131C3 134.312 3.04941 137 3.11029 137L4.88969 137C4.95057 137 4.99998 134.312 4.99998 131L5 83C5 79.688 4.95059 77 4.88971 77L3.11031 77C3.04943 77 3.00002 79.688 3.00002 83V83Z" fill="#444444"/>
</g>
<g clip-path="url(#clip0)">
<path d="M155.652 120.7V155.995C155.652 161.756 150.992 166.444 145.266 166.444H76.0274C70.3014 166.444 65.6416 161.756 65.6416 155.995V120.7C65.6416 118.777 67.1925 117.217 69.1035 117.217H152.19C154.101 117.217 155.652 118.777 155.652 120.7Z" fill="#D2DCE7"/>
<path d="M155.652 120.7V155.995C155.652 161.756 150.992 166.444 145.266 166.444H110.647V117.217H152.19C154.101 117.217 155.652 118.777 155.652 120.7Z" fill="#A1AEBC"/>
<path d="M141.804 120.7V149.029C141.804 150.952 140.253 152.512 138.342 152.512H82.9514C81.0404 152.512 79.4895 150.952 79.4895 149.029V120.7C79.4895 118.777 81.0404 117.217 82.9514 117.217H138.342C140.253 117.217 141.804 118.777 141.804 120.7Z" fill="#6E6E6E"/>
<path d="M141.804 120.7V149.029C141.804 150.952 140.253 152.512 138.342 152.512H110.647V117.217H138.342C140.253 117.217 141.804 118.777 141.804 120.7Z" fill="#444444"/>
<path d="M96.7988 138.115C94.8869 138.115 93.3369 136.556 93.3369 134.632V120.7C93.3369 118.776 94.8869 117.217 96.7988 117.217C98.7107 117.217 100.261 118.776 100.261 120.7V134.632C100.261 136.556 98.7107 138.115 96.7988 138.115Z" fill="#FED843"/>
<path d="M114.108 120.7V134.632C114.108 136.555 112.557 138.115 110.647 138.115C108.736 138.115 107.185 136.555 107.185 134.632V120.7C107.185 118.777 108.736 117.217 110.647 117.217C112.557 117.217 114.108 118.777 114.108 120.7Z" fill="#FED843"/>
<path d="M114.109 120.7V134.632C114.109 136.555 112.558 138.115 110.647 138.115V117.217C112.558 117.217 114.109 118.777 114.109 120.7Z" fill="#FFB64C"/>
<path d="M124.494 138.115C122.582 138.115 121.032 136.556 121.032 134.632V120.7C121.032 118.776 122.582 117.217 124.494 117.217C126.406 117.217 127.956 118.776 127.956 120.7V134.632C127.956 136.556 126.406 138.115 124.494 138.115Z" fill="#FFB64C"/>
<path d="M166.268 82.3861H159.114C157.202 82.3861 155.652 80.8266 155.652 78.903C155.652 76.9794 157.202 75.4199 159.114 75.4199H166.268C168.18 75.4199 169.73 76.9794 169.73 78.903C169.73 80.8266 168.18 82.3861 166.268 82.3861Z" fill="#292929"/>
<path d="M62.1796 82.3861H55.0249C53.113 82.3861 51.563 80.8266 51.563 78.903C51.563 76.9794 53.113 75.4199 55.0249 75.4199H62.1796C64.0915 75.4199 65.6415 76.9794 65.6415 78.903C65.6415 80.8266 64.0915 82.3861 62.1796 82.3861Z" fill="#444444"/>
<path d="M152.19 47.5547H69.1036C63.3775 47.5547 58.7178 52.2429 58.7178 58.0039V120.699C58.7178 122.622 60.2687 124.182 62.1797 124.182H159.114C161.025 124.182 162.576 122.622 162.576 120.699V58.0039C162.576 52.2429 157.916 47.5547 152.19 47.5547Z" fill="#EFF6FE"/>
<path d="M162.576 58.0039V120.699C162.576 122.622 161.025 124.182 159.114 124.182H110.647V47.5547H152.19C157.916 47.5547 162.576 52.2429 162.576 58.0039Z" fill="#D2DCE7"/>
<path d="M96.7988 103.285C98.7108 103.285 100.261 101.725 100.261 99.8014C100.261 97.8778 98.7108 96.3184 96.7988 96.3184C94.8869 96.3184 93.3369 97.8778 93.3369 99.8014C93.3369 101.725 94.8869 103.285 96.7988 103.285Z" fill="#FF6C6C"/>
<path d="M110.647 103.285C112.558 103.285 114.108 101.725 114.108 99.8014C114.108 97.8778 112.558 96.3184 110.647 96.3184C108.735 96.3184 107.185 97.8778 107.185 99.8014C107.185 101.725 108.735 103.285 110.647 103.285Z" fill="#FF6C6C"/>
<path d="M114.109 99.8014C114.109 101.724 112.558 103.285 110.647 103.285V96.3184C112.558 96.3184 114.109 97.8788 114.109 99.8014Z" fill="#E63950"/>
<path d="M124.494 103.285C126.406 103.285 127.956 101.725 127.956 99.8014C127.956 97.8778 126.406 96.3184 124.494 96.3184C122.582 96.3184 121.032 97.8778 121.032 99.8014C121.032 101.725 122.582 103.285 124.494 103.285Z" fill="#E63950"/>
<path d="M138.342 103.285C140.254 103.285 141.804 101.725 141.804 99.8014C141.804 97.8778 140.254 96.3184 138.342 96.3184C136.43 96.3184 134.88 97.8778 134.88 99.8014C134.88 101.725 136.43 103.285 138.342 103.285Z" fill="#E63950"/>
<path d="M82.9514 103.285C84.8634 103.285 86.4134 101.725 86.4134 99.8014C86.4134 97.8778 84.8634 96.3184 82.9514 96.3184C81.0395 96.3184 79.4895 97.8778 79.4895 99.8014C79.4895 101.725 81.0395 103.285 82.9514 103.285Z" fill="#FF6C6C"/>
<path d="M131.418 68.4531H76.0274C74.1164 68.4531 72.5654 70.0135 72.5654 71.9362V85.8685C72.5654 87.7912 74.1164 89.3516 76.0274 89.3516H131.418C133.329 89.3516 134.88 87.7912 134.88 85.8685V71.9362C134.88 70.0135 133.329 68.4531 131.418 68.4531Z" fill="#6E6E6E"/>
<path d="M134.88 71.9362V85.8685C134.88 87.7912 133.33 89.3516 131.419 89.3516H110.647V68.4531H131.419C133.33 68.4531 134.88 70.0135 134.88 71.9362Z" fill="#444444"/>
<path d="M79.4897 75.4199H86.4136V82.3861H79.4897V75.4199Z" fill="#444444"/>
<path d="M93.3372 75.4199H100.261V82.3861H93.3372V75.4199Z" fill="#444444"/>
<path d="M107.185 75.4199H114.109V82.3861H107.185V75.4199Z" fill="#444444"/>
<path d="M110.647 75.4199H114.109V82.3861H110.647V75.4199Z" fill="#292929"/>
<path d="M121.032 75.4199H127.956V82.3861H121.032V75.4199Z" fill="#292929"/>
<path d="M145.266 89.3516C143.354 89.3516 141.804 87.7921 141.804 85.8685V71.9362C141.804 70.0126 143.354 68.4531 145.266 68.4531C147.178 68.4531 148.728 70.0126 148.728 71.9362V85.8685C148.728 87.7921 147.178 89.3516 145.266 89.3516Z" fill="#444444"/>
</g>
<defs>
<filter id="filter0_d" x="0" y="73" width="10" height="68" filterUnits="userSpaceOnUse" color-interpolation-filters="sRGB">
<feFlood flood-opacity="0" result="BackgroundImageFix"/>
<feColorMatrix in="SourceAlpha" type="matrix" values="0 0 0 0 0 0 0 0 0 0 0 0 0 0 0 0 0 0 127 0"/>
<feOffset dx="1"/>
<feGaussianBlur stdDeviation="2"/>
<feColorMatrix type="matrix" values="0 0 0 0 0 0 0 0 0 0 0 0 0 0 0 0 0 0 0.1 0"/>
<feBlend mode="normal" in2="BackgroundImageFix" result="effect1_dropShadow"/>
<feBlend mode="normal" in="SourceGraphic" in2="effect1_dropShadow" result="shape"/>
</filter>
<clipPath id="clip0">
<rect width="118.167" height="118.889" fill="white" transform="translate(51.563 47.5547)"/>
</clipPath>
</defs>
</svg>
