<svg width="222" height="218" viewBox="0 0 222 218" fill="none" xmlns="http://www.w3.org/2000/svg">
<path d="M129 151.929L129 146.583L129 132.623L129 110.988L129 102.895L128.609 92.1142C127.73 89.5304 125.477 87.6881 122.833 87.6881L98.1667 87.6881C94.7627 87.6881 92 90.745 92 94.5115L92 132.623L92 141.57L92 151.929L92 173.564L92 182.743L92 192.87L92 196.864C92 200.631 94.7627 203.688 98.1667 203.688L122.833 203.688C126.237 203.688 129 200.631 129 196.864L129 151.929Z" fill="#EFF6FE"/>
<path d="M119.652 87.9354L111.848 87.9354L91.4714 87.9354L59.8911 87.9354L48.0781 87.9354L32.3413 88.3233C28.5697 89.197 25.8805 91.4346 25.8805 94.0601L25.8804 118.559C25.8804 121.94 30.3426 124.684 35.8406 124.684L91.4714 124.684L104.531 124.684L119.652 124.684L151.232 124.684L164.631 124.684L179.413 124.684L185.243 124.684C190.741 124.684 195.203 121.94 195.203 118.559L195.203 94.0601C195.203 90.6793 190.741 87.9354 185.243 87.9354L119.652 87.9354Z" fill="#EFF6FE"/>
<path d="M119.61 87.6856L108.665 87.6856L91.4138 87.6856L59.8159 87.6856L54.284 87.6856L32.2263 87.6856C28.4526 88.5891 25.7865 91.304 25.7865 94.0189L25.7865 106.686L195.203 106.686L195.203 94.0189C195.203 90.523 190.739 87.6856 185.237 87.6856L119.61 87.6856Z" fill="#D2DCE7"/>
<path d="M99.6811 87.9352L77.5018 87.9352L124.536 124.684L146.715 124.684L99.6811 87.9352Z" fill="#D2DCE7"/>
<path d="M140.854 87.9352L118.675 87.9352L165.709 124.684L187.889 124.684L140.854 87.9352Z" fill="#D2DCE7"/>
<path d="M59.9935 87.9352L41.0648 87.9352C40.098 87.9352 39.1678 88.074 38.3107 88.3231L84.8485 124.684L105.542 123.686L59.9935 87.9352Z" fill="#D2DCE7"/>
<path d="M105.702 123.648L86.7734 123.648C85.8066 123.648 84.8764 123.787 84.0193 124.036L84.7352 124.687L85.2305 124.687L92.3012 124.648L92.3012 130.507L128.707 158.951L128.707 141.622L105.702 123.648Z" fill="#D2DCE7"/>
<path d="M20.3637 87.9352L10.9257 89.6864C9.95891 89.6864 5.34299 92.4373 4.48591 92.6864L45.2187 124.684L67.3979 124.684L20.3637 87.9352Z" fill="#D2DCE7"/>
<mask id="mask0" mask-type="alpha" maskUnits="userSpaceOnUse" x="92" y="32" width="37" height="172">
<path d="M128.824 127.335L128.824 119.458L128.824 98.8911L128.824 67.0158L128.824 55.0925L128.437 39.2087C127.566 35.4019 125.334 32.6875 122.715 32.6875L98.2762 32.6875C94.9037 32.6875 92.1666 37.1913 92.1666 42.7407L92.1665 98.8911L92.1665 112.073L92.1665 127.335L92.1665 159.21L92.1665 172.734L92.1665 187.654L92.1665 193.539C92.1665 199.088 94.9036 203.592 98.2761 203.592L122.715 203.592C126.087 203.592 128.824 199.088 128.824 193.539L128.824 127.335Z" fill="#EFF6FE"/>
</mask>
<g mask="url(#mask0)">
<path d="M91.6678 144.188L90.7197 152.182C89.7463 152.194 86.5425 155.928 85.6826 156.188L125.664 186.762L130.806 186.7L147.993 186.494L91.6678 144.188Z" fill="#D2DCE7"/>
<path d="M130.806 190.688L125.664 186.762L130.806 186.7L130.806 190.688Z" fill="#D2DCE7"/>
<path d="M91.6678 174.358L90.7197 182.352C89.7463 182.364 86.5425 186.098 85.6826 186.358L125.664 216.932L130.806 216.87L147.993 216.664L91.6678 174.358Z" fill="#D2DCE7"/>
<path d="M130.806 220.857L125.664 216.932L130.806 216.87L130.806 220.857Z" fill="#D2DCE7"/>
</g>
<path d="M99.4247 87.6856L77.3048 87.6856L100.759 106.686L122.879 106.686L99.4247 87.6856Z" fill="#A1AEBC"/>
<path d="M141.036 87.6856L118.916 87.6856L142.37 106.686L164.49 106.686L141.036 87.6856Z" fill="#A1AEBC"/>
<mask id="mask1" mask-type="alpha" maskUnits="userSpaceOnUse" x="24" y="87" width="171" height="38">
<path d="M118.743 87.9354L110.866 87.9354L90.2988 87.9354L58.4234 87.9354L53.5107 92.6065L30.6161 88.3232C26.8093 89.197 24.0949 91.4346 24.0949 94.0601L24.0949 118.559C24.0949 121.94 28.5987 124.684 34.1481 124.684L90.2988 124.684L103.481 124.684L118.743 124.684L150.618 124.684L164.142 124.684L179.062 124.684L184.947 124.684C190.496 124.684 195 121.94 195 118.559L195 94.0601C195 90.6793 190.496 87.9354 184.947 87.9354L118.743 87.9354Z" fill="#EFF6FE"/>
<path d="M118.7 87.6856L107.653 87.6856L90.2407 87.6856L58.3475 87.6856L52.7639 87.6856L30.5248 88.0867C26.7159 88.9903 24 91.304 24 94.0189L24 106.686L195 106.686L195 94.0189C195 90.523 190.494 87.6857 184.941 87.6856L118.7 87.6856Z" fill="#D2DCE7"/>
</mask>
<g mask="url(#mask1)">
<path d="M179.526 87.9352L157.14 87.9352L204.613 124.684L227 124.684L179.526 87.9352Z" fill="#D2DCE7"/>
<path d="M179.709 87.6856L157.383 87.6856L181.056 106.686L203.383 106.686L179.709 87.6856Z" fill="#A1AEBC"/>
</g>
<path d="M83.6582 106.686L59.9464 87.6856L40.8611 87.6856C39.8862 87.6856 38.6666 87.6856 37.6759 87.6856L61.2953 106.686L83.6582 106.686Z" fill="#A1AEBC"/>
<path d="M44.0293 106.686L20.3175 87.6856L7.95435 89.6856C6.97953 89.6856 16.9581 101.284 6.46824 97.6856L21.6664 106.686L44.0293 106.686Z" fill="#A1AEBC"/>
<path d="M85.9375 214L133.937 214C137.249 214 139.938 213.259 139.938 212.346L139.938 185.654C139.938 184.741 137.25 184 133.938 184L85.9375 184C82.6255 184 79.9375 184.741 79.9375 185.654L79.9375 212.346C79.9375 213.259 82.6255 214 85.9375 214Z" fill="#6E6E6E"/>
<path d="M3.00002 83L3 131C3 134.312 3.74118 137 4.65441 137L31.3456 137C32.2588 137 33 134.312 33 131L33 83C33 79.688 32.2588 77 31.3456 77L4.65443 77C3.7412 77 3.00002 79.688 3.00002 83Z" fill="#6E6E6E"/>
<g filter="url(#filter0_d)">
<path d="M3.00002 83L3 131C3 134.312 3.04941 137 3.11029 137L4.88968 137C4.95056 137 4.99998 134.312 4.99998 131L5 83C5 79.688 4.95059 77 4.88971 77L3.11032 77C3.04943 77 3.00002 79.688 3.00002 83Z" fill="#444444"/>
</g>
<path d="M217 83L217 131C217 134.312 216.259 137 215.346 137L188.654 137C187.741 137 187 134.312 187 131L187 83C187 79.688 187.741 77 188.654 77L215.346 77C216.259 77 217 79.688 217 83Z" fill="#6E6E6E"/>
<g filter="url(#filter1_d)">
<path d="M85.9688 213.969L133.969 213.969C137.281 213.969 139.969 213.919 139.969 213.858L139.969 212.079C139.969 212.018 137.281 211.969 133.969 211.969L85.9688 211.969C82.6568 211.969 79.9688 212.018 79.9688 212.079L79.9688 213.858C79.9688 213.919 82.6567 213.969 85.9688 213.969Z" fill="#444444"/>
</g>
<g filter="url(#filter2_d)">
<path d="M217 83L217 131C217 134.312 216.951 137 216.89 137L215.11 137C215.049 137 215 134.312 215 131L215 83C215 79.688 215.049 77 215.11 77L216.89 77C216.951 77 217 79.688 217 83Z" fill="#444444"/>
</g>
<defs>
<filter id="filter0_d" x="0" y="73" width="9.99999" height="68" filterUnits="userSpaceOnUse" color-interpolation-filters="sRGB">
<feFlood flood-opacity="0" result="BackgroundImageFix"/>
<feColorMatrix in="SourceAlpha" type="matrix" values="0 0 0 0 0 0 0 0 0 0 0 0 0 0 0 0 0 0 127 0"/>
<feOffset dx="1"/>
<feGaussianBlur stdDeviation="2"/>
<feColorMatrix type="matrix" values="0 0 0 0 0 0 0 0 0 0 0 0 0 0 0 0 0 0 0.1 0"/>
<feBlend mode="normal" in2="BackgroundImageFix" result="effect1_dropShadow"/>
<feBlend mode="normal" in="SourceGraphic" in2="effect1_dropShadow" result="shape"/>
</filter>
<filter id="filter1_d" x="76.9688" y="207.969" width="68" height="10" filterUnits="userSpaceOnUse" color-interpolation-filters="sRGB">
<feFlood flood-opacity="0" result="BackgroundImageFix"/>
<feColorMatrix in="SourceAlpha" type="matrix" values="0 0 0 0 0 0 0 0 0 0 0 0 0 0 0 0 0 0 127 0"/>
<feOffset dx="1"/>
<feGaussianBlur stdDeviation="2"/>
<feColorMatrix type="matrix" values="0 0 0 0 0 0 0 0 0 0 0 0 0 0 0 0 0 0 0.1 0"/>
<feBlend mode="normal" in2="BackgroundImageFix" result="effect1_dropShadow"/>
<feBlend mode="normal" in="SourceGraphic" in2="effect1_dropShadow" result="shape"/>
</filter>
<filter id="filter2_d" x="212" y="73" width="10" height="68" filterUnits="userSpaceOnUse" color-interpolation-filters="sRGB">
<feFlood flood-opacity="0" result="BackgroundImageFix"/>
<feColorMatrix in="SourceAlpha" type="matrix" values="0 0 0 0 0 0 0 0 0 0 0 0 0 0 0 0 0 0 127 0"/>
<feOffset dx="1"/>
<feGaussianBlur stdDeviation="2"/>
<feColorMatrix type="matrix" values="0 0 0 0 0 0 0 0 0 0 0 0 0 0 0 0 0 0 0.1 0"/>
<feBlend mode="normal" in2="BackgroundImageFix" result="effect1_dropShadow"/>
<feBlend mode="normal" in="SourceGraphic" in2="effect1_dropShadow" result="shape"/>
</filter>
</defs>
</svg>
