<svg width="214" height="214" viewBox="0 0 214 214" fill="none" xmlns="http://www.w3.org/2000/svg">
<path d="M60.196 125.546L65.4929 125.546L79.3232 125.546L100.758 125.546L108.776 125.546L119.457 125.159C122.017 124.287 123.842 122.055 123.842 119.436L123.842 94.9983C123.842 91.6258 120.814 88.8887 117.082 88.8887L79.3232 88.8887L70.4589 88.8887L60.196 88.8887L38.7612 88.8887L29.6671 88.8887L19.6339 88.8887L15.6768 88.8887C11.9451 88.8887 8.9165 91.6258 8.9165 94.9982L8.9165 119.436C8.9165 122.809 11.9451 125.546 15.6768 125.546L60.196 125.546Z" fill="#EFF6FE"/>
<path d="M88.2147 102.464L88.2147 83.7105C88.2147 82.7527 88.0772 81.831 87.8304 80.9819L87.1859 81.6912L87.1859 82.182L87.2239 89.1871L81.4196 89.1871L53.2385 125.256L70.4071 125.256L88.2147 102.464Z" fill="#D2DCE7"/>
<mask id="mask0" mask-type="alpha" maskUnits="userSpaceOnUse" x="9" y="89" width="170" height="37">
<path d="M84.5627 125.373L92.3668 125.373L112.743 125.373L144.324 125.373L156.136 125.373L171.873 124.99C175.645 124.126 178.334 121.915 178.334 119.32L178.334 95.1078C178.334 91.7665 173.872 89.0547 168.374 89.0547L112.743 89.0547L99.6832 89.0547L84.5627 89.0547L52.9824 89.0547L39.584 89.0547L24.8019 89.0547L18.9719 89.0547C13.4739 89.0547 9.01172 91.7665 9.01172 95.1077L9.01171 119.32C9.01171 122.661 13.4739 125.373 18.9719 125.373L84.5627 125.373Z" fill="#EFF6FE"/>
</mask>
<g mask="url(#mask0)">
<path d="M67.8667 88.5609L59.9461 87.6216C59.9345 86.6573 56.2349 83.4831 55.9778 82.6312L25.6863 122.242L25.7475 127.337L25.9521 144.365L67.8667 88.5609Z" fill="#D2DCE7"/>
<path d="M21.7973 127.337L25.6863 122.242L25.7475 127.337L21.7973 127.337Z" fill="#D2DCE7"/>
<path d="M37.9761 88.5609L30.0555 87.6216C30.0439 86.6572 26.3443 83.4831 26.0872 82.6311L-4.20432 122.242L-4.14311 127.337L-3.93854 144.365L37.9761 88.5609Z" fill="#D2DCE7"/>
<path d="M-8.09331 127.337L-4.20432 122.242L-4.14311 127.337L-8.09331 127.337Z" fill="#D2DCE7"/>
</g>
<path d="M1.26653e-05 83L1.40726e-06 131C6.30452e-07 134.312 0.741177 137 1.65441 137L28.3456 137C29.2588 137 30 134.312 30 131L30 83C30 79.688 29.2588 77 28.3456 77L1.65443 77C0.741191 77 1.34421e-05 79.688 1.26653e-05 83Z" fill="#6E6E6E"/>
<path d="M1.26652e-05 83L1.40725e-06 131C6.30448e-07 134.312 0.0494114 137 0.110293 137L1.88969 137C1.95057 137 1.99998 134.312 1.99998 131L2 83C2 79.688 1.95059 77 1.8897 77L0.110307 77C0.0494254 77 1.3442e-05 79.688 1.26652e-05 83Z" fill="#444444"/>
<g clip-path="url(#clip0)">
<path d="M93.2479 166.509C91.3304 166.509 89.7759 164.954 89.7759 163.037L89.7759 155.63C89.7759 153.713 91.3304 152.158 93.2478 152.158C95.1653 152.158 96.7198 153.713 96.7198 155.63L96.7198 163.037C96.7198 164.954 95.1653 166.509 93.2479 166.509Z" fill="#FF6C6C"/>
<path d="M121.023 166.509C119.106 166.509 117.551 164.954 117.551 163.037L117.551 155.63C117.551 153.713 119.106 152.158 121.023 152.158C122.941 152.158 124.495 153.713 124.495 155.63L124.495 163.037C124.495 164.954 122.941 166.509 121.023 166.509Z" fill="#5BC980"/>
<path d="M110.607 155.63L110.607 163.037C110.607 164.954 109.051 166.509 107.135 166.509C105.218 166.509 103.663 164.954 103.663 163.037L103.663 155.63C103.663 153.714 105.218 152.158 107.135 152.158C109.051 152.158 110.607 153.714 110.607 155.63Z" fill="#FED843"/>
<path d="M110.607 155.63L110.607 163.037C110.607 164.954 109.052 166.509 107.135 166.509L107.135 152.158C109.052 152.158 110.607 153.714 110.607 155.63Z" fill="#FFB64C"/>
<path d="M152.271 90.2585L152.271 51.472C152.271 49.5554 150.715 48 148.799 48L65.4717 48C63.5552 48 61.9998 49.5554 61.9998 51.472L61.9998 155.631C61.9998 157.548 63.5552 159.103 65.4717 159.103L148.799 159.103C150.715 159.103 152.271 157.547 152.271 155.631L152.271 109.901C152.271 105.591 152.271 104.534 152.271 100.007C152.271 95.4796 152.271 94.2072 152.271 90.2585Z" fill="#EFF6FE"/>
<path d="M152.271 109.901L152.271 155.631C152.271 157.547 150.715 159.103 148.799 159.103L107.135 159.103L107.135 48L148.799 48C150.715 48 152.271 49.5554 152.271 51.472L152.271 90.2585L152.271 109.901Z" fill="#D2DCE7"/>
<path d="M130.745 97.9946L109.913 70.2189C109.219 69.293 108.177 68.8301 107.135 68.8301C106.094 68.8301 105.052 69.293 104.358 70.2189L83.526 97.9946C81.8108 100.281 83.4496 103.55 86.3036 103.55L127.967 103.55C130.826 103.55 132.458 100.277 130.745 97.9946Z" fill="#6E6E6E"/>
<path d="M127.967 103.55L107.135 103.55L107.135 68.8301C108.176 68.8301 109.218 69.293 109.912 70.2189L130.744 97.9946C132.457 100.277 130.825 103.55 127.967 103.55Z" fill="#444444"/>
<path d="M121.023 96.607L93.2476 96.607L107.135 78.0898L121.023 96.607Z" fill="#FED843"/>
<path d="M121.023 96.607L107.135 96.607L107.135 78.0898L121.023 96.607Z" fill="#FFB64C"/>
<path d="M131.439 127.855C131.439 129.771 129.884 131.327 127.967 131.327L86.3035 131.327C84.387 131.327 82.8315 129.771 82.8315 127.855C82.8315 125.938 84.387 124.383 86.3035 124.383L127.967 124.383C129.884 124.383 131.439 125.938 131.439 127.855Z" fill="#6E6E6E"/>
<path d="M131.439 113.966C131.439 115.883 129.884 117.438 127.967 117.438L86.3035 117.438C84.387 117.438 82.8315 115.883 82.8315 113.966C82.8315 112.05 84.387 110.494 86.3035 110.494L127.967 110.494C129.884 110.494 131.439 112.05 131.439 113.966Z" fill="#6E6E6E"/>
<path d="M131.439 127.855C131.439 129.771 129.883 131.327 127.967 131.327L107.135 131.327L107.135 124.383L127.967 124.383C129.883 124.383 131.439 125.938 131.439 127.855Z" fill="#444444"/>
<path d="M131.439 113.966C131.439 115.883 129.883 117.438 127.967 117.438L107.135 117.438L107.135 110.494L127.967 110.494C129.883 110.494 131.439 112.05 131.439 113.966Z" fill="#444444"/>
<path d="M79.3594 68.8307C81.2769 68.8307 82.8314 67.2762 82.8314 65.3587C82.8314 63.4412 81.2769 61.8867 79.3594 61.8867C77.4419 61.8867 75.8875 63.4412 75.8875 65.3587C75.8875 67.2762 77.4419 68.8307 79.3594 68.8307Z" fill="#D2DCE7"/>
<path d="M79.3594 145.215C81.2769 145.215 82.8314 143.661 82.8314 141.743C82.8314 139.826 81.2769 138.271 79.3594 138.271C77.4419 138.271 75.8875 139.826 75.8875 141.743C75.8875 143.661 77.4419 145.215 79.3594 145.215Z" fill="#D2DCE7"/>
<path d="M134.911 68.8307C136.829 68.8307 138.383 67.2762 138.383 65.3587C138.383 63.4412 136.829 61.8867 134.911 61.8867C132.994 61.8867 131.439 63.4412 131.439 65.3587C131.439 67.2762 132.994 68.8307 134.911 68.8307Z" fill="#A1AEBC"/>
<path d="M134.911 145.215C136.829 145.215 138.383 143.661 138.383 141.743C138.383 139.826 136.829 138.271 134.911 138.271C132.994 138.271 131.439 139.826 131.439 141.743C131.439 143.661 132.994 145.215 134.911 145.215Z" fill="#A1AEBC"/>
</g>
<defs>
<clipPath id="clip0">
<rect width="118.889" height="118.889" fill="white" transform="translate(47.9998 48)"/>
</clipPath>
</defs>
</svg>
