<svg width="219" height="214" viewBox="0 0 219 214" fill="none" xmlns="http://www.w3.org/2000/svg">
<path d="M152.813 89.1668L147.516 89.1668L133.686 89.1668L112.251 89.1668L104.233 89.1668L93.5521 89.5537C90.9921 90.4254 89.1668 92.6574 89.1668 95.2764L89.1668 119.715C89.1668 123.087 92.1955 125.824 95.9272 125.824L133.686 125.824L142.55 125.824L152.813 125.824L174.248 125.824L183.342 125.824L193.375 125.824L197.332 125.824C201.064 125.824 204.093 123.087 204.093 119.715L204.093 95.2764C204.093 91.9039 201.064 89.1668 197.332 89.1668L152.813 89.1668Z" fill="#EFF6FE"/>
<path d="M124.794 112.249L124.794 131.002C124.794 131.96 124.931 132.882 125.178 133.731L125.823 133.022L125.823 132.531L125.785 125.526L131.589 125.526L159.77 89.457L142.601 89.457L124.794 112.249Z" fill="#D2DCE7"/>
<mask id="mask0" mask-type="alpha" maskUnits="userSpaceOnUse" x="34" y="89" width="170" height="37">
<path d="M128.445 89.3399L120.641 89.3399L100.264 89.3399L68.6841 89.3399L56.8711 89.3399L41.1343 89.7232C37.3627 90.5868 34.6735 92.7982 34.6735 95.3929L34.6734 119.605C34.6734 122.946 39.1356 125.658 44.6336 125.658L100.264 125.658L113.324 125.658L128.445 125.658L160.025 125.658L173.424 125.658L188.206 125.658L194.036 125.658C199.534 125.658 203.996 122.946 203.996 119.605L203.996 95.393C203.996 92.0517 199.534 89.3399 194.036 89.3399L128.445 89.3399Z" fill="#EFF6FE"/>
</mask>
<g mask="url(#mask0)">
<path d="M145.142 126.154L153.063 127.093C153.074 128.058 156.774 131.232 157.031 132.084L187.322 92.4729L187.261 87.3778L187.057 70.3499L145.142 126.154Z" fill="#D2DCE7"/>
<path d="M191.211 87.3778L187.322 92.4729L187.261 87.3778L191.211 87.3778Z" fill="#D2DCE7"/>
<path d="M175.033 126.154L182.953 127.093C182.965 128.058 186.665 131.232 186.922 132.084L217.213 92.4729L217.152 87.3778L216.947 70.3499L175.033 126.154Z" fill="#D2DCE7"/>
<path d="M221.102 87.3778L217.213 92.4729L217.152 87.3778L221.102 87.3778Z" fill="#D2DCE7"/>
</g>
<path d="M213.722 131L213.722 83C213.722 79.688 212.988 77 212.083 77L185.639 77C184.734 77 184 79.688 184 83L184 131C184 134.312 184.734 137 185.639 137L212.083 137C212.988 137 213.722 134.312 213.722 131Z" fill="#6E6E6E"/>
<g filter="url(#filter0_d)">
<path d="M214 131L214 83C214 79.688 213.951 77 213.89 77L212.11 77C212.049 77 212 79.688 212 83L212 131C212 134.312 212.049 137 212.11 137L213.89 137C213.951 137 214 134.312 214 131Z" fill="#444444"/>
</g>
<g clip-path="url(#clip0)">
<path d="M152.277 120.7V155.995C152.277 161.756 147.588 166.444 141.827 166.444H72.166C66.405 166.444 61.7168 161.756 61.7168 155.995V120.7C61.7168 118.777 63.2772 117.217 65.1999 117.217H148.794C150.716 117.217 152.277 118.777 152.277 120.7Z" fill="#D2DCE7"/>
<path d="M152.277 120.7V155.995C152.277 161.756 147.589 166.444 141.828 166.444H106.997V117.217H148.794C150.717 117.217 152.277 118.777 152.277 120.7Z" fill="#A1AEBC"/>
<path d="M138.345 120.7V149.029C138.345 150.952 136.784 152.512 134.862 152.512H79.1325C77.2098 152.512 75.6494 150.952 75.6494 149.029V120.7C75.6494 118.777 77.2098 117.217 79.1325 117.217H134.862C136.784 117.217 138.345 118.777 138.345 120.7Z" fill="#6E6E6E"/>
<path d="M138.345 120.7V149.029C138.345 150.952 136.784 152.512 134.862 152.512H106.997V117.217H134.862C136.784 117.217 138.345 118.777 138.345 120.7Z" fill="#444444"/>
<path d="M93.0646 138.115C91.141 138.115 89.5815 136.556 89.5815 134.632V120.7C89.5815 118.776 91.141 117.217 93.0646 117.217C94.9882 117.217 96.5477 118.776 96.5477 120.7V134.632C96.5477 136.556 94.9882 138.115 93.0646 138.115Z" fill="#FED843"/>
<path d="M110.48 120.7V134.632C110.48 136.555 108.919 138.115 106.997 138.115C105.074 138.115 103.514 136.555 103.514 134.632V120.7C103.514 118.777 105.074 117.217 106.997 117.217C108.919 117.217 110.48 118.777 110.48 120.7Z" fill="#FED843"/>
<path d="M110.48 120.7V134.632C110.48 136.555 108.92 138.115 106.997 138.115V117.217C108.92 117.217 110.48 118.777 110.48 120.7Z" fill="#FFB64C"/>
<path d="M120.929 138.115C119.005 138.115 117.446 136.556 117.446 134.632V120.7C117.446 118.776 119.005 117.217 120.929 117.217C122.852 117.217 124.412 118.776 124.412 120.7V134.632C124.412 136.556 122.852 138.115 120.929 138.115Z" fill="#FFB64C"/>
<path d="M162.958 82.3861H155.76C153.836 82.3861 152.277 80.8266 152.277 78.903C152.277 76.9794 153.836 75.4199 155.76 75.4199H162.958C164.882 75.4199 166.441 76.9794 166.441 78.903C166.441 80.8266 164.882 82.3861 162.958 82.3861Z" fill="#292929"/>
<path d="M58.2337 82.3861H51.0353C49.1117 82.3861 47.5522 80.8266 47.5522 78.903C47.5522 76.9794 49.1117 75.4199 51.0353 75.4199H58.2337C60.1573 75.4199 61.7167 76.9794 61.7167 78.903C61.7167 80.8266 60.1573 82.3861 58.2337 82.3861Z" fill="#444444"/>
<path d="M148.794 47.5547H65.2002C59.4392 47.5547 54.751 52.2429 54.751 58.0039V120.699C54.751 122.622 56.3114 124.182 58.234 124.182H155.76C157.683 124.182 159.243 122.622 159.243 120.699V58.0039C159.243 52.2429 154.555 47.5547 148.794 47.5547Z" fill="#EFF6FE"/>
<path d="M159.243 58.0039V120.699C159.243 122.622 157.683 124.182 155.76 124.182H106.997V47.5547H148.794C154.555 47.5547 159.243 52.2429 159.243 58.0039Z" fill="#D2DCE7"/>
<path d="M93.0646 103.284C94.9883 103.284 96.5477 101.725 96.5477 99.8014C96.5477 97.8778 94.9883 96.3184 93.0646 96.3184C91.141 96.3184 89.5815 97.8778 89.5815 99.8014C89.5815 101.725 91.141 103.284 93.0646 103.284Z" fill="#FF6C6C"/>
<path d="M106.997 103.284C108.92 103.284 110.48 101.725 110.48 99.8014C110.48 97.8778 108.92 96.3184 106.997 96.3184C105.073 96.3184 103.514 97.8778 103.514 99.8014C103.514 101.725 105.073 103.284 106.997 103.284Z" fill="#FF6C6C"/>
<path d="M110.48 99.8014C110.48 101.724 108.92 103.284 106.997 103.284V96.3184C108.92 96.3184 110.48 97.8788 110.48 99.8014Z" fill="#E63950"/>
<path d="M120.929 103.284C122.853 103.284 124.412 101.725 124.412 99.8014C124.412 97.8778 122.853 96.3184 120.929 96.3184C119.005 96.3184 117.446 97.8778 117.446 99.8014C117.446 101.725 119.005 103.284 120.929 103.284Z" fill="#E63950"/>
<path d="M134.861 103.284C136.785 103.284 138.344 101.725 138.344 99.8014C138.344 97.8778 136.785 96.3184 134.861 96.3184C132.937 96.3184 131.378 97.8778 131.378 99.8014C131.378 101.725 132.937 103.284 134.861 103.284Z" fill="#E63950"/>
<path d="M79.1325 103.284C81.0561 103.284 82.6156 101.725 82.6156 99.8014C82.6156 97.8778 81.0561 96.3184 79.1325 96.3184C77.2088 96.3184 75.6494 97.8778 75.6494 99.8014C75.6494 101.725 77.2088 103.284 79.1325 103.284Z" fill="#FF6C6C"/>
<path d="M127.895 68.4531H72.1662C70.2435 68.4531 68.6831 70.0135 68.6831 71.9362V85.8685C68.6831 87.7912 70.2435 89.3516 72.1662 89.3516H127.895C129.818 89.3516 131.378 87.7912 131.378 85.8685V71.9362C131.378 70.0135 129.818 68.4531 127.895 68.4531Z" fill="#6E6E6E"/>
<path d="M131.379 71.9362V85.8685C131.379 87.7912 129.818 89.3516 127.896 89.3516H106.997V68.4531H127.896C129.818 68.4531 131.379 70.0135 131.379 71.9362Z" fill="#444444"/>
<path d="M75.6494 75.4199H82.6156V82.3861H75.6494V75.4199Z" fill="#444444"/>
<path d="M89.5815 75.4199H96.5477V82.3861H89.5815V75.4199Z" fill="#444444"/>
<path d="M103.514 75.4199H110.48V82.3861H103.514V75.4199Z" fill="#444444"/>
<path d="M106.997 75.4199H110.48V82.3861H106.997V75.4199Z" fill="#292929"/>
<path d="M117.446 75.4199H124.412V82.3861H117.446V75.4199Z" fill="#292929"/>
<path d="M141.828 89.3516C139.904 89.3516 138.345 87.7921 138.345 85.8685V71.9362C138.345 70.0126 139.904 68.4531 141.828 68.4531C143.751 68.4531 145.311 70.0126 145.311 71.9362V85.8685C145.311 87.7921 143.751 89.3516 141.828 89.3516Z" fill="#444444"/>
</g>
<defs>
<filter id="filter0_d" x="209" y="73" width="10" height="68" filterUnits="userSpaceOnUse" color-interpolation-filters="sRGB">
<feFlood flood-opacity="0" result="BackgroundImageFix"/>
<feColorMatrix in="SourceAlpha" type="matrix" values="0 0 0 0 0 0 0 0 0 0 0 0 0 0 0 0 0 0 127 0"/>
<feOffset dx="1"/>
<feGaussianBlur stdDeviation="2"/>
<feColorMatrix type="matrix" values="0 0 0 0 0 0 0 0 0 0 0 0 0 0 0 0 0 0 0.1 0"/>
<feBlend mode="normal" in2="BackgroundImageFix" result="effect1_dropShadow"/>
<feBlend mode="normal" in="SourceGraphic" in2="effect1_dropShadow" result="shape"/>
</filter>
<clipPath id="clip0">
<rect width="118.889" height="118.889" fill="white" transform="translate(47.5522 47.5547)"/>
</clipPath>
</defs>
</svg>
