<svg width="171" height="171" viewBox="0 0 171 171" fill="none" xmlns="http://www.w3.org/2000/svg">
<path d="M77.1879 72.1455L83.1051 72.1455L98.5549 72.1455L122.5 72.1455L131.456 72.1455L143.388 72.4367C146.248 73.0927 148.287 74.7727 148.287 76.7439L148.287 95.1378C148.287 97.6762 144.904 99.7363 140.735 99.7363L98.555 99.7363L88.6526 99.7363L77.1879 99.7363L53.2432 99.7363L43.0842 99.7363L31.8762 99.7363L27.4558 99.7363C23.2871 99.7363 19.9038 97.6762 19.9038 95.1379L19.9038 76.7439C19.9038 74.2056 23.2871 72.1455 27.4558 72.1455L77.1879 72.1455Z" fill="#EFF6FE"/>
<path d="M98.5938 78.9086L98.5938 84.8227L98.5938 100.264L98.5938 124.197L98.5938 133.149L98.3024 145.075C97.646 147.933 95.9651 149.971 93.9929 149.971L75.5894 149.971C73.0497 149.971 70.9885 146.589 70.9885 142.423L70.9885 100.264L70.9885 90.3673L70.9885 78.9086L70.9885 54.9763L70.9885 44.8227L70.9885 33.6204L70.9885 29.2023C70.9885 25.0358 73.0497 21.6543 75.5894 21.6543L93.9929 21.6543C96.5326 21.6543 98.5938 25.0358 98.5938 29.2023L98.5938 78.9086Z" fill="#EFF6FE"/>
<path d="M71.7656 89.4802L71.7656 103.825C71.7656 104.557 71.6613 105.262 71.4742 105.912L70.9855 105.369L70.9855 104.994L70.9855 99.7384L66.8539 99.7384L55.586 85.4731L45.4448 72.334L58.2152 72.334L71.7656 89.4802Z" fill="#D2DCE7"/>
<path d="M98.592 154.151L97.2764 161.304C97.2764 162.036 95.2099 165.534 95.0228 166.184L70.9866 135.316L70.9866 118.508L98.592 154.151Z" fill="#D2DCE7"/>
<mask id="mask0" mask-type="alpha" maskUnits="userSpaceOnUse" x="11" y="72" width="142" height="31">
<path d="M74.554 72.1463L81.0452 72.1463L97.9939 72.1463L124.262 72.1463L134.087 72.1463L147.177 72.466C150.314 73.186 152.551 75.03 152.551 77.1935L152.551 97.3825C152.551 100.169 148.839 102.43 144.266 102.43L97.9939 102.43L87.1309 102.43L74.554 102.43L48.2862 102.43L37.1417 102.43L24.8463 102.43L19.997 102.43C15.4239 102.43 11.7124 100.169 11.7124 97.3825L11.7124 77.1935C11.7124 74.4075 15.4239 72.1463 19.997 72.1463L74.554 72.1463Z" fill="#EFF6FE"/>
</mask>
<g mask="url(#mask0)">
<path d="M60.6683 102.842L54.0801 103.625C54.0705 104.429 50.9932 107.076 50.7794 107.786L25.5836 74.7574L25.8047 56.3105L60.6683 102.842Z" fill="#D2DCE7"/>
<path d="M40.8875 76.4706L41.1213 87.1836L48.9319 87.1836L40.8875 76.4706Z" fill="#A1AEBC"/>
<path d="M25.6421 59.7543L25.6421 75.629L34.815 87.1836L41.1213 87.1836L40.8875 76.4706L35.9431 69.878L25.6421 57.1049L25.6421 59.7543Z" fill="#A1AEBC"/>
<path d="M66.2178 76.4706L66.4516 87.1836L74.2622 87.1836L66.2178 76.4706Z" fill="#A1AEBC"/>
<path d="M50.9725 59.7543L48.3039 71.9382L60.1453 87.1836L66.4516 87.1836L66.2178 76.4706L61.2734 69.878L50.9725 57.1049L50.9725 59.7543Z" fill="#A1AEBC"/>
</g>
<mask id="mask1" mask-type="alpha" maskUnits="userSpaceOnUse" x="38" y="72" width="129" height="28">
<path d="M95.8036 72.2028L101.672 72.2028L116.993 72.2028L140.738 72.2028L149.62 72.2028L161.453 72.4907C164.289 73.1394 166.311 74.8006 166.311 76.7497L166.311 94.9374C166.311 97.4473 162.956 99.4844 158.822 99.4844L116.993 99.4844L107.173 99.4844L95.8036 99.4844L72.0583 99.4844L61.984 99.4844L50.8692 99.4844L46.4856 99.4844C42.3517 99.4844 38.9966 97.4473 38.9966 94.9374L38.9966 76.7497C38.9966 74.2398 42.3517 72.2028 46.4856 72.2028L95.8036 72.2028Z" fill="#EFF6FE"/>
</mask>
<g mask="url(#mask1)">
<path d="M110.799 109.887L110.799 126.606L96.5264 108.259L96.5264 91.3594L110.799 109.887Z" fill="#A1AEBC"/>
<path d="M128.453 101.24L125.823 114.728L98.218 79.0908L98.0291 61.8223L128.453 101.24Z" fill="#A1AEBC"/>
<path d="M146.107 94.4604L146.107 111.347L118.502 75.7099L118.313 58.4414L139.722 86.2212L146.107 94.4604Z" fill="#A1AEBC"/>
<path d="M118.502 75.7099L118.313 58.4414L111.176 66.7003L118.502 75.7099Z" fill="#A1AEBC"/>
<mask id="mask2" mask-type="alpha" maskUnits="userSpaceOnUse" x="111" y="59" width="36" height="54">
<path d="M146.858 95.2124L146.858 112.099L132.961 94.4812C132.961 94.4812 126.26 85.6729 126.296 85.7917C126.331 85.9104 124.322 83.2191 124.322 83.2191L119.253 76.4619L119.064 59.1934L129.581 73.0833L143.478 91.1026L146.858 95.2124Z" fill="#A1AEBC"/>
<path d="M119.253 76.4619L119.064 59.1934L111.928 67.4522L119.253 76.4619Z" fill="#A1AEBC"/>
</mask>
<g mask="url(#mask2)">
<path d="M144.333 85.8438L143.954 103.274L107.579 102.137L96.5905 85.8437L144.333 85.8438Z" fill="#D2DCE7"/>
</g>
<mask id="mask3" mask-type="alpha" maskUnits="userSpaceOnUse" x="89" y="59" width="36" height="54">
<path d="M124.007 95.2124L124.007 112.099L110.109 94.4812C110.109 94.4812 103.409 85.6729 103.444 85.7917C103.479 85.9104 101.471 83.2191 101.471 83.2191L96.4012 76.4619L96.2123 59.1934L106.729 73.0833L120.626 91.1026L124.007 95.2124Z" fill="#A1AEBC"/>
<path d="M96.4012 76.4619L96.2123 59.1934L89.0759 67.4522L96.4012 76.4619Z" fill="#A1AEBC"/>
</mask>
<g mask="url(#mask3)">
<path d="M121.001 85.8477L120.878 91.4787L120.682 100.488L120.625 103.116L84.5679 101.99L73.6755 85.8477L121.001 85.8477Z" fill="#D2DCE7"/>
<path d="M127.326 99.7376L120.878 91.4787L120.682 100.488L127.326 100.488L127.326 99.7376Z" fill="#D2DCE7"/>
</g>
</g>
<mask id="mask4" mask-type="alpha" maskUnits="userSpaceOnUse" x="70" y="21" width="29" height="129">
<path d="M98.5938 78.9086L98.5938 84.8227L98.5938 100.264L98.5938 124.197L98.5938 133.149L98.3024 145.075C97.646 147.933 95.9651 149.971 93.9929 149.971L75.5894 149.971C73.0497 149.971 70.9885 146.589 70.9885 142.423L70.9885 100.264L70.9885 90.3673L70.9885 78.9086L70.9885 54.9763L70.9885 44.8227L70.9885 33.6204L70.9885 29.2023C70.9885 25.0358 73.0497 21.6543 75.5894 21.6543L93.9929 21.6543C96.5326 21.6543 98.5938 25.0358 98.5938 29.2023L98.5938 78.9086Z" fill="#EFF6FE"/>
</mask>
<g mask="url(#mask4)">
<path d="M98.5944 94.044L98.5944 110.852L70.989 75.2083L70.989 58.4004L98.5944 94.044Z" fill="#D2DCE7"/>
<path d="M98.5944 62.8409L98.5944 79.6488L70.989 44.0052L70.989 27.1973L98.5944 62.8409Z" fill="#D2DCE7"/>
<path d="M98.5944 124.119L98.5944 138.463C98.5944 139.196 98.4901 139.901 98.303 140.551L70.989 105.283L71.7382 89.6016L98.5944 124.119Z" fill="#D2DCE7"/>
<path d="M98.7808 94.2829L98.7808 111.001L84.5081 92.6553L84.5081 75.873L98.7808 94.2829Z" fill="#A1AEBC"/>
<path d="M98.7808 62.7354L98.7804 79.8737L84.5081 61.4633L84.5081 44.7031L98.7808 62.7354Z" fill="#A1AEBC"/>
<path d="M98.5944 33.2725L98.5944 50.0805L70.989 14.4369L70.989 -2.37109L98.5944 33.2725Z" fill="#D2DCE7"/>
<path d="M98.7808 32.9147L98.7808 50.3025L84.5081 31.9036L84.5081 15.1406L98.7808 32.9147Z" fill="#A1AEBC"/>
<path d="M84.5081 106.018L98.7808 124.153L98.7808 138.616C98.7808 139.355 98.7808 140.279 98.7808 141.03L84.5081 122.743L84.5081 106.018Z" fill="#A1AEBC"/>
</g>
<path d="M84.5076 136.217L98.7803 154.186L97.2779 163.555C97.2779 164.294 88.5649 156.732 91.2683 164.681L84.5076 153.164L84.5076 136.217Z" fill="#A1AEBC"/>
<path d="M124.696 96.361L122.067 92.9824L123.569 99.7397L127.313 99.7249L124.696 96.361Z" fill="#D2DCE7"/>
<path d="M3.75781 104.714L3.75781 67.7321C3.75781 65.1804 4.31949 63.1094 5.01156 63.1094L25.2387 63.1094C25.9308 63.1094 26.4925 65.1804 26.4925 67.7321L26.4925 104.714C26.4925 107.266 25.9308 109.337 25.2387 109.337L5.01157 109.337C4.3195 109.337 3.75782 107.266 3.75781 104.714V104.714Z" fill="#6E6E6E"/>
<g filter="url(#filter0_d)">
<path d="M3.75781 104.714L3.75781 67.7321C3.75781 65.1804 3.79526 63.1094 3.8414 63.1094L5.18987 63.1094C5.23601 63.1094 5.27345 65.1804 5.27345 67.7321L5.27345 104.714C5.27345 107.266 5.23601 109.337 5.18987 109.337L3.8414 109.337C3.79526 109.337 3.75782 107.266 3.75781 104.714V104.714Z" fill="#444444"/>
</g>
<path d="M65.9744 4.75781L102.956 4.75781C105.508 4.75781 107.579 5.31949 107.579 6.01156L107.579 26.2387C107.579 26.9308 105.508 27.4925 102.956 27.4925L65.9744 27.4925C63.4227 27.4925 61.3517 26.9308 61.3517 26.2387L61.3517 6.01156C61.3517 5.31949 63.4227 4.75781 65.9744 4.75781V4.75781Z" fill="#6E6E6E"/>
<g filter="url(#filter1_d)">
<path d="M65.9744 4.75781L102.956 4.75781C105.508 4.75781 107.579 4.79526 107.579 4.8414L107.579 6.18987C107.579 6.236 105.508 6.27345 102.956 6.27345L65.9744 6.27345C63.4227 6.27345 61.3517 6.23601 61.3517 6.18987L61.3517 4.8414C61.3517 4.79526 63.4227 4.75781 65.9744 4.75781V4.75781Z" fill="#444444"/>
</g>
<path d="M165.931 103.956L165.931 66.9743C165.931 64.4225 165.388 62.3516 164.719 62.3516L145.166 62.3516C144.497 62.3516 143.954 64.4225 143.954 66.9743L143.954 103.956C143.954 106.508 144.497 108.579 145.166 108.579L164.719 108.579C165.388 108.579 165.931 106.508 165.931 103.956V103.956Z" fill="#6E6E6E"/>
<g filter="url(#filter2_d)">
<path d="M165.931 103.956L165.931 66.9743C165.931 64.4225 165.894 62.3516 165.848 62.3516L164.499 62.3516C164.453 62.3516 164.416 64.4225 164.416 66.9743L164.416 103.956C164.416 106.508 164.453 108.579 164.499 108.579L165.848 108.579C165.894 108.579 165.931 106.508 165.931 103.956V103.956Z" fill="#444444"/>
</g>
<path d="M66.7335 166.932L103.715 166.932C106.267 166.932 108.338 166.389 108.338 165.72L108.338 146.167C108.338 145.498 106.267 144.955 103.715 144.955L66.7335 144.955C64.1817 144.955 62.1107 145.498 62.1107 146.167L62.1107 165.72C62.1107 166.389 64.1817 166.932 66.7335 166.932V166.932Z" fill="#6E6E6E"/>
<g filter="url(#filter3_d)">
<path d="M66.7335 166.932L103.715 166.932C106.267 166.932 108.338 166.894 108.338 166.848L108.338 165.5C108.338 165.453 106.267 165.416 103.715 165.416L66.7335 165.416C64.1817 165.416 62.1107 165.453 62.1107 165.5L62.1107 166.848C62.1107 166.894 64.1817 166.932 66.7335 166.932V166.932Z" fill="#444444"/>
</g>
<defs>
<filter id="filter0_d" x="0.757812" y="59.1094" width="9.51564" height="54.2271" filterUnits="userSpaceOnUse" color-interpolation-filters="sRGB">
<feFlood flood-opacity="0" result="BackgroundImageFix"/>
<feColorMatrix in="SourceAlpha" type="matrix" values="0 0 0 0 0 0 0 0 0 0 0 0 0 0 0 0 0 0 127 0"/>
<feOffset dx="1"/>
<feGaussianBlur stdDeviation="2"/>
<feColorMatrix type="matrix" values="0 0 0 0 0 0 0 0 0 0 0 0 0 0 0 0 0 0 0.1 0"/>
<feBlend mode="normal" in2="BackgroundImageFix" result="effect1_dropShadow"/>
<feBlend mode="normal" in="SourceGraphic" in2="effect1_dropShadow" result="shape"/>
</filter>
<filter id="filter1_d" x="58.3518" y="0.757812" width="54.2271" height="9.51564" filterUnits="userSpaceOnUse" color-interpolation-filters="sRGB">
<feFlood flood-opacity="0" result="BackgroundImageFix"/>
<feColorMatrix in="SourceAlpha" type="matrix" values="0 0 0 0 0 0 0 0 0 0 0 0 0 0 0 0 0 0 127 0"/>
<feOffset dx="1"/>
<feGaussianBlur stdDeviation="2"/>
<feColorMatrix type="matrix" values="0 0 0 0 0 0 0 0 0 0 0 0 0 0 0 0 0 0 0.1 0"/>
<feBlend mode="normal" in2="BackgroundImageFix" result="effect1_dropShadow"/>
<feBlend mode="normal" in="SourceGraphic" in2="effect1_dropShadow" result="shape"/>
</filter>
<filter id="filter2_d" x="161.416" y="58.3516" width="9.51564" height="54.2271" filterUnits="userSpaceOnUse" color-interpolation-filters="sRGB">
<feFlood flood-opacity="0" result="BackgroundImageFix"/>
<feColorMatrix in="SourceAlpha" type="matrix" values="0 0 0 0 0 0 0 0 0 0 0 0 0 0 0 0 0 0 127 0"/>
<feOffset dx="1"/>
<feGaussianBlur stdDeviation="2"/>
<feColorMatrix type="matrix" values="0 0 0 0 0 0 0 0 0 0 0 0 0 0 0 0 0 0 0.1 0"/>
<feBlend mode="normal" in2="BackgroundImageFix" result="effect1_dropShadow"/>
<feBlend mode="normal" in="SourceGraphic" in2="effect1_dropShadow" result="shape"/>
</filter>
<filter id="filter3_d" x="59.1108" y="161.416" width="54.2271" height="9.51564" filterUnits="userSpaceOnUse" color-interpolation-filters="sRGB">
<feFlood flood-opacity="0" result="BackgroundImageFix"/>
<feColorMatrix in="SourceAlpha" type="matrix" values="0 0 0 0 0 0 0 0 0 0 0 0 0 0 0 0 0 0 127 0"/>
<feOffset dx="1"/>
<feGaussianBlur stdDeviation="2"/>
<feColorMatrix type="matrix" values="0 0 0 0 0 0 0 0 0 0 0 0 0 0 0 0 0 0 0.1 0"/>
<feBlend mode="normal" in2="BackgroundImageFix" result="effect1_dropShadow"/>
<feBlend mode="normal" in="SourceGraphic" in2="effect1_dropShadow" result="shape"/>
</filter>
</defs>
</svg>
