<svg width="164" height="168" viewBox="0 0 164 168" fill="none" xmlns="http://www.w3.org/2000/svg">
<g filter="url(#filter0_i)">
<rect width="163.69" height="163.69" transform="matrix(-1 0 0 1 163.689 4.00391)" fill="#7C7345" fill-opacity="0.2"/>
</g>
<path d="M68.0944 50.0442L68.0944 54.0959L68.0944 64.6748L68.0944 81.0704L68.0944 87.2033L68.3903 95.3734C69.057 97.3315 70.7643 98.7277 72.7676 98.7277L91.4605 98.7277C94.0401 98.7277 96.1338 96.4111 96.1338 93.5567L96.1338 64.6748L96.1338 57.8944L96.1338 50.0442L96.1338 33.6487L96.1338 26.6926L96.1338 19.0181L96.1338 15.9913C96.1338 13.1369 94.0402 10.8203 91.4606 10.8203L72.7676 10.8203C70.188 10.8203 68.0944 13.1369 68.0944 15.9913L68.0944 50.0442Z" fill="#EFF6FE"/>
<path d="M85.7498 71.4761L100.094 71.4761C100.827 71.4761 101.532 71.3709 102.182 71.1822L101.639 70.6892L101.264 70.6892L95.9053 70.7182L95.9053 66.2785L68.3162 44.7227L68.3162 57.855L85.7498 71.4761Z" fill="#D2DCE7"/>
<mask id="mask0" mask-type="alpha" maskUnits="userSpaceOnUse" x="68" y="10" width="29" height="131">
<path d="M68.2275 68.6819L68.2275 74.6513L68.2275 90.2374L68.2275 114.393L68.2275 123.429L68.5207 135.466C69.1813 138.351 70.8728 140.408 72.8575 140.408L91.3775 140.408C93.9333 140.408 96.0075 136.995 96.0075 132.79L96.0075 90.2374L96.0075 80.2477L96.0075 68.6819L96.0076 44.526L96.0076 34.2775L96.0076 22.9705L96.0076 18.5111C96.0076 14.3057 93.9333 10.8926 91.3776 10.8926L72.8575 10.8926C70.3018 10.8926 68.2275 14.3057 68.2275 18.5111L68.2275 68.6819Z" fill="#EFF6FE"/>
</mask>
<g mask="url(#mask0)">
<path d="M96.3857 55.9119L97.1041 49.8534C97.8418 49.8445 100.27 47.0146 100.921 46.818L70.6229 23.6479L66.7256 23.6947L53.7009 23.8512L96.3857 55.9119Z" fill="#D2DCE7"/>
<path d="M66.7256 20.6732L70.6229 23.6479L66.7256 23.6947L66.7256 20.6732Z" fill="#D2DCE7"/>
<path d="M96.3857 33.0467L97.1041 26.9882C97.8418 26.9793 100.27 24.1494 100.921 23.9528L70.6229 0.782657L66.7256 0.829476L53.7009 0.985946L96.3857 33.0467Z" fill="#D2DCE7"/>
<path d="M66.7256 -2.19206L70.6229 0.782657L66.7256 0.829476L66.7256 -2.19206Z" fill="#D2DCE7"/>
</g>
<path d="M100.103 4.00002L63.121 4C60.5693 4 58.4983 4.56168 58.4983 5.25375L58.4983 25.4809C58.4983 26.173 60.5693 26.7347 63.121 26.7347L100.103 26.7347C102.654 26.7347 104.725 26.173 104.725 25.4809L104.725 5.25377C104.725 4.5617 102.654 4.00002 100.103 4.00002V4.00002Z" fill="#6E6E6E"/>
<g filter="url(#filter1_d)">
<path d="M100.103 4.00002L63.121 4C60.5693 4 58.4983 4.03744 58.4983 4.08358L58.4983 5.43204C58.4983 5.47818 60.5693 5.51563 63.121 5.51563L100.103 5.51564C102.654 5.51564 104.725 5.4782 104.725 5.43206L104.725 4.0836C104.725 4.03746 102.654 4.00002 100.103 4.00002V4.00002Z" fill="#444444"/>
</g>
<path d="M69.9941 131C68.5218 131 67.3281 129.806 67.3281 128.334V122.646C67.3281 121.174 68.5218 119.98 69.9941 119.98C71.4665 119.98 72.6602 121.174 72.6602 122.646V128.334C72.6602 129.806 71.4665 131 69.9941 131Z" fill="#FF6C6C"/>
<path d="M91.3223 131C89.8499 131 88.6562 129.806 88.6562 128.334V122.646C88.6562 121.174 89.8499 119.98 91.3223 119.98C92.7946 119.98 93.9883 121.174 93.9883 122.646V128.334C93.9883 129.806 92.7946 131 91.3223 131Z" fill="#5BC980"/>
<path d="M83.324 122.646V128.334C83.324 129.806 82.1296 131 80.658 131C79.1863 131 77.9919 129.806 77.9919 128.334V122.646C77.9919 121.175 79.1863 119.98 80.658 119.98C82.1296 119.98 83.324 121.175 83.324 122.646Z" fill="#FED843"/>
<path d="M83.324 122.646V128.334C83.324 129.806 82.1296 131 80.658 131V119.98C82.1296 119.98 83.324 121.175 83.324 122.646Z" fill="#FFB64C"/>
<path d="M115.316 72.449V42.666C115.316 41.1944 114.122 40 112.65 40H48.666C47.1944 40 46 41.1944 46 42.666V122.646C46 124.118 47.1944 125.312 48.666 125.312H112.65C114.122 125.312 115.316 124.118 115.316 122.646V87.5315C115.316 84.2224 115.316 83.4111 115.316 79.9346C115.316 76.4581 115.316 75.4811 115.316 72.449Z" fill="#EFF6FE"/>
<path d="M115.316 87.5315V122.646C115.316 124.118 114.122 125.312 112.65 125.312H80.658V40H112.65C114.122 40 115.316 41.1944 115.316 42.666V72.449V87.5315Z" fill="#D2DCE7"/>
<path d="M98.7871 78.3906L82.791 57.0625C82.2578 56.3516 81.458 55.9961 80.6582 55.9961C79.8584 55.9961 79.0586 56.3516 78.5254 57.0625L62.5293 78.3906C61.2123 80.1466 62.4706 82.6563 64.6621 82.6563H96.6543C98.8493 82.6563 100.102 80.1431 98.7871 78.3906Z" fill="#6E6E6E"/>
<path d="M96.6541 82.6563H80.658V55.9961C81.4578 55.9961 82.2576 56.3516 82.7908 57.0625L98.7869 78.3906C100.102 80.1431 98.8491 82.6563 96.6541 82.6563Z" fill="#444444"/>
<path d="M91.322 77.3242H69.9939L80.658 63.1055L91.322 77.3242Z" fill="#FED843"/>
<path d="M91.322 77.3242H80.658V63.1055L91.322 77.3242Z" fill="#FFB64C"/>
<path d="M99.3206 101.318C99.3206 102.79 98.1262 103.984 96.6545 103.984H64.6624C63.1907 103.984 61.9963 102.79 61.9963 101.318C61.9963 99.8467 63.1907 98.6523 64.6624 98.6523H96.6545C98.1262 98.6523 99.3206 99.8467 99.3206 101.318Z" fill="#6E6E6E"/>
<path d="M99.3206 90.6543C99.3206 92.1259 98.1262 93.3203 96.6545 93.3203H64.6624C63.1907 93.3203 61.9963 92.1259 61.9963 90.6543C61.9963 89.1827 63.1907 87.9883 64.6624 87.9883H96.6545C98.1262 87.9883 99.3206 89.1827 99.3206 90.6543Z" fill="#6E6E6E"/>
<path d="M99.3201 101.318C99.3201 102.79 98.1257 103.984 96.6541 103.984H80.658V98.6523H96.6541C98.1257 98.6523 99.3201 99.8467 99.3201 101.318Z" fill="#444444"/>
<path d="M99.3201 90.6543C99.3201 92.1259 98.1257 93.3203 96.6541 93.3203H80.658V87.9883H96.6541C98.1257 87.9883 99.3201 89.1827 99.3201 90.6543Z" fill="#444444"/>
<path d="M59.3298 55.9961C60.8022 55.9961 61.9958 54.8025 61.9958 53.3301C61.9958 51.8577 60.8022 50.6641 59.3298 50.6641C57.8574 50.6641 56.6638 51.8577 56.6638 53.3301C56.6638 54.8025 57.8574 55.9961 59.3298 55.9961Z" fill="#D2DCE7"/>
<path d="M59.3298 114.648C60.8022 114.648 61.9958 113.455 61.9958 111.982C61.9958 110.51 60.8022 109.316 59.3298 109.316C57.8574 109.316 56.6638 110.51 56.6638 111.982C56.6638 113.455 57.8574 114.648 59.3298 114.648Z" fill="#D2DCE7"/>
<path d="M101.987 55.9961C103.459 55.9961 104.653 54.8025 104.653 53.3301C104.653 51.8577 103.459 50.6641 101.987 50.6641C100.514 50.6641 99.3206 51.8577 99.3206 53.3301C99.3206 54.8025 100.514 55.9961 101.987 55.9961Z" fill="#A1AEBC"/>
<path d="M101.987 114.648C103.459 114.648 104.653 113.455 104.653 111.982C104.653 110.51 103.459 109.316 101.987 109.316C100.514 109.316 99.3206 110.51 99.3206 111.982C99.3206 113.455 100.514 114.648 101.987 114.648Z" fill="#A1AEBC"/>
<defs>
<filter id="filter0_i" x="0" y="4.00391" width="163.69" height="163.69" filterUnits="userSpaceOnUse" color-interpolation-filters="sRGB">
<feFlood flood-opacity="0" result="BackgroundImageFix"/>
<feBlend mode="normal" in="SourceGraphic" in2="BackgroundImageFix" result="shape"/>
<feColorMatrix in="SourceAlpha" type="matrix" values="0 0 0 0 0 0 0 0 0 0 0 0 0 0 0 0 0 0 127 0" result="hardAlpha"/>
<feMorphology radius="1" operator="erode" in="SourceAlpha" result="effect1_innerShadow"/>
<feOffset/>
<feComposite in2="hardAlpha" operator="arithmetic" k2="-1" k3="1"/>
<feColorMatrix type="matrix" values="0 0 0 0 1 0 0 0 0 1 0 0 0 0 1 0 0 0 0.4 0"/>
<feBlend mode="normal" in2="shape" result="effect1_innerShadow"/>
</filter>
<filter id="filter1_d" x="55.4983" y="0" width="54.2272" height="9.51564" filterUnits="userSpaceOnUse" color-interpolation-filters="sRGB">
<feFlood flood-opacity="0" result="BackgroundImageFix"/>
<feColorMatrix in="SourceAlpha" type="matrix" values="0 0 0 0 0 0 0 0 0 0 0 0 0 0 0 0 0 0 127 0"/>
<feOffset dx="1"/>
<feGaussianBlur stdDeviation="2"/>
<feColorMatrix type="matrix" values="0 0 0 0 0 0 0 0 0 0 0 0 0 0 0 0 0 0 0.1 0"/>
<feBlend mode="normal" in2="BackgroundImageFix" result="effect1_dropShadow"/>
<feBlend mode="normal" in="SourceGraphic" in2="effect1_dropShadow" result="shape"/>
</filter>
</defs>
</svg>
