<svg width="168" height="164" viewBox="0 0 168 164" fill="none" xmlns="http://www.w3.org/2000/svg">
<g filter="url(#filter0_i)">
<rect width="163.69" height="163.69" transform="matrix(-1 0 0 1 163.689 0)" fill="#7C7345" fill-opacity="0.2"/>
</g>
<path d="M116.889 68.2047L112.838 68.2047L102.259 68.2047L85.8632 68.2047L79.7303 68.2047L71.5602 68.5007C69.6021 69.1674 68.2059 70.8747 68.2059 72.8779L68.2059 91.5709C68.2059 94.1505 70.5225 96.2441 73.3769 96.2441L102.259 96.2441L109.039 96.2441L116.889 96.2441L133.285 96.2441L140.241 96.2441L147.915 96.2441L150.942 96.2441C153.797 96.2441 156.113 94.1505 156.113 91.5709L156.113 72.878C156.113 70.2983 153.797 68.2047 150.942 68.2047L116.889 68.2047Z" fill="#EFF6FE"/>
<path d="M95.4575 85.8595L95.4575 100.204C95.4575 100.937 95.5627 101.642 95.7514 102.291L96.2444 101.749L96.2444 101.373L96.2154 96.0149L100.655 96.0149L122.211 68.4258L109.079 68.4258L95.4575 85.8595Z" fill="#D2DCE7"/>
<mask id="mask0" mask-type="alpha" maskUnits="userSpaceOnUse" x="26" y="68" width="131" height="29">
<path d="M98.2512 68.3371L92.2818 68.3371L76.6957 68.3371L52.5398 68.3371L43.504 68.3371L31.4668 68.6304C28.5819 69.2909 26.5249 70.9824 26.5249 72.9671L26.5249 91.4872C26.5249 94.0429 29.938 96.1172 34.1434 96.1172L76.6957 96.1172L86.6854 96.1172L98.2512 96.1172L122.407 96.1172L132.656 96.1172L143.963 96.1172L148.422 96.1172C152.627 96.1172 156.041 94.0429 156.041 91.4872L156.041 72.9672C156.041 70.4114 152.627 68.3372 148.422 68.3372L98.2512 68.3371Z" fill="#EFF6FE"/>
</mask>
<g mask="url(#mask0)">
<path d="M111.022 96.4963L117.081 97.2147C117.09 97.9524 119.919 100.38 120.116 101.032L143.286 70.7335L143.239 66.8362L143.083 53.8115L111.022 96.4963Z" fill="#D2DCE7"/>
<path d="M146.261 66.8362L143.286 70.7335L143.239 66.8362L146.261 66.8362Z" fill="#D2DCE7"/>
<path d="M133.885 96.4963L139.944 97.2147C139.953 97.9524 142.783 100.38 142.979 101.032L166.149 70.7335L166.103 66.8362L165.946 53.8115L133.885 96.4963Z" fill="#D2DCE7"/>
<path d="M169.124 66.8362L166.149 70.7335L166.103 66.8362L169.124 66.8362Z" fill="#D2DCE7"/>
</g>
<path d="M162.934 100.214L162.934 63.2321C162.934 60.6804 162.372 58.6094 161.68 58.6094L141.453 58.6094C140.761 58.6094 140.199 60.6803 140.199 63.2321L140.199 100.214C140.199 102.766 140.761 104.837 141.453 104.837L161.68 104.837C162.372 104.837 162.934 102.766 162.934 100.214V100.214Z" fill="#6E6E6E"/>
<g filter="url(#filter1_d)">
<path d="M162.934 100.214L162.934 63.2321C162.934 60.6804 162.896 58.6094 162.85 58.6094L161.502 58.6094C161.455 58.6094 161.418 60.6804 161.418 63.2321L161.418 100.214C161.418 102.766 161.455 104.837 161.502 104.837L162.85 104.837C162.896 104.837 162.934 102.766 162.934 100.214V100.214Z" fill="#444444"/>
</g>
<g clip-path="url(#clip0)">
<path d="M70.9787 126.938C69.5073 126.938 68.3145 125.745 68.3145 124.274V118.59C68.3145 117.119 69.5073 115.926 70.9787 115.926C72.45 115.926 73.6429 117.119 73.6429 118.59V124.274C73.6429 125.745 72.45 126.938 70.9787 126.938Z" fill="#FF6C6C"/>
<path d="M92.2922 126.938C90.8208 126.938 89.6279 125.745 89.6279 124.274V118.59C89.6279 117.119 90.8208 115.926 92.2922 115.926C93.7635 115.926 94.9564 117.119 94.9564 118.59V124.274C94.9564 125.745 93.7635 126.938 92.2922 126.938Z" fill="#5BC980"/>
<path d="M84.2991 118.59V124.274C84.2991 125.744 83.1056 126.938 81.6349 126.938C80.1643 126.938 78.9707 125.744 78.9707 124.274V118.59C78.9707 117.119 80.1643 115.926 81.6349 115.926C83.1056 115.926 84.2991 117.119 84.2991 118.59Z" fill="#FED843"/>
<path d="M84.2995 118.59V124.274C84.2995 125.744 83.1059 126.938 81.6353 126.938V115.926C83.1059 115.926 84.2995 117.119 84.2995 118.59Z" fill="#FFB64C"/>
<path d="M116.27 68.4271V38.6642C116.27 37.1936 115.077 36 113.606 36H49.6647C48.1941 36 47.0005 37.1936 47.0005 38.6642V118.591C47.0005 120.061 48.1941 121.255 49.6647 121.255H113.606C115.077 121.255 116.27 120.061 116.27 118.591V83.4995C116.27 80.1926 116.27 79.3818 116.27 75.9077C116.27 72.4336 116.27 71.4572 116.27 68.4271Z" fill="#EFF6FE"/>
<path d="M116.27 83.4995V118.591C116.27 120.061 115.077 121.255 113.606 121.255H81.6353V36H113.606C115.077 36 116.27 37.1936 116.27 38.6642V68.4271V83.4995Z" fill="#D2DCE7"/>
<path d="M99.752 74.3638L83.7667 53.0501C83.2339 52.3396 82.4346 51.9844 81.6354 51.9844C80.8361 51.9844 80.0368 52.3396 79.504 53.0501L63.5187 74.3638C62.2026 76.1186 63.4601 78.6266 65.6501 78.6266H97.6207C99.8142 78.6266 101.066 76.1151 99.752 74.3638Z" fill="#6E6E6E"/>
<path d="M97.6206 78.6266H81.6353V51.9844C82.4345 51.9844 83.2338 52.3396 83.7666 53.0501L99.752 74.3638C101.066 76.1151 99.8141 78.6266 97.6206 78.6266Z" fill="#444444"/>
<path d="M92.2923 73.299H70.9785L81.6354 59.0898L92.2923 73.299Z" fill="#FED843"/>
<path d="M92.2921 73.299H81.6353V59.0898L92.2921 73.299Z" fill="#FFB64C"/>
<path d="M100.285 97.2775C100.285 98.7481 99.0913 99.9417 97.6207 99.9417H65.6501C64.1794 99.9417 62.9858 98.7481 62.9858 97.2775C62.9858 95.8068 64.1794 94.6133 65.6501 94.6133H97.6207C99.0913 94.6133 100.285 95.8068 100.285 97.2775Z" fill="#6E6E6E"/>
<path d="M100.285 86.6193C100.285 88.09 99.0913 89.2835 97.6207 89.2835H65.6501C64.1794 89.2835 62.9858 88.09 62.9858 86.6193C62.9858 85.1486 64.1794 83.9551 65.6501 83.9551H97.6207C99.0913 83.9551 100.285 85.1486 100.285 86.6193Z" fill="#6E6E6E"/>
<path d="M100.285 97.2775C100.285 98.7481 99.0912 99.9417 97.6206 99.9417H81.6353V94.6133H97.6206C99.0912 94.6133 100.285 95.8068 100.285 97.2775Z" fill="#444444"/>
<path d="M100.285 86.6193C100.285 88.09 99.0912 89.2835 97.6206 89.2835H81.6353V83.9551H97.6206C99.0912 83.9551 100.285 85.1486 100.285 86.6193Z" fill="#444444"/>
<path d="M60.3214 51.9847C61.7929 51.9847 62.9857 50.7919 62.9857 49.3205C62.9857 47.8491 61.7929 46.6562 60.3214 46.6562C58.85 46.6562 57.6572 47.8491 57.6572 49.3205C57.6572 50.7919 58.85 51.9847 60.3214 51.9847Z" fill="#D2DCE7"/>
<path d="M60.3214 110.598C61.7929 110.598 62.9857 109.405 62.9857 107.934C62.9857 106.462 61.7929 105.27 60.3214 105.27C58.85 105.27 57.6572 106.462 57.6572 107.934C57.6572 109.405 58.85 110.598 60.3214 110.598Z" fill="#D2DCE7"/>
<path d="M102.949 51.9847C104.421 51.9847 105.614 50.7919 105.614 49.3205C105.614 47.8491 104.421 46.6562 102.949 46.6562C101.478 46.6562 100.285 47.8491 100.285 49.3205C100.285 50.7919 101.478 51.9847 102.949 51.9847Z" fill="#A1AEBC"/>
<path d="M102.949 110.598C104.421 110.598 105.614 109.405 105.614 107.934C105.614 106.462 104.421 105.27 102.949 105.27C101.478 105.27 100.285 106.462 100.285 107.934C100.285 109.405 101.478 110.598 102.949 110.598Z" fill="#A1AEBC"/>
</g>
<defs>
<filter id="filter0_i" x="0" y="0" width="163.69" height="163.69" filterUnits="userSpaceOnUse" color-interpolation-filters="sRGB">
<feFlood flood-opacity="0" result="BackgroundImageFix"/>
<feBlend mode="normal" in="SourceGraphic" in2="BackgroundImageFix" result="shape"/>
<feColorMatrix in="SourceAlpha" type="matrix" values="0 0 0 0 0 0 0 0 0 0 0 0 0 0 0 0 0 0 127 0" result="hardAlpha"/>
<feMorphology radius="1" operator="erode" in="SourceAlpha" result="effect1_innerShadow"/>
<feOffset/>
<feComposite in2="hardAlpha" operator="arithmetic" k2="-1" k3="1"/>
<feColorMatrix type="matrix" values="0 0 0 0 1 0 0 0 0 1 0 0 0 0 1 0 0 0 0.4 0"/>
<feBlend mode="normal" in2="shape" result="effect1_innerShadow"/>
</filter>
<filter id="filter1_d" x="158.418" y="54.6094" width="9.51564" height="54.2272" filterUnits="userSpaceOnUse" color-interpolation-filters="sRGB">
<feFlood flood-opacity="0" result="BackgroundImageFix"/>
<feColorMatrix in="SourceAlpha" type="matrix" values="0 0 0 0 0 0 0 0 0 0 0 0 0 0 0 0 0 0 127 0"/>
<feOffset dx="1"/>
<feGaussianBlur stdDeviation="2"/>
<feColorMatrix type="matrix" values="0 0 0 0 0 0 0 0 0 0 0 0 0 0 0 0 0 0 0.1 0"/>
<feBlend mode="normal" in2="BackgroundImageFix" result="effect1_dropShadow"/>
<feBlend mode="normal" in="SourceGraphic" in2="effect1_dropShadow" result="shape"/>
</filter>
<clipPath id="clip0">
<rect width="90.9387" height="90.9387" fill="white" transform="translate(36.3774 36.375)"/>
</clipPath>
</defs>
</svg>
