<svg width="167" height="164" viewBox="0 0 167 164" fill="none" xmlns="http://www.w3.org/2000/svg">
<g filter="url(#filter0_i)">
<rect width="163.69" height="163.69" transform="matrix(-1 0 0 1 166.689 0)" fill="#7C7345" fill-opacity="0.2"/>
</g>
<path d="M49.0437 96.1332L53.0954 96.1332L63.6743 96.1332L80.0699 96.1332L86.2028 96.1332L94.3729 95.8372C96.331 95.1705 97.7272 93.4632 97.7272 91.46L97.7272 72.767C97.7272 70.1874 95.4106 68.0938 92.5562 68.0938L63.6743 68.0938L56.8939 68.0938L49.0437 68.0938L32.6482 68.0938L25.6921 68.0938L18.0176 68.0938L14.9908 68.0938C12.1364 68.0938 9.81982 70.1874 9.81982 72.767L9.81982 91.4599C9.81982 94.0396 12.1364 96.1332 14.9908 96.1332L49.0437 96.1332Z" fill="#EFF6FE"/>
<path d="M70.4757 78.4784L70.4757 64.1339C70.4757 63.4012 70.3705 62.6962 70.1817 62.0467L69.6887 62.5893L69.6887 62.9647L69.7177 68.3229L65.278 68.3229L43.7222 95.9121L56.8545 95.9121L70.4757 78.4784Z" fill="#D2DCE7"/>
<mask id="mask0" mask-type="alpha" maskUnits="userSpaceOnUse" x="9" y="68" width="131" height="29">
<path d="M67.6819 96.0007L73.6513 96.0008L89.2374 96.0008L113.393 96.0008L122.429 96.0008L134.466 95.7075C137.351 95.047 139.408 93.3555 139.408 91.3708L139.408 72.8507C139.408 70.295 135.995 68.2207 131.79 68.2207L89.2374 68.2207L79.2477 68.2207L67.6819 68.2207L43.526 68.2207L33.2775 68.2207L21.9705 68.2207L17.5111 68.2207C13.3057 68.2207 9.89258 70.2949 9.89258 72.8507L9.89257 91.3707C9.89257 93.9265 13.3057 96.0007 17.5111 96.0007L67.6819 96.0007Z" fill="#EFF6FE"/>
</mask>
<g mask="url(#mask0)">
<path d="M54.9109 67.8416L48.8524 67.1231C48.8436 66.3855 46.0137 63.9576 45.8171 63.3059L22.6469 93.6044L22.6937 97.5017L22.8502 110.526L54.9109 67.8416Z" fill="#D2DCE7"/>
<path d="M19.6722 97.5017L22.6469 93.6044L22.6937 97.5017L19.6722 97.5017Z" fill="#D2DCE7"/>
<path d="M32.0477 67.8416L25.9892 67.1231C25.9803 66.3855 23.1504 63.9576 22.9538 63.3059L-0.216367 93.6044L-0.169548 97.5017L-0.0130776 110.526L32.0477 67.8416Z" fill="#D2DCE7"/>
<path d="M-3.19108 97.5017L-0.216367 93.6044L-0.169548 97.5017L-3.19108 97.5017Z" fill="#D2DCE7"/>
</g>
<path d="M2.99953 64.1241L2.99951 101.106C2.99951 103.658 3.56119 105.729 4.25326 105.729L24.4804 105.729C25.1725 105.729 25.7342 103.658 25.7342 101.106L25.7342 64.1241C25.7342 61.5724 25.1725 59.5014 24.4804 59.5014L4.25328 59.5014C3.56121 59.5014 2.99953 61.5723 2.99953 64.1241V64.1241Z" fill="#6E6E6E"/>
<g filter="url(#filter1_d)">
<path d="M2.99953 64.1241L2.99951 101.106C2.99951 103.658 3.03696 105.729 3.08309 105.729L4.43156 105.729C4.47769 105.729 4.51514 103.658 4.51514 101.106L4.51515 64.1241C4.51515 61.5723 4.47771 59.5014 4.43157 59.5014L3.08311 59.5014C3.03697 59.5014 2.99953 61.5723 2.99953 64.1241V64.1241Z" fill="#444444"/>
</g>
<g clip-path="url(#clip0)">
<path d="M73.9787 126.938C72.5073 126.938 71.3145 125.745 71.3145 124.274V118.59C71.3145 117.119 72.5073 115.926 73.9787 115.926C75.45 115.926 76.6429 117.119 76.6429 118.59V124.274C76.6429 125.745 75.45 126.938 73.9787 126.938Z" fill="#FF6C6C"/>
<path d="M95.2922 126.938C93.8208 126.938 92.6279 125.745 92.6279 124.274V118.59C92.6279 117.119 93.8208 115.926 95.2922 115.926C96.7635 115.926 97.9564 117.119 97.9564 118.59V124.274C97.9564 125.745 96.7635 126.938 95.2922 126.938Z" fill="#5BC980"/>
<path d="M87.2991 118.59V124.274C87.2991 125.744 86.1056 126.938 84.6349 126.938C83.1643 126.938 81.9707 125.744 81.9707 124.274V118.59C81.9707 117.119 83.1643 115.926 84.6349 115.926C86.1056 115.926 87.2991 117.119 87.2991 118.59Z" fill="#FED843"/>
<path d="M87.2995 118.59V124.274C87.2995 125.744 86.1059 126.938 84.6353 126.938V115.926C86.1059 115.926 87.2995 117.119 87.2995 118.59Z" fill="#FFB64C"/>
<path d="M119.27 68.4271V38.6642C119.27 37.1936 118.077 36 116.606 36H52.6647C51.1941 36 50.0005 37.1936 50.0005 38.6642V118.591C50.0005 120.061 51.1941 121.255 52.6647 121.255H116.606C118.077 121.255 119.27 120.061 119.27 118.591V83.4995C119.27 80.1926 119.27 79.3818 119.27 75.9077C119.27 72.4336 119.27 71.4572 119.27 68.4271Z" fill="#EFF6FE"/>
<path d="M119.27 83.4995V118.591C119.27 120.061 118.077 121.255 116.606 121.255H84.6353V36H116.606C118.077 36 119.27 37.1936 119.27 38.6642V68.4271V83.4995Z" fill="#D2DCE7"/>
<path d="M102.752 74.3638L86.7667 53.0501C86.2339 52.3396 85.4346 51.9844 84.6354 51.9844C83.8361 51.9844 83.0368 52.3396 82.504 53.0501L66.5187 74.3638C65.2026 76.1186 66.4601 78.6266 68.6501 78.6266H100.621C102.814 78.6266 104.066 76.1151 102.752 74.3638Z" fill="#6E6E6E"/>
<path d="M100.621 78.6266H84.6353V51.9844C85.4345 51.9844 86.2338 52.3396 86.7666 53.0501L102.752 74.3638C104.066 76.1151 102.814 78.6266 100.621 78.6266Z" fill="#444444"/>
<path d="M95.2923 73.299H73.9785L84.6354 59.0898L95.2923 73.299Z" fill="#FED843"/>
<path d="M95.2921 73.299H84.6353V59.0898L95.2921 73.299Z" fill="#FFB64C"/>
<path d="M103.285 97.2775C103.285 98.7481 102.091 99.9417 100.621 99.9417H68.6501C67.1794 99.9417 65.9858 98.7481 65.9858 97.2775C65.9858 95.8068 67.1794 94.6133 68.6501 94.6133H100.621C102.091 94.6133 103.285 95.8068 103.285 97.2775Z" fill="#6E6E6E"/>
<path d="M103.285 86.6193C103.285 88.09 102.091 89.2835 100.621 89.2835H68.6501C67.1794 89.2835 65.9858 88.09 65.9858 86.6193C65.9858 85.1486 67.1794 83.9551 68.6501 83.9551H100.621C102.091 83.9551 103.285 85.1486 103.285 86.6193Z" fill="#6E6E6E"/>
<path d="M103.285 97.2775C103.285 98.7481 102.091 99.9417 100.621 99.9417H84.6353V94.6133H100.621C102.091 94.6133 103.285 95.8068 103.285 97.2775Z" fill="#444444"/>
<path d="M103.285 86.6193C103.285 88.09 102.091 89.2835 100.621 89.2835H84.6353V83.9551H100.621C102.091 83.9551 103.285 85.1486 103.285 86.6193Z" fill="#444444"/>
<path d="M63.3214 51.9847C64.7929 51.9847 65.9857 50.7919 65.9857 49.3205C65.9857 47.8491 64.7929 46.6562 63.3214 46.6562C61.85 46.6562 60.6572 47.8491 60.6572 49.3205C60.6572 50.7919 61.85 51.9847 63.3214 51.9847Z" fill="#D2DCE7"/>
<path d="M63.3214 110.598C64.7929 110.598 65.9857 109.405 65.9857 107.934C65.9857 106.462 64.7929 105.27 63.3214 105.27C61.85 105.27 60.6572 106.462 60.6572 107.934C60.6572 109.405 61.85 110.598 63.3214 110.598Z" fill="#D2DCE7"/>
<path d="M105.949 51.9847C107.421 51.9847 108.614 50.7919 108.614 49.3205C108.614 47.8491 107.421 46.6562 105.949 46.6562C104.478 46.6562 103.285 47.8491 103.285 49.3205C103.285 50.7919 104.478 51.9847 105.949 51.9847Z" fill="#A1AEBC"/>
<path d="M105.949 110.598C107.421 110.598 108.614 109.405 108.614 107.934C108.614 106.462 107.421 105.27 105.949 105.27C104.478 105.27 103.285 106.462 103.285 107.934C103.285 109.405 104.478 110.598 105.949 110.598Z" fill="#A1AEBC"/>
</g>
<defs>
<filter id="filter0_i" x="3" y="0" width="163.69" height="163.69" filterUnits="userSpaceOnUse" color-interpolation-filters="sRGB">
<feFlood flood-opacity="0" result="BackgroundImageFix"/>
<feBlend mode="normal" in="SourceGraphic" in2="BackgroundImageFix" result="shape"/>
<feColorMatrix in="SourceAlpha" type="matrix" values="0 0 0 0 0 0 0 0 0 0 0 0 0 0 0 0 0 0 127 0" result="hardAlpha"/>
<feMorphology radius="1" operator="erode" in="SourceAlpha" result="effect1_innerShadow"/>
<feOffset/>
<feComposite in2="hardAlpha" operator="arithmetic" k2="-1" k3="1"/>
<feColorMatrix type="matrix" values="0 0 0 0 1 0 0 0 0 1 0 0 0 0 1 0 0 0 0.4 0"/>
<feBlend mode="normal" in2="shape" result="effect1_innerShadow"/>
</filter>
<filter id="filter1_d" x="-0.000488281" y="55.502" width="9.51564" height="54.2272" filterUnits="userSpaceOnUse" color-interpolation-filters="sRGB">
<feFlood flood-opacity="0" result="BackgroundImageFix"/>
<feColorMatrix in="SourceAlpha" type="matrix" values="0 0 0 0 0 0 0 0 0 0 0 0 0 0 0 0 0 0 127 0"/>
<feOffset dx="1"/>
<feGaussianBlur stdDeviation="2"/>
<feColorMatrix type="matrix" values="0 0 0 0 0 0 0 0 0 0 0 0 0 0 0 0 0 0 0.1 0"/>
<feBlend mode="normal" in2="BackgroundImageFix" result="effect1_dropShadow"/>
<feBlend mode="normal" in="SourceGraphic" in2="effect1_dropShadow" result="shape"/>
</filter>
<clipPath id="clip0">
<rect width="90.9387" height="90.9387" fill="white" transform="translate(39.3774 36.375)"/>
</clipPath>
</defs>
</svg>
