<svg width="164" height="169" viewBox="0 0 164 169" fill="none" xmlns="http://www.w3.org/2000/svg">
<g filter="url(#filter0_i)">
<rect width="163.69" height="163.69" fill="#7C7345" fill-opacity="0.2"/>
</g>
<path d="M95.3763 118.366L95.3763 114.314L95.3763 103.735L95.3763 87.3398L95.3763 81.2068L95.0804 73.0367C94.4137 71.0786 92.7064 69.6825 90.7031 69.6825L72.0102 69.6825C69.4305 69.6825 67.3369 71.9991 67.3369 74.8535L67.3369 103.735L67.3369 110.516L67.3369 118.366L67.3369 134.762L67.3369 141.718L67.3369 149.392L67.3369 152.419C67.3369 155.273 69.4305 157.59 72.0102 157.59L90.7031 157.59C93.2827 157.59 95.3763 155.273 95.3763 152.419L95.3763 118.366Z" fill="#EFF6FE"/>
<path d="M77.7206 96.934L63.3761 96.934C62.6434 96.934 61.9384 97.0392 61.2889 97.228L61.8314 97.721L62.2069 97.721L67.5651 97.6919L67.5651 102.132L95.1543 123.688L95.1543 110.555L77.7206 96.934Z" fill="#D2DCE7"/>
<mask id="mask0" mask-type="alpha" maskUnits="userSpaceOnUse" x="67" y="28" width="29" height="130">
<path d="M95.2429 99.7263L95.2429 93.7568L95.2429 78.1708L95.2429 54.0148L95.2429 44.979L94.9497 32.9419C94.2892 30.057 92.5977 28 90.6129 28L72.0929 28C69.5372 27.9999 67.4629 31.4131 67.4629 35.6185L67.4629 78.1708L67.4629 88.1605L67.4629 99.7262L67.4629 123.882L67.4629 134.131L67.4629 145.438L67.4629 149.897C67.4629 154.103 69.5371 157.516 72.0929 157.516L90.6129 157.516C93.1687 157.516 95.2429 154.103 95.2429 149.897L95.2429 99.7263Z" fill="#EFF6FE"/>
</mask>
<g mask="url(#mask0)">
<path d="M67.0853 112.498L66.3668 118.557C65.6291 118.566 63.2012 121.396 62.5496 121.592L92.8481 144.762L96.7453 144.715L109.77 144.559L67.0853 112.498Z" fill="#D2DCE7"/>
<path d="M96.7453 147.737L92.8481 144.762L96.7453 144.715L96.7453 147.737Z" fill="#D2DCE7"/>
<path d="M67.0853 135.362L66.3668 141.42C65.6291 141.429 63.2012 144.259 62.5496 144.455L92.8481 167.626L96.7453 167.579L109.77 167.422L67.0853 135.362Z" fill="#D2DCE7"/>
<path d="M96.7453 170.6L92.8481 167.626L96.7453 167.579L96.7453 170.6Z" fill="#D2DCE7"/>
</g>
<path d="M63.6231 164.41L100.605 164.41C103.157 164.41 105.228 163.848 105.228 163.156L105.228 142.929C105.228 142.237 103.157 141.675 100.605 141.675L63.6231 141.675C61.0714 141.675 59.0004 142.237 59.0004 142.929L59.0004 163.156C59.0004 163.848 61.0714 164.41 63.6231 164.41V164.41Z" fill="#6E6E6E"/>
<g filter="url(#filter1_d)">
<path d="M63.6231 164.41L100.605 164.41C103.157 164.41 105.228 164.373 105.228 164.327L105.228 162.978C105.228 162.932 103.157 162.895 100.605 162.895L63.6231 162.895C61.0714 162.895 59.0004 162.932 59.0004 162.978L59.0004 164.327C59.0004 164.373 61.0714 164.41 63.6231 164.41V164.41Z" fill="#444444"/>
</g>
<g clip-path="url(#clip0)">
<path d="M116.477 92.3244V119.322C116.477 123.728 112.891 127.314 108.485 127.314H55.2002C50.7936 127.314 47.2075 123.728 47.2075 119.322V92.3244C47.2075 90.8537 48.4011 89.6602 49.8717 89.6602H113.813C115.284 89.6602 116.477 90.8537 116.477 92.3244Z" fill="#D2DCE7"/>
<path d="M116.478 92.3244V119.322C116.478 123.728 112.892 127.314 108.485 127.314H81.8428V89.6602H113.813C115.284 89.6602 116.478 90.8537 116.478 92.3244Z" fill="#A1AEBC"/>
<path d="M105.821 92.3244V113.993C105.821 115.464 104.627 116.658 103.156 116.658H60.529C59.0583 116.658 57.8647 115.464 57.8647 113.993V92.3244C57.8647 90.8537 59.0583 89.6602 60.529 89.6602H103.156C104.627 89.6602 105.821 90.8537 105.821 92.3244Z" fill="#6E6E6E"/>
<path d="M105.821 92.3244V113.993C105.821 115.464 104.627 116.658 103.157 116.658H81.8428V89.6602H103.157C104.627 89.6602 105.821 90.8537 105.821 92.3244Z" fill="#444444"/>
<path d="M71.1857 105.645C69.7143 105.645 68.5215 104.453 68.5215 102.981V92.3244C68.5215 90.853 69.7143 89.6602 71.1857 89.6602C72.6571 89.6602 73.8499 90.853 73.8499 92.3244V102.981C73.8499 104.453 72.6571 105.645 71.1857 105.645Z" fill="#FED843"/>
<path d="M84.5067 92.3244V102.981C84.5067 104.452 83.3131 105.645 81.8424 105.645C80.3718 105.645 79.1782 104.452 79.1782 102.981V92.3244C79.1782 90.8537 80.3718 89.6602 81.8424 89.6602C83.3131 89.6602 84.5067 90.8537 84.5067 92.3244Z" fill="#FED843"/>
<path d="M84.507 92.3244V102.981C84.507 104.452 83.3134 105.645 81.8428 105.645V89.6602C83.3134 89.6602 84.507 90.8537 84.507 92.3244Z" fill="#FFB64C"/>
<path d="M92.4992 105.645C91.0278 105.645 89.835 104.453 89.835 102.981V92.3244C89.835 90.853 91.0278 89.6602 92.4992 89.6602C93.9705 89.6602 95.1634 90.853 95.1634 92.3244V102.981C95.1634 104.453 93.9705 105.645 92.4992 105.645Z" fill="#FFB64C"/>
<path d="M124.647 63.0179H119.141C117.67 63.0179 116.477 61.825 116.477 60.3537C116.477 58.8823 117.67 57.6895 119.141 57.6895H124.647C126.119 57.6895 127.312 58.8823 127.312 60.3537C127.312 61.825 126.119 63.0179 124.647 63.0179Z" fill="#292929"/>
<path d="M44.5433 63.0179H39.0373C37.5659 63.0179 36.373 61.825 36.373 60.3537C36.373 58.8823 37.5659 57.6895 39.0373 57.6895H44.5433C46.0147 57.6895 47.2075 58.8823 47.2075 60.3537C47.2075 61.825 46.0147 63.0179 44.5433 63.0179Z" fill="#444444"/>
<path d="M113.813 36.375H49.872C45.4654 36.375 41.8794 39.961 41.8794 44.3677V92.3236C41.8794 93.7942 43.073 94.9878 44.5436 94.9878H119.142C120.612 94.9878 121.806 93.7942 121.806 92.3236V44.3677C121.806 39.961 118.22 36.375 113.813 36.375Z" fill="#EFF6FE"/>
<path d="M121.806 44.3677V92.3236C121.806 93.7942 120.612 94.9878 119.142 94.9878H81.8428V36.375H113.813C118.22 36.375 121.806 39.961 121.806 44.3677Z" fill="#D2DCE7"/>
<path d="M71.1857 79.0023C72.6571 79.0023 73.8499 77.8095 73.8499 76.338C73.8499 74.8666 72.6571 73.6738 71.1857 73.6738C69.7143 73.6738 68.5215 74.8666 68.5215 76.338C68.5215 77.8095 69.7143 79.0023 71.1857 79.0023Z" fill="#FF6C6C"/>
<path d="M81.8424 79.0023C83.3139 79.0023 84.5067 77.8095 84.5067 76.338C84.5067 74.8666 83.3139 73.6738 81.8424 73.6738C80.371 73.6738 79.1782 74.8666 79.1782 76.338C79.1782 77.8095 80.371 79.0023 81.8424 79.0023Z" fill="#FF6C6C"/>
<path d="M84.507 76.338C84.507 77.8087 83.3134 79.0023 81.8428 79.0023V73.6738C83.3134 73.6738 84.507 74.8674 84.507 76.338Z" fill="#E63950"/>
<path d="M92.4992 79.0023C93.9706 79.0023 95.1634 77.8095 95.1634 76.338C95.1634 74.8666 93.9706 73.6738 92.4992 73.6738C91.0278 73.6738 89.835 74.8666 89.835 76.338C89.835 77.8095 91.0278 79.0023 92.4992 79.0023Z" fill="#E63950"/>
<path d="M103.156 79.0023C104.627 79.0023 105.82 77.8095 105.82 76.338C105.82 74.8666 104.627 73.6738 103.156 73.6738C101.685 73.6738 100.492 74.8666 100.492 76.338C100.492 77.8095 101.685 79.0023 103.156 79.0023Z" fill="#E63950"/>
<path d="M60.529 79.0023C62.0004 79.0023 63.1932 77.8095 63.1932 76.338C63.1932 74.8666 62.0004 73.6738 60.529 73.6738C59.0576 73.6738 57.8647 74.8666 57.8647 76.338C57.8647 77.8095 59.0576 79.0023 60.529 79.0023Z" fill="#FF6C6C"/>
<path d="M97.8278 52.3594H55.2004C53.7297 52.3594 52.5361 53.5529 52.5361 55.0236V65.6805C52.5361 67.1511 53.7297 68.3447 55.2004 68.3447H97.8278C99.2985 68.3447 100.492 67.1511 100.492 65.6805V55.0236C100.492 53.5529 99.2985 52.3594 97.8278 52.3594Z" fill="#6E6E6E"/>
<path d="M100.492 55.0236V65.6805C100.492 67.1511 99.2987 68.3447 97.8281 68.3447H81.8428V52.3594H97.8281C99.2987 52.3594 100.492 53.5529 100.492 55.0236Z" fill="#444444"/>
<path d="M57.8647 57.6875H63.1932V63.0159H57.8647V57.6875Z" fill="#444444"/>
<path d="M68.5215 57.6875H73.8499V63.0159H68.5215V57.6875Z" fill="#444444"/>
<path d="M79.1787 57.6875H84.5072V63.0159H79.1787V57.6875Z" fill="#444444"/>
<path d="M81.8428 57.6875H84.507V63.0159H81.8428V57.6875Z" fill="#292929"/>
<path d="M89.8354 57.6875H95.1639V63.0159H89.8354V57.6875Z" fill="#292929"/>
<path d="M108.485 68.3447C107.013 68.3447 105.82 67.1518 105.82 65.6805V55.0236C105.82 53.5522 107.013 52.3594 108.485 52.3594C109.956 52.3594 111.149 53.5522 111.149 55.0236V65.6805C111.149 67.1518 109.956 68.3447 108.485 68.3447Z" fill="#444444"/>
</g>
<defs>
<filter id="filter0_i" x="0" y="0" width="163.69" height="163.69" filterUnits="userSpaceOnUse" color-interpolation-filters="sRGB">
<feFlood flood-opacity="0" result="BackgroundImageFix"/>
<feBlend mode="normal" in="SourceGraphic" in2="BackgroundImageFix" result="shape"/>
<feColorMatrix in="SourceAlpha" type="matrix" values="0 0 0 0 0 0 0 0 0 0 0 0 0 0 0 0 0 0 127 0" result="hardAlpha"/>
<feMorphology radius="1" operator="erode" in="SourceAlpha" result="effect1_innerShadow"/>
<feOffset/>
<feComposite in2="hardAlpha" operator="arithmetic" k2="-1" k3="1"/>
<feColorMatrix type="matrix" values="0 0 0 0 1 0 0 0 0 1 0 0 0 0 1 0 0 0 0.4 0"/>
<feBlend mode="normal" in2="shape" result="effect1_innerShadow"/>
</filter>
<filter id="filter1_d" x="56.0005" y="158.895" width="54.2271" height="9.51565" filterUnits="userSpaceOnUse" color-interpolation-filters="sRGB">
<feFlood flood-opacity="0" result="BackgroundImageFix"/>
<feColorMatrix in="SourceAlpha" type="matrix" values="0 0 0 0 0 0 0 0 0 0 0 0 0 0 0 0 0 0 127 0"/>
<feOffset dx="1"/>
<feGaussianBlur stdDeviation="2"/>
<feColorMatrix type="matrix" values="0 0 0 0 0 0 0 0 0 0 0 0 0 0 0 0 0 0 0.1 0"/>
<feBlend mode="normal" in2="BackgroundImageFix" result="effect1_dropShadow"/>
<feBlend mode="normal" in="SourceGraphic" in2="effect1_dropShadow" result="shape"/>
</filter>
<clipPath id="clip0">
<rect width="90.9387" height="90.9387" fill="white" transform="translate(36.373 36.375)"/>
</clipPath>
</defs>
</svg>
