<svg width="168" height="164" viewBox="0 0 168 164" fill="none" xmlns="http://www.w3.org/2000/svg">
<g filter="url(#filter0_i)">
<rect x="4" width="163.69" height="163.69" fill="#7C7345" fill-opacity="0.2"/>
</g>
<path d="M49.0452 95.3754L53.0969 95.3754L63.6758 95.3754L80.0713 95.3754L86.2043 95.3754L94.3744 95.0794C96.3325 94.4127 97.7287 92.7054 97.7287 90.7021L97.7287 72.0092C97.7287 69.4296 95.4121 67.336 92.5577 67.336L63.6758 67.336L56.8954 67.336L49.0452 67.3359L32.6496 67.3359L25.6935 67.3359L18.0191 67.3359L14.9923 67.3359C12.1379 67.3359 9.82129 69.4295 9.82129 72.0092L9.82128 90.7021C9.82128 93.2817 12.1379 95.3753 14.9923 95.3753L49.0452 95.3754Z" fill="#EFF6FE"/>
<path d="M70.4771 77.7187L70.4771 63.3741C70.4771 62.6414 70.3719 61.9365 70.1832 61.287L69.6902 61.8295L69.6902 62.2049L69.7192 67.5632L65.2795 67.5632L43.7236 95.1523L56.8559 95.1523L70.4771 77.7187Z" fill="#D2DCE7"/>
<mask id="mask0" mask-type="alpha" maskUnits="userSpaceOnUse" x="9" y="67" width="131" height="29">
<path d="M67.6839 95.2429L73.6533 95.2429L89.2394 95.2429L113.395 95.2429L122.431 95.243L134.468 94.9497C137.353 94.2892 139.41 92.5977 139.41 90.613L139.41 72.0929C139.41 69.5372 135.997 67.4629 131.792 67.4629L89.2394 67.4629L79.2497 67.4629L67.6839 67.4629L43.528 67.4629L33.2794 67.4629L21.9725 67.4629L17.5131 67.4629C13.3077 67.4629 9.89453 69.5371 9.89453 72.0929L9.89452 90.6129C9.89452 93.1687 13.3076 95.2429 17.5131 95.2429L67.6839 95.2429Z" fill="#EFF6FE"/>
</mask>
<g mask="url(#mask0)">
<path d="M54.9124 67.0838L48.8539 66.3653C48.845 65.6277 46.0151 63.1998 45.8185 62.5481L22.6484 92.8466L22.6952 96.7439L22.8517 109.769L54.9124 67.0838Z" fill="#D2DCE7"/>
<path d="M19.6737 96.7439L22.6484 92.8466L22.6952 96.7439L19.6737 96.7439Z" fill="#D2DCE7"/>
<path d="M32.0486 67.0838L25.9901 66.3653C25.9813 65.6277 23.1514 63.1998 22.9548 62.5481L-0.215394 92.8466L-0.168575 96.7439L-0.0121043 109.769L32.0486 67.0838Z" fill="#D2DCE7"/>
<path d="M-3.19011 96.7439L-0.215394 92.8466L-0.168575 96.7439L-3.19011 96.7439Z" fill="#D2DCE7"/>
</g>
<path d="M3.00001 63.6221L3 100.604C3 103.156 3.56168 105.227 4.25375 105.227L24.4809 105.227C25.173 105.227 25.7347 103.156 25.7347 100.604L25.7347 63.6221C25.7347 61.0704 25.173 58.9994 24.4809 58.9994L4.25376 58.9994C3.56169 58.9994 3.00001 61.0704 3.00001 63.6221V63.6221Z" fill="#6E6E6E"/>
<g filter="url(#filter1_d)">
<path d="M3.00001 63.6221L3 100.604C3 103.156 3.03745 105.227 3.08358 105.227L4.43205 105.227C4.47819 105.227 4.51564 103.156 4.51564 100.604L4.51565 63.6221C4.51565 61.0704 4.47821 58.9994 4.43207 58.9994L3.0836 58.9994C3.03746 58.9994 3.00001 61.0704 3.00001 63.6221V63.6221Z" fill="#444444"/>
</g>
<g clip-path="url(#clip0)">
<path d="M120.477 92.3244V119.322C120.477 123.728 116.891 127.314 112.485 127.314H59.2002C54.7936 127.314 51.2075 123.728 51.2075 119.322V92.3244C51.2075 90.8537 52.4011 89.6602 53.8717 89.6602H117.813C119.284 89.6602 120.477 90.8537 120.477 92.3244Z" fill="#D2DCE7"/>
<path d="M120.478 92.3244V119.322C120.478 123.728 116.892 127.314 112.485 127.314H85.8428V89.6602H117.813C119.284 89.6602 120.478 90.8537 120.478 92.3244Z" fill="#A1AEBC"/>
<path d="M109.821 92.3244V113.993C109.821 115.464 108.627 116.658 107.156 116.658H64.529C63.0583 116.658 61.8647 115.464 61.8647 113.993V92.3244C61.8647 90.8537 63.0583 89.6602 64.529 89.6602H107.156C108.627 89.6602 109.821 90.8537 109.821 92.3244Z" fill="#6E6E6E"/>
<path d="M109.821 92.3244V113.993C109.821 115.464 108.627 116.658 107.157 116.658H85.8428V89.6602H107.157C108.627 89.6602 109.821 90.8537 109.821 92.3244Z" fill="#444444"/>
<path d="M75.1857 105.645C73.7143 105.645 72.5215 104.453 72.5215 102.981V92.3244C72.5215 90.853 73.7143 89.6602 75.1857 89.6602C76.6571 89.6602 77.8499 90.853 77.8499 92.3244V102.981C77.8499 104.453 76.6571 105.645 75.1857 105.645Z" fill="#FED843"/>
<path d="M88.5067 92.3244V102.981C88.5067 104.452 87.3131 105.645 85.8424 105.645C84.3718 105.645 83.1782 104.452 83.1782 102.981V92.3244C83.1782 90.8537 84.3718 89.6602 85.8424 89.6602C87.3131 89.6602 88.5067 90.8537 88.5067 92.3244Z" fill="#FED843"/>
<path d="M88.507 92.3244V102.981C88.507 104.452 87.3134 105.645 85.8428 105.645V89.6602C87.3134 89.6602 88.507 90.8537 88.507 92.3244Z" fill="#FFB64C"/>
<path d="M96.4992 105.645C95.0278 105.645 93.835 104.453 93.835 102.981V92.3244C93.835 90.853 95.0278 89.6602 96.4992 89.6602C97.9705 89.6602 99.1634 90.853 99.1634 92.3244V102.981C99.1634 104.453 97.9705 105.645 96.4992 105.645Z" fill="#FFB64C"/>
<path d="M128.647 63.0179H123.141C121.67 63.0179 120.477 61.825 120.477 60.3537C120.477 58.8823 121.67 57.6895 123.141 57.6895H128.647C130.119 57.6895 131.312 58.8823 131.312 60.3537C131.312 61.825 130.119 63.0179 128.647 63.0179Z" fill="#292929"/>
<path d="M48.5433 63.0179H43.0373C41.5659 63.0179 40.373 61.825 40.373 60.3537C40.373 58.8823 41.5659 57.6895 43.0373 57.6895H48.5433C50.0147 57.6895 51.2075 58.8823 51.2075 60.3537C51.2075 61.825 50.0147 63.0179 48.5433 63.0179Z" fill="#444444"/>
<path d="M117.813 36.375H53.872C49.4654 36.375 45.8794 39.961 45.8794 44.3677V92.3236C45.8794 93.7942 47.073 94.9878 48.5436 94.9878H123.142C124.612 94.9878 125.806 93.7942 125.806 92.3236V44.3677C125.806 39.961 122.22 36.375 117.813 36.375Z" fill="#EFF6FE"/>
<path d="M125.806 44.3677V92.3236C125.806 93.7942 124.612 94.9878 123.142 94.9878H85.8428V36.375H117.813C122.22 36.375 125.806 39.961 125.806 44.3677Z" fill="#D2DCE7"/>
<path d="M75.1857 79.0023C76.6571 79.0023 77.8499 77.8095 77.8499 76.338C77.8499 74.8666 76.6571 73.6738 75.1857 73.6738C73.7143 73.6738 72.5215 74.8666 72.5215 76.338C72.5215 77.8095 73.7143 79.0023 75.1857 79.0023Z" fill="#FF6C6C"/>
<path d="M85.8424 79.0023C87.3139 79.0023 88.5067 77.8095 88.5067 76.338C88.5067 74.8666 87.3139 73.6738 85.8424 73.6738C84.371 73.6738 83.1782 74.8666 83.1782 76.338C83.1782 77.8095 84.371 79.0023 85.8424 79.0023Z" fill="#FF6C6C"/>
<path d="M88.507 76.338C88.507 77.8087 87.3134 79.0023 85.8428 79.0023V73.6738C87.3134 73.6738 88.507 74.8674 88.507 76.338Z" fill="#E63950"/>
<path d="M96.4992 79.0023C97.9706 79.0023 99.1634 77.8095 99.1634 76.338C99.1634 74.8666 97.9706 73.6738 96.4992 73.6738C95.0278 73.6738 93.835 74.8666 93.835 76.338C93.835 77.8095 95.0278 79.0023 96.4992 79.0023Z" fill="#E63950"/>
<path d="M107.156 79.0023C108.627 79.0023 109.82 77.8095 109.82 76.338C109.82 74.8666 108.627 73.6738 107.156 73.6738C105.685 73.6738 104.492 74.8666 104.492 76.338C104.492 77.8095 105.685 79.0023 107.156 79.0023Z" fill="#E63950"/>
<path d="M64.529 79.0023C66.0004 79.0023 67.1932 77.8095 67.1932 76.338C67.1932 74.8666 66.0004 73.6738 64.529 73.6738C63.0576 73.6738 61.8647 74.8666 61.8647 76.338C61.8647 77.8095 63.0576 79.0023 64.529 79.0023Z" fill="#FF6C6C"/>
<path d="M101.828 52.3594H59.2004C57.7297 52.3594 56.5361 53.5529 56.5361 55.0236V65.6805C56.5361 67.1511 57.7297 68.3447 59.2004 68.3447H101.828C103.298 68.3447 104.492 67.1511 104.492 65.6805V55.0236C104.492 53.5529 103.298 52.3594 101.828 52.3594Z" fill="#6E6E6E"/>
<path d="M104.492 55.0236V65.6805C104.492 67.1511 103.299 68.3447 101.828 68.3447H85.8428V52.3594H101.828C103.299 52.3594 104.492 53.5529 104.492 55.0236Z" fill="#444444"/>
<path d="M61.8647 57.6875H67.1932V63.0159H61.8647V57.6875Z" fill="#444444"/>
<path d="M72.5215 57.6875H77.8499V63.0159H72.5215V57.6875Z" fill="#444444"/>
<path d="M83.1787 57.6875H88.5072V63.0159H83.1787V57.6875Z" fill="#444444"/>
<path d="M85.8428 57.6875H88.507V63.0159H85.8428V57.6875Z" fill="#292929"/>
<path d="M93.8354 57.6875H99.1639V63.0159H93.8354V57.6875Z" fill="#292929"/>
<path d="M112.485 68.3447C111.013 68.3447 109.82 67.1518 109.82 65.6805V55.0236C109.82 53.5522 111.013 52.3594 112.485 52.3594C113.956 52.3594 115.149 53.5522 115.149 55.0236V65.6805C115.149 67.1518 113.956 68.3447 112.485 68.3447Z" fill="#444444"/>
</g>
<defs>
<filter id="filter0_i" x="4" y="0" width="163.69" height="163.69" filterUnits="userSpaceOnUse" color-interpolation-filters="sRGB">
<feFlood flood-opacity="0" result="BackgroundImageFix"/>
<feBlend mode="normal" in="SourceGraphic" in2="BackgroundImageFix" result="shape"/>
<feColorMatrix in="SourceAlpha" type="matrix" values="0 0 0 0 0 0 0 0 0 0 0 0 0 0 0 0 0 0 127 0" result="hardAlpha"/>
<feMorphology radius="1" operator="erode" in="SourceAlpha" result="effect1_innerShadow"/>
<feOffset/>
<feComposite in2="hardAlpha" operator="arithmetic" k2="-1" k3="1"/>
<feColorMatrix type="matrix" values="0 0 0 0 1 0 0 0 0 1 0 0 0 0 1 0 0 0 0.4 0"/>
<feBlend mode="normal" in2="shape" result="effect1_innerShadow"/>
</filter>
<filter id="filter1_d" x="0" y="55" width="9.51565" height="54.2271" filterUnits="userSpaceOnUse" color-interpolation-filters="sRGB">
<feFlood flood-opacity="0" result="BackgroundImageFix"/>
<feColorMatrix in="SourceAlpha" type="matrix" values="0 0 0 0 0 0 0 0 0 0 0 0 0 0 0 0 0 0 127 0"/>
<feOffset dx="1"/>
<feGaussianBlur stdDeviation="2"/>
<feColorMatrix type="matrix" values="0 0 0 0 0 0 0 0 0 0 0 0 0 0 0 0 0 0 0.1 0"/>
<feBlend mode="normal" in2="BackgroundImageFix" result="effect1_dropShadow"/>
<feBlend mode="normal" in="SourceGraphic" in2="effect1_dropShadow" result="shape"/>
</filter>
<clipPath id="clip0">
<rect width="90.9387" height="90.9387" fill="white" transform="translate(40.373 36.375)"/>
</clipPath>
</defs>
</svg>
