<svg width="214" height="222" viewBox="0 0 214 222" fill="none" xmlns="http://www.w3.org/2000/svg">
<path d="M125.862 120.764L125.862 112.869L125.862 92.2555L125.862 60.308L125.862 48.3577L125.474 32.4379C124.601 28.6224 122.364 25.9019 119.74 25.9019L95.2555 25.9019C91.8766 25.9019 89.1343 30.4159 89.1343 35.9779L89.1343 92.2555L89.1343 105.467L89.1343 120.764L89.1343 152.711L89.1343 166.266L89.1343 181.22L89.1343 187.117C89.1343 192.679 91.8766 197.193 95.2555 197.193L119.74 197.193C123.119 197.193 125.862 192.679 125.862 187.117L125.862 120.764Z" fill="#EFF6FE"/>
<path d="M126.11 120.721L126.11 109.649L126.11 92.1972L126.11 60.232L126.11 54.6357L126.11 32.3215C125.207 28.504 122.493 25.8068 119.78 25.8068L107.121 25.8068L107.121 197.193L119.78 197.193C123.274 197.193 126.11 192.677 126.11 187.112L126.11 120.721Z" fill="#D2DCE7"/>
<path d="M125.862 100.563L125.862 78.1262L89.1343 125.707L89.1343 148.145L125.862 100.563Z" fill="#D2DCE7"/>
<path d="M125.862 142.214L125.862 119.777L89.1343 167.358L89.1343 189.795L125.862 142.214Z" fill="#D2DCE7"/>
<path d="M125.862 60.2956L125.862 41.0987C125.862 40.1182 125.723 39.1748 125.474 38.3056L89.1343 85.5026L89.1343 107.996L125.862 60.2956Z" fill="#D2DCE7"/>
<path d="M125.862 20.1041L113.22 23.9083C113.22 22.9278 107.248 24.1554 106.999 23.2862L89.1343 45.3112L89.1343 67.8047L125.862 20.1041Z" fill="#D2DCE7"/>
<path d="M126.11 100.304L126.11 77.9272L107.121 101.654L107.121 124.031L126.11 100.304Z" fill="#A1AEBC"/>
<path d="M126.11 142.396L126.11 120.019L107.121 143.746L107.121 166.123L126.11 142.396Z" fill="#A1AEBC"/>
<mask id="mask0" mask-type="alpha" maskUnits="userSpaceOnUse" x="89" y="25" width="38" height="173">
<path d="M125.928 121.365L125.928 113.47L125.928 92.8571L125.928 60.9095L121.26 55.9858L125.54 33.0394C124.667 29.224 122.431 26.5035 119.807 26.5035L95.3219 26.5035C91.943 26.5035 89.2007 31.0175 89.2007 36.5794L89.2007 92.8571L89.2007 106.069L89.2007 121.365L89.2007 153.313L89.2007 166.867L89.2007 181.821L89.2007 187.719C89.2007 193.281 91.943 197.795 95.3219 197.795L119.807 197.795C123.186 197.795 125.928 193.281 125.928 187.719L125.928 121.365Z" fill="#EFF6FE"/>
<path d="M126.11 120.721L126.11 109.649L126.11 92.1972L126.11 60.232L126.11 54.6357L125.709 32.3464C124.806 28.5288 122.493 25.8068 119.78 25.8068L107.121 25.8068L107.121 197.193L119.78 197.193C123.274 197.193 126.11 192.677 126.11 187.112L126.11 120.721Z" fill="#D2DCE7"/>
</mask>
<g mask="url(#mask0)">
<path d="M125.862 181.686L125.862 159.248L102.645 189.385L116.331 189.385L125.862 181.686Z" fill="#D2DCE7"/>
<path d="M126.11 181.871L126.11 159.494L107.121 183.221L107.121 205.598L126.11 181.871Z" fill="#A1AEBC"/>
</g>
<path d="M107.121 84.3535L126.11 60.366L126.11 41.0587C126.11 40.0726 126.11 38.8388 126.11 37.8365L107.121 61.7306L107.121 84.3535Z" fill="#A1AEBC"/>
<path d="M107.121 44.2617L126.11 20.2742L124.111 7.76729C124.111 6.78114 112.519 16.8757 116.115 6.2639L107.121 21.6388L107.121 44.2617Z" fill="#A1AEBC"/>
<path d="M131 4.00001L83.0005 4C79.6885 4 77.0005 4.74118 77.0005 5.65441L77.0005 32.3456C77.0005 33.2588 79.6885 34 83.0005 34L131 34C134.312 34 137 33.2588 137 32.3456L137 5.65442C137 4.74118 134.312 4.00001 131 4.00001Z" fill="#6E6E6E"/>
<g filter="url(#filter0_d)">
<path d="M131 4.00001L83.0005 4C79.6885 4 77.0005 4.04941 77.0005 4.11029L77.0005 5.88969C77.0005 5.95057 79.6885 5.99999 83.0005 5.99999L131 5.99999C134.312 5.99999 137 5.95058 137 5.8897L137 4.1103C137 4.04942 134.312 4.00001 131 4.00001Z" fill="#444444"/>
</g>
<path d="M131 218L83 218C79.688 218 77 217.259 77 216.346L77 189.654C77 188.741 79.688 188 83 188L131 188C134.312 188 137 188.741 137 189.654L137 216.346C137 217.259 134.312 218 131 218Z" fill="#6E6E6E"/>
<g filter="url(#filter1_d)">
<path d="M131 218L83 218C79.688 218 77 217.951 77 217.89L77 216.11C77 216.049 79.688 216 83 216L131 216C134.312 216 137 216.049 137 216.11L137 217.89C137 217.951 134.312 218 131 218Z" fill="#444444"/>
</g>
<defs>
<filter id="filter0_d" x="74.0005" y="0" width="68" height="9.99999" filterUnits="userSpaceOnUse" color-interpolation-filters="sRGB">
<feFlood flood-opacity="0" result="BackgroundImageFix"/>
<feColorMatrix in="SourceAlpha" type="matrix" values="0 0 0 0 0 0 0 0 0 0 0 0 0 0 0 0 0 0 127 0"/>
<feOffset dx="1"/>
<feGaussianBlur stdDeviation="2"/>
<feColorMatrix type="matrix" values="0 0 0 0 0 0 0 0 0 0 0 0 0 0 0 0 0 0 0.1 0"/>
<feBlend mode="normal" in2="BackgroundImageFix" result="effect1_dropShadow"/>
<feBlend mode="normal" in="SourceGraphic" in2="effect1_dropShadow" result="shape"/>
</filter>
<filter id="filter1_d" x="74" y="212" width="68" height="10" filterUnits="userSpaceOnUse" color-interpolation-filters="sRGB">
<feFlood flood-opacity="0" result="BackgroundImageFix"/>
<feColorMatrix in="SourceAlpha" type="matrix" values="0 0 0 0 0 0 0 0 0 0 0 0 0 0 0 0 0 0 127 0"/>
<feOffset dx="1"/>
<feGaussianBlur stdDeviation="2"/>
<feColorMatrix type="matrix" values="0 0 0 0 0 0 0 0 0 0 0 0 0 0 0 0 0 0 0.1 0"/>
<feBlend mode="normal" in2="BackgroundImageFix" result="effect1_dropShadow"/>
<feBlend mode="normal" in="SourceGraphic" in2="effect1_dropShadow" result="shape"/>
</filter>
</defs>
</svg>
