<svg width="219" height="218" viewBox="0 0 219 218" fill="none" xmlns="http://www.w3.org/2000/svg">
<path d="M97.4885 88.9239L105.224 88.9239L125.422 88.9239L156.726 88.9239L168.435 88.9239L184.034 89.3082C187.772 90.1739 190.438 92.3908 190.438 94.9919L190.438 119.264C190.438 122.614 186.015 125.332 180.565 125.332L125.422 125.332L112.477 125.332L97.4885 125.332L66.185 125.332L52.9039 125.332L38.2514 125.332L32.4725 125.332C27.0226 125.332 22.5996 122.614 22.5996 119.264L22.5996 94.992C22.5996 91.6424 27.0226 88.9239 32.4725 88.9239L97.4885 88.9239Z" fill="#EFF6FE"/>
<path d="M125.473 97.848L125.473 105.652L125.473 126.029L125.473 157.609L125.473 169.422L125.092 185.159C124.234 188.93 122.037 191.62 119.458 191.62L95.3991 191.62C92.0789 191.62 89.3843 187.157 89.3843 181.659L89.3843 126.029L89.3843 112.969L89.3843 97.848L89.3843 66.2676L89.3843 52.8692L89.3843 38.087L89.3843 32.257C89.3843 26.759 92.0789 22.2969 95.3991 22.2969L119.458 22.2969C122.779 22.2969 125.473 26.759 125.473 32.257L125.473 97.848Z" fill="#EFF6FE"/>
<path d="M90.401 111.798L90.401 130.726C90.401 131.693 90.2646 132.623 90.02 133.48L89.3811 132.764L89.3811 132.269L89.3811 125.334L83.9798 125.334L69.249 106.51L55.9912 89.1719L72.6862 89.1719L90.401 111.798Z" fill="#D2DCE7"/>
<path d="M125.473 197.136L123.754 206.574C123.754 207.541 121.052 212.157 120.807 213.014L89.3843 172.281L89.3843 150.102L125.473 197.136Z" fill="#D2DCE7"/>
<mask id="mask0" mask-type="alpha" maskUnits="userSpaceOnUse" x="11" y="88" width="172" height="38">
<path d="M88.1488 88.9235L96.0258 88.9235L116.593 88.9235L148.468 88.9235L160.392 88.9235L176.275 89.3114C180.082 90.1852 182.797 92.4228 182.797 95.0482L182.797 119.547C182.797 122.928 178.293 125.672 172.743 125.672L116.593 125.672L103.411 125.672L88.1488 125.672L56.2733 125.672L42.7496 125.672L27.8293 125.672L21.9448 125.672C16.3955 125.672 11.8916 122.928 11.8916 119.547L11.8916 95.0482C11.8916 91.6674 16.3955 88.9235 21.9448 88.9235L88.1488 88.9235Z" fill="#EFF6FE"/>
</mask>
<g mask="url(#mask0)">
<path d="M71.2966 126.172L63.302 127.122C63.2903 128.098 59.5561 131.31 59.2966 132.172L28.722 92.092L28.9902 69.707L71.2966 126.172Z" fill="#D2DCE7"/>
<path d="M47.2964 94.1719L47.5801 107.172L57.0581 107.172L47.2964 94.1719Z" fill="#A1AEBC"/>
<path d="M28.7964 73.8868L28.7964 93.1506L39.9275 107.172L47.5801 107.172L47.2964 94.1719L41.2964 86.1719L28.7964 70.6719L28.7964 73.8868Z" fill="#A1AEBC"/>
<path d="M78.0347 94.1719L78.3184 107.172L87.7964 107.172L78.0347 94.1719Z" fill="#A1AEBC"/>
<path d="M59.5347 73.8868L56.2964 88.6719L70.6657 107.172L78.3184 107.172L78.0347 94.1719L72.0347 86.1719L59.5347 70.6719L59.5347 73.8868Z" fill="#A1AEBC"/>
</g>
<mask id="mask1" mask-type="alpha" maskUnits="userSpaceOnUse" x="47" y="89" width="167" height="36">
<path d="M121.824 89L129.496 89L149.525 89L180.568 89L192.18 89L207.649 89.38C211.356 90.236 214 92.428 214 95L214 119C214 122.312 209.614 125 204.209 125L149.525 125L136.687 125L121.824 125L90.7814 125L77.611 125L63.0805 125L57.3497 125C51.9453 125 47.5591 122.312 47.5591 119L47.5591 95C47.5591 91.688 51.9453 89 57.3497 89L121.824 89Z" fill="#EFF6FE"/>
</mask>
<g mask="url(#mask1)">
<path d="M141.43 138.728L141.43 160.789L122.771 136.58L122.771 114.279L141.43 138.728Z" fill="#A1AEBC"/>
<path d="M164.507 127.315L161.07 145.113L124.981 98.0878L124.734 75.3008L164.507 127.315Z" fill="#A1AEBC"/>
<path d="M187.587 118.369L187.587 140.652L151.497 93.6269L151.25 70.8398L179.239 107.497L187.587 118.369Z" fill="#A1AEBC"/>
<path d="M151.497 93.6269L151.25 70.8398L141.921 81.738L151.497 93.6269Z" fill="#A1AEBC"/>
<mask id="mask2" mask-type="alpha" maskUnits="userSpaceOnUse" x="142" y="71" width="47" height="71">
<path d="M188.568 119.362L188.568 141.644L170.399 118.397C170.399 118.397 161.639 106.774 161.686 106.93C161.732 107.087 159.106 103.536 159.106 103.536L152.478 94.6191L152.231 71.832L165.98 90.1607L184.148 113.939L188.568 119.362Z" fill="#A1AEBC"/>
<path d="M152.478 94.6191L152.231 71.832L142.902 82.7302L152.478 94.6191Z" fill="#A1AEBC"/>
</mask>
<g mask="url(#mask2)">
<path d="M185.268 107L184.773 130L137.218 128.5L122.853 107L185.268 107Z" fill="#D2DCE7"/>
</g>
<mask id="mask3" mask-type="alpha" maskUnits="userSpaceOnUse" x="113" y="71" width="46" height="71">
<path d="M158.694 119.362L158.694 141.644L140.525 118.397C140.525 118.397 131.765 106.774 131.812 106.93C131.858 107.087 129.232 103.536 129.232 103.536L122.604 94.6191L122.357 71.832L136.106 90.1607L154.274 113.939L158.694 119.362Z" fill="#A1AEBC"/>
<path d="M122.604 94.6191L122.357 71.832L113.028 82.7302L122.604 94.6191Z" fill="#A1AEBC"/>
</mask>
<g mask="url(#mask3)">
<path d="M154.764 107.004L154.604 114.434L154.348 126.323L154.273 129.791L107.135 128.305L92.8948 107.004L154.764 107.004Z" fill="#D2DCE7"/>
<path d="M163.033 125.333L154.604 114.434L154.348 126.323L163.033 126.323L163.033 125.333Z" fill="#D2DCE7"/>
</g>
</g>
<mask id="mask4" mask-type="alpha" maskUnits="userSpaceOnUse" x="89" y="22" width="37" height="170">
<path d="M125.473 97.848L125.473 105.652L125.473 126.029L125.473 157.609L125.473 169.422L125.092 185.159C124.234 188.93 122.037 191.62 119.458 191.62L95.3991 191.62C92.0789 191.62 89.3843 187.157 89.3843 181.659L89.3843 126.029L89.3843 112.969L89.3843 97.848L89.3843 66.2676L89.3843 52.8692L89.3843 38.087L89.3843 32.257C89.3843 26.759 92.0789 22.2969 95.3991 22.2969L119.458 22.2969C122.779 22.2969 125.473 26.759 125.473 32.257L125.473 97.848Z" fill="#EFF6FE"/>
</mask>
<g mask="url(#mask4)">
<path d="M125.473 117.819L125.473 139.999L89.3843 92.9644L89.3843 70.7852L125.473 117.819Z" fill="#D2DCE7"/>
<path d="M125.473 76.6437L125.473 98.8229L89.3843 51.7887L89.3843 29.6094L125.473 76.6437Z" fill="#D2DCE7"/>
<path d="M125.473 157.505L125.473 176.434C125.473 177.401 125.337 178.331 125.093 179.188L89.3843 132.65L90.3637 111.957L125.473 157.505Z" fill="#D2DCE7"/>
<path d="M125.718 118.135L125.718 140.196L107.059 115.987L107.059 93.8418L125.718 118.135Z" fill="#A1AEBC"/>
<path d="M125.718 76.5058L125.718 99.1209L107.059 74.8272L107.059 52.7109L125.718 76.5058Z" fill="#A1AEBC"/>
<path d="M125.473 37.628L125.473 59.8073L89.3843 12.773L89.3843 -9.40625L125.473 37.628Z" fill="#D2DCE7"/>
<path d="M125.718 37.1553L125.718 60.0997L107.059 35.8211L107.059 13.7012L125.718 37.1553Z" fill="#A1AEBC"/>
<path d="M107.059 133.621L125.718 157.552L125.718 176.637C125.718 177.612 125.718 178.831 125.718 179.822L107.059 155.691L107.059 133.621Z" fill="#A1AEBC"/>
</g>
<path d="M107.059 173.471L125.718 197.182L123.754 209.546C123.754 210.52 112.363 200.542 115.897 211.032L107.059 195.834L107.059 173.471Z" fill="#A1AEBC"/>
<path d="M159.597 120.876L156.16 116.418L158.124 125.335L163.019 125.315L159.597 120.876Z" fill="#D2DCE7"/>
<path d="M83 8.27091e-07L131 9.1899e-08C134.312 4.11708e-08 137 0.741177 137 1.65441L137 28.3456C137 29.2588 134.312 30 131 30L83 30C79.688 30 77 29.2588 77 28.3456L77 1.65441C77 0.741177 79.688 8.77819e-07 83 8.27091e-07Z" fill="#6E6E6E"/>
<path d="M83 8.27091e-07L131 9.1899e-08C134.312 4.11708e-08 137 0.0494117 137 0.110294L137 1.8897C137 1.95059 134.312 2 131 2L83 2C79.688 2 77 1.95059 77 1.88971L77 0.110295C77 0.0494127 79.688 8.77819e-07 83 8.27091e-07Z" fill="#444444"/>
<path d="M214 131L214 83C214 79.688 213.29 77 212.416 77L186.854 77C185.979 77 185.269 79.688 185.269 83L185.269 131C185.269 134.312 185.979 137 186.854 137L212.416 137C213.29 137 214 134.312 214 131Z" fill="#6E6E6E"/>
<g filter="url(#filter0_d)">
<path d="M214 131L214 83C214 79.688 213.951 77 213.89 77L212.11 77C212.049 77 212 79.688 212 83L212 131C212 134.312 212.049 137 212.11 137L213.89 137C213.951 137 214 134.312 214 131Z" fill="#444444"/>
</g>
<path d="M82.9995 214L131 214C134.312 214 137 213.284 137 212.401L137 186.599C137 185.716 134.312 185 131 185L82.9995 185C79.6875 185 76.9995 185.716 76.9995 186.599L76.9995 212.401C76.9995 213.284 79.6875 214 82.9995 214Z" fill="#6E6E6E"/>
<g filter="url(#filter1_d)">
<path d="M83 214L131 214C134.312 214 137 213.951 137 213.89L137 212.11C137 212.049 134.312 212 131 212L83 212C79.688 212 77 212.049 77 212.11L77 213.89C77 213.951 79.688 214 83 214Z" fill="#444444"/>
</g>
<path d="M3.23754e-06 131L3.59727e-07 83C1.61158e-07 79.688 0.734297 77 1.63906 77L28.0825 77C28.9873 77 29.7216 79.688 29.7216 83L29.7216 131C29.7216 134.312 28.9873 137 28.0825 137L1.63906 137C0.734301 137 3.43611e-06 134.312 3.23754e-06 131Z" fill="#6E6E6E"/>
<path d="M3.23754e-06 131L3.59727e-07 83C1.61158e-07 79.688 0.0494117 77 0.110294 77L1.8897 77C1.95058 77 2 79.688 2 83L2 131C2 134.312 1.95059 137 1.88971 137L0.110298 137C0.0494153 137 3.43611e-06 134.312 3.23754e-06 131Z" fill="#444444"/>
<defs>
<filter id="filter0_d" x="209" y="73" width="10" height="68" filterUnits="userSpaceOnUse" color-interpolation-filters="sRGB">
<feFlood flood-opacity="0" result="BackgroundImageFix"/>
<feColorMatrix in="SourceAlpha" type="matrix" values="0 0 0 0 0 0 0 0 0 0 0 0 0 0 0 0 0 0 127 0"/>
<feOffset dx="1"/>
<feGaussianBlur stdDeviation="2"/>
<feColorMatrix type="matrix" values="0 0 0 0 0 0 0 0 0 0 0 0 0 0 0 0 0 0 0.1 0"/>
<feBlend mode="normal" in2="BackgroundImageFix" result="effect1_dropShadow"/>
<feBlend mode="normal" in="SourceGraphic" in2="effect1_dropShadow" result="shape"/>
</filter>
<filter id="filter1_d" x="74" y="208" width="68" height="10" filterUnits="userSpaceOnUse" color-interpolation-filters="sRGB">
<feFlood flood-opacity="0" result="BackgroundImageFix"/>
<feColorMatrix in="SourceAlpha" type="matrix" values="0 0 0 0 0 0 0 0 0 0 0 0 0 0 0 0 0 0 127 0"/>
<feOffset dx="1"/>
<feGaussianBlur stdDeviation="2"/>
<feColorMatrix type="matrix" values="0 0 0 0 0 0 0 0 0 0 0 0 0 0 0 0 0 0 0.1 0"/>
<feBlend mode="normal" in2="BackgroundImageFix" result="effect1_dropShadow"/>
<feBlend mode="normal" in="SourceGraphic" in2="effect1_dropShadow" result="shape"/>
</filter>
</defs>
</svg>
