<svg width="214" height="214" viewBox="0 0 214 214" fill="none" xmlns="http://www.w3.org/2000/svg">
<path d="M126 151.929L126 146.583L126 132.623L126 110.988L126 102.895L125.609 92.1142C124.73 89.5304 122.477 87.6881 119.833 87.6881L95.1667 87.6881C91.7627 87.6881 89 90.745 89 94.5115L89 132.623L89 141.57L89 151.929L89 173.564L89 182.743L89 192.87L89 196.864C89 200.631 91.7627 203.688 95.1667 203.688L119.833 203.688C123.237 203.688 126 200.631 126 196.864L126 151.929Z" fill="#EFF6FE"/>
<path d="M116.652 87.9354L108.848 87.9354L88.4714 87.9354L56.8911 87.9354L45.0781 87.9354L29.3413 88.3233C25.5697 89.197 22.8805 91.4346 22.8805 94.0601L22.8804 118.559C22.8804 121.94 27.3426 124.684 32.8406 124.684L88.4714 124.684L101.531 124.684L116.652 124.684L148.232 124.684L161.631 124.684L176.413 124.684L182.243 124.684C187.741 124.684 192.203 121.94 192.203 118.559L192.203 94.0601C192.203 90.6793 187.741 87.9354 182.243 87.9354L116.652 87.9354Z" fill="#EFF6FE"/>
<path d="M116.61 87.6856L105.665 87.6856L88.4138 87.6856L56.8159 87.6856L51.284 87.6856L29.2263 87.6856C25.4526 88.5891 22.7865 91.304 22.7865 94.0189L22.7865 106.686L192.203 106.686L192.203 94.0189C192.203 90.523 187.739 87.6856 182.237 87.6856L116.61 87.6856Z" fill="#D2DCE7"/>
<path d="M96.6811 87.9352L74.5018 87.9352L121.536 124.684L143.715 124.684L96.6811 87.9352Z" fill="#D2DCE7"/>
<path d="M137.854 87.9352L115.675 87.9352L162.709 124.684L184.889 124.684L137.854 87.9352Z" fill="#D2DCE7"/>
<path d="M56.9935 87.9352L38.0648 87.9352C37.098 87.9352 36.1678 88.074 35.3107 88.3231L81.8485 124.684L102.542 123.686L56.9935 87.9352Z" fill="#D2DCE7"/>
<path d="M102.702 123.648L83.7734 123.648C82.8066 123.648 81.8764 123.787 81.0193 124.036L81.7352 124.687L82.2305 124.687L89.3012 124.648L89.3012 130.507L125.707 158.951L125.707 141.622L102.702 123.648Z" fill="#D2DCE7"/>
<path d="M17.3637 87.9352L7.92573 89.6864C6.95891 89.6864 2.34299 92.4373 1.48591 92.6864L42.2187 124.684L64.3979 124.684L17.3637 87.9352Z" fill="#D2DCE7"/>
<mask id="mask0" mask-type="alpha" maskUnits="userSpaceOnUse" x="89" y="32" width="37" height="172">
<path d="M125.824 127.335L125.824 119.458L125.824 98.8911L125.824 67.0158L125.824 55.0925L125.437 39.2087C124.566 35.4019 122.334 32.6875 119.715 32.6875L95.2762 32.6875C91.9037 32.6875 89.1666 37.1913 89.1666 42.7407L89.1665 98.8911L89.1665 112.073L89.1665 127.335L89.1665 159.21L89.1665 172.734L89.1665 187.654L89.1665 193.539C89.1665 199.088 91.9036 203.592 95.2761 203.592L119.715 203.592C123.087 203.592 125.824 199.088 125.824 193.539L125.824 127.335Z" fill="#EFF6FE"/>
</mask>
<g mask="url(#mask0)">
<path d="M88.6678 144.188L87.7197 152.182C86.7463 152.194 83.5425 155.928 82.6826 156.188L122.664 186.762L127.806 186.7L144.993 186.494L88.6678 144.188Z" fill="#D2DCE7"/>
<path d="M127.806 190.688L122.664 186.762L127.806 186.7L127.806 190.688Z" fill="#D2DCE7"/>
<path d="M88.6678 174.358L87.7197 182.352C86.7463 182.364 83.5425 186.098 82.6826 186.358L122.664 216.932L127.806 216.87L144.993 216.664L88.6678 174.358Z" fill="#D2DCE7"/>
<path d="M127.806 220.857L122.664 216.932L127.806 216.87L127.806 220.857Z" fill="#D2DCE7"/>
</g>
<path d="M96.4247 87.6856L74.3048 87.6856L97.759 106.686L119.879 106.686L96.4247 87.6856Z" fill="#A1AEBC"/>
<path d="M138.036 87.6856L115.916 87.6856L139.37 106.686L161.49 106.686L138.036 87.6856Z" fill="#A1AEBC"/>
<mask id="mask1" mask-type="alpha" maskUnits="userSpaceOnUse" x="21" y="87" width="171" height="38">
<path d="M115.743 87.9354L107.866 87.9354L87.2988 87.9354L55.4234 87.9354L50.5107 92.6065L27.6161 88.3232C23.8093 89.197 21.0949 91.4346 21.0949 94.0601L21.0949 118.559C21.0949 121.94 25.5987 124.684 31.1481 124.684L87.2988 124.684L100.481 124.684L115.743 124.684L147.618 124.684L161.142 124.684L176.062 124.684L181.947 124.684C187.496 124.684 192 121.94 192 118.559L192 94.0601C192 90.6793 187.496 87.9354 181.947 87.9354L115.743 87.9354Z" fill="#EFF6FE"/>
<path d="M115.7 87.6856L104.653 87.6856L87.2407 87.6856L55.3475 87.6856L49.7639 87.6856L27.5248 88.0867C23.7159 88.9903 21 91.304 21 94.0189L21 106.686L192 106.686L192 94.0189C192 90.523 187.494 87.6857 181.941 87.6856L115.7 87.6856Z" fill="#D2DCE7"/>
</mask>
<g mask="url(#mask1)">
<path d="M176.526 87.9352L154.14 87.9352L201.613 124.684L224 124.684L176.526 87.9352Z" fill="#D2DCE7"/>
<path d="M176.709 87.6856L154.383 87.6856L178.056 106.686L200.383 106.686L176.709 87.6856Z" fill="#A1AEBC"/>
</g>
<path d="M80.6582 106.686L56.9464 87.6856L37.8611 87.6856C36.8862 87.6856 35.6666 87.6856 34.6759 87.6856L58.2953 106.686L80.6582 106.686Z" fill="#A1AEBC"/>
<path d="M41.0293 106.686L17.3175 87.6856L4.95435 89.6856C3.97953 89.6856 13.9581 101.284 3.46824 97.6856L18.6664 106.686L41.0293 106.686Z" fill="#A1AEBC"/>
<path d="M82.9375 214L130.937 214C134.249 214 136.938 213.259 136.938 212.346L136.938 185.654C136.938 184.741 134.25 184 130.938 184L82.9375 184C79.6255 184 76.9375 184.741 76.9375 185.654L76.9375 212.346C76.9375 213.259 79.6255 214 82.9375 214Z" fill="#6E6E6E"/>
<path d="M2.04215e-05 83L2.26906e-06 131C1.01654e-06 134.312 0.741177 137 1.65441 137L28.3456 137C29.2588 137 30 134.312 30 131L30 83C30 79.688 29.2588 77 28.3456 77L1.65443 77C0.741199 77 2.1674e-05 79.688 2.04215e-05 83Z" fill="#6E6E6E"/>
<path d="M2.04215e-05 83L2.26906e-06 131C1.01654e-06 134.312 0.0494112 137 0.110293 137L1.88968 137C1.95056 137 1.99998 134.312 1.99998 131L2 83C2 79.688 1.95059 77 1.88971 77L0.110315 77C0.0494338 77 2.1674e-05 79.688 2.04215e-05 83Z" fill="#444444"/>
<path d="M214 83L214 131C214 134.312 213.259 137 212.346 137L185.654 137C184.741 137 184 134.312 184 131L184 83C184 79.688 184.741 77 185.654 77L212.346 77C213.259 77 214 79.688 214 83Z" fill="#6E6E6E"/>
<path d="M82.9688 213.969L130.969 213.969C134.281 213.969 136.969 213.919 136.969 213.858L136.969 212.079C136.969 212.018 134.281 211.969 130.969 211.969L82.9688 211.969C79.6568 211.969 76.9688 212.018 76.9688 212.079L76.9688 213.858C76.9688 213.919 79.6567 213.969 82.9688 213.969Z" fill="#444444"/>
<path d="M214 83L214 131C214 134.312 213.951 137 213.89 137L212.11 137C212.049 137 212 134.312 212 131L212 83C212 79.688 212.049 77 212.11 77L213.89 77C213.951 77 214 79.688 214 83Z" fill="#444444"/>
</svg>
