<svg width="164" height="169" viewBox="0 0 164 169" fill="none" xmlns="http://www.w3.org/2000/svg">
<g filter="url(#filter0_i)">
<rect y="5" width="163.69" height="163.69" fill="#7C7345" fill-opacity="0.2"/>
</g>
<path d="M68.8512 50.0442L68.8512 54.0959L68.8512 64.6748L68.8512 81.0704L68.8512 87.2033L69.1472 95.3734C69.8139 97.3315 71.5212 98.7277 73.5244 98.7277L92.2174 98.7277C94.797 98.7277 96.8906 96.4111 96.8906 93.5567L96.8906 64.6748L96.8906 57.8944L96.8906 50.0442L96.8906 33.6487L96.8906 26.6926L96.8906 19.0181L96.8906 15.9913C96.8906 13.1369 94.797 10.8203 92.2174 10.8203L73.5244 10.8203C70.9448 10.8203 68.8512 13.1369 68.8512 15.9913L68.8512 50.0442Z" fill="#EFF6FE"/>
<path d="M86.5069 71.4761L100.851 71.4761C101.584 71.4761 102.289 71.3709 102.939 71.1822L102.396 70.6892L102.021 70.6892L96.6624 70.7182L96.6624 66.2785L69.0732 44.7227L69.0732 57.855L86.5069 71.4761Z" fill="#D2DCE7"/>
<mask id="mask0" mask-type="alpha" maskUnits="userSpaceOnUse" x="68" y="10" width="29" height="131">
<path d="M68.9844 68.6839L68.9844 74.6533L68.9844 90.2394L68.9844 114.395L68.9844 123.431L69.2776 135.468C69.9381 138.353 71.6296 140.41 73.6144 140.41L92.1344 140.41C94.6901 140.41 96.7644 136.997 96.7644 132.792L96.7644 90.2394L96.7644 80.2497L96.7644 68.6839L96.7644 44.528L96.7644 34.2794L96.7644 22.9725L96.7644 18.5131C96.7644 14.3077 94.6902 10.8945 92.1344 10.8945L73.6144 10.8945C71.0586 10.8945 68.9844 14.3076 68.9844 18.5131L68.9844 68.6839Z" fill="#EFF6FE"/>
</mask>
<g mask="url(#mask0)">
<path d="M97.1425 55.9119L97.861 49.8534C98.5986 49.8445 101.027 47.0146 101.678 46.818L71.3797 23.6479L67.4825 23.6947L54.4577 23.8512L97.1425 55.9119Z" fill="#D2DCE7"/>
<path d="M67.4825 20.6732L71.3797 23.6479L67.4825 23.6947L67.4825 20.6732Z" fill="#D2DCE7"/>
<path d="M97.1425 33.0486L97.861 26.9901C98.5986 26.9813 101.027 24.1514 101.678 23.9548L71.3797 0.784605L67.4825 0.831424L54.4577 0.987896L97.1425 33.0486Z" fill="#D2DCE7"/>
<path d="M67.4825 -2.19011L71.3797 0.784605L67.4825 0.831424L67.4825 -2.19011Z" fill="#D2DCE7"/>
</g>
<path d="M100.604 4.00001L63.6227 4C61.071 4 59 4.56168 59 5.25375L59 25.4809C59 26.173 61.071 26.7347 63.6227 26.7347L100.604 26.7347C103.156 26.7347 105.227 26.173 105.227 25.4809L105.227 5.25376C105.227 4.56169 103.156 4.00001 100.604 4.00001V4.00001Z" fill="#6E6E6E"/>
<g filter="url(#filter1_d)">
<path d="M100.604 4.00001L63.6227 4C61.071 4 59 4.03745 59 4.08358L59 5.43205C59 5.47819 61.071 5.51564 63.6227 5.51564L100.604 5.51565C103.156 5.51565 105.227 5.4782 105.227 5.43207L105.227 4.08359C105.227 4.03746 103.156 4.00001 100.604 4.00001V4.00001Z" fill="#444444"/>
</g>
<g clip-path="url(#clip0)">
<path d="M116.477 97.3244V124.322C116.477 128.728 112.891 132.314 108.485 132.314H55.2002C50.7936 132.314 47.2075 128.728 47.2075 124.322V97.3244C47.2075 95.8537 48.4011 94.6602 49.8717 94.6602H113.813C115.284 94.6602 116.477 95.8537 116.477 97.3244Z" fill="#D2DCE7"/>
<path d="M116.477 97.3244V124.322C116.477 128.728 112.891 132.314 108.485 132.314H81.8425V94.6602H113.813C115.284 94.6602 116.477 95.8537 116.477 97.3244Z" fill="#A1AEBC"/>
<path d="M105.821 97.3244V118.993C105.821 120.464 104.627 121.658 103.156 121.658H60.529C59.0583 121.658 57.8647 120.464 57.8647 118.993V97.3244C57.8647 95.8537 59.0583 94.6602 60.529 94.6602H103.156C104.627 94.6602 105.821 95.8537 105.821 97.3244Z" fill="#6E6E6E"/>
<path d="M105.82 97.3244V118.993C105.82 120.464 104.627 121.658 103.156 121.658H81.8425V94.6602H103.156C104.627 94.6602 105.82 95.8537 105.82 97.3244Z" fill="#444444"/>
<path d="M71.1857 110.645C69.7143 110.645 68.5215 109.453 68.5215 107.981V97.3244C68.5215 95.853 69.7143 94.6602 71.1857 94.6602C72.6571 94.6602 73.8499 95.853 73.8499 97.3244V107.981C73.8499 109.453 72.6571 110.645 71.1857 110.645Z" fill="#FED843"/>
<path d="M84.5064 97.3244V107.981C84.5064 109.452 83.3128 110.645 81.8422 110.645C80.3715 110.645 79.178 109.452 79.178 107.981V97.3244C79.178 95.8537 80.3715 94.6602 81.8422 94.6602C83.3128 94.6602 84.5064 95.8537 84.5064 97.3244Z" fill="#FED843"/>
<path d="M84.5067 97.3244V107.981C84.5067 109.452 83.3132 110.645 81.8425 110.645V94.6602C83.3132 94.6602 84.5067 95.8537 84.5067 97.3244Z" fill="#FFB64C"/>
<path d="M92.4994 110.645C91.0281 110.645 89.8352 109.453 89.8352 107.981V97.3244C89.8352 95.853 91.0281 94.6602 92.4994 94.6602C93.9708 94.6602 95.1636 95.853 95.1636 97.3244V107.981C95.1636 109.453 93.9708 110.645 92.4994 110.645Z" fill="#FFB64C"/>
<path d="M124.648 68.0179H119.142C117.67 68.0179 116.477 66.825 116.477 65.3537C116.477 63.8823 117.67 62.6895 119.142 62.6895H124.648C126.119 62.6895 127.312 63.8823 127.312 65.3537C127.312 66.825 126.119 68.0179 124.648 68.0179Z" fill="#292929"/>
<path d="M44.5433 68.0179H39.0373C37.5659 68.0179 36.373 66.825 36.373 65.3537C36.373 63.8823 37.5659 62.6895 39.0373 62.6895H44.5433C46.0147 62.6895 47.2075 63.8823 47.2075 65.3537C47.2075 66.825 46.0147 68.0179 44.5433 68.0179Z" fill="#444444"/>
<path d="M113.813 41.375H49.8718C45.4652 41.375 41.8792 44.961 41.8792 49.3677V97.3236C41.8792 98.7942 43.0727 99.9878 44.5434 99.9878H119.141C120.612 99.9878 121.806 98.7942 121.806 97.3236V49.3677C121.806 44.961 118.22 41.375 113.813 41.375Z" fill="#EFF6FE"/>
<path d="M121.806 49.3677V97.3236C121.806 98.7942 120.612 99.9878 119.142 99.9878H81.8425V41.375H113.813C118.22 41.375 121.806 44.961 121.806 49.3677Z" fill="#D2DCE7"/>
<path d="M71.1857 84.0023C72.6571 84.0023 73.8499 82.8095 73.8499 81.338C73.8499 79.8666 72.6571 78.6738 71.1857 78.6738C69.7143 78.6738 68.5215 79.8666 68.5215 81.338C68.5215 82.8095 69.7143 84.0023 71.1857 84.0023Z" fill="#FF6C6C"/>
<path d="M81.8422 84.0023C83.3136 84.0023 84.5064 82.8095 84.5064 81.338C84.5064 79.8666 83.3136 78.6738 81.8422 78.6738C80.3708 78.6738 79.178 79.8666 79.178 81.338C79.178 82.8095 80.3708 84.0023 81.8422 84.0023Z" fill="#FF6C6C"/>
<path d="M84.5067 81.338C84.5067 82.8087 83.3132 84.0023 81.8425 84.0023V78.6738C83.3132 78.6738 84.5067 79.8674 84.5067 81.338Z" fill="#E63950"/>
<path d="M92.4994 84.0023C93.9708 84.0023 95.1636 82.8095 95.1636 81.338C95.1636 79.8666 93.9708 78.6738 92.4994 78.6738C91.028 78.6738 89.8352 79.8666 89.8352 81.338C89.8352 82.8095 91.028 84.0023 92.4994 84.0023Z" fill="#E63950"/>
<path d="M103.156 84.0023C104.627 84.0023 105.82 82.8095 105.82 81.338C105.82 79.8666 104.627 78.6738 103.156 78.6738C101.685 78.6738 100.492 79.8666 100.492 81.338C100.492 82.8095 101.685 84.0023 103.156 84.0023Z" fill="#E63950"/>
<path d="M60.529 84.0023C62.0004 84.0023 63.1932 82.8095 63.1932 81.338C63.1932 79.8666 62.0004 78.6738 60.529 78.6738C59.0576 78.6738 57.8647 79.8666 57.8647 81.338C57.8647 82.8095 59.0576 84.0023 60.529 84.0023Z" fill="#FF6C6C"/>
<path d="M97.8276 57.3594H55.2001C53.7295 57.3594 52.5359 58.5529 52.5359 60.0236V70.6805C52.5359 72.1511 53.7295 73.3447 55.2001 73.3447H97.8276C99.2983 73.3447 100.492 72.1511 100.492 70.6805V60.0236C100.492 58.5529 99.2983 57.3594 97.8276 57.3594Z" fill="#6E6E6E"/>
<path d="M100.492 60.0236V70.6805C100.492 72.1511 99.2987 73.3447 97.8281 73.3447H81.8428V57.3594H97.8281C99.2987 57.3594 100.492 58.5529 100.492 60.0236Z" fill="#444444"/>
<path d="M57.8647 62.6875H63.1932V68.0159H57.8647V62.6875Z" fill="#444444"/>
<path d="M68.5215 62.6875H73.8499V68.0159H68.5215V62.6875Z" fill="#444444"/>
<path d="M79.1785 62.6875H84.5069V68.0159H79.1785V62.6875Z" fill="#444444"/>
<path d="M81.8425 62.6875H84.5067V68.0159H81.8425V62.6875Z" fill="#292929"/>
<path d="M89.835 62.6875H95.1634V68.0159H89.835V62.6875Z" fill="#292929"/>
<path d="M108.485 73.3447C107.013 73.3447 105.821 72.1518 105.821 70.6805V60.0236C105.821 58.5522 107.013 57.3594 108.485 57.3594C109.956 57.3594 111.149 58.5522 111.149 60.0236V70.6805C111.149 72.1518 109.956 73.3447 108.485 73.3447Z" fill="#444444"/>
</g>
<defs>
<filter id="filter0_i" x="0" y="5" width="163.69" height="163.69" filterUnits="userSpaceOnUse" color-interpolation-filters="sRGB">
<feFlood flood-opacity="0" result="BackgroundImageFix"/>
<feBlend mode="normal" in="SourceGraphic" in2="BackgroundImageFix" result="shape"/>
<feColorMatrix in="SourceAlpha" type="matrix" values="0 0 0 0 0 0 0 0 0 0 0 0 0 0 0 0 0 0 127 0" result="hardAlpha"/>
<feMorphology radius="1" operator="erode" in="SourceAlpha" result="effect1_innerShadow"/>
<feOffset/>
<feComposite in2="hardAlpha" operator="arithmetic" k2="-1" k3="1"/>
<feColorMatrix type="matrix" values="0 0 0 0 1 0 0 0 0 1 0 0 0 0 1 0 0 0 0.4 0"/>
<feBlend mode="normal" in2="shape" result="effect1_innerShadow"/>
</filter>
<filter id="filter1_d" x="56" y="0" width="54.2271" height="9.51565" filterUnits="userSpaceOnUse" color-interpolation-filters="sRGB">
<feFlood flood-opacity="0" result="BackgroundImageFix"/>
<feColorMatrix in="SourceAlpha" type="matrix" values="0 0 0 0 0 0 0 0 0 0 0 0 0 0 0 0 0 0 127 0"/>
<feOffset dx="1"/>
<feGaussianBlur stdDeviation="2"/>
<feColorMatrix type="matrix" values="0 0 0 0 0 0 0 0 0 0 0 0 0 0 0 0 0 0 0.1 0"/>
<feBlend mode="normal" in2="BackgroundImageFix" result="effect1_dropShadow"/>
<feBlend mode="normal" in="SourceGraphic" in2="effect1_dropShadow" result="shape"/>
</filter>
<clipPath id="clip0">
<rect width="90.9387" height="90.9387" fill="white" transform="translate(36.373 41.375)"/>
</clipPath>
</defs>
</svg>
