<svg width="170" height="164" viewBox="0 0 170 164" fill="none" xmlns="http://www.w3.org/2000/svg">
<path d="M76.3759 96.2726L82.4147 96.2726L98.182 96.2726L122.619 96.2726L131.76 96.2726L143.937 95.9761C146.855 95.3081 148.936 93.5975 148.936 91.5904L148.936 72.8618C148.936 70.2773 145.483 68.1797 141.229 68.1797L98.182 68.1797L88.0761 68.1797L76.3759 68.1797L51.9391 68.1797L41.5713 68.1797L30.133 68.1797L25.6217 68.1797C21.3674 68.1797 17.9146 70.2773 17.9146 72.8618L17.9146 91.5904C17.9146 94.175 21.3674 96.2726 25.6217 96.2726L76.3759 96.2726Z" fill="#EFF6FE"/>
<path d="M76.4084 96.4624L84.8779 96.4624L98.2266 96.4624L122.677 96.4624L126.958 96.4624L144.026 96.4624C146.946 95.7716 149.009 93.6962 149.009 91.6207L149.009 81.9375L17.9146 81.9375L17.9146 91.6207C17.9146 94.2933 21.3693 96.4624 25.626 96.4624L76.4084 96.4624Z" fill="#D2DCE7"/>
<path d="M91.8282 96.2728L108.99 96.2728L72.5954 68.1797L55.4331 68.1797L91.8282 96.2728Z" fill="#D2DCE7"/>
<path d="M59.9693 96.2728L77.1316 96.2728L40.7365 68.1797L23.5742 68.1797L59.9693 96.2728Z" fill="#D2DCE7"/>
<path d="M122.628 96.2728L137.312 96.2728C138.062 96.2728 138.784 96.1666 139.449 95.9762L103.347 68.1797L86.1421 68.1797L122.628 96.2728Z" fill="#D2DCE7"/>
<path d="M153.372 96.2728L150.462 86.6029C151.212 86.6029 150.273 82.0348 150.938 81.8444L134.091 68.1797L116.885 68.1797L153.372 96.2728Z" fill="#D2DCE7"/>
<path d="M92.0263 96.4624L109.143 96.4624L90.9938 81.9375L73.8774 81.9375L92.0263 96.4624Z" fill="#A1AEBC"/>
<path d="M59.8295 96.4624L76.9458 96.4624L58.797 81.9375L41.6807 81.9375L59.8295 96.4624Z" fill="#A1AEBC"/>
<mask id="mask0" mask-type="alpha" maskUnits="userSpaceOnUse" x="17" y="68" width="133" height="29">
<path d="M76.3759 96.2726L82.4147 96.2726L98.182 96.2726L122.619 96.2726L126.385 92.7017L143.937 95.9761C146.855 95.3081 148.936 93.5975 148.936 91.5904L148.936 72.8618C148.936 70.2773 145.483 68.1797 141.229 68.1797L98.182 68.1797L88.0761 68.1797L76.3759 68.1797L51.9391 68.1797L41.5713 68.1797L30.133 68.1797L25.6217 68.1797C21.3674 68.1797 17.9146 70.2773 17.9146 72.8618L17.9146 91.5904C17.9146 94.175 21.3674 96.2726 25.6217 96.2726L76.3759 96.2726Z" fill="#EFF6FE"/>
<path d="M76.4093 96.4624L84.8789 96.4624L98.2275 96.4624L122.678 96.4624L126.959 96.4624L144.008 96.1557C146.928 95.465 149.01 93.6962 149.01 91.6207L149.01 81.9375L17.9155 81.9375L17.9155 91.6207C17.9155 94.2933 21.3703 96.4624 25.627 96.4624L76.4093 96.4624Z" fill="#D2DCE7"/>
</mask>
<g mask="url(#mask0)">
<path d="M29.7783 96.2729L46.9406 96.2729L23.8892 78.5137L23.8892 88.9822L29.7783 96.2729Z" fill="#D2DCE7"/>
<path d="M29.6361 96.4624L46.7525 96.4624L28.6037 81.9375L11.4873 81.9375L29.6361 96.4624Z" fill="#A1AEBC"/>
</g>
<path d="M104.227 81.9375L122.575 96.4624L137.343 96.4624C138.098 96.4624 139.042 96.4624 139.808 96.4624L121.531 81.9375L104.227 81.9375Z" fill="#A1AEBC"/>
<path d="M134.893 81.9375L153.241 96.4624L162.807 94.9334C163.562 94.9334 155.84 86.0665 163.957 88.8177L152.197 81.9375L134.893 81.9375Z" fill="#A1AEBC"/>
<path d="M164.735 100.212L164.735 63.2301C164.735 60.6784 164.174 58.6074 163.482 58.6074L143.254 58.6074C142.562 58.6074 142.001 60.6784 142.001 63.2301L142.001 100.212C142.001 102.764 142.562 104.835 143.254 104.835L163.482 104.835C164.174 104.835 164.735 102.764 164.735 100.212V100.212Z" fill="#6E6E6E"/>
<g filter="url(#filter0_d)">
<path d="M164.737 100.212L164.737 63.2301C164.737 60.6784 164.699 58.6074 164.653 58.6074L163.305 58.6074C163.259 58.6074 163.221 60.6784 163.221 63.2301L163.221 100.212C163.221 102.764 163.259 104.835 163.305 104.835L164.653 104.835C164.699 104.835 164.737 102.764 164.737 100.212V100.212Z" fill="#444444"/>
</g>
<path d="M3.05811 100.212L3.05811 63.2301C3.05811 60.6784 3.61979 58.6074 4.31186 58.6074L24.539 58.6074C25.2311 58.6074 25.7928 60.6784 25.7928 63.2301L25.7928 100.212C25.7928 102.764 25.2311 104.835 24.539 104.835L4.31186 104.835C3.61979 104.835 3.05811 102.764 3.05811 100.212V100.212Z" fill="#6E6E6E"/>
<g filter="url(#filter1_d)">
<path d="M3.05664 100.212L3.05664 63.2301C3.05664 60.6784 3.09409 58.6074 3.14022 58.6074L4.48869 58.6074C4.53483 58.6074 4.57228 60.6784 4.57228 63.2301L4.57228 100.212C4.57228 102.764 4.53484 104.835 4.4887 104.835L3.14023 104.835C3.09409 104.835 3.05664 102.764 3.05664 100.212V100.212Z" fill="#444444"/>
</g>
<defs>
<filter id="filter0_d" x="160.221" y="54.6074" width="9.51564" height="54.2271" filterUnits="userSpaceOnUse" color-interpolation-filters="sRGB">
<feFlood flood-opacity="0" result="BackgroundImageFix"/>
<feColorMatrix in="SourceAlpha" type="matrix" values="0 0 0 0 0 0 0 0 0 0 0 0 0 0 0 0 0 0 127 0"/>
<feOffset dx="1"/>
<feGaussianBlur stdDeviation="2"/>
<feColorMatrix type="matrix" values="0 0 0 0 0 0 0 0 0 0 0 0 0 0 0 0 0 0 0.1 0"/>
<feBlend mode="normal" in2="BackgroundImageFix" result="effect1_dropShadow"/>
<feBlend mode="normal" in="SourceGraphic" in2="effect1_dropShadow" result="shape"/>
</filter>
<filter id="filter1_d" x="0.0566406" y="54.6074" width="9.51564" height="54.2271" filterUnits="userSpaceOnUse" color-interpolation-filters="sRGB">
<feFlood flood-opacity="0" result="BackgroundImageFix"/>
<feColorMatrix in="SourceAlpha" type="matrix" values="0 0 0 0 0 0 0 0 0 0 0 0 0 0 0 0 0 0 127 0"/>
<feOffset dx="1"/>
<feGaussianBlur stdDeviation="2"/>
<feColorMatrix type="matrix" values="0 0 0 0 0 0 0 0 0 0 0 0 0 0 0 0 0 0 0.1 0"/>
<feBlend mode="normal" in2="BackgroundImageFix" result="effect1_dropShadow"/>
<feBlend mode="normal" in="SourceGraphic" in2="effect1_dropShadow" result="shape"/>
</filter>
</defs>
</svg>
