<svg width="214" height="218" viewBox="0 0 214 218" fill="none" xmlns="http://www.w3.org/2000/svg">
<path d="M125.546 150.822L125.546 145.525L125.546 131.695L125.546 110.26L125.546 102.242L125.159 91.5608C124.288 89.0009 122.055 87.1756 119.437 87.1756L94.9983 87.1756C91.6258 87.1756 88.8887 90.2043 88.8887 93.936L88.8887 131.695L88.8887 140.559L88.8887 150.822L88.8887 172.257L88.8887 181.351L88.8887 191.384L88.8887 195.341C88.8887 199.073 91.6258 202.102 94.9982 202.102L119.437 202.102C122.809 202.102 125.546 199.073 125.546 195.341L125.546 150.822Z" fill="#EFF6FE"/>
<path d="M102.464 122.803L83.7105 122.803C82.7526 122.803 81.831 122.941 80.9819 123.187L81.6911 123.832L82.1819 123.832L89.1871 123.794L89.1871 129.598L125.256 157.779L125.256 140.611L102.464 122.803Z" fill="#D2DCE7"/>
<mask id="mask0" mask-type="alpha" maskUnits="userSpaceOnUse" x="89" y="32" width="37" height="171">
<path d="M125.372 126.455L125.372 118.651L125.372 98.2742L125.372 66.6939L125.372 54.8809L124.989 39.1441C124.125 35.3725 121.914 32.6833 119.319 32.6833L95.1068 32.6833C91.7655 32.6833 89.0538 37.1454 89.0538 42.6434L89.0537 98.2742L89.0537 111.334L89.0537 126.455L89.0537 158.035L89.0537 171.434L89.0537 186.216L89.0537 192.046C89.0537 197.544 91.7655 202.006 95.1068 202.006L119.319 202.006C122.66 202.006 125.372 197.544 125.372 192.046L125.372 126.455Z" fill="#EFF6FE"/>
</mask>
<g mask="url(#mask0)">
<path d="M88.5594 143.151L87.6201 151.072C86.6557 151.084 83.4816 154.783 82.6296 155.04L122.24 185.332L127.336 185.271L144.363 185.066L88.5594 143.151Z" fill="#D2DCE7"/>
<path d="M127.336 189.221L122.24 185.332L127.336 185.271L127.336 189.221Z" fill="#D2DCE7"/>
<path d="M88.5594 173.042L87.6201 180.963C86.6557 180.974 83.4816 184.674 82.6296 184.931L122.24 215.222L127.336 215.161L144.363 214.957L88.5594 173.042Z" fill="#D2DCE7"/>
<path d="M127.336 219.111L122.24 215.222L127.336 215.161L127.336 219.111Z" fill="#D2DCE7"/>
</g>
<path d="M83 214L131 214C134.312 214 137 213.259 137 212.346L137 185.654C137 184.741 134.312 184 131 184L83 184C79.688 184 77 184.741 77 185.654L77 212.346C77 213.259 79.688 214 83 214Z" fill="#6E6E6E"/>
<g filter="url(#filter0_d)">
<path d="M83 214L131 214C134.312 214 137 213.951 137 213.89L137 212.11C137 212.049 134.312 212 131 212L83 212C79.688 212 77 212.049 77 212.11L77 213.89C77 213.951 79.688 214 83 214Z" fill="#444444"/>
</g>
<g clip-path="url(#clip0)">
<path d="M93.4473 168.502C91.5381 168.502 89.9902 166.915 89.9902 164.957V157.395C89.9902 155.437 91.5381 153.85 93.4473 153.85C95.3565 153.85 96.9043 155.437 96.9043 157.395V164.957C96.9043 166.915 95.3565 168.502 93.4473 168.502Z" fill="#FF6C6C"/>
<path d="M121.104 168.502C119.194 168.502 117.646 166.915 117.646 164.957V157.395C117.646 155.437 119.194 153.85 121.104 153.85C123.013 153.85 124.561 155.437 124.561 157.395V164.957C124.561 166.915 123.013 168.502 121.104 168.502Z" fill="#5BC980"/>
<path d="M110.732 157.395V164.957C110.732 166.914 109.183 168.502 107.275 168.502C105.367 168.502 103.818 166.914 103.818 164.957V157.395C103.818 155.438 105.367 153.85 107.275 153.85C109.183 153.85 110.732 155.438 110.732 157.395Z" fill="#FED843"/>
<path d="M110.732 157.395V164.957C110.732 166.914 109.183 168.502 107.275 168.502V153.85C109.183 153.85 110.732 155.438 110.732 157.395Z" fill="#FFB64C"/>
<path d="M152.217 90.6484V51.0469C152.217 49.0901 150.668 47.502 148.76 47.502H65.791C63.8827 47.502 62.334 49.0901 62.334 51.0469V157.395C62.334 159.351 63.8827 160.939 65.791 160.939H148.76C150.668 160.939 152.217 159.351 152.217 157.395V110.703C152.217 106.303 152.217 105.224 152.217 100.602C152.217 95.9792 152.217 94.6801 152.217 90.6484Z" fill="#EFF6FE"/>
<path d="M152.216 110.703V157.395C152.216 159.351 150.668 160.939 148.759 160.939H107.275V47.502H148.759C150.668 47.502 152.216 49.0901 152.216 51.0469V90.6484V110.703Z" fill="#D2DCE7"/>
<path d="M130.783 98.5488L110.041 70.1895C109.35 69.2441 108.313 68.7715 107.275 68.7715C106.238 68.7715 105.201 69.2441 104.51 70.1895L83.7676 98.5488C82.0598 100.884 83.6916 104.221 86.5332 104.221H128.018C130.864 104.221 132.489 100.879 130.783 98.5488Z" fill="#6E6E6E"/>
<path d="M128.017 104.221H107.275V68.7715C108.312 68.7715 109.349 69.2441 110.041 70.1895L130.783 98.5488C132.488 100.879 130.863 104.221 128.017 104.221Z" fill="#444444"/>
<path d="M121.103 97.1309H93.4473L107.275 78.2246L121.103 97.1309Z" fill="#FED843"/>
<path d="M121.103 97.1309H107.275V78.2246L121.103 97.1309Z" fill="#FFB64C"/>
<path d="M131.475 129.035C131.475 130.992 129.926 132.58 128.018 132.58H86.5332C84.6249 132.58 83.0762 130.992 83.0762 129.035C83.0762 127.078 84.6249 125.49 86.5332 125.49H128.018C129.926 125.49 131.475 127.078 131.475 129.035Z" fill="#6E6E6E"/>
<path d="M131.475 114.855C131.475 116.812 129.926 118.4 128.018 118.4H86.5332C84.6249 118.4 83.0762 116.812 83.0762 114.855C83.0762 112.899 84.6249 111.311 86.5332 111.311H128.018C129.926 111.311 131.475 112.899 131.475 114.855Z" fill="#6E6E6E"/>
<path d="M131.474 129.035C131.474 130.992 129.925 132.58 128.017 132.58H107.275V125.49H128.017C129.925 125.49 131.474 127.078 131.474 129.035Z" fill="#444444"/>
<path d="M131.474 114.855C131.474 116.812 129.925 118.4 128.017 118.4H107.275V111.311H128.017C129.925 111.311 131.474 112.899 131.474 114.855Z" fill="#444444"/>
<path d="M79.6191 68.7715C81.5284 68.7715 83.0762 67.1844 83.0762 65.2266C83.0762 63.2688 81.5284 61.6816 79.6191 61.6816C77.7099 61.6816 76.1621 63.2688 76.1621 65.2266C76.1621 67.1844 77.7099 68.7715 79.6191 68.7715Z" fill="#D2DCE7"/>
<path d="M79.6191 146.76C81.5284 146.76 83.0762 145.173 83.0762 143.215C83.0762 141.257 81.5284 139.67 79.6191 139.67C77.7099 139.67 76.1621 141.257 76.1621 143.215C76.1621 145.173 77.7099 146.76 79.6191 146.76Z" fill="#D2DCE7"/>
<path d="M134.932 68.7715C136.841 68.7715 138.389 67.1844 138.389 65.2266C138.389 63.2688 136.841 61.6816 134.932 61.6816C133.023 61.6816 131.475 63.2688 131.475 65.2266C131.475 67.1844 133.023 68.7715 134.932 68.7715Z" fill="#A1AEBC"/>
<path d="M134.932 146.76C136.841 146.76 138.389 145.173 138.389 143.215C138.389 141.257 136.841 139.67 134.932 139.67C133.023 139.67 131.475 141.257 131.475 143.215C131.475 145.173 133.023 146.76 134.932 146.76Z" fill="#A1AEBC"/>
</g>
<defs>
<filter id="filter0_d" x="74" y="208" width="68" height="10" filterUnits="userSpaceOnUse" color-interpolation-filters="sRGB">
<feFlood flood-opacity="0" result="BackgroundImageFix"/>
<feColorMatrix in="SourceAlpha" type="matrix" values="0 0 0 0 0 0 0 0 0 0 0 0 0 0 0 0 0 0 127 0"/>
<feOffset dx="1"/>
<feGaussianBlur stdDeviation="2"/>
<feColorMatrix type="matrix" values="0 0 0 0 0 0 0 0 0 0 0 0 0 0 0 0 0 0 0.1 0"/>
<feBlend mode="normal" in2="BackgroundImageFix" result="effect1_dropShadow"/>
<feBlend mode="normal" in="SourceGraphic" in2="effect1_dropShadow" result="shape"/>
</filter>
<clipPath id="clip0">
<rect width="118" height="121" fill="white" transform="translate(48 48)"/>
</clipPath>
</defs>
</svg>
