<svg width="164" height="168" viewBox="0 0 164 168" fill="none" xmlns="http://www.w3.org/2000/svg">
<g filter="url(#filter0_i)">
<rect width="163.69" height="163.69" transform="matrix(-1 0 0 1 163.689 0)" fill="#7C7345" fill-opacity="0.2"/>
</g>
<path d="M94.1332 115.364L94.1332 111.312L94.1332 100.733L94.1332 84.3378L94.1332 78.2049L93.8372 70.0348C93.1705 68.0767 91.4632 66.6805 89.4599 66.6805L70.767 66.6805C68.1874 66.6805 66.0938 68.9971 66.0938 71.8515L66.0938 100.733L66.0938 107.514L66.0938 115.364L66.0938 131.76L66.0938 138.716L66.0938 146.39L66.0938 149.417C66.0938 152.271 68.1874 154.588 70.767 154.588L89.4599 154.588C92.0396 154.588 94.1332 152.271 94.1332 149.417L94.1332 115.364Z" fill="#EFF6FE"/>
<path d="M76.4775 93.9321L62.1329 93.9321C61.4002 93.9321 60.6953 94.0373 60.0458 94.226L60.5883 94.719L60.9637 94.719L66.322 94.69L66.322 99.1297L93.9111 120.686L93.9111 107.553L76.4775 93.9321Z" fill="#D2DCE7"/>
<mask id="mask0" mask-type="alpha" maskUnits="userSpaceOnUse" x="66" y="25" width="28" height="130">
<path d="M93.9998 96.7263L93.9998 90.7569L93.9998 75.1708L93.9998 51.0149L93.9998 41.9791L93.7066 29.9419C93.046 27.057 91.3545 25 89.3698 25L70.8498 25C68.294 25 66.2198 28.4131 66.2198 32.6185L66.2197 75.1708L66.2197 85.1605L66.2197 96.7263L66.2197 120.882L66.2197 131.131L66.2197 142.438L66.2197 146.897C66.2197 151.103 68.294 154.516 70.8497 154.516L89.3698 154.516C91.9255 154.516 93.9998 151.103 93.9998 146.897L93.9998 96.7263Z" fill="#EFF6FE"/>
</mask>
<g mask="url(#mask0)">
<path d="M65.8416 109.496L65.1231 115.555C64.3855 115.564 61.9576 118.394 61.3059 118.59L91.6044 141.76L95.5017 141.713L108.526 141.557L65.8416 109.496Z" fill="#D2DCE7"/>
<path d="M95.5017 144.735L91.6044 141.76L95.5017 141.713L95.5017 144.735Z" fill="#D2DCE7"/>
<path d="M65.8416 132.361L65.1231 138.42C64.3855 138.429 61.9576 141.259 61.3059 141.455L91.6044 164.626L95.5017 164.579L108.526 164.422L65.8416 132.361Z" fill="#D2DCE7"/>
<path d="M95.5017 167.6L91.6044 164.626L95.5017 164.579L95.5017 167.6Z" fill="#D2DCE7"/>
</g>
<path d="M61.6226 163.734L98.6043 163.734C101.156 163.734 103.227 163.173 103.227 162.481L103.227 142.253C103.227 141.561 101.156 141 98.6043 141L61.6226 141C59.0709 141 56.9999 141.561 56.9999 142.253L56.9999 162.481C56.9999 163.173 59.0709 163.734 61.6226 163.734V163.734Z" fill="#6E6E6E"/>
<g filter="url(#filter1_d)">
<path d="M61.6226 163.734L98.6043 163.734C101.156 163.734 103.227 163.697 103.227 163.651L103.227 162.302C103.227 162.256 101.156 162.219 98.6043 162.219L61.6226 162.219C59.0709 162.219 56.9999 162.256 56.9999 162.302L56.9999 163.651C56.9999 163.697 59.0709 163.734 61.6226 163.734V163.734Z" fill="#444444"/>
</g>
<g clip-path="url(#clip0)">
<path d="M70.9787 126.938C69.5073 126.938 68.3145 125.745 68.3145 124.274V118.59C68.3145 117.119 69.5073 115.926 70.9787 115.926C72.45 115.926 73.6429 117.119 73.6429 118.59V124.274C73.6429 125.745 72.45 126.938 70.9787 126.938Z" fill="#FF6C6C"/>
<path d="M92.2922 126.938C90.8208 126.938 89.6279 125.745 89.6279 124.274V118.59C89.6279 117.119 90.8208 115.926 92.2922 115.926C93.7635 115.926 94.9564 117.119 94.9564 118.59V124.274C94.9564 125.745 93.7635 126.938 92.2922 126.938Z" fill="#5BC980"/>
<path d="M84.2991 118.59V124.274C84.2991 125.744 83.1056 126.938 81.6349 126.938C80.1643 126.938 78.9707 125.744 78.9707 124.274V118.59C78.9707 117.119 80.1643 115.926 81.6349 115.926C83.1056 115.926 84.2991 117.119 84.2991 118.59Z" fill="#FED843"/>
<path d="M84.2995 118.59V124.274C84.2995 125.744 83.1059 126.938 81.6353 126.938V115.926C83.1059 115.926 84.2995 117.119 84.2995 118.59Z" fill="#FFB64C"/>
<path d="M116.27 68.4271V38.6642C116.27 37.1936 115.077 36 113.606 36H49.6647C48.1941 36 47.0005 37.1936 47.0005 38.6642V118.591C47.0005 120.061 48.1941 121.255 49.6647 121.255H113.606C115.077 121.255 116.27 120.061 116.27 118.591V83.4995C116.27 80.1926 116.27 79.3818 116.27 75.9077C116.27 72.4336 116.27 71.4572 116.27 68.4271Z" fill="#EFF6FE"/>
<path d="M116.27 83.4995V118.591C116.27 120.061 115.077 121.255 113.606 121.255H81.6353V36H113.606C115.077 36 116.27 37.1936 116.27 38.6642V68.4271V83.4995Z" fill="#D2DCE7"/>
<path d="M99.752 74.3638L83.7667 53.0501C83.2339 52.3396 82.4346 51.9844 81.6354 51.9844C80.8361 51.9844 80.0368 52.3396 79.504 53.0501L63.5187 74.3638C62.2026 76.1186 63.4601 78.6266 65.6501 78.6266H97.6207C99.8142 78.6266 101.066 76.1151 99.752 74.3638Z" fill="#6E6E6E"/>
<path d="M97.6206 78.6266H81.6353V51.9844C82.4345 51.9844 83.2338 52.3396 83.7666 53.0501L99.752 74.3638C101.066 76.1151 99.8141 78.6266 97.6206 78.6266Z" fill="#444444"/>
<path d="M92.2923 73.299H70.9785L81.6354 59.0898L92.2923 73.299Z" fill="#FED843"/>
<path d="M92.2921 73.299H81.6353V59.0898L92.2921 73.299Z" fill="#FFB64C"/>
<path d="M100.285 97.2775C100.285 98.7481 99.0913 99.9417 97.6207 99.9417H65.6501C64.1794 99.9417 62.9858 98.7481 62.9858 97.2775C62.9858 95.8068 64.1794 94.6133 65.6501 94.6133H97.6207C99.0913 94.6133 100.285 95.8068 100.285 97.2775Z" fill="#6E6E6E"/>
<path d="M100.285 86.6193C100.285 88.09 99.0913 89.2835 97.6207 89.2835H65.6501C64.1794 89.2835 62.9858 88.09 62.9858 86.6193C62.9858 85.1486 64.1794 83.9551 65.6501 83.9551H97.6207C99.0913 83.9551 100.285 85.1486 100.285 86.6193Z" fill="#6E6E6E"/>
<path d="M100.285 97.2775C100.285 98.7481 99.0912 99.9417 97.6206 99.9417H81.6353V94.6133H97.6206C99.0912 94.6133 100.285 95.8068 100.285 97.2775Z" fill="#444444"/>
<path d="M100.285 86.6193C100.285 88.09 99.0912 89.2835 97.6206 89.2835H81.6353V83.9551H97.6206C99.0912 83.9551 100.285 85.1486 100.285 86.6193Z" fill="#444444"/>
<path d="M60.3214 51.9847C61.7929 51.9847 62.9857 50.7919 62.9857 49.3205C62.9857 47.8491 61.7929 46.6562 60.3214 46.6562C58.85 46.6562 57.6572 47.8491 57.6572 49.3205C57.6572 50.7919 58.85 51.9847 60.3214 51.9847Z" fill="#D2DCE7"/>
<path d="M60.3214 110.598C61.7929 110.598 62.9857 109.405 62.9857 107.934C62.9857 106.462 61.7929 105.27 60.3214 105.27C58.85 105.27 57.6572 106.462 57.6572 107.934C57.6572 109.405 58.85 110.598 60.3214 110.598Z" fill="#D2DCE7"/>
<path d="M102.949 51.9847C104.421 51.9847 105.614 50.7919 105.614 49.3205C105.614 47.8491 104.421 46.6562 102.949 46.6562C101.478 46.6562 100.285 47.8491 100.285 49.3205C100.285 50.7919 101.478 51.9847 102.949 51.9847Z" fill="#A1AEBC"/>
<path d="M102.949 110.598C104.421 110.598 105.614 109.405 105.614 107.934C105.614 106.462 104.421 105.27 102.949 105.27C101.478 105.27 100.285 106.462 100.285 107.934C100.285 109.405 101.478 110.598 102.949 110.598Z" fill="#A1AEBC"/>
</g>
<defs>
<filter id="filter0_i" x="0" y="0" width="163.69" height="163.69" filterUnits="userSpaceOnUse" color-interpolation-filters="sRGB">
<feFlood flood-opacity="0" result="BackgroundImageFix"/>
<feBlend mode="normal" in="SourceGraphic" in2="BackgroundImageFix" result="shape"/>
<feColorMatrix in="SourceAlpha" type="matrix" values="0 0 0 0 0 0 0 0 0 0 0 0 0 0 0 0 0 0 127 0" result="hardAlpha"/>
<feMorphology radius="1" operator="erode" in="SourceAlpha" result="effect1_innerShadow"/>
<feOffset/>
<feComposite in2="hardAlpha" operator="arithmetic" k2="-1" k3="1"/>
<feColorMatrix type="matrix" values="0 0 0 0 1 0 0 0 0 1 0 0 0 0 1 0 0 0 0.4 0"/>
<feBlend mode="normal" in2="shape" result="effect1_innerShadow"/>
</filter>
<filter id="filter1_d" x="54" y="158.219" width="54.2272" height="9.51564" filterUnits="userSpaceOnUse" color-interpolation-filters="sRGB">
<feFlood flood-opacity="0" result="BackgroundImageFix"/>
<feColorMatrix in="SourceAlpha" type="matrix" values="0 0 0 0 0 0 0 0 0 0 0 0 0 0 0 0 0 0 127 0"/>
<feOffset dx="1"/>
<feGaussianBlur stdDeviation="2"/>
<feColorMatrix type="matrix" values="0 0 0 0 0 0 0 0 0 0 0 0 0 0 0 0 0 0 0.1 0"/>
<feBlend mode="normal" in2="BackgroundImageFix" result="effect1_dropShadow"/>
<feBlend mode="normal" in="SourceGraphic" in2="effect1_dropShadow" result="shape"/>
</filter>
<clipPath id="clip0">
<rect width="90.9387" height="90.9387" fill="white" transform="translate(36.3774 36.375)"/>
</clipPath>
</defs>
</svg>
