<svg width="217" height="218" viewBox="0 0 217 218" fill="none" xmlns="http://www.w3.org/2000/svg">
<path d="M61.719 89.5L57.2482 89.5L45.5751 89.5L27.4837 89.5L20.7164 89.5L11.7012 89.88C9.54059 90.736 7.99999 92.928 7.99999 95.5L7.99999 119.5C7.99999 122.812 10.5562 125.5 13.7059 125.5L45.5751 125.5L53.0569 125.5L61.719 125.5L79.8104 125.5L87.486 125.5L95.9543 125.5L99.2941 125.5C102.444 125.5 105 122.812 105 119.5L105 95.5C105 92.188 102.444 89.5 99.2941 89.5L61.719 89.5Z" fill="#EFF6FE"/>
<path d="M92 134.566L92 139.221L92 151.375L92 170.213L92 177.259L92.3694 186.646C93.2017 188.896 95.3328 190.5 97.8333 190.5L121.167 190.5C124.387 190.5 127 187.838 127 184.559L127 151.375L127 143.585L127 134.566L127 115.728L127 107.736L127 98.9187L127 96.0388C127 92.7592 124.387 89.5 121.167 89.5L97.8333 89.5C94.6133 89.5 92 92.1616 92 95.4412L92 134.566Z" fill="#EFF6FE"/>
<path d="M97.8333 89.5C94.6133 89.5 92 92.1616 92 95.4412L88.5 95.4412L87 89.5L97.8333 89.5Z" fill="#EFF6FE"/>
<path d="M73.9031 89L66.215 89L54.0978 89L31.9031 89L28.0175 89L12.5239 89C9.87321 89.9273 8.00048 92.7137 8.00048 95.5L8.00048 108.5L127 108.5L127 95.5C127 91.912 123.864 89 120 89L73.9031 89Z" fill="#D2DCE7"/>
<mask id="mask0" mask-type="alpha" maskUnits="userSpaceOnUse" x="10" y="96" width="131" height="30">
<path d="M81.995 96.5L76.0033 96.5L60.3589 96.5L36.1126 96.5L27.0431 96.5L14.9609 96.8061C12.0652 97.4957 10.0005 99.2614 10.0005 101.333L10.0005 120.667C10.0005 123.335 13.4264 125.5 17.6475 125.5L60.3589 125.5L70.386 125.5L81.995 125.5L106.241 125.5L116.528 125.5L127.877 125.5L132.353 125.5C136.575 125.5 140 123.335 140 120.667L140 101.333C140 98.6653 136.575 96.5 132.353 96.5L81.995 96.5Z" fill="#EFF6FE"/>
</mask>
<g mask="url(#mask0)">
<path d="M23.4213 89.2495L42.5269 89.2495L90.0007 125.998L67.6142 125.998L66.5005 125.136L20.6414 89.6374C21.5065 89.3883 22.4454 89.2495 23.4213 89.2495Z" fill="#D2DCE7"/>
<path d="M67.6142 125.998L90.0007 125.998L100.5 134.5L95.0005 148L67.6142 125.998Z" fill="#D2DCE7"/>
</g>
<mask id="mask1" mask-type="alpha" maskUnits="userSpaceOnUse" x="87" y="89" width="38" height="101">
<path d="M91.75 134.066L91.75 138.721L91.75 150.875L91.75 169.713L91.75 176.759L92.101 186.146C92.8916 188.396 94.9161 190 97.2917 190L119.458 190C122.517 190 125 187.338 125 184.059L125 150.875L125 143.085L125 134.066L125 115.228L125 107.236L125 98.4187L125 95.5388C125 92.2592 122.517 89 119.458 89L97.2917 89C94.2327 89 91.75 91.6616 91.75 94.9412L91.75 134.066Z" fill="#EFF6FE"/>
<path d="M97.2917 89C94.2327 89 91.75 91.6616 91.75 94.9412L88.425 94.9412L87 89L97.2917 89Z" fill="#EFF6FE"/>
</mask>
<g mask="url(#mask1)">
<path d="M71.9208 158.749L91.0264 158.749L138.5 195.498L116.114 195.498L115 194.636L69.1409 159.137C70.006 158.888 70.9449 158.749 71.9208 158.749Z" fill="#D2DCE7"/>
<path d="M116.114 195.498L138.5 195.498L149 204L143.5 217.5L116.114 195.498Z" fill="#D2DCE7"/>
<path d="M71.9208 126.999L91.0264 126.999L138.5 163.748L116.114 163.748L115 162.886L69.1409 127.387C70.006 127.138 70.9449 126.999 71.9208 126.999Z" fill="#D2DCE7"/>
<path d="M116.114 163.748L138.5 163.748L149 172.25L143.5 185.75L116.114 163.748Z" fill="#D2DCE7"/>
</g>
<mask id="mask2" mask-type="alpha" maskUnits="userSpaceOnUse" x="65" y="112" width="97" height="52">
<path d="M118.719 112L114.248 112L102.575 112L84.4837 112L77.7164 112L68.7012 112.549C66.5406 113.785 65 116.952 65 120.667L65 155.333C65 160.117 67.5562 164 70.7059 164L102.575 164L110.057 164L118.719 164L136.81 164L144.486 164L152.954 164L156.294 164C159.444 164 162 160.117 162 155.333L162 120.667C162 115.883 159.444 112 156.294 112L118.719 112Z" fill="#EFF6FE"/>
</mask>
<g mask="url(#mask2)">
<path d="M20.5264 89.2495L11.0002 91.0007C10.0244 91.0007 5.36532 93.7517 4.50025 94.0007L45.5 125.5L68 125.5L20.5264 89.2495Z" fill="#D2DCE7"/>
</g>
<path d="M80.5005 105L102.827 105L114 113.968L114 132.111L104.174 124L80.5005 105Z" fill="#A1AEBC"/>
<path d="M102.827 105L80.5005 105L59.9287 88.9999L84.0957 88.9999L102.827 105Z" fill="#A1AEBC"/>
<path d="M114 132.111L114 113.968L127 125.081L127 142.35L114 132.111Z" fill="#A1AEBC"/>
<g filter="url(#filter0_i)">
<path d="M4.65442 77.5L31.3456 77.5C32.2588 77.5 33 80.188 33 83.5L33 107.5L3 107.5L3 83.5C3 80.188 3.74118 77.5 4.65442 77.5Z" fill="#6E6E6E"/>
</g>
<path d="M56.143 99.6082L67.5 108.5L44.9103 108.5L38.8648 103.773L19.8057 89L42.5763 89L56.143 99.6082Z" fill="#A1AEBC"/>
<path d="M3.00001 83L3 131C3 134.312 3.74118 137 4.65441 137L31.3456 137C32.2588 137 33 134.312 33 131L33 83C33 79.688 32.2588 77 31.3456 77L4.65442 77C3.74119 77 3.00001 79.688 3.00001 83Z" fill="#6E6E6E"/>
<g filter="url(#filter1_d)">
<path d="M3.00001 83L3 131C3 134.312 3.04941 137 3.11029 137L4.88969 137C4.95057 137 4.99999 134.312 4.99999 131L4.99999 83C4.99999 79.688 4.95058 77 4.8897 77L3.1103 77C3.04942 77 3.00001 79.688 3.00001 83Z" fill="#444444"/>
</g>
<path d="M109.722 190.772L109.722 173.097L127 186.608L127 204.282L109.722 190.772Z" fill="#A1AEBC"/>
<path d="M109.722 158.819L109.722 141.144L127 154.654L127 172.329L109.722 158.819Z" fill="#A1AEBC"/>
<path d="M86 214L134 214C137.312 214 140 213.259 140 212.346L140 185.654C140 184.741 137.312 184 134 184L86 184C82.688 184 80 184.741 80 185.654L80 212.346C80 213.259 82.688 214 86 214Z" fill="#6E6E6E"/>
<g filter="url(#filter2_d)">
<path d="M86 214L134 214C137.312 214 140 213.951 140 213.89L140 212.11C140 212.049 137.312 212 134 212L86 212C82.688 212 80 212.049 80 212.11L80 213.89C80 213.951 82.688 214 86 214Z" fill="#444444"/>
</g>
<defs>
<filter id="filter0_i" x="3" y="77.5" width="30" height="30" filterUnits="userSpaceOnUse" color-interpolation-filters="sRGB">
<feFlood flood-opacity="0" result="BackgroundImageFix"/>
<feBlend mode="normal" in="SourceGraphic" in2="BackgroundImageFix" result="shape"/>
<feColorMatrix in="SourceAlpha" type="matrix" values="0 0 0 0 0 0 0 0 0 0 0 0 0 0 0 0 0 0 127 0" result="hardAlpha"/>
<feOffset/>
<feGaussianBlur stdDeviation="5"/>
<feComposite in2="hardAlpha" operator="arithmetic" k2="-1" k3="1"/>
<feColorMatrix type="matrix" values="0 0 0 0 0.266667 0 0 0 0 0.266667 0 0 0 0 0.266667 0 0 0 0.2 0"/>
<feBlend mode="normal" in2="shape" result="effect1_innerShadow"/>
</filter>
<filter id="filter1_d" x="0" y="73" width="9.99999" height="68" filterUnits="userSpaceOnUse" color-interpolation-filters="sRGB">
<feFlood flood-opacity="0" result="BackgroundImageFix"/>
<feColorMatrix in="SourceAlpha" type="matrix" values="0 0 0 0 0 0 0 0 0 0 0 0 0 0 0 0 0 0 127 0"/>
<feOffset dx="1"/>
<feGaussianBlur stdDeviation="2"/>
<feColorMatrix type="matrix" values="0 0 0 0 0 0 0 0 0 0 0 0 0 0 0 0 0 0 0.1 0"/>
<feBlend mode="normal" in2="BackgroundImageFix" result="effect1_dropShadow"/>
<feBlend mode="normal" in="SourceGraphic" in2="effect1_dropShadow" result="shape"/>
</filter>
<filter id="filter2_d" x="77" y="208" width="68" height="10" filterUnits="userSpaceOnUse" color-interpolation-filters="sRGB">
<feFlood flood-opacity="0" result="BackgroundImageFix"/>
<feColorMatrix in="SourceAlpha" type="matrix" values="0 0 0 0 0 0 0 0 0 0 0 0 0 0 0 0 0 0 127 0"/>
<feOffset dx="1"/>
<feGaussianBlur stdDeviation="2"/>
<feColorMatrix type="matrix" values="0 0 0 0 0 0 0 0 0 0 0 0 0 0 0 0 0 0 0.1 0"/>
<feBlend mode="normal" in2="BackgroundImageFix" result="effect1_dropShadow"/>
<feBlend mode="normal" in="SourceGraphic" in2="effect1_dropShadow" result="shape"/>
</filter>
</defs>
</svg>
