<svg width="214" height="214" viewBox="0 0 214 214" fill="none" xmlns="http://www.w3.org/2000/svg">
<path d="M88.4539 60.1961L88.4539 65.4929L88.4539 79.3229L88.4539 100.757L88.4539 108.775L88.8408 119.456C89.7125 122.016 91.9445 123.841 94.5635 123.841L119.002 123.841C122.374 123.841 125.111 120.812 125.111 117.081L125.111 79.3229L125.111 70.4588L125.111 60.1961L125.111 38.7619L125.111 29.668L125.111 19.6351L125.111 15.6781C125.111 11.9465 122.374 8.91797 119.002 8.91797L94.5635 8.91796C91.191 8.91796 88.4539 11.9465 88.4539 15.6781L88.4539 60.1961Z" fill="#EFF6FE"/>
<path d="M111.536 88.2145L130.29 88.2145C131.247 88.2145 132.169 88.077 133.018 87.8302L132.309 87.1857L131.818 87.1857L124.813 87.2237L124.813 81.4194L88.7441 53.2383L88.7441 70.4068L111.536 88.2145Z" fill="#D2DCE7"/>
<mask id="mask0" mask-type="alpha" maskUnits="userSpaceOnUse" x="88" y="9" width="37" height="170">
<path d="M88.628 84.5608L88.628 92.3647L88.628 112.741L88.6279 144.32L88.6279 156.133L89.0113 171.869C89.8749 175.641 92.0862 178.33 94.681 178.33L118.893 178.33C122.234 178.33 124.946 173.868 124.946 168.37L124.946 112.741L124.946 99.6809L124.946 84.5608L124.946 52.9813L124.946 39.5832L124.946 24.8015L124.946 18.9716C124.946 13.4737 122.235 9.01172 118.893 9.01172L94.681 9.01171C91.3398 9.01171 88.628 13.4737 88.628 18.9716L88.628 84.5608Z" fill="#EFF6FE"/>
</mask>
<g mask="url(#mask0)">
<path d="M125.441 67.8651L126.38 59.9447C127.344 59.9331 130.518 56.2335 131.37 55.9765L91.7596 25.6857L86.6645 25.7469L69.6366 25.9515L125.441 67.8651Z" fill="#D2DCE7"/>
<path d="M86.6645 21.7968L91.7596 25.6857L86.6645 25.7469L86.6645 21.7968Z" fill="#D2DCE7"/>
<path d="M125.441 37.9745L126.38 30.0541C127.344 30.0425 130.518 26.3429 131.37 26.0859L91.7595 -4.20489L86.6645 -4.14369L69.6366 -3.93913L125.441 37.9745Z" fill="#D2DCE7"/>
<path d="M86.6645 -8.09379L91.7595 -4.20489L86.6645 -4.14369L86.6645 -8.09379Z" fill="#D2DCE7"/>
</g>
<path d="M131 1.9746e-05L83 2.194e-06C79.688 9.82913e-07 77 0.741176 77 1.65441L77 28.3456C77 29.2588 79.688 30 83 30L131 30C134.312 30 137 29.2588 137 28.3456L137 1.65443C137 0.741198 134.312 2.09571e-05 131 1.9746e-05Z" fill="#6E6E6E"/>
<path d="M131 1.97459e-05L83 2.19398e-06C79.688 9.82905e-07 77 0.0494112 77 0.110293L77 1.88969C77 1.95057 79.688 1.99998 83 1.99998L131 2C134.312 2 137 1.95059 137 1.88971L137 0.110315C137 0.0494332 134.312 2.09569e-05 131 1.97459e-05Z" fill="#444444"/>
<g clip-path="url(#clip0)">
<path d="M92.4425 166.029C90.5176 166.029 88.957 164.469 88.957 162.544V155.108C88.957 153.184 90.5176 151.623 92.4425 151.623C94.3673 151.623 95.9279 153.184 95.9279 155.108V162.544C95.9279 164.469 94.3673 166.029 92.4425 166.029Z" fill="#FF6C6C"/>
<path d="M120.326 166.029C118.401 166.029 116.84 164.469 116.84 162.544V155.108C116.84 153.184 118.401 151.623 120.326 151.623C122.251 151.623 123.811 153.184 123.811 155.108V162.544C123.811 164.469 122.251 166.029 120.326 166.029Z" fill="#5BC980"/>
<path d="M109.869 155.108V162.544C109.869 164.468 108.308 166.029 106.384 166.029C104.46 166.029 102.898 164.468 102.898 162.544V155.108C102.898 153.185 104.46 151.623 106.384 151.623C108.308 151.623 109.869 153.185 109.869 155.108Z" fill="#FED843"/>
<path d="M109.869 155.108V162.544C109.869 164.468 108.308 166.029 106.384 166.029V151.623C108.308 151.623 109.869 153.185 109.869 155.108Z" fill="#FFB64C"/>
<path d="M151.695 89.4836V50.5478C151.695 48.6239 150.133 47.0625 148.209 47.0625H64.5592C62.6352 47.0625 61.0737 48.6239 61.0737 50.5478V155.108C61.0737 157.032 62.6352 158.593 64.5592 158.593H148.209C150.133 158.593 151.695 157.032 151.695 155.108V109.201C151.695 104.875 151.695 103.815 151.695 99.2697C151.695 94.7249 151.695 93.4476 151.695 89.4836Z" fill="#EFF6FE"/>
<path d="M151.694 109.201V155.108C151.694 157.032 150.133 158.593 148.209 158.593H106.384V47.0625H148.209C150.133 47.0625 151.694 48.6239 151.694 50.5478V89.4836V109.201Z" fill="#D2DCE7"/>
<path d="M130.085 97.2522L109.173 69.3688C108.476 68.4393 107.43 67.9746 106.384 67.9746C105.339 67.9746 104.293 68.4393 103.596 69.3688L82.6835 97.2522C80.9617 99.5479 82.6068 102.829 85.4718 102.829H127.297C130.167 102.829 131.805 99.5432 130.085 97.2522Z" fill="#6E6E6E"/>
<path d="M127.296 102.829H106.384V67.9746C107.429 67.9746 108.475 68.4393 109.172 69.3688L130.085 97.2522C131.804 99.5432 130.166 102.829 127.296 102.829Z" fill="#444444"/>
<path d="M120.326 95.8584H92.4424L106.384 77.2695L120.326 95.8584Z" fill="#FED843"/>
<path d="M120.325 95.8584H106.384V77.2695L120.325 95.8584Z" fill="#FFB64C"/>
<path d="M130.782 127.226C130.782 129.15 129.221 130.711 127.297 130.711H85.4718C83.5478 130.711 81.9863 129.15 81.9863 127.226C81.9863 125.302 83.5478 123.74 85.4718 123.74H127.297C129.221 123.74 130.782 125.302 130.782 127.226Z" fill="#6E6E6E"/>
<path d="M130.782 113.284C130.782 115.208 129.221 116.77 127.297 116.77H85.4718C83.5478 116.77 81.9863 115.208 81.9863 113.284C81.9863 111.36 83.5478 109.799 85.4718 109.799H127.297C129.221 109.799 130.782 111.36 130.782 113.284Z" fill="#6E6E6E"/>
<path d="M130.782 127.226C130.782 129.15 129.22 130.711 127.296 130.711H106.384V123.74H127.296C129.22 123.74 130.782 125.302 130.782 127.226Z" fill="#444444"/>
<path d="M130.782 113.284C130.782 115.208 129.22 116.77 127.296 116.77H106.384V109.799H127.296C129.22 109.799 130.782 111.36 130.782 113.284Z" fill="#444444"/>
<path d="M78.5006 67.9747C80.4255 67.9747 81.986 66.4143 81.986 64.4893C81.986 62.5644 80.4255 61.0039 78.5006 61.0039C76.5756 61.0039 75.0151 62.5644 75.0151 64.4893C75.0151 66.4143 76.5756 67.9747 78.5006 67.9747Z" fill="#D2DCE7"/>
<path d="M78.5006 144.652C80.4255 144.652 81.986 143.092 81.986 141.167C81.986 139.242 80.4255 137.682 78.5006 137.682C76.5756 137.682 75.0151 139.242 75.0151 141.167C75.0151 143.092 76.5756 144.652 78.5006 144.652Z" fill="#D2DCE7"/>
<path d="M134.268 67.9747C136.193 67.9747 137.754 66.4143 137.754 64.4893C137.754 62.5644 136.193 61.0039 134.268 61.0039C132.343 61.0039 130.783 62.5644 130.783 64.4893C130.783 66.4143 132.343 67.9747 134.268 67.9747Z" fill="#A1AEBC"/>
<path d="M134.268 144.652C136.193 144.652 137.754 143.092 137.754 141.167C137.754 139.242 136.193 137.682 134.268 137.682C132.343 137.682 130.783 139.242 130.783 141.167C130.783 143.092 132.343 144.652 134.268 144.652Z" fill="#A1AEBC"/>
</g>
<defs>
<clipPath id="clip0">
<rect width="118.969" height="118.966" fill="white" transform="translate(48 47.0625)"/>
</clipPath>
</defs>
</svg>
