<svg width="217" height="214" viewBox="0 0 217 214" fill="none" xmlns="http://www.w3.org/2000/svg">
<path d="M63.196 125.546L68.4929 125.546L82.3232 125.546L103.758 125.546L111.776 125.546L122.457 125.159C125.017 124.287 126.842 122.055 126.842 119.436L126.842 94.9983C126.842 91.6258 123.814 88.8887 120.082 88.8887L82.3232 88.8887L73.4589 88.8887L63.196 88.8887L41.7612 88.8887L32.6671 88.8887L22.6339 88.8887L18.6768 88.8887C14.9451 88.8887 11.9165 91.6258 11.9165 94.9982L11.9165 119.436C11.9165 122.809 14.9451 125.546 18.6768 125.546L63.196 125.546Z" fill="#EFF6FE"/>
<path d="M91.2147 102.464L91.2147 83.7105C91.2147 82.7527 91.0772 81.831 90.8304 80.9819L90.1859 81.6912L90.1859 82.182L90.2239 89.1871L84.4196 89.1871L56.2385 125.256L73.4071 125.256L91.2147 102.464Z" fill="#D2DCE7"/>
<mask id="mask0" mask-type="alpha" maskUnits="userSpaceOnUse" x="12" y="89" width="170" height="37">
<path d="M87.5627 125.373L95.3668 125.373L115.743 125.373L147.324 125.373L159.136 125.373L174.873 124.99C178.645 124.126 181.334 121.915 181.334 119.32L181.334 95.1078C181.334 91.7665 176.872 89.0547 171.374 89.0547L115.743 89.0547L102.683 89.0547L87.5627 89.0547L55.9824 89.0547L42.584 89.0547L27.8019 89.0547L21.9719 89.0547C16.4739 89.0547 12.0117 91.7665 12.0117 95.1077L12.0117 119.32C12.0117 122.661 16.4739 125.373 21.9719 125.373L87.5627 125.373Z" fill="#EFF6FE"/>
</mask>
<g mask="url(#mask0)">
<path d="M70.8667 88.5609L62.9461 87.6216C62.9345 86.6573 59.2349 83.4831 58.9778 82.6312L28.6863 122.242L28.7475 127.337L28.9521 144.365L70.8667 88.5609Z" fill="#D2DCE7"/>
<path d="M24.7973 127.337L28.6863 122.242L28.7475 127.337L24.7973 127.337Z" fill="#D2DCE7"/>
<path d="M40.9761 88.5609L33.0555 87.6216C33.0439 86.6572 29.3443 83.4831 29.0872 82.6311L-1.20432 122.242L-1.14311 127.337L-0.938543 144.365L40.9761 88.5609Z" fill="#D2DCE7"/>
<path d="M-5.09331 127.337L-1.20432 122.242L-1.14311 127.337L-5.09331 127.337Z" fill="#D2DCE7"/>
</g>
<path d="M3.00001 83L3 131C3 134.312 3.74118 137 4.65441 137L31.3456 137C32.2588 137 33 134.312 33 131L33 83C33 79.688 32.2588 77 31.3456 77L4.65443 77C3.74119 77 3.00001 79.688 3.00001 83Z" fill="#6E6E6E"/>
<g filter="url(#filter0_d)">
<path d="M3.00001 83L3 131C3 134.312 3.04941 137 3.11029 137L4.88969 137C4.95057 137 4.99998 134.312 4.99998 131L5 83C5 79.688 4.95059 77 4.8897 77L3.11031 77C3.04943 77 3.00001 79.688 3.00001 83Z" fill="#444444"/>
</g>
<g clip-path="url(#clip0)">
<path d="M96.2479 166.509C94.3304 166.509 92.7759 164.954 92.7759 163.037L92.7759 155.63C92.7759 153.713 94.3304 152.158 96.2478 152.158C98.1653 152.158 99.7198 153.713 99.7198 155.63L99.7198 163.037C99.7198 164.954 98.1653 166.509 96.2479 166.509Z" fill="#FF6C6C"/>
<path d="M124.023 166.509C122.106 166.509 120.551 164.954 120.551 163.037L120.551 155.63C120.551 153.713 122.106 152.158 124.023 152.158C125.941 152.158 127.495 153.713 127.495 155.63L127.495 163.037C127.495 164.954 125.941 166.509 124.023 166.509Z" fill="#5BC980"/>
<path d="M113.607 155.63L113.607 163.037C113.607 164.954 112.051 166.509 110.135 166.509C108.218 166.509 106.663 164.954 106.663 163.037L106.663 155.63C106.663 153.714 108.218 152.158 110.135 152.158C112.051 152.158 113.607 153.714 113.607 155.63Z" fill="#FED843"/>
<path d="M113.607 155.63L113.607 163.037C113.607 164.954 112.052 166.509 110.135 166.509L110.135 152.158C112.052 152.158 113.607 153.714 113.607 155.63Z" fill="#FFB64C"/>
<path d="M155.271 90.2585L155.271 51.472C155.271 49.5554 153.715 48 151.799 48L68.4717 48C66.5552 48 64.9998 49.5554 64.9998 51.472L64.9998 155.631C64.9998 157.548 66.5552 159.103 68.4717 159.103L151.799 159.103C153.715 159.103 155.271 157.547 155.271 155.631L155.271 109.901C155.271 105.591 155.271 104.534 155.271 100.007C155.271 95.4796 155.271 94.2072 155.271 90.2585Z" fill="#EFF6FE"/>
<path d="M155.271 109.901L155.271 155.631C155.271 157.547 153.715 159.103 151.799 159.103L110.135 159.103L110.135 48L151.799 48C153.715 48 155.271 49.5554 155.271 51.472L155.271 90.2585L155.271 109.901Z" fill="#D2DCE7"/>
<path d="M133.745 97.9946L112.913 70.2189C112.219 69.293 111.177 68.8301 110.135 68.8301C109.094 68.8301 108.052 69.293 107.358 70.2189L86.526 97.9946C84.8108 100.281 86.4496 103.55 89.3036 103.55L130.967 103.55C133.826 103.55 135.458 100.277 133.745 97.9946Z" fill="#6E6E6E"/>
<path d="M130.967 103.55L110.135 103.55L110.135 68.8301C111.176 68.8301 112.218 69.293 112.912 70.2189L133.744 97.9946C135.457 100.277 133.825 103.55 130.967 103.55Z" fill="#444444"/>
<path d="M124.023 96.607L96.2476 96.607L110.135 78.0898L124.023 96.607Z" fill="#FED843"/>
<path d="M124.023 96.607L110.135 96.607L110.135 78.0898L124.023 96.607Z" fill="#FFB64C"/>
<path d="M134.439 127.855C134.439 129.771 132.884 131.327 130.967 131.327L89.3035 131.327C87.387 131.327 85.8315 129.771 85.8315 127.855C85.8315 125.938 87.387 124.383 89.3035 124.383L130.967 124.383C132.884 124.383 134.439 125.938 134.439 127.855Z" fill="#6E6E6E"/>
<path d="M134.439 113.966C134.439 115.883 132.884 117.438 130.967 117.438L89.3035 117.438C87.387 117.438 85.8315 115.883 85.8315 113.966C85.8315 112.05 87.387 110.494 89.3035 110.494L130.967 110.494C132.884 110.494 134.439 112.05 134.439 113.966Z" fill="#6E6E6E"/>
<path d="M134.439 127.855C134.439 129.771 132.883 131.327 130.967 131.327L110.135 131.327L110.135 124.383L130.967 124.383C132.883 124.383 134.439 125.938 134.439 127.855Z" fill="#444444"/>
<path d="M134.439 113.966C134.439 115.883 132.883 117.438 130.967 117.438L110.135 117.438L110.135 110.494L130.967 110.494C132.883 110.494 134.439 112.05 134.439 113.966Z" fill="#444444"/>
<path d="M82.3594 68.8307C84.2769 68.8307 85.8314 67.2762 85.8314 65.3587C85.8314 63.4412 84.2769 61.8867 82.3594 61.8867C80.4419 61.8867 78.8875 63.4412 78.8875 65.3587C78.8875 67.2762 80.4419 68.8307 82.3594 68.8307Z" fill="#D2DCE7"/>
<path d="M82.3594 145.215C84.2769 145.215 85.8314 143.661 85.8314 141.743C85.8314 139.826 84.2769 138.271 82.3594 138.271C80.4419 138.271 78.8875 139.826 78.8875 141.743C78.8875 143.661 80.4419 145.215 82.3594 145.215Z" fill="#D2DCE7"/>
<path d="M137.911 68.8307C139.829 68.8307 141.383 67.2762 141.383 65.3587C141.383 63.4412 139.829 61.8867 137.911 61.8867C135.994 61.8867 134.439 63.4412 134.439 65.3587C134.439 67.2762 135.994 68.8307 137.911 68.8307Z" fill="#A1AEBC"/>
<path d="M137.911 145.215C139.829 145.215 141.383 143.661 141.383 141.743C141.383 139.826 139.829 138.271 137.911 138.271C135.994 138.271 134.439 139.826 134.439 141.743C134.439 143.661 135.994 145.215 137.911 145.215Z" fill="#A1AEBC"/>
</g>
<defs>
<filter id="filter0_d" x="0" y="73" width="9.99999" height="68" filterUnits="userSpaceOnUse" color-interpolation-filters="sRGB">
<feFlood flood-opacity="0" result="BackgroundImageFix"/>
<feColorMatrix in="SourceAlpha" type="matrix" values="0 0 0 0 0 0 0 0 0 0 0 0 0 0 0 0 0 0 127 0"/>
<feOffset dx="1"/>
<feGaussianBlur stdDeviation="2"/>
<feColorMatrix type="matrix" values="0 0 0 0 0 0 0 0 0 0 0 0 0 0 0 0 0 0 0.1 0"/>
<feBlend mode="normal" in2="BackgroundImageFix" result="effect1_dropShadow"/>
<feBlend mode="normal" in="SourceGraphic" in2="effect1_dropShadow" result="shape"/>
</filter>
<clipPath id="clip0">
<rect width="118.889" height="118.889" fill="white" transform="translate(50.9998 48)"/>
</clipPath>
</defs>
</svg>
