<svg width="167" height="167" viewBox="0 0 167 167" fill="none" xmlns="http://www.w3.org/2000/svg">
<g filter="url(#filter0_i)">
<rect width="163.69" height="163.69" transform="matrix(-4.37114e-08 -1 -1 4.37114e-08 166.689 163.689)" fill="#7C7345" fill-opacity="0.2"/>
</g>
<path d="M98.1063 118.434L98.1063 121.822L98.1063 130.668L98.1063 144.378L98.1063 149.507L97.8183 156.339C97.1696 157.976 95.5085 159.144 93.5594 159.144L75.3716 159.144C72.8617 159.144 70.8247 157.206 70.8247 154.819L70.8247 130.668L70.8247 124.998L70.8247 118.434L70.8247 104.724L70.8247 98.9072L70.8247 92.4898L70.8247 89.9588C70.8247 87.5719 72.8617 85.6348 75.3716 85.6348L93.5594 85.6348C96.0693 85.6348 98.1063 87.5719 98.1063 89.9588L98.1063 118.434Z" fill="#EFF6FE"/>
<path d="M63.9551 95.4847L60.4273 95.4847L51.2164 95.4847L36.9409 95.4847L31.6011 95.4847L24.4874 95.2048C22.7825 94.5741 21.5669 92.9591 21.5669 91.0641L21.5669 73.3816C21.5669 70.9414 23.5839 68.9609 26.0692 68.9609L51.2164 68.9609L57.12 68.9609L63.9551 68.9609L78.2305 68.9609L84.2871 68.9609L90.9692 68.9609L93.1517 68.9609C95.637 68.9609 98.1069 70.9414 98.1069 73.3816L98.1069 91.0641C98.1069 93.5043 96.0899 95.4847 93.6046 95.4847L63.9551 95.4847Z" fill="#EFF6FE"/>
<path d="M98.1069 91.0641C98.1069 93.5043 96.0899 95.4847 93.6046 95.4847L93.6046 98.1371L98.1069 99.2738L98.1069 91.0641Z" fill="#EFF6FE"/>
<path d="M98.487 109.201L98.487 115.027L98.487 124.21L98.487 141.03L98.487 143.974L98.487 155.716C97.7843 157.725 95.6727 159.144 93.5612 159.144L83.7095 159.144L83.7095 68.9629L93.5612 68.9629C96.2802 68.9629 98.487 71.3394 98.487 74.2676L98.487 109.201Z" fill="#D2DCE7"/>
<mask id="mask0" mask-type="alpha" maskUnits="userSpaceOnUse" x="70" y="59" width="23" height="99">
<path d="M92.8025 103.067L92.8025 107.608L92.8025 119.464L92.8025 137.838L92.8025 144.711L92.5706 153.867C92.048 156.062 90.7099 157.626 89.1397 157.626L74.4885 157.626C72.4666 157.626 70.8257 155.03 70.8257 151.831L70.8257 119.464L70.8257 111.865L70.8257 103.067L70.8257 84.6929L70.8257 76.8972L70.8257 68.2966L70.8257 64.9045C70.8257 61.7056 72.4666 59.1094 74.4885 59.1094L89.1397 59.1094C91.1616 59.1094 92.8025 61.7056 92.8025 64.9045L92.8025 103.067Z" fill="#EFF6FE"/>
</mask>
<g mask="url(#mask0)">
<path d="M98.2988 147.455L98.2988 132.977L70.4499 96.9999L70.4499 113.965L71.1032 114.809L98.0049 149.562C98.1936 148.906 98.2988 148.195 98.2988 147.455Z" fill="#D2DCE7"/>
<path d="M70.4499 113.965L70.4499 96.9999L64.007 89.043L53.7764 93.211L70.4499 113.965Z" fill="#D2DCE7"/>
</g>
<mask id="mask1" mask-type="alpha" maskUnits="userSpaceOnUse" x="21" y="68" width="78" height="32">
<path d="M63.9556 95.4867L60.4278 95.4867L51.2169 95.4867L36.9414 95.4867L31.6015 95.4867L24.4879 95.2067C22.783 94.576 21.5674 92.961 21.5674 91.066L21.5674 73.3835C21.5674 70.9433 23.5844 68.9629 26.0697 68.9629L51.2169 68.9629L57.1205 68.9629L63.9556 68.9629L78.231 68.9629L84.2876 68.9629L90.9697 68.9629L93.1522 68.9629C95.6375 68.9629 98.1074 70.9433 98.1074 73.3835L98.1074 91.066C98.1074 93.5062 96.0904 95.4867 93.6051 95.4867L63.9556 95.4867Z" fill="#EFF6FE"/>
<path d="M98.1074 91.066C98.1074 93.5062 96.0904 95.4867 93.6051 95.4867L93.6051 98.139L98.1074 99.2758L98.1074 91.066Z" fill="#EFF6FE"/>
</mask>
<g mask="url(#mask1)">
<path d="M45.6279 110.703L45.6279 96.2247L17.779 60.248L17.779 77.213L18.4323 78.057L45.334 112.81C45.5227 112.154 45.6279 111.443 45.6279 110.703Z" fill="#D2DCE7"/>
<path d="M17.779 77.213L17.779 60.248L11.3361 52.291L1.10547 56.459L17.779 77.213Z" fill="#D2DCE7"/>
<path d="M69.6885 110.703L69.6885 96.2247L41.8396 60.248L41.8396 77.213L42.4929 78.057L69.3945 112.81C69.5833 112.154 69.6885 111.443 69.6885 110.703Z" fill="#D2DCE7"/>
<path d="M41.8396 77.213L41.8396 60.248L35.3966 52.291L25.166 56.459L41.8396 77.213Z" fill="#D2DCE7"/>
</g>
<mask id="mask2" mask-type="alpha" maskUnits="userSpaceOnUse" x="31" y="49" width="40" height="74">
<path d="M70.8257 82.0591L70.8257 85.4471L70.8257 94.2932L70.8257 108.003L70.8257 113.132L70.4098 119.964C69.4727 121.601 67.0733 122.769 64.2579 122.769L37.9867 122.769C34.3613 122.769 31.419 120.831 31.419 118.444L31.4189 94.2932L31.4189 88.6234L31.4189 82.0591L31.4189 68.349L31.4189 62.5322L31.4189 56.1148L31.4189 53.5838C31.4189 51.1969 34.3613 49.2598 37.9867 49.2598L64.2579 49.2598C67.8833 49.2598 70.8257 51.1969 70.8257 53.5838L70.8257 82.0591Z" fill="#EFF6FE"/>
</mask>
<g mask="url(#mask2)">
<path d="M98.2971 149.652L96.97 156.871C96.97 157.611 94.8853 161.142 94.6965 161.797L70.8257 130.727L70.8257 113.676L98.2971 149.652Z" fill="#D2DCE7"/>
</g>
<path d="M86.3609 104.202L86.3609 87.282L79.565 78.8146L65.8155 78.8146L71.9623 86.2614L86.3609 104.202Z" fill="#A1AEBC"/>
<path d="M86.3609 87.282L86.3609 104.202L98.4863 119.791L98.4862 101.477L86.3609 87.282Z" fill="#A1AEBC"/>
<path d="M65.8155 78.8146L79.565 78.8146L71.1435 68.9629L58.0566 68.9629L65.8155 78.8146Z" fill="#A1AEBC"/>
<g filter="url(#filter1_i)">
<path d="M107.2 161.678L107.2 141.451C107.2 140.759 105.162 140.197 102.653 140.197L84.4648 140.197L84.4648 162.932L102.653 162.932C105.162 162.932 107.2 162.37 107.2 161.678V161.678Z" fill="#6E6E6E"/>
</g>
<path d="M90.4464 122.661L83.708 114.055L83.708 131.174L87.2904 135.755L98.4855 150.199L98.4855 132.942L90.4464 122.661Z" fill="#A1AEBC"/>
<path d="M103.459 162.934L66.4777 162.934C63.926 162.934 61.855 162.372 61.855 161.68L61.855 141.453C61.855 140.761 63.926 140.199 66.4777 140.199L103.459 140.199C106.011 140.199 108.082 140.761 108.082 141.453L108.082 161.68C108.082 162.372 106.011 162.934 103.459 162.934V162.934Z" fill="#6E6E6E"/>
<g filter="url(#filter2_d)">
<path d="M103.459 162.934L66.4777 162.934C63.926 162.934 61.855 162.896 61.855 162.85L61.855 161.502C61.855 161.455 63.926 161.418 66.4777 161.418L103.459 161.418C106.011 161.418 108.082 161.455 108.082 161.502L108.082 162.85C108.082 162.896 106.011 162.934 103.459 162.934V162.934Z" fill="#444444"/>
</g>
<path d="M21.3595 82.0539L34.7539 82.0539L24.5155 68.9601L11.121 68.9601L21.3595 82.0539Z" fill="#A1AEBC"/>
<path d="M3.75733 100.214L3.75732 63.2321C3.75732 60.6804 4.319 58.6094 5.01107 58.6094L25.2382 58.6094C25.9303 58.6094 26.492 60.6804 26.492 63.2321L26.492 100.214C26.492 102.766 25.9303 104.837 25.2382 104.837L5.01108 104.837C4.31901 104.837 3.75733 102.766 3.75733 100.214V100.214Z" fill="#6E6E6E"/>
<g filter="url(#filter3_d)">
<path d="M3.75733 100.214L3.75732 63.2321C3.75732 60.6804 3.79477 58.6094 3.84091 58.6094L5.18938 58.6094C5.23552 58.6094 5.27296 60.6804 5.27296 63.2321L5.27296 100.214C5.27296 102.766 5.23552 104.837 5.18938 104.837L3.84091 104.837C3.79477 104.837 3.75733 102.766 3.75733 100.214V100.214Z" fill="#444444"/>
</g>
<path d="M45.5753 82.0539L58.9698 82.0539L48.7313 68.9601L35.3369 68.9601L45.5753 82.0539Z" fill="#A1AEBC"/>
<defs>
<filter id="filter0_i" x="3" y="0" width="163.69" height="163.69" filterUnits="userSpaceOnUse" color-interpolation-filters="sRGB">
<feFlood flood-opacity="0" result="BackgroundImageFix"/>
<feBlend mode="normal" in="SourceGraphic" in2="BackgroundImageFix" result="shape"/>
<feColorMatrix in="SourceAlpha" type="matrix" values="0 0 0 0 0 0 0 0 0 0 0 0 0 0 0 0 0 0 127 0" result="hardAlpha"/>
<feMorphology radius="1" operator="erode" in="SourceAlpha" result="effect1_innerShadow"/>
<feOffset/>
<feComposite in2="hardAlpha" operator="arithmetic" k2="-1" k3="1"/>
<feColorMatrix type="matrix" values="0 0 0 0 1 0 0 0 0 1 0 0 0 0 1 0 0 0 0.4 0"/>
<feBlend mode="normal" in2="shape" result="effect1_innerShadow"/>
</filter>
<filter id="filter1_i" x="84.4648" y="140.197" width="22.7347" height="22.7347" filterUnits="userSpaceOnUse" color-interpolation-filters="sRGB">
<feFlood flood-opacity="0" result="BackgroundImageFix"/>
<feBlend mode="normal" in="SourceGraphic" in2="BackgroundImageFix" result="shape"/>
<feColorMatrix in="SourceAlpha" type="matrix" values="0 0 0 0 0 0 0 0 0 0 0 0 0 0 0 0 0 0 127 0" result="hardAlpha"/>
<feOffset/>
<feGaussianBlur stdDeviation="5"/>
<feComposite in2="hardAlpha" operator="arithmetic" k2="-1" k3="1"/>
<feColorMatrix type="matrix" values="0 0 0 0 0.266667 0 0 0 0 0.266667 0 0 0 0 0.266667 0 0 0 0.2 0"/>
<feBlend mode="normal" in2="shape" result="effect1_innerShadow"/>
</filter>
<filter id="filter2_d" x="58.855" y="157.418" width="54.2271" height="9.51565" filterUnits="userSpaceOnUse" color-interpolation-filters="sRGB">
<feFlood flood-opacity="0" result="BackgroundImageFix"/>
<feColorMatrix in="SourceAlpha" type="matrix" values="0 0 0 0 0 0 0 0 0 0 0 0 0 0 0 0 0 0 127 0"/>
<feOffset dx="1"/>
<feGaussianBlur stdDeviation="2"/>
<feColorMatrix type="matrix" values="0 0 0 0 0 0 0 0 0 0 0 0 0 0 0 0 0 0 0.1 0"/>
<feBlend mode="normal" in2="BackgroundImageFix" result="effect1_dropShadow"/>
<feBlend mode="normal" in="SourceGraphic" in2="effect1_dropShadow" result="shape"/>
</filter>
<filter id="filter3_d" x="0.757324" y="54.6094" width="9.51564" height="54.2271" filterUnits="userSpaceOnUse" color-interpolation-filters="sRGB">
<feFlood flood-opacity="0" result="BackgroundImageFix"/>
<feColorMatrix in="SourceAlpha" type="matrix" values="0 0 0 0 0 0 0 0 0 0 0 0 0 0 0 0 0 0 127 0"/>
<feOffset dx="1"/>
<feGaussianBlur stdDeviation="2"/>
<feColorMatrix type="matrix" values="0 0 0 0 0 0 0 0 0 0 0 0 0 0 0 0 0 0 0.1 0"/>
<feBlend mode="normal" in2="BackgroundImageFix" result="effect1_dropShadow"/>
<feBlend mode="normal" in="SourceGraphic" in2="effect1_dropShadow" result="shape"/>
</filter>
</defs>
</svg>
