<svg width="171" height="167" viewBox="0 0 171 167" fill="none" xmlns="http://www.w3.org/2000/svg">
<g filter="url(#filter0_i)">
<rect width="163.69" height="163.69" transform="matrix(1.19249e-08 -1 -1 -1.19249e-08 166.689 163.689)" fill="#7C7345" fill-opacity="0.2"/>
</g>
<path d="M70.445 116.888L70.445 112.836L70.4449 102.257L70.4449 85.8616L70.4449 79.7287L70.7409 71.5586C71.4076 69.6006 73.1149 68.2044 75.1182 68.2044L93.8111 68.2044C96.3907 68.2044 98.4844 70.521 98.4844 73.3754L98.4844 102.257L98.4844 109.037L98.4844 116.888L98.4844 133.283L98.4844 140.239L98.4844 147.914L98.4844 150.94C98.4844 153.795 96.3908 156.111 93.8111 156.111L75.1182 156.111C72.5386 156.111 70.445 153.795 70.445 150.94L70.445 116.888Z" fill="#EFF6FE"/>
<path d="M77.5287 68.3916L83.4428 68.3916L98.8846 68.3916L122.817 68.3916L131.769 68.3916L143.695 68.6856C146.553 69.3477 148.591 71.0434 148.591 73.033L148.591 91.5988C148.591 94.1608 145.209 96.2402 141.043 96.2402L98.8846 96.2402L88.9874 96.2402L77.5287 96.2402L53.5964 96.2402L43.4428 96.2402L32.2406 96.2402L27.8224 96.2402C23.6559 96.2402 20.2744 94.1609 20.2744 91.5988L20.2744 73.0331C20.2744 70.471 23.6559 68.3916 27.8224 68.3916L77.5287 68.3916Z" fill="#EFF6FE"/>
<path d="M77.562 68.203L85.8566 68.203L98.9297 68.203L122.875 68.203L127.068 68.203L143.783 68.203C146.643 68.8877 148.664 70.9451 148.664 73.0025L148.664 82.6015L20.2759 82.6016L20.2759 73.0025C20.2759 70.3532 23.6593 68.203 27.8281 68.203L77.562 68.203Z" fill="#D2DCE7"/>
<path d="M92.6641 68.3915L109.472 68.3915L73.8285 96.2402L57.0205 96.2402L92.6641 68.3915Z" fill="#D2DCE7"/>
<path d="M61.461 68.3915L78.269 68.3915L42.6253 96.2402L25.8174 96.2402L61.461 68.3915Z" fill="#D2DCE7"/>
<path d="M122.74 68.3915L137.085 68.3915C137.818 68.3915 138.523 68.4967 139.172 68.6854L103.905 96.2402L88.2231 95.4845L122.74 68.3915Z" fill="#D2DCE7"/>
<path d="M88.1021 95.4556L102.447 95.4556C103.179 95.4556 103.884 95.5608 104.534 95.7496L103.991 96.2426L103.616 96.2426L98.2576 96.2135L98.2576 100.653L70.6685 122.209L70.6685 109.077L88.1021 95.4556Z" fill="#D2DCE7"/>
<path d="M152.774 68.3915L159.926 69.7186C160.658 69.7186 164.157 71.8033 164.806 71.9921L133.938 96.2402L117.13 96.2402L152.774 68.3915Z" fill="#D2DCE7"/>
<mask id="mask0" mask-type="alpha" maskUnits="userSpaceOnUse" x="70" y="26" width="29" height="131">
<path d="M70.5788 98.25L70.5788 92.2806L70.5788 76.6946L70.5788 52.5388L70.5788 43.503L70.8721 31.4659C71.5326 28.581 73.2241 26.524 75.2088 26.524L93.7288 26.524C96.2846 26.524 98.3589 29.9371 98.3589 34.1425L98.3589 76.6946L98.3589 86.6842L98.3589 98.25L98.3589 122.406L98.3589 132.654L98.3589 143.961L98.3589 148.421C98.3589 152.626 96.2846 156.039 93.7289 156.039L75.2089 156.039C72.6531 156.039 70.5789 152.626 70.5789 148.421L70.5788 98.25Z" fill="#EFF6FE"/>
</mask>
<g mask="url(#mask0)">
<path d="M98.7365 111.02L99.455 117.078C100.193 117.087 102.621 119.917 103.272 120.114L72.9737 143.284L69.0765 143.237L56.0517 143.08L98.7365 111.02Z" fill="#D2DCE7"/>
<path d="M69.0765 146.258L72.9737 143.284L69.0765 143.237L69.0765 146.258Z" fill="#D2DCE7"/>
<path d="M98.7365 133.885L99.455 139.944C100.193 139.952 102.621 142.782 103.272 142.979L72.9737 166.149L69.0765 166.102L56.0517 165.946L98.7365 133.885Z" fill="#D2DCE7"/>
<path d="M69.0765 169.124L72.9737 166.149L69.0765 166.102L69.0765 169.124Z" fill="#D2DCE7"/>
</g>
<path d="M92.8595 68.203L109.622 68.203L91.8484 82.6016L75.0854 82.6016L92.8595 68.203Z" fill="#A1AEBC"/>
<path d="M61.3258 68.203L78.0888 68.203L60.3147 82.6016L43.5518 82.6016L61.3258 68.203Z" fill="#A1AEBC"/>
<mask id="mask1" mask-type="alpha" maskUnits="userSpaceOnUse" x="20" y="68" width="131" height="29">
<path d="M78.2186 68.3916L84.188 68.3916L99.7741 68.3916L123.93 68.3916L127.653 71.9315L145.003 68.6856C147.888 69.3477 149.945 71.0434 149.945 73.033L149.945 91.5988C149.945 94.1608 146.532 96.2402 142.326 96.2402L99.7741 96.2402L89.7844 96.2402L78.2186 96.2402L54.0627 96.2402L43.8141 96.2402L32.5072 96.2402L28.0478 96.2402C23.8423 96.2402 20.4292 94.1609 20.4292 91.5988L20.4292 73.0331C20.4292 70.471 23.8423 68.3916 28.0478 68.3916L78.2186 68.3916Z" fill="#EFF6FE"/>
<path d="M78.2512 68.203L86.6233 68.203L99.8186 68.203L123.988 68.203L128.219 68.203L145.073 68.507C147.959 69.1917 150.017 70.9451 150.017 73.0025L150.017 82.6015L20.4297 82.6016L20.4297 73.0025C20.4297 70.3532 23.8447 68.203 28.0525 68.203L78.2512 68.203Z" fill="#D2DCE7"/>
</mask>
<g mask="url(#mask1)">
<path d="M32.1574 68.3915L49.1224 68.3915L13.1457 96.2402L-3.81934 96.2402L32.1574 68.3915Z" fill="#D2DCE7"/>
<path d="M32.0169 68.203L48.9365 68.203L30.9963 82.6016L14.0767 82.6016L32.0169 68.203Z" fill="#A1AEBC"/>
</g>
<path d="M104.808 82.6016L122.777 68.203L137.24 68.203C137.979 68.203 138.903 68.203 139.654 68.203L121.755 82.6016L104.808 82.6016Z" fill="#A1AEBC"/>
<path d="M134.839 82.6016L152.808 68.203L162.177 69.7186C162.916 69.7186 155.354 78.5085 163.303 75.7812L151.786 82.6016L134.839 82.6016Z" fill="#A1AEBC"/>
<path d="M165.932 63.2296L165.932 100.211C165.932 102.763 165.37 104.834 164.678 104.834L144.451 104.834C143.759 104.834 143.197 102.763 143.197 100.211L143.197 63.2296C143.197 60.6778 143.759 58.6068 144.451 58.6068L164.678 58.6068C165.37 58.6068 165.932 60.6778 165.932 63.2296V63.2296Z" fill="#6E6E6E"/>
<g filter="url(#filter1_d)">
<path d="M165.932 63.2296L165.932 100.211C165.932 102.763 165.895 104.834 165.849 104.834L164.5 104.834C164.454 104.834 164.416 102.763 164.416 100.211L164.416 63.2296C164.416 60.6778 164.454 58.6068 164.5 58.6068L165.849 58.6068C165.895 58.6068 165.932 60.6778 165.932 63.2296V63.2296Z" fill="#444444"/>
</g>
<path d="M103.213 162.932L66.2316 162.932C63.6799 162.932 61.6089 162.37 61.6089 161.678L61.6089 141.451C61.6089 140.759 63.6799 140.197 66.2316 140.197L103.213 140.197C105.765 140.197 107.836 140.759 107.836 141.451L107.836 161.678C107.836 162.37 105.765 162.932 103.213 162.932V162.932Z" fill="#6E6E6E"/>
<g filter="url(#filter2_d)">
<path d="M103.213 162.932L66.2316 162.932C63.6799 162.932 61.6089 162.894 61.6089 162.848L61.6089 161.5C61.6089 161.453 63.6799 161.416 66.2316 161.416L103.213 161.416C105.765 161.416 107.836 161.453 107.836 161.5L107.836 162.848C107.836 162.894 105.765 162.932 103.213 162.932V162.932Z" fill="#444444"/>
</g>
<path d="M3.75684 63.2296L3.75684 100.211C3.75684 102.763 4.31852 104.834 5.01059 104.834L25.2378 104.834C25.9298 104.834 26.4915 102.763 26.4915 100.211L26.4915 63.2296C26.4915 60.6778 25.9298 58.6068 25.2378 58.6068L5.01059 58.6068C4.31852 58.6068 3.75684 60.6778 3.75684 63.2296Z" fill="#6E6E6E"/>
<g filter="url(#filter3_d)">
<path d="M3.75537 63.2296L3.75537 100.211C3.75537 102.763 3.79282 104.834 3.83895 104.834L5.18743 104.834C5.23356 104.834 5.27101 102.763 5.27101 100.211L5.27101 63.2296C5.27101 60.6778 5.23356 58.6068 5.18743 58.6068L3.83896 58.6068C3.79282 58.6068 3.75537 60.6778 3.75537 63.2296V63.2296Z" fill="#444444"/>
</g>
<defs>
<filter id="filter0_i" x="3" y="0" width="163.69" height="163.69" filterUnits="userSpaceOnUse" color-interpolation-filters="sRGB">
<feFlood flood-opacity="0" result="BackgroundImageFix"/>
<feBlend mode="normal" in="SourceGraphic" in2="BackgroundImageFix" result="shape"/>
<feColorMatrix in="SourceAlpha" type="matrix" values="0 0 0 0 0 0 0 0 0 0 0 0 0 0 0 0 0 0 127 0" result="hardAlpha"/>
<feMorphology radius="1" operator="erode" in="SourceAlpha" result="effect1_innerShadow"/>
<feOffset/>
<feComposite in2="hardAlpha" operator="arithmetic" k2="-1" k3="1"/>
<feColorMatrix type="matrix" values="0 0 0 0 1 0 0 0 0 1 0 0 0 0 1 0 0 0 0.4 0"/>
<feBlend mode="normal" in2="shape" result="effect1_innerShadow"/>
</filter>
<filter id="filter1_d" x="161.417" y="54.6074" width="9.51565" height="54.2271" filterUnits="userSpaceOnUse" color-interpolation-filters="sRGB">
<feFlood flood-opacity="0" result="BackgroundImageFix"/>
<feColorMatrix in="SourceAlpha" type="matrix" values="0 0 0 0 0 0 0 0 0 0 0 0 0 0 0 0 0 0 127 0"/>
<feOffset dx="1"/>
<feGaussianBlur stdDeviation="2"/>
<feColorMatrix type="matrix" values="0 0 0 0 0 0 0 0 0 0 0 0 0 0 0 0 0 0 0.1 0"/>
<feBlend mode="normal" in2="BackgroundImageFix" result="effect1_dropShadow"/>
<feBlend mode="normal" in="SourceGraphic" in2="effect1_dropShadow" result="shape"/>
</filter>
<filter id="filter2_d" x="58.6089" y="157.416" width="54.2271" height="9.51565" filterUnits="userSpaceOnUse" color-interpolation-filters="sRGB">
<feFlood flood-opacity="0" result="BackgroundImageFix"/>
<feColorMatrix in="SourceAlpha" type="matrix" values="0 0 0 0 0 0 0 0 0 0 0 0 0 0 0 0 0 0 127 0"/>
<feOffset dx="1"/>
<feGaussianBlur stdDeviation="2"/>
<feColorMatrix type="matrix" values="0 0 0 0 0 0 0 0 0 0 0 0 0 0 0 0 0 0 0.1 0"/>
<feBlend mode="normal" in2="BackgroundImageFix" result="effect1_dropShadow"/>
<feBlend mode="normal" in="SourceGraphic" in2="effect1_dropShadow" result="shape"/>
</filter>
<filter id="filter3_d" x="0.755371" y="54.6074" width="9.51564" height="54.2271" filterUnits="userSpaceOnUse" color-interpolation-filters="sRGB">
<feFlood flood-opacity="0" result="BackgroundImageFix"/>
<feColorMatrix in="SourceAlpha" type="matrix" values="0 0 0 0 0 0 0 0 0 0 0 0 0 0 0 0 0 0 127 0"/>
<feOffset dx="1"/>
<feGaussianBlur stdDeviation="2"/>
<feColorMatrix type="matrix" values="0 0 0 0 0 0 0 0 0 0 0 0 0 0 0 0 0 0 0.1 0"/>
<feBlend mode="normal" in2="BackgroundImageFix" result="effect1_dropShadow"/>
<feBlend mode="normal" in="SourceGraphic" in2="effect1_dropShadow" result="shape"/>
</filter>
</defs>
</svg>
