<svg width="24" height="24" viewBox="0 0 24 24" fill="none" xmlns="http://www.w3.org/2000/svg">
<path fill-rule="evenodd" clip-rule="evenodd" d="M2.62514 8.625V3.75C2.62514 3.12868 3.12882 2.625 3.75014 2.625C4.37146 2.625 4.87514 3.12868 4.87514 3.75V6.438C6.59264 4.3995 9.24164 3.1245 12.1351 3.1245C16.9006 3.1245 21.0151 6.585 21.3751 11.2215C21.3913 11.4393 21.219 11.625 21.0005 11.625H19.4957C19.3025 11.625 19.1409 11.4783 19.1221 11.286C18.8041 7.9935 15.8191 5.376 12.1381 5.376C9.53414 5.376 7.27214 6.6885 6.06314 8.625H9.18314C9.80446 8.625 10.3081 9.12868 10.3081 9.75C10.3081 10.3713 9.80446 10.875 9.18314 10.875H4.06064C3.24838 10.6988 2.92178 10.3999 2.61914 9.4125V8.625H2.62364H2.62514ZM12.0001 21C11.2045 21 10.4414 20.6839 9.87882 20.1213C9.31621 19.5587 9.00014 18.7957 9.00014 18C9.00014 17.2044 9.31621 16.4413 9.87882 15.8787C10.4414 15.3161 11.2045 15 12.0001 15C12.7958 15 13.5589 15.3161 14.1215 15.8787C14.6841 16.4413 15.0001 17.2044 15.0001 18C15.0001 18.7957 14.6841 19.5587 14.1215 20.1213C13.5589 20.6839 12.7958 21 12.0001 21Z" fill="black"/>
</svg>
