<svg width="35" height="52" viewBox="0 0 35 52" fill="none" xmlns="http://www.w3.org/2000/svg">
<g filter="url(#filter0_d)">
<path d="M23.7155 38.5467L23.2684 40.3744C21.927 40.9039 20.8556 41.3068 20.0577 41.5839C19.259 41.8618 18.3309 42 17.2735 42C15.6496 42 14.3866 41.6022 13.4857 40.8121C12.5849 40.0188 12.1343 39.0136 12.1343 37.7941C12.1343 37.322 12.167 36.8365 12.235 36.3418C12.3036 35.8465 12.4125 35.2887 12.5617 34.6652L14.238 28.7319C14.3871 28.1637 14.5139 27.6254 14.6154 27.1164C14.7184 26.6104 14.768 26.145 14.768 25.726C14.768 24.9682 14.6111 24.4382 14.2988 24.1403C13.9865 23.8431 13.3905 23.6923 12.5057 23.6923C12.0724 23.6923 11.627 23.7617 11.173 23.8959C10.717 24.0307 10.3272 24.1609 10 24.2819L10.4483 22.4527C11.5464 22.0056 12.5961 21.6228 13.6002 21.305C14.6042 20.9864 15.553 20.8269 16.4504 20.8269C18.063 20.8269 19.3074 21.2166 20.1813 21.9962C21.0552 22.7763 21.492 23.7875 21.492 25.0336C21.492 25.2915 21.4633 25.7458 21.4016 26.3951C21.3414 27.0458 21.2293 27.6421 21.0658 28.1844L19.3966 34.0939C19.2598 34.5685 19.1368 35.1111 19.0298 35.7217C18.9194 36.3283 18.8666 36.7918 18.8666 37.1026C18.8666 37.8873 19.0416 38.4231 19.3923 38.7079C19.7457 38.9926 20.3542 39.1343 21.2187 39.1343C21.6245 39.1343 22.0862 39.0623 22.5993 38.9209C23.1109 38.7796 23.4841 38.6554 23.7155 38.5467ZM24.1388 13.737C24.1388 14.7666 23.7508 15.6459 22.971 16.3689C22.1932 17.0945 21.2559 17.4576 20.1595 17.4576C19.0596 17.4576 18.1201 17.0945 17.3334 16.3689C16.5482 15.6456 16.1547 14.7666 16.1547 13.737C16.1547 12.7094 16.5482 11.8286 17.3334 11.0964C18.1187 10.3654 19.0599 10 20.1595 10C21.2557 10 22.1932 10.3662 22.971 11.0964C23.7514 11.8286 24.1388 12.7097 24.1388 13.737Z" fill="#F2C94C"/>
</g>
<defs>
<filter id="filter0_d" x="0" y="0" width="34.1388" height="52" filterUnits="userSpaceOnUse" color-interpolation-filters="sRGB">
<feFlood flood-opacity="0" result="BackgroundImageFix"/>
<feColorMatrix in="SourceAlpha" type="matrix" values="0 0 0 0 0 0 0 0 0 0 0 0 0 0 0 0 0 0 127 0"/>
<feOffset/>
<feGaussianBlur stdDeviation="5"/>
<feColorMatrix type="matrix" values="0 0 0 0 0.94902 0 0 0 0 0.788235 0 0 0 0 0.298039 0 0 0 0.4 0"/>
<feBlend mode="normal" in2="BackgroundImageFix" result="effect1_dropShadow"/>
<feBlend mode="normal" in="SourceGraphic" in2="effect1_dropShadow" result="shape"/>
</filter>
</defs>
</svg>
