<svg width="40" height="40" viewBox="0 0 40 40" fill="none" xmlns="http://www.w3.org/2000/svg">
<path d="M34.3342 19.0284C33.8302 18.5246 33.2187 18.2729 32.4987 18.2729H31.6356V13.0908C31.6356 9.78022 30.4484 6.93767 28.0733 4.56266C25.6984 2.18755 22.8561 1 19.5451 1C16.2342 1 13.3913 2.18755 11.0166 4.56256C8.64151 6.93767 7.45433 9.78012 7.45433 13.0908V18.2729H6.59082C5.87137 18.2729 5.25949 18.5246 4.75566 19.0284C4.25182 19.5319 4 20.1438 4 20.8639V36.4092C4 37.1286 4.25192 37.7407 4.75566 38.2446C5.25949 38.748 5.87137 39 6.59082 39H32.4994C33.2194 39 33.8308 38.7483 34.3348 38.2446C34.8382 37.7407 35.0905 37.1286 35.0905 36.4092V20.8636C35.0909 20.1441 34.8382 19.5323 34.3342 19.0284ZM26.454 18.2729H12.6362V13.0908C12.6362 11.1837 13.311 9.55524 14.6604 8.20605C16.0099 6.85666 17.6381 6.18211 19.5454 6.18211C21.4529 6.18211 23.0806 6.85657 24.4303 8.20605C25.7793 9.55515 26.454 11.1837 26.454 13.0908V18.2729Z" fill="#343434"/>
</svg>
