<svg width="20" height="28" viewBox="0 0 20 28" fill="none" xmlns="http://www.w3.org/2000/svg">
<path d="M18.9014 4.75696L19.9835 0.620415C20.0922 0.204593 19.6429 -0.140458 19.2501 0.0572893L0.884798 9.30361C0.0417892 9.72803 -0.254322 10.7554 0.239659 11.5419L10.0225 27.1168C10.8914 28.5001 13.0474 28.198 13.4765 26.6328L15.3416 19.8304C15.4608 19.3954 14.9699 19.0431 14.5755 19.2805L11.6625 21.0337C11.4198 21.1798 11.1007 21.1054 10.9531 20.8685L10.5195 20.1727C10.3732 19.938 10.4507 19.6329 10.6926 19.4908L14.9746 16.9758C15.6933 16.5537 16.2026 15.8649 16.3841 15.0696L17.6384 9.57243C17.7363 9.14374 17.2544 8.81166 16.8688 9.04201L8.25755 14.1854C8.01523 14.3301 7.69773 14.256 7.55011 14.0201L7.0991 13.2993C6.9524 13.0649 7.02926 12.7596 7.27087 12.6171L17.5189 6.57128C18.2071 6.1653 18.7035 5.51391 18.9014 4.75696Z" fill="url(#paint0_linear)" fill-opacity="0.5"/>
<path d="M18.9014 4.75696L19.9835 0.620415C20.0922 0.204593 19.6429 -0.140458 19.2501 0.0572893L0.884798 9.30361C0.0417892 9.72803 -0.254322 10.7554 0.239659 11.5419L10.0225 27.1168C10.8914 28.5001 13.0474 28.198 13.4765 26.6328L15.3416 19.8304C15.4608 19.3954 14.9699 19.0431 14.5755 19.2805L11.6625 21.0337C11.4198 21.1798 11.1007 21.1054 10.9531 20.8685L10.5195 20.1727C10.3732 19.938 10.4507 19.6329 10.6926 19.4908L14.9746 16.9758C15.6933 16.5537 16.2026 15.8649 16.3841 15.0696L17.6384 9.57243C17.7363 9.14374 17.2544 8.81166 16.8688 9.04201L8.25755 14.1854C8.01523 14.3301 7.69773 14.256 7.55011 14.0201L7.0991 13.2993C6.9524 13.0649 7.02926 12.7596 7.27087 12.6171L17.5189 6.57128C18.2071 6.1653 18.7035 5.51391 18.9014 4.75696Z" fill="url(#paint1_linear)"/>
<defs>
<linearGradient id="paint0_linear" x1="10.5904" y1="-1.58229" x2="6.88597" y2="30.162" gradientUnits="userSpaceOnUse">
<stop stop-color="#E6961E"/>
<stop offset="1" stop-color="#F2C94C" stop-opacity="0"/>
</linearGradient>
<linearGradient id="paint1_linear" x1="7.99799" y1="28" x2="7.99799" y2="4.86287e-08" gradientUnits="userSpaceOnUse">
<stop stop-color="#E6961E"/>
<stop offset="1" stop-color="#F2C94C"/>
</linearGradient>
</defs>
</svg>
