<svg width="15" height="15" viewBox="0 0 15 15" fill="none" xmlns="http://www.w3.org/2000/svg">
<path d="M3.35756 14.6971C3.19322 14.6971 3.03002 14.6458 2.89075 14.5451C2.6313 14.3571 2.51011 14.0339 2.58072 13.722L3.54571 9.47125L0.273072 6.60123C0.0325111 6.39122 -0.0593873 6.05865 0.0393778 5.75434C0.138143 5.45061 0.406857 5.23557 0.725011 5.20616L5.05511 4.81304L6.76707 0.806706C6.89331 0.512357 7.18079 0.322266 7.5002 0.322266C7.81961 0.322266 8.1071 0.512357 8.23333 0.80602L9.94529 4.81304L14.2747 5.20616C14.5935 5.23488 14.8623 5.45061 14.961 5.75434C15.0598 6.05808 14.9685 6.39122 14.7279 6.60123L11.4553 9.47068L12.4203 13.7214C12.491 14.0339 12.3697 14.3571 12.1103 14.5445C11.8516 14.732 11.5065 14.7464 11.234 14.5827L7.5002 12.3513L3.76636 14.5839C3.64012 14.6589 3.49947 14.6971 3.35756 14.6971ZM7.5002 11.3901C7.64211 11.3901 7.78265 11.4282 7.909 11.5032L11.4328 13.6108L10.5221 9.59874C10.4571 9.3132 10.554 9.01508 10.7747 8.8219L13.8648 6.11187L9.77649 5.74061C9.48214 5.71372 9.22899 5.52866 9.11397 5.25743L7.5002 1.47666L5.88448 5.258C5.77073 5.5274 5.51758 5.71246 5.22391 5.73935L1.13506 6.11061L4.22505 8.82064C4.44638 9.01439 4.5432 9.31194 4.47762 9.59817L3.56757 13.6101L7.09141 11.5032C7.21764 11.4282 7.35829 11.3901 7.5002 11.3901ZM5.02203 4.89052C5.02203 4.89052 5.02203 4.89121 5.02135 4.89178L5.02203 4.89052ZM9.97711 4.88869L9.9778 4.88995C9.9778 4.88926 9.9778 4.88926 9.97711 4.88869Z" fill="#F2C94C"/>
</svg>
