<svg width="12" height="12" viewBox="0 0 12 12" fill="none" xmlns="http://www.w3.org/2000/svg">
<path d="M5.00171 0.724365H7.00726V1.06183H7.73154V0.677124C7.73163 0.303772 7.42804 0 7.05487 0H4.9541C4.58093 0 4.27734 0.303772 4.27734 0.677124V1.06183H5.00171V0.724365Z" fill="white"/>
<path d="M9.40362 3.93164H2.60418C2.41787 3.93164 2.2712 4.09058 2.28621 4.27634L2.85467 11.3054C2.88634 11.6978 3.21364 12 3.60686 12H8.40084C8.79406 12 9.12136 11.6978 9.15304 11.3053L9.72149 4.27634C9.73659 4.09058 9.58993 3.93164 9.40362 3.93164ZM4.25057 11.2503C4.24297 11.2507 4.23537 11.251 4.22786 11.251C4.03798 11.251 3.87859 11.1031 3.86678 10.9111L3.51055 5.14059C3.49828 4.94092 3.65017 4.76907 3.84975 4.75681C4.0487 4.74472 4.22127 4.89624 4.23354 5.09601L4.58968 10.8665C4.60204 11.0662 4.45015 11.2379 4.25057 11.2503ZM6.37011 10.8888C6.37011 11.0888 6.20797 11.2509 6.00792 11.2509C5.80788 11.2509 5.64574 11.0888 5.64574 10.8888V5.11826C5.64574 4.91821 5.80788 4.75607 6.00792 4.75607C6.20788 4.75607 6.37011 4.91821 6.37011 5.11826V10.8888ZM8.49724 5.13959L8.15712 10.9101C8.14586 11.1025 7.9862 11.2509 7.79595 11.2509C7.78881 11.2509 7.78158 11.2507 7.77434 11.2504C7.57467 11.2386 7.42232 11.0672 7.43413 10.8675L7.77416 5.09692C7.78588 4.89725 7.95672 4.7449 8.15694 4.75671C8.35662 4.76843 8.50896 4.93991 8.49724 5.13959Z" fill="white"/>
<path d="M10.6558 2.8139L10.418 2.10089C10.3552 1.91293 10.1793 1.78613 9.98107 1.78613H2.02614C1.82802 1.78613 1.65197 1.91293 1.58934 2.10089L1.35149 2.8139C1.30562 2.95142 1.36531 3.09167 1.47673 3.16162C1.52214 3.19009 1.57588 3.20721 1.63494 3.20721H10.3724C10.4314 3.20721 10.4852 3.19009 10.5306 3.16153C10.642 3.09158 10.7017 2.95132 10.6558 2.8139Z" fill="white"/>
</svg>
