<svg width="141" height="141" viewBox="0 0 141 141" fill="none" xmlns="http://www.w3.org/2000/svg">
<g clip-path="url(#clip0)">
<path d="M110.156 52.875H105.75V35.25C105.75 15.8096 89.9404 0 70.5 0C51.0596 0 35.25 15.8096 35.25 35.25V52.875H30.8438C23.5588 52.875 17.625 58.8029 17.625 66.0938V127.781C17.625 135.072 23.5588 141 30.8438 141H110.156C117.441 141 123.375 135.072 123.375 127.781V66.0938C123.375 58.8029 117.441 52.875 110.156 52.875ZM47 35.25C47 22.2897 57.5397 11.75 70.5 11.75C83.4603 11.75 94 22.2897 94 35.25V52.875H47V35.25ZM76.375 98.2418V111.625C76.375 114.868 73.7489 117.5 70.5 117.5C67.2511 117.5 64.625 114.868 64.625 111.625V98.2418C61.1294 96.2031 58.75 92.4549 58.75 88.125C58.75 81.6449 64.0199 76.375 70.5 76.375C76.9801 76.375 82.25 81.6449 82.25 88.125C82.25 92.4549 79.8706 96.2031 76.375 98.2418Z" fill="white" fill-opacity="0.45"/>
</g>
<defs>
<clipPath id="clip0">
<rect width="141" height="141" fill="white"/>
</clipPath>
</defs>
</svg>
