<svg width="35" height="35" viewBox="0 0 35 35" fill="none" xmlns="http://www.w3.org/2000/svg">
<path d="M5.83317 26.2502V25.3022C5.83317 24.8064 6.0665 24.3397 6.43109 24.121C8.89567 22.6481 11.7103 21.8752 14.5832 21.8752C14.6269 21.8752 14.6561 21.8752 14.6998 21.8897C14.8457 20.8689 15.1373 19.8918 15.5603 19.0022C15.2394 18.9731 14.9186 18.9585 14.5832 18.9585C11.054 18.9585 7.75817 19.9356 4.94359 21.6127C3.66025 22.371 2.9165 23.8002 2.9165 25.3022V29.1668H16.4207C15.8082 28.2918 15.3269 27.3002 15.0061 26.2502H5.83317Z" fill="white"/>
<path d="M14.5833 17.5002C17.8062 17.5002 20.4167 14.8897 20.4167 11.6668C20.4167 8.44391 17.8062 5.8335 14.5833 5.8335C11.3604 5.8335 8.75 8.44391 8.75 11.6668C8.75 14.8897 11.3604 17.5002 14.5833 17.5002ZM14.5833 8.75016C16.1875 8.75016 17.5 10.0627 17.5 11.6668C17.5 13.271 16.1875 14.5835 14.5833 14.5835C12.9792 14.5835 11.6667 13.271 11.6667 11.6668C11.6667 10.0627 12.9792 8.75016 14.5833 8.75016Z" fill="white"/>
<path d="M30.2601 23.3337C30.2601 23.0128 30.2163 22.7212 30.1726 22.4149L31.8351 20.942L30.3767 18.4191L28.2621 19.1337C27.7955 18.7399 27.2705 18.4337 26.6871 18.2149L26.2496 16.042H23.333L22.8955 18.2149C22.3121 18.4337 21.7871 18.7399 21.3205 19.1337L19.2059 18.4191L17.7476 20.942L19.4101 22.4149C19.3663 22.7212 19.3226 23.0128 19.3226 23.3337C19.3226 23.6545 19.3663 23.9462 19.4101 24.2524L17.7476 25.7253L19.2059 28.2482L21.3205 27.5337C21.7871 27.9274 22.3121 28.2337 22.8955 28.4524L23.333 30.6253H26.2496L26.6871 28.4524C27.2705 28.2337 27.7955 27.9274 28.2621 27.5337L30.3767 28.2482L31.8351 25.7253L30.1726 24.2524C30.2163 23.9462 30.2601 23.6545 30.2601 23.3337ZM24.7913 26.2503C23.1871 26.2503 21.8746 24.9378 21.8746 23.3337C21.8746 21.7295 23.1871 20.417 24.7913 20.417C26.3955 20.417 27.708 21.7295 27.708 23.3337C27.708 24.9378 26.3955 26.2503 24.7913 26.2503Z" fill="white"/>
</svg>
