<svg width="35" height="35" viewBox="0 0 35 35" fill="none" xmlns="http://www.w3.org/2000/svg">
<path d="M32.0832 7.554L15.4436 24.2082L9.26025 18.0248L11.3165 15.9686L15.4436 20.0957L30.0269 5.51234L32.0832 7.554ZM28.8603 14.904C29.0498 15.7353 29.1665 16.6103 29.1665 17.4998C29.1665 23.9457 23.9457 29.1665 17.4998 29.1665C11.054 29.1665 5.83317 23.9457 5.83317 17.4998C5.83317 11.054 11.054 5.83317 17.4998 5.83317C19.804 5.83317 21.9332 6.504 23.7415 7.65609L25.8415 5.55609C23.479 3.89359 20.6061 2.9165 17.4998 2.9165C9.44984 2.9165 2.9165 9.44984 2.9165 17.4998C2.9165 25.5498 9.44984 32.0832 17.4998 32.0832C25.5498 32.0832 32.0832 25.5498 32.0832 17.4998C32.0832 15.7644 31.7623 14.1019 31.2082 12.5561L28.8603 14.904Z" fill="#2BB466"/>
</svg>
