<svg width="35" height="35" viewBox="0 0 35 35" fill="none" xmlns="http://www.w3.org/2000/svg">
<path d="M17.5 32.0835C19.1042 32.0835 20.4167 30.771 20.4167 29.1668H14.5834C14.5834 30.771 15.8959 32.0835 17.5 32.0835ZM26.25 23.3335V16.0418C26.25 11.5647 23.8729 7.81683 19.6875 6.82516V5.8335C19.6875 4.62308 18.7105 3.646 17.5 3.646C16.2896 3.646 15.3125 4.62308 15.3125 5.8335V6.82516C11.1417 7.81683 8.75003 11.5502 8.75003 16.0418V23.3335L5.83337 26.2502V27.7085H29.1667V26.2502L26.25 23.3335ZM23.3334 24.7918H11.6667V16.0418C11.6667 12.4252 13.8688 9.47933 17.5 9.47933C21.1313 9.47933 23.3334 12.4252 23.3334 16.0418V24.7918ZM11.0542 5.95016L8.96878 3.86475C5.46878 6.5335 3.16462 10.646 2.96045 15.3127H5.87712C6.09587 11.4481 8.0792 8.06475 11.0542 5.95016ZM29.1229 15.3127H32.0396C31.8209 10.646 29.5167 6.5335 26.0313 3.86475L23.9605 5.95016C26.9063 8.06475 28.9042 11.4481 29.1229 15.3127Z" fill="white"/>
</svg>
