<svg width="214" height="214" viewBox="0 0 214 214" fill="none" xmlns="http://www.w3.org/2000/svg">
<path d="M152.816 89.1668L147.519 89.1668L133.688 89.1668L112.254 89.1668L104.236 89.1668L93.5545 89.5537C90.9946 90.4254 89.1693 92.6574 89.1693 95.2764L89.1693 119.715C89.1693 123.087 92.1979 125.824 95.9296 125.824L133.688 125.824L142.553 125.824L152.816 125.824L174.251 125.824L183.345 125.824L193.378 125.824L197.335 125.824C201.067 125.824 204.095 123.087 204.095 119.715L204.095 95.2764C204.095 91.9039 201.067 89.1668 197.335 89.1668L152.816 89.1668Z" fill="#EFF6FE"/>
<path d="M124.797 112.249L124.797 131.002C124.797 131.96 124.935 132.882 125.181 133.731L125.826 133.022L125.826 132.531L125.788 125.526L131.592 125.526L159.773 89.457L142.605 89.457L124.797 112.249Z" fill="#D2DCE7"/>
<mask id="mask0" mask-type="alpha" maskUnits="userSpaceOnUse" x="34" y="89" width="171" height="37">
<path d="M128.449 89.3399L120.645 89.3399L100.269 89.3399L68.6885 89.3399L56.8755 89.3399L41.1387 89.7232C37.3671 90.5868 34.6779 92.7982 34.6779 95.3929L34.6779 119.605C34.6779 122.946 39.14 125.658 44.638 125.658L100.269 125.658L113.329 125.658L128.449 125.658L160.03 125.658L173.428 125.658L188.21 125.658L194.04 125.658C199.538 125.658 204 122.946 204 119.605L204 95.393C204 92.0517 199.538 89.3399 194.04 89.3399L128.449 89.3399Z" fill="#EFF6FE"/>
</mask>
<g mask="url(#mask0)">
<path d="M145.145 126.152L153.066 127.091C153.078 128.056 156.777 131.23 157.034 132.082L187.326 92.471L187.265 87.3759L187.06 70.348L145.145 126.152Z" fill="#D2DCE7"/>
<path d="M191.215 87.3759L187.326 92.471L187.265 87.3759L191.215 87.3759Z" fill="#D2DCE7"/>
<path d="M175.036 126.152L182.957 127.091C182.968 128.056 186.668 131.23 186.925 132.082L217.217 92.471L217.155 87.3759L216.951 70.348L175.036 126.152Z" fill="#D2DCE7"/>
<path d="M221.106 87.3759L217.217 92.471L217.155 87.3759L221.106 87.3759Z" fill="#D2DCE7"/>
</g>
<path d="M214 131L214 83C214 79.688 213.259 77 212.346 77L185.654 77C184.741 77 184 79.688 184 83L184 131C184 134.312 184.741 137 185.654 137L212.346 137C213.259 137 214 134.312 214 131Z" fill="#6E6E6E"/>
<path d="M214 131L214 83C214 79.688 213.951 77 213.89 77L212.11 77C212.049 77 212 79.688 212 83L212 131C212 134.312 212.049 137 212.11 137L213.89 137C213.951 137 214 134.312 214 131Z" fill="#444444"/>
<g clip-path="url(#clip0)">
<path d="M92.7941 165.953C90.8705 165.953 89.311 164.394 89.311 162.47V155.04C89.311 153.116 90.8705 151.557 92.7941 151.557C94.7177 151.557 96.2772 153.116 96.2772 155.04V162.47C96.2772 164.394 94.7177 165.953 92.7941 165.953Z" fill="#FF6C6C"/>
<path d="M120.658 165.953C118.735 165.953 117.175 164.394 117.175 162.47V155.04C117.175 153.116 118.735 151.557 120.658 151.557C122.582 151.557 124.141 153.116 124.141 155.04V162.47C124.141 164.394 122.582 165.953 120.658 165.953Z" fill="#5BC980"/>
<path d="M110.209 155.04V162.47C110.209 164.393 108.648 165.953 106.726 165.953C104.803 165.953 103.243 164.393 103.243 162.47V155.04C103.243 153.117 104.803 151.557 106.726 151.557C108.648 151.557 110.209 153.117 110.209 155.04Z" fill="#FED843"/>
<path d="M110.209 155.04V162.47C110.209 164.393 108.649 165.953 106.726 165.953V151.557C108.649 151.557 110.209 153.117 110.209 155.04Z" fill="#FFB64C"/>
<path d="M152.006 89.4581V50.5475C152.006 48.6249 150.446 47.0645 148.523 47.0645H64.9294C63.0067 47.0645 61.4463 48.6249 61.4463 50.5475V155.04C61.4463 156.962 63.0067 158.523 64.9294 158.523H148.523C150.446 158.523 152.006 156.962 152.006 155.04V109.163C152.006 104.84 152.006 103.78 152.006 99.2379C152.006 94.6959 152.006 93.4195 152.006 89.4581Z" fill="#EFF6FE"/>
<path d="M152.006 109.163V155.04C152.006 156.962 150.446 158.523 148.523 158.523H106.726V47.0645H148.523C150.446 47.0645 152.006 48.6249 152.006 50.5475V89.4581V109.163Z" fill="#D2DCE7"/>
<path d="M130.411 97.2207L109.513 69.3561C108.816 68.4273 107.771 67.9629 106.726 67.9629C105.681 67.9629 104.636 68.4273 103.94 69.3561L83.0414 97.2207C81.3208 99.5149 82.9648 102.794 85.8279 102.794H127.625C130.492 102.794 132.13 99.5102 130.411 97.2207Z" fill="#6E6E6E"/>
<path d="M127.625 102.794H106.726V67.9629C107.771 67.9629 108.816 68.4273 109.513 69.3561L130.411 97.2207C132.129 99.5102 130.492 102.794 127.625 102.794Z" fill="#444444"/>
<path d="M120.659 95.8283H92.7939L106.726 77.252L120.659 95.8283Z" fill="#FED843"/>
<path d="M120.658 95.8283H106.726V77.252L120.658 95.8283Z" fill="#FFB64C"/>
<path d="M131.108 127.174C131.108 129.097 129.547 130.658 127.625 130.658H85.8278C83.9051 130.658 82.3447 129.097 82.3447 127.174C82.3447 125.252 83.9051 123.691 85.8278 123.691H127.625C129.547 123.691 131.108 125.252 131.108 127.174Z" fill="#6E6E6E"/>
<path d="M131.108 113.243C131.108 115.165 129.547 116.726 127.625 116.726H85.8278C83.9051 116.726 82.3447 115.165 82.3447 113.243C82.3447 111.32 83.9051 109.76 85.8278 109.76H127.625C129.547 109.76 131.108 111.32 131.108 113.243Z" fill="#6E6E6E"/>
<path d="M131.108 127.174C131.108 129.097 129.547 130.658 127.625 130.658H106.726V123.691H127.625C129.547 123.691 131.108 125.252 131.108 127.174Z" fill="#444444"/>
<path d="M131.108 113.243C131.108 115.165 129.547 116.726 127.625 116.726H106.726V109.76H127.625C129.547 109.76 131.108 111.32 131.108 113.243Z" fill="#444444"/>
<path d="M78.8615 67.9622C80.7851 67.9622 82.3446 66.4028 82.3446 64.4792C82.3446 62.5555 80.7851 60.9961 78.8615 60.9961C76.9378 60.9961 75.3784 62.5555 75.3784 64.4792C75.3784 66.4028 76.9378 67.9622 78.8615 67.9622Z" fill="#D2DCE7"/>
<path d="M78.8615 144.591C80.7851 144.591 82.3446 143.032 82.3446 141.108C82.3446 139.184 80.7851 137.625 78.8615 137.625C76.9378 137.625 75.3784 139.184 75.3784 141.108C75.3784 143.032 76.9378 144.591 78.8615 144.591Z" fill="#D2DCE7"/>
<path d="M134.591 67.9622C136.515 67.9622 138.074 66.4028 138.074 64.4792C138.074 62.5555 136.515 60.9961 134.591 60.9961C132.667 60.9961 131.108 62.5555 131.108 64.4792C131.108 66.4028 132.667 67.9622 134.591 67.9622Z" fill="#A1AEBC"/>
<path d="M134.591 144.591C136.515 144.591 138.074 143.032 138.074 141.108C138.074 139.184 136.515 137.625 134.591 137.625C132.667 137.625 131.108 139.184 131.108 141.108C131.108 143.032 132.667 144.591 134.591 144.591Z" fill="#A1AEBC"/>
</g>
<defs>
<clipPath id="clip0">
<rect width="118.889" height="118.889" fill="white" transform="translate(47.5581 47.5547)"/>
</clipPath>
</defs>
</svg>
