<svg width="214" height="214" viewBox="0 0 214 214" fill="none" xmlns="http://www.w3.org/2000/svg">
<path d="M58.719 89.5L54.2482 89.5L42.5751 89.5L24.4837 89.5L17.7164 89.5L8.70122 89.88C6.54059 90.736 4.99999 92.928 4.99999 95.5L4.99999 119.5C4.99999 122.812 7.55623 125.5 10.7059 125.5L42.5751 125.5L50.0569 125.5L58.719 125.5L76.8104 125.5L84.486 125.5L92.9543 125.5L96.2941 125.5C99.4438 125.5 102 122.812 102 119.5L102 95.5C102 92.188 99.4438 89.5 96.2941 89.5L58.719 89.5Z" fill="#EFF6FE"/>
<path d="M89 134.566L89 139.221L89 151.375L89 170.213L89 177.259L89.3694 186.646C90.2017 188.896 92.3328 190.5 94.8333 190.5L118.167 190.5C121.387 190.5 124 187.838 124 184.559L124 151.375L124 143.585L124 134.566L124 115.728L124 107.736L124 98.9187L124 96.0388C124 92.7592 121.387 89.5 118.167 89.5L94.8333 89.5C91.6133 89.5 89 92.1616 89 95.4412L89 134.566Z" fill="#EFF6FE"/>
<path d="M94.8333 89.5C91.6133 89.5 89 92.1616 89 95.4412L85.5 95.4412L84 89.5L94.8333 89.5Z" fill="#EFF6FE"/>
<path d="M70.9031 89L63.215 89L51.0978 89L28.9031 89L25.0175 89L9.52387 89C6.87321 89.9273 5.00048 92.7137 5.00048 95.5L5.00048 108.5L124 108.5L124 95.5C124 91.912 120.864 89 117 89L70.9031 89Z" fill="#D2DCE7"/>
<mask id="mask0" mask-type="alpha" maskUnits="userSpaceOnUse" x="7" y="96" width="131" height="30">
<path d="M78.995 96.5L73.0033 96.5L57.3589 96.5L33.1126 96.5L24.0431 96.5L11.9609 96.8061C9.06519 97.4957 7.00049 99.2614 7.00049 101.333L7.00049 120.667C7.00049 123.335 10.4264 125.5 14.6475 125.5L57.3589 125.5L67.386 125.5L78.995 125.5L103.241 125.5L113.528 125.5L124.877 125.5L129.353 125.5C133.575 125.5 137 123.335 137 120.667L137 101.333C137 98.6653 133.575 96.5 129.353 96.5L78.995 96.5Z" fill="#EFF6FE"/>
</mask>
<g mask="url(#mask0)">
<path d="M20.4213 89.2495L39.5269 89.2495L87.0007 125.998L64.6142 125.998L63.5005 125.136L17.6414 89.6374C18.5065 89.3883 19.4454 89.2495 20.4213 89.2495Z" fill="#D2DCE7"/>
<path d="M64.6142 125.998L87.0007 125.998L97.5005 134.5L92.0005 148L64.6142 125.998Z" fill="#D2DCE7"/>
</g>
<mask id="mask1" mask-type="alpha" maskUnits="userSpaceOnUse" x="84" y="89" width="38" height="101">
<path d="M88.75 134.066L88.75 138.721L88.75 150.875L88.75 169.713L88.75 176.759L89.101 186.146C89.8916 188.396 91.9161 190 94.2917 190L116.458 190C119.517 190 122 187.338 122 184.059L122 150.875L122 143.085L122 134.066L122 115.228L122 107.236L122 98.4187L122 95.5388C122 92.2592 119.517 89 116.458 89L94.2917 89C91.2327 89 88.75 91.6616 88.75 94.9412L88.75 134.066Z" fill="#EFF6FE"/>
<path d="M94.2917 89C91.2327 89 88.75 91.6616 88.75 94.9412L85.425 94.9412L84 89L94.2917 89Z" fill="#EFF6FE"/>
</mask>
<g mask="url(#mask1)">
<path d="M68.9208 158.749L88.0264 158.749L135.5 195.498L113.114 195.498L112 194.636L66.1409 159.137C67.006 158.888 67.9449 158.749 68.9208 158.749Z" fill="#D2DCE7"/>
<path d="M113.114 195.498L135.5 195.498L146 204L140.5 217.5L113.114 195.498Z" fill="#D2DCE7"/>
<path d="M68.9208 126.999L88.0264 126.999L135.5 163.748L113.114 163.748L112 162.886L66.1409 127.387C67.006 127.138 67.9449 126.999 68.9208 126.999Z" fill="#D2DCE7"/>
<path d="M113.114 163.748L135.5 163.748L146 172.25L140.5 185.75L113.114 163.748Z" fill="#D2DCE7"/>
</g>
<mask id="mask2" mask-type="alpha" maskUnits="userSpaceOnUse" x="62" y="112" width="97" height="52">
<path d="M115.719 112L111.248 112L99.5751 112L81.4837 112L74.7164 112L65.7012 112.549C63.5406 113.785 62 116.952 62 120.667L62 155.333C62 160.117 64.5562 164 67.7059 164L99.5751 164L107.057 164L115.719 164L133.81 164L141.486 164L149.954 164L153.294 164C156.444 164 159 160.117 159 155.333L159 120.667C159 115.883 156.444 112 153.294 112L115.719 112Z" fill="#EFF6FE"/>
</mask>
<g mask="url(#mask2)">
<path d="M17.5264 89.2495L8.00024 91.0007C7.02439 91.0007 2.36532 93.7517 1.50025 94.0007L42.5 125.5L65 125.5L17.5264 89.2495Z" fill="#D2DCE7"/>
</g>
<path d="M77.5005 105L99.8271 105L111 113.968L111 132.111L101.174 124L77.5005 105Z" fill="#A1AEBC"/>
<path d="M99.8271 105L77.5005 105L56.9287 88.9999L81.0957 88.9999L99.8271 105Z" fill="#A1AEBC"/>
<path d="M111 132.111L111 113.968L124 125.081L124 142.35L111 132.111Z" fill="#A1AEBC"/>
<g filter="url(#filter0_i)">
<path d="M1.65442 77.5L28.3456 77.5C29.2588 77.5 30 80.188 30 83.5L30 107.5L0 107.5L3.53088e-06 83.5C4.01814e-06 80.188 0.741181 77.5 1.65442 77.5Z" fill="#6E6E6E"/>
</g>
<path d="M53.143 99.6082L64.5 108.5L41.9103 108.5L35.8648 103.773L16.8057 89L39.5763 89L53.143 99.6082Z" fill="#A1AEBC"/>
<path d="M7.94448e-06 83L8.8272e-07 131C3.95458e-07 134.312 0.741177 137 1.65441 137L28.3456 137C29.2588 137 30 134.312 30 131L30 83C30 79.688 29.2588 77 28.3456 77L1.65442 77C0.741185 77 8.43174e-06 79.688 7.94448e-06 83Z" fill="#6E6E6E"/>
<path d="M7.94448e-06 83L8.8272e-07 131C3.95458e-07 134.312 0.0494114 137 0.110293 137L1.88969 137C1.95057 137 1.99999 134.312 1.99999 131L1.99999 83C1.99999 79.688 1.95058 77 1.8897 77L0.110302 77C0.0494202 77 8.43174e-06 79.688 7.94448e-06 83Z" fill="#444444"/>
<path d="M106.722 190.772L106.722 173.097L124 186.608L124 204.282L106.722 190.772Z" fill="#A1AEBC"/>
<path d="M106.722 158.819L106.722 141.144L124 154.654L124 172.329L106.722 158.819Z" fill="#A1AEBC"/>
<path d="M83 214L131 214C134.312 214 137 213.259 137 212.346L137 185.654C137 184.741 134.312 184 131 184L83 184C79.688 184 77 184.741 77 185.654L77 212.346C77 213.259 79.688 214 83 214Z" fill="#6E6E6E"/>
<path d="M83 214L131 214C134.312 214 137 213.951 137 213.89L137 212.11C137 212.049 134.312 212 131 212L83 212C79.688 212 77 212.049 77 212.11L77 213.89C77 213.951 79.688 214 83 214Z" fill="#444444"/>
<defs>
<filter id="filter0_i" x="0" y="77.5" width="30" height="30" filterUnits="userSpaceOnUse" color-interpolation-filters="sRGB">
<feFlood flood-opacity="0" result="BackgroundImageFix"/>
<feBlend mode="normal" in="SourceGraphic" in2="BackgroundImageFix" result="shape"/>
<feColorMatrix in="SourceAlpha" type="matrix" values="0 0 0 0 0 0 0 0 0 0 0 0 0 0 0 0 0 0 127 0" result="hardAlpha"/>
<feOffset/>
<feGaussianBlur stdDeviation="5"/>
<feComposite in2="hardAlpha" operator="arithmetic" k2="-1" k3="1"/>
<feColorMatrix type="matrix" values="0 0 0 0 0.266667 0 0 0 0 0.266667 0 0 0 0 0.266667 0 0 0 0.2 0"/>
<feBlend mode="normal" in2="shape" result="effect1_innerShadow"/>
</filter>
</defs>
</svg>
