<svg width="214" height="214" viewBox="0 0 214 214" fill="none" xmlns="http://www.w3.org/2000/svg">
<path d="M90.013 59.8333L90.013 65.0981L90.013 78.8444L90.013 100.149L90.013 108.118L90.3999 118.735C91.2716 121.279 93.5036 123.093 96.1226 123.093L120.561 123.093C123.933 123.093 126.67 120.083 126.67 116.374L126.67 78.8444L126.67 70.0339L126.67 59.8333L126.67 38.5287L126.67 29.4898L126.67 19.5176L126.67 15.5845C126.67 11.8755 123.933 8.86523 120.561 8.86523L96.1226 8.86523C92.7501 8.86523 90.013 11.8755 90.013 15.5845L90.013 59.8333Z" fill="#EFF6FE"/>
<path d="M113.095 87.6818L131.849 87.6818C132.806 87.6818 133.728 87.5451 134.577 87.2998L133.868 86.6592L133.377 86.6592L126.372 86.6969L126.372 80.9279L90.3032 52.918L90.3032 69.9822L113.095 87.6818Z" fill="#D2DCE7"/>
<mask id="mask0" mask-type="alpha" maskUnits="userSpaceOnUse" x="90" y="8" width="37" height="170">
<path d="M90.1871 84.0512L90.1871 91.808L90.1871 112.061L90.1871 143.449L90.1871 155.19L90.5704 170.832C91.434 174.58 93.6454 177.253 96.2401 177.253L120.452 177.253C123.794 177.253 126.505 172.818 126.505 167.354L126.505 112.061L126.505 99.08L126.505 84.0512L126.505 52.6627L126.505 39.3456L126.505 24.6533L126.505 18.8587C126.505 13.394 123.794 8.95898 120.452 8.95898L96.2401 8.95898C92.8988 8.95898 90.1871 13.394 90.1871 18.8586L90.1871 84.0512Z" fill="#EFF6FE"/>
</mask>
<g mask="url(#mask0)">
<path d="M127 67.4549L127.939 59.5824C128.904 59.5709 132.078 55.8937 132.93 55.6382L93.3191 25.5306L88.224 25.5915L71.1961 25.7948L127 67.4549Z" fill="#D2DCE7"/>
<path d="M88.224 21.6653L93.3191 25.5306L88.224 25.5915L88.224 21.6653Z" fill="#D2DCE7"/>
<path d="M127 37.7459L127.939 29.8734C128.904 29.8619 132.078 26.1847 132.93 25.9292L93.3191 -4.17835L88.224 -4.11751L71.1961 -3.91419L127 37.7459Z" fill="#D2DCE7"/>
<path d="M88.224 -8.04373L93.3191 -4.17835L88.224 -4.11751L88.224 -8.04373Z" fill="#D2DCE7"/>
</g>
<path d="M131 1.32284e-05L83 1.46982e-06C79.688 6.58482e-07 77 0.741176 77 1.65441L77 28.3456C77 29.2588 79.688 30 83 30L131 30C134.312 30 137 29.2588 137 28.3456L137 1.65443C137 0.741191 134.312 1.40398e-05 131 1.32284e-05Z" fill="#6E6E6E"/>
<path d="M131 1.32284e-05L83 1.46982e-06C79.688 6.58481e-07 77 0.0494114 77 0.110293L77 1.88969C77 1.95057 79.688 1.99999 83 1.99999L131 2C134.312 2 137 1.95059 137 1.88971L137 0.110308C137 0.0494261 134.312 1.40398e-05 131 1.32284e-05Z" fill="#444444"/>
<g clip-path="url(#clip0)">
<path d="M152.277 121.267V156.347C152.277 162.073 147.589 166.733 141.828 166.733H72.1665C66.4055 166.733 61.7173 162.073 61.7173 156.347V121.267C61.7173 119.356 63.2777 117.805 65.2004 117.805H148.794C150.717 117.805 152.277 119.356 152.277 121.267Z" fill="#D2DCE7"/>
<path d="M152.278 121.267V156.347C152.278 162.073 147.589 166.733 141.828 166.733H106.998V117.805H148.794C150.717 117.805 152.278 119.356 152.278 121.267Z" fill="#A1AEBC"/>
<path d="M138.345 121.267V149.424C138.345 151.335 136.785 152.885 134.862 152.885H79.133C77.2103 152.885 75.6499 151.335 75.6499 149.424V121.267C75.6499 119.356 77.2103 117.805 79.133 117.805H134.862C136.785 117.805 138.345 119.356 138.345 121.267Z" fill="#6E6E6E"/>
<path d="M138.345 121.267V149.424C138.345 151.335 136.785 152.885 134.862 152.885H106.998V117.805H134.862C136.785 117.805 138.345 119.356 138.345 121.267Z" fill="#444444"/>
<path d="M93.0651 138.576C91.1415 138.576 89.582 137.026 89.582 135.114V121.267C89.582 119.355 91.1415 117.805 93.0651 117.805C94.9887 117.805 96.5482 119.355 96.5482 121.267V135.114C96.5482 137.026 94.9887 138.576 93.0651 138.576Z" fill="#FED843"/>
<path d="M110.48 121.267V135.114C110.48 137.025 108.92 138.576 106.997 138.576C105.075 138.576 103.514 137.025 103.514 135.114V121.267C103.514 119.356 105.075 117.805 106.997 117.805C108.92 117.805 110.48 119.356 110.48 121.267Z" fill="#FED843"/>
<path d="M110.481 121.267V135.114C110.481 137.025 108.92 138.576 106.998 138.576V117.805C108.92 117.805 110.481 119.356 110.481 121.267Z" fill="#FFB64C"/>
<path d="M120.929 138.576C119.006 138.576 117.446 137.026 117.446 135.114V121.267C117.446 119.355 119.006 117.805 120.929 117.805C122.853 117.805 124.412 119.355 124.412 121.267V135.114C124.412 137.026 122.853 138.576 120.929 138.576Z" fill="#FFB64C"/>
<path d="M162.959 83.1856H155.76C153.837 83.1856 152.277 81.6355 152.277 79.7236C152.277 77.8117 153.837 76.2617 155.76 76.2617H162.959C164.882 76.2617 166.442 77.8117 166.442 79.7236C166.442 81.6355 164.882 83.1856 162.959 83.1856Z" fill="#292929"/>
<path d="M58.2342 83.1856H51.0358C49.1122 83.1856 47.5527 81.6355 47.5527 79.7236C47.5527 77.8117 49.1122 76.2617 51.0358 76.2617H58.2342C60.1577 76.2617 61.7172 77.8117 61.7172 79.7236C61.7172 81.6355 60.1577 83.1856 58.2342 83.1856Z" fill="#444444"/>
<path d="M148.794 48.5664H65.2002C59.4392 48.5664 54.751 53.2262 54.751 58.9522V121.267C54.751 123.178 56.3114 124.729 58.234 124.729H155.76C157.683 124.729 159.243 123.178 159.243 121.267V58.9522C159.243 53.2262 154.555 48.5664 148.794 48.5664Z" fill="#EFF6FE"/>
<path d="M159.244 58.9522V121.267C159.244 123.178 157.683 124.729 155.761 124.729H106.998V48.5664H148.794C154.555 48.5664 159.244 53.2262 159.244 58.9522Z" fill="#D2DCE7"/>
<path d="M93.0651 103.957C94.9888 103.957 96.5482 102.407 96.5482 100.495C96.5482 98.5832 94.9888 97.0332 93.0651 97.0332C91.1415 97.0332 89.582 98.5832 89.582 100.495C89.582 102.407 91.1415 103.957 93.0651 103.957Z" fill="#FF6C6C"/>
<path d="M106.997 103.957C108.921 103.957 110.48 102.407 110.48 100.495C110.48 98.5832 108.921 97.0332 106.997 97.0332C105.074 97.0332 103.514 98.5832 103.514 100.495C103.514 102.407 105.074 103.957 106.997 103.957Z" fill="#FF6C6C"/>
<path d="M110.481 100.495C110.481 102.406 108.92 103.957 106.998 103.957V97.0332C108.92 97.0332 110.481 98.5841 110.481 100.495Z" fill="#E63950"/>
<path d="M120.929 103.957C122.853 103.957 124.412 102.407 124.412 100.495C124.412 98.5832 122.853 97.0332 120.929 97.0332C119.006 97.0332 117.446 98.5832 117.446 100.495C117.446 102.407 119.006 103.957 120.929 103.957Z" fill="#E63950"/>
<path d="M134.861 103.957C136.785 103.957 138.345 102.407 138.345 100.495C138.345 98.5832 136.785 97.0332 134.861 97.0332C132.938 97.0332 131.378 98.5832 131.378 100.495C131.378 102.407 132.938 103.957 134.861 103.957Z" fill="#E63950"/>
<path d="M79.133 103.957C81.0566 103.957 82.6161 102.407 82.6161 100.495C82.6161 98.5832 81.0566 97.0332 79.133 97.0332C77.2093 97.0332 75.6499 98.5832 75.6499 100.495C75.6499 102.407 77.2093 103.957 79.133 103.957Z" fill="#FF6C6C"/>
<path d="M127.896 69.3379H72.1667C70.244 69.3379 68.6836 70.8888 68.6836 72.7998V86.6475C68.6836 88.5585 70.244 90.1094 72.1667 90.1094H127.896C129.818 90.1094 131.379 88.5585 131.379 86.6475V72.7998C131.379 70.8888 129.818 69.3379 127.896 69.3379Z" fill="#6E6E6E"/>
<path d="M131.38 72.7998V86.6475C131.38 88.5585 129.819 90.1094 127.896 90.1094H106.998V69.3379H127.896C129.819 69.3379 131.38 70.8888 131.38 72.7998Z" fill="#444444"/>
<path d="M75.6504 76.2617H82.6165V83.1856H75.6504V76.2617Z" fill="#444444"/>
<path d="M89.5825 76.2617H96.5487V83.1856H89.5825V76.2617Z" fill="#444444"/>
<path d="M103.515 76.2617H110.481V83.1856H103.515V76.2617Z" fill="#444444"/>
<path d="M106.998 76.2617H110.481V83.1856H106.998V76.2617Z" fill="#292929"/>
<path d="M117.447 76.2617H124.413V83.1856H117.447V76.2617Z" fill="#292929"/>
<path d="M141.828 90.1094C139.905 90.1094 138.345 88.5594 138.345 86.6475V72.7998C138.345 70.8879 139.905 69.3379 141.828 69.3379C143.752 69.3379 145.311 70.8879 145.311 72.7998V86.6475C145.311 88.5594 143.752 90.1094 141.828 90.1094Z" fill="#444444"/>
</g>
<defs>
<clipPath id="clip0">
<rect width="118.889" height="118.167" fill="white" transform="translate(47.5527 48.5664)"/>
</clipPath>
</defs>
</svg>
