<svg width="214" height="214" viewBox="0 0 214 214" fill="none" xmlns="http://www.w3.org/2000/svg">
<path d="M88.1384 97.2362L88.1384 105.131L88.1384 125.744L88.1384 157.692L88.1384 169.642L88.5261 185.562C89.3994 189.378 91.6357 192.098 94.2596 192.098L118.745 192.098C122.123 192.098 124.866 187.584 124.866 182.022L124.866 125.744L124.866 112.533L124.866 97.2362L124.866 65.2887L124.866 51.7344L124.866 36.7804L124.866 30.8826C124.866 25.3207 122.123 20.8066 118.745 20.8066L94.2596 20.8066C90.8807 20.8066 88.1384 25.3207 88.1384 30.8826L88.1384 97.2362Z" fill="#EFF6FE"/>
<path d="M87.8903 97.2787L87.8903 108.351L87.8903 125.803L87.8903 157.768L87.8903 163.364L87.8903 185.678C88.7933 189.496 91.5067 192.193 94.22 192.193L106.879 192.193L106.879 20.8066L94.22 20.8066C90.726 20.8066 87.8903 25.3232 87.8903 30.8882L87.8903 97.2787Z" fill="#D2DCE7"/>
<path d="M88.1382 117.437L88.1382 139.874L124.866 92.2926L124.866 69.8555L88.1382 117.437Z" fill="#D2DCE7"/>
<path d="M88.1382 75.7863L88.1382 98.2234L124.866 50.6422L124.866 28.2051L88.1382 75.7863Z" fill="#D2DCE7"/>
<path d="M88.1382 157.704L88.1382 176.901C88.1382 177.882 88.2769 178.825 88.5258 179.694L124.866 132.497L124.866 110.004L88.1382 157.704Z" fill="#D2DCE7"/>
<path d="M88.1382 197.896L100.78 194.092C100.78 195.072 106.752 193.845 107.001 194.714L124.866 172.689L124.866 150.195L88.1382 197.896Z" fill="#D2DCE7"/>
<path d="M87.8903 117.696L87.8903 140.073L106.879 116.346L106.879 93.9688L87.8903 117.696Z" fill="#A1AEBC"/>
<path d="M87.8903 75.6038L87.8903 97.9809L106.879 74.254L106.879 51.877L87.8903 75.6038Z" fill="#A1AEBC"/>
<mask id="mask0" mask-type="alpha" maskUnits="userSpaceOnUse" x="87" y="20" width="38" height="173">
<path d="M88.072 96.6346L88.072 104.53L88.072 125.143L88.072 157.09L92.7405 162.014L88.4597 184.961C89.333 188.776 91.5693 191.497 94.1932 191.497L118.678 191.497C122.057 191.497 124.799 186.982 124.799 181.421L124.799 125.143L124.799 111.931L124.799 96.6346L124.799 64.6871L124.799 51.1328L124.799 36.1788L124.799 30.281C124.799 24.7191 122.057 20.2051 118.678 20.2051L94.1932 20.2051C90.8143 20.2051 88.072 24.7191 88.072 30.281L88.072 96.6346Z" fill="#EFF6FE"/>
<path d="M87.8903 97.2787L87.8903 108.351L87.8903 125.803L87.8903 157.768L87.8903 163.364L88.2912 185.654C89.1942 189.471 91.5067 192.193 94.22 192.193L106.879 192.193L106.879 20.8066L94.22 20.8066C90.726 20.8066 87.8903 25.3232 87.8903 30.8882L87.8903 97.2787Z" fill="#D2DCE7"/>
</mask>
<g mask="url(#mask0)">
<path d="M88.1379 36.3144L88.1379 58.7516L111.355 28.6152L97.6694 28.6152L88.1379 36.3144Z" fill="#D2DCE7"/>
<path d="M87.8903 36.1292L87.8903 58.5063L106.879 34.7794L106.879 12.4023L87.8903 36.1292Z" fill="#A1AEBC"/>
</g>
<path d="M106.879 133.646L87.8903 157.634L87.8903 176.941C87.8903 177.927 87.8903 179.161 87.8903 180.164L106.879 156.269L106.879 133.646Z" fill="#A1AEBC"/>
<path d="M106.879 173.738L87.8903 197.726L89.8891 210.233C89.8891 211.219 101.481 201.124 97.8845 211.736L106.879 196.361L106.879 173.738Z" fill="#A1AEBC"/>
<path d="M82.9995 214L131 214C134.312 214 137 213.259 137 212.346L137 185.654C137 184.741 134.312 184 131 184L82.9995 184C79.6875 184 76.9995 184.741 76.9995 185.654L76.9995 212.346C76.9995 213.259 79.6875 214 82.9995 214Z" fill="#6E6E6E"/>
<path d="M82.9995 214L131 214C134.312 214 137 213.951 137 213.89L137 212.11C137 212.049 134.312 212 131 212L82.9995 212C79.6875 212 76.9995 212.049 76.9995 212.11L76.9995 213.89C76.9995 213.951 79.6875 214 82.9995 214Z" fill="#444444"/>
<path d="M83 5.6045e-06L131 6.22723e-07C134.312 2.7898e-07 137 0.741176 137 1.65441L137 28.3456C137 29.2588 134.312 30 131 30L83 30C79.688 30 77 29.2588 77 28.3456L77 1.65442C77 0.741183 79.688 5.94825e-06 83 5.6045e-06Z" fill="#6E6E6E"/>
<path d="M83 5.6045e-06L131 6.22723e-07C134.312 2.7898e-07 137 0.0494117 137 0.110294L137 1.8897C137 1.95058 134.312 2 131 2L83 2C79.688 2 77 1.95059 77 1.88971L77 0.1103C77 0.0494179 79.688 5.94825e-06 83 5.6045e-06Z" fill="#444444"/>
</svg>
