<svg width="94" height="28" viewBox="0 0 94 28" fill="none" xmlns="http://www.w3.org/2000/svg">
<path d="M27.0276 13.5993C27.0276 6.08864 20.9773 0 13.5138 0C6.05034 0 0 6.08864 0 13.5993C0 21.1101 6.05034 27.1987 13.5138 27.1987C20.9773 27.1987 27.0276 21.1101 27.0276 13.5993Z" fill="white"/>
<path d="M27.0276 13.5993C27.0276 6.08864 20.9773 0 13.5138 0C6.05034 0 0 6.08864 0 13.5993C0 21.1101 6.05034 27.1987 13.5138 27.1987C20.9773 27.1987 27.0276 21.1101 27.0276 13.5993Z" fill="url(#paint0_linear)"/>
<path d="M12.3159 9.19874L12.0727 12.3647H16.5485C16.8404 12.3647 17.0674 12.4354 17.2296 12.5768C17.3917 12.7183 17.4728 12.9086 17.4728 13.148C17.4728 13.7246 17.1323 14.0129 16.4512 14.0129H11.9267L11.6673 17.3747H16.4836C16.7755 17.3747 17.0025 17.4508 17.1647 17.6031C17.3269 17.7446 17.408 17.935 17.408 18.1743C17.408 18.4572 17.3161 18.6748 17.1323 18.8271C16.9593 18.9685 16.7052 19.0392 16.3701 19.0392H10.4997C10.1754 19.0392 9.93211 18.9522 9.76994 18.7781C9.61859 18.604 9.55372 18.3593 9.57534 18.0438L10.3213 8.51333C10.3429 8.20871 10.4456 7.96936 10.6294 7.79529C10.8132 7.62122 11.0619 7.53418 11.3754 7.53418H17.262C17.5539 7.53418 17.7755 7.6049 17.9269 7.74633C18.089 7.88776 18.1701 8.07815 18.1701 8.3175C18.1701 8.90499 17.8296 9.19874 17.1485 9.19874H12.3159Z" fill="white"/>
<path d="M46.32 13.2543C47.0818 13.4417 47.6688 13.7836 48.0809 14.2798C48.5056 14.776 48.7179 15.3825 48.7179 16.0993C48.7179 17.0917 48.312 17.8691 47.5002 18.4315C46.7009 18.9939 45.5956 19.2751 44.1843 19.2751H39.351C38.9888 19.2751 38.7015 19.1869 38.4892 19.0104C38.2894 18.834 38.1895 18.5859 38.1895 18.2661V8.62288C38.1895 8.30309 38.2894 8.05498 38.4892 7.87854C38.7015 7.70211 38.9888 7.61389 39.351 7.61389H43.997C45.3708 7.61389 46.4449 7.88406 47.2192 8.42439C48.006 8.95369 48.3994 9.69802 48.3994 10.6574C48.3994 11.2749 48.2121 11.8097 47.8374 12.2618C47.4752 12.7139 46.9694 13.0448 46.32 13.2543ZM40.5499 12.5265H43.6035C45.2646 12.5265 46.0952 11.9806 46.0952 10.889C46.0952 10.3376 45.8891 9.92959 45.4769 9.66494C45.0648 9.40029 44.4403 9.26796 43.6035 9.26796H40.5499V12.5265ZM43.922 17.621C44.7963 17.621 45.4332 17.4832 45.8329 17.2075C46.2325 16.9318 46.4324 16.5018 46.4324 15.9173C46.4324 15.3329 46.2263 14.8973 45.8141 14.6106C45.4145 14.3239 44.7838 14.1806 43.922 14.1806H40.5499V17.621H43.922ZM64.3269 18.0015C64.4018 18.1448 64.4393 18.2882 64.4393 18.4315C64.4393 18.6851 64.3206 18.9002 64.0833 19.0766C63.8585 19.253 63.5962 19.3413 63.2965 19.3413C63.0967 19.3413 62.9093 19.2971 62.7345 19.2089C62.5596 19.1097 62.4222 18.9608 62.3223 18.7623L61.1983 16.5459H54.604L53.4799 18.7623C53.38 18.9608 53.2426 19.1097 53.0678 19.2089C52.8929 19.2971 52.6994 19.3413 52.4871 19.3413C52.1998 19.3413 51.9375 19.253 51.7002 19.0766C51.4629 18.9002 51.3443 18.6851 51.3443 18.4315C51.3443 18.2882 51.3817 18.1448 51.4567 18.0015L56.6272 8.19282C56.7396 7.97227 56.9082 7.80687 57.133 7.6966C57.3703 7.5753 57.6201 7.51465 57.8824 7.51465C58.1447 7.51465 58.3882 7.5753 58.613 7.6966C58.8503 7.80687 59.0252 7.97227 59.1376 8.19282L64.3269 18.0015ZM55.4283 14.8918H60.374L57.9011 9.97921L55.4283 14.8918ZM77.8251 7.53119C78.1748 7.53119 78.4496 7.63043 78.6494 7.82892C78.8617 8.01638 78.9679 8.27001 78.9679 8.58979V18.2992C78.9679 18.619 78.8617 18.8781 78.6494 19.0766C78.4371 19.2751 78.1623 19.3743 77.8251 19.3743C77.4255 19.3743 77.1195 19.2475 76.9072 18.9939L70.0693 11.1371V18.2992C70.0693 18.619 69.9694 18.8781 69.7696 19.0766C69.5697 19.2751 69.295 19.3743 68.9453 19.3743C68.5956 19.3743 68.3208 19.2751 68.121 19.0766C67.9212 18.8781 67.8212 18.619 67.8212 18.2992V8.58979C67.8212 8.27001 67.9274 8.01638 68.1397 7.82892C68.352 7.63043 68.633 7.53119 68.9827 7.53119C69.3699 7.53119 69.6697 7.658 69.882 7.91163L76.7011 15.7354V8.58979C76.7011 8.27001 76.801 8.01638 77.0009 7.82892C77.2132 7.63043 77.4879 7.53119 77.8251 7.53119ZM93.6251 17.6706C93.8749 17.8802 93.9998 18.1172 93.9998 18.3819C93.9998 18.6355 93.8874 18.8616 93.6626 19.0601C93.4502 19.2475 93.1942 19.3413 92.8945 19.3413C92.5822 19.3413 92.295 19.2255 92.0327 18.9939L85.7943 13.8332V18.2992C85.7943 18.619 85.6819 18.8781 85.4571 19.0766C85.2448 19.2751 84.9513 19.3743 84.5766 19.3743C84.2144 19.3743 83.9209 19.2751 83.6961 19.0766C83.4838 18.8781 83.3777 18.619 83.3777 18.2992V8.58979C83.3777 8.27001 83.4838 8.01638 83.6961 7.82892C83.9209 7.63043 84.2144 7.53119 84.5766 7.53119C84.9513 7.53119 85.2448 7.63043 85.4571 7.82892C85.6819 8.01638 85.7943 8.27001 85.7943 8.58979V12.8408L91.8266 7.84546C92.0514 7.64697 92.3075 7.54773 92.5947 7.54773C92.882 7.54773 93.1318 7.64697 93.3441 7.84546C93.5689 8.03292 93.6813 8.25347 93.6813 8.50709C93.6813 8.76072 93.5564 8.99229 93.3066 9.2018L88.2672 13.2708L93.6251 17.6706Z" fill="white"/>
<path d="M46.32 13.2543C47.0818 13.4417 47.6688 13.7836 48.0809 14.2798C48.5056 14.776 48.7179 15.3825 48.7179 16.0993C48.7179 17.0917 48.312 17.8691 47.5002 18.4315C46.7009 18.9939 45.5956 19.2751 44.1843 19.2751H39.351C38.9888 19.2751 38.7015 19.1869 38.4892 19.0104C38.2894 18.834 38.1895 18.5859 38.1895 18.2661V8.62288C38.1895 8.30309 38.2894 8.05498 38.4892 7.87854C38.7015 7.70211 38.9888 7.61389 39.351 7.61389H43.997C45.3708 7.61389 46.4449 7.88406 47.2192 8.42439C48.006 8.95369 48.3994 9.69802 48.3994 10.6574C48.3994 11.2749 48.2121 11.8097 47.8374 12.2618C47.4752 12.7139 46.9694 13.0448 46.32 13.2543ZM40.5499 12.5265H43.6035C45.2646 12.5265 46.0952 11.9806 46.0952 10.889C46.0952 10.3376 45.8891 9.92959 45.4769 9.66494C45.0648 9.40029 44.4403 9.26796 43.6035 9.26796H40.5499V12.5265ZM43.922 17.621C44.7963 17.621 45.4332 17.4832 45.8329 17.2075C46.2325 16.9318 46.4324 16.5018 46.4324 15.9173C46.4324 15.3329 46.2263 14.8973 45.8141 14.6106C45.4145 14.3239 44.7838 14.1806 43.922 14.1806H40.5499V17.621H43.922ZM64.3269 18.0015C64.4018 18.1448 64.4393 18.2882 64.4393 18.4315C64.4393 18.6851 64.3206 18.9002 64.0833 19.0766C63.8585 19.253 63.5962 19.3413 63.2965 19.3413C63.0967 19.3413 62.9093 19.2971 62.7345 19.2089C62.5596 19.1097 62.4222 18.9608 62.3223 18.7623L61.1983 16.5459H54.604L53.4799 18.7623C53.38 18.9608 53.2426 19.1097 53.0678 19.2089C52.8929 19.2971 52.6994 19.3413 52.4871 19.3413C52.1998 19.3413 51.9375 19.253 51.7002 19.0766C51.4629 18.9002 51.3443 18.6851 51.3443 18.4315C51.3443 18.2882 51.3817 18.1448 51.4567 18.0015L56.6272 8.19282C56.7396 7.97227 56.9082 7.80687 57.133 7.6966C57.3703 7.5753 57.6201 7.51465 57.8824 7.51465C58.1447 7.51465 58.3882 7.5753 58.613 7.6966C58.8503 7.80687 59.0252 7.97227 59.1376 8.19282L64.3269 18.0015ZM55.4283 14.8918H60.374L57.9011 9.97921L55.4283 14.8918ZM77.8251 7.53119C78.1748 7.53119 78.4496 7.63043 78.6494 7.82892C78.8617 8.01638 78.9679 8.27001 78.9679 8.58979V18.2992C78.9679 18.619 78.8617 18.8781 78.6494 19.0766C78.4371 19.2751 78.1623 19.3743 77.8251 19.3743C77.4255 19.3743 77.1195 19.2475 76.9072 18.9939L70.0693 11.1371V18.2992C70.0693 18.619 69.9694 18.8781 69.7696 19.0766C69.5697 19.2751 69.295 19.3743 68.9453 19.3743C68.5956 19.3743 68.3208 19.2751 68.121 19.0766C67.9212 18.8781 67.8212 18.619 67.8212 18.2992V8.58979C67.8212 8.27001 67.9274 8.01638 68.1397 7.82892C68.352 7.63043 68.633 7.53119 68.9827 7.53119C69.3699 7.53119 69.6697 7.658 69.882 7.91163L76.7011 15.7354V8.58979C76.7011 8.27001 76.801 8.01638 77.0009 7.82892C77.2132 7.63043 77.4879 7.53119 77.8251 7.53119ZM93.6251 17.6706C93.8749 17.8802 93.9998 18.1172 93.9998 18.3819C93.9998 18.6355 93.8874 18.8616 93.6626 19.0601C93.4502 19.2475 93.1942 19.3413 92.8945 19.3413C92.5822 19.3413 92.295 19.2255 92.0327 18.9939L85.7943 13.8332V18.2992C85.7943 18.619 85.6819 18.8781 85.4571 19.0766C85.2448 19.2751 84.9513 19.3743 84.5766 19.3743C84.2144 19.3743 83.9209 19.2751 83.6961 19.0766C83.4838 18.8781 83.3777 18.619 83.3777 18.2992V8.58979C83.3777 8.27001 83.4838 8.01638 83.6961 7.82892C83.9209 7.63043 84.2144 7.53119 84.5766 7.53119C84.9513 7.53119 85.2448 7.63043 85.4571 7.82892C85.6819 8.01638 85.7943 8.27001 85.7943 8.58979V12.8408L91.8266 7.84546C92.0514 7.64697 92.3075 7.54773 92.5947 7.54773C92.882 7.54773 93.1318 7.64697 93.3441 7.84546C93.5689 8.03292 93.6813 8.25347 93.6813 8.50709C93.6813 8.76072 93.5564 8.99229 93.3066 9.2018L88.2672 13.2708L93.6251 17.6706Z" fill="url(#paint1_linear)"/>
<defs>
<linearGradient id="paint0_linear" x1="3.05411" y1="1.24709e-05" x2="30.0037" y2="2.92078" gradientUnits="userSpaceOnUse">
<stop stop-color="#4271FF"/>
<stop offset="1" stop-color="#5165D7"/>
</linearGradient>
<linearGradient id="paint1_linear" x1="44.496" y1="7.51465" x2="89.0597" y2="30.3868" gradientUnits="userSpaceOnUse">
<stop stop-color="#4271FF"/>
<stop offset="1" stop-color="#5165D7"/>
</linearGradient>
</defs>
</svg>
