<svg width="69" height="99" viewBox="0 0 69 99" fill="none" xmlns="http://www.w3.org/2000/svg">
<path d="M65.21 16.8193L68.943 2.19361C69.3182 0.723383 67.7679 -0.49662 66.4129 0.202559L3.05255 32.8949C0.144173 34.3955 -0.877413 38.0281 0.826824 40.8087L34.5776 95.8772C37.5753 100.768 45.0135 99.7 46.494 94.1661L52.9284 70.1145C53.3397 68.5768 51.6463 67.3311 50.2856 68.1703L40.2355 74.3693C39.3982 74.8857 38.2976 74.6228 37.7881 73.785L36.2922 71.325C35.7875 70.4952 36.0548 69.4162 36.8896 68.9138L51.6622 60.0216C54.142 58.5291 55.8989 56.0938 56.5251 53.2816L60.8526 33.8454C61.1901 32.3296 59.5278 31.1555 58.1974 31.9699L28.4886 50.1556C27.6525 50.6673 26.5572 50.405 26.0479 49.571L24.4919 47.0226C23.9858 46.1937 24.251 45.1143 25.0845 44.6103L60.4401 23.2342C62.8144 21.7987 64.5269 19.4956 65.21 16.8193Z" fill="url(#paint0_linear)" fill-opacity="0.5"/>
<path d="M65.21 16.8193L68.943 2.19361C69.3182 0.723383 67.7679 -0.49662 66.4129 0.202559L3.05255 32.8949C0.144173 34.3955 -0.877413 38.0281 0.826824 40.8087L34.5776 95.8772C37.5753 100.768 45.0135 99.7 46.494 94.1661L52.9284 70.1145C53.3397 68.5768 51.6463 67.3311 50.2856 68.1703L40.2355 74.3693C39.3982 74.8857 38.2976 74.6228 37.7881 73.785L36.2922 71.325C35.7875 70.4952 36.0548 69.4162 36.8896 68.9138L51.6622 60.0216C54.142 58.5291 55.8989 56.0938 56.5251 53.2816L60.8526 33.8454C61.1901 32.3296 59.5278 31.1555 58.1974 31.9699L28.4886 50.1556C27.6525 50.6673 26.5572 50.405 26.0479 49.571L24.4919 47.0226C23.9858 46.1937 24.251 45.1143 25.0845 44.6103L60.4401 23.2342C62.8144 21.7987 64.5269 19.4956 65.21 16.8193Z" fill="url(#paint1_linear)"/>
<defs>
<linearGradient id="paint0_linear" x1="36.5369" y1="-5.59453" x2="23.1227" y2="106.568" gradientUnits="userSpaceOnUse">
<stop stop-color="#E6961E"/>
<stop offset="1" stop-color="#F2C94C" stop-opacity="0"/>
</linearGradient>
<linearGradient id="paint1_linear" x1="27.5931" y1="99" x2="27.5931" y2="1.71937e-07" gradientUnits="userSpaceOnUse">
<stop stop-color="#E6961E"/>
<stop offset="1" stop-color="#F2C94C"/>
</linearGradient>
</defs>
</svg>
