<svg width="38" height="38" viewBox="0 0 38 38" fill="none" xmlns="http://www.w3.org/2000/svg">
<path d="M19.3807 6.23231C26.0877 6.23231 31.5978 11.1913 32.5288 17.6323H36.4808L29.8307 25.2323L23.1807 17.6323H27.5887C27.1637 15.7724 26.1206 14.1116 24.6298 12.921C23.139 11.7304 21.2886 11.0805 19.3807 11.0773C16.6257 11.0773 14.1937 12.4263 12.6547 14.4593L9.40575 10.7543C10.6493 9.33226 12.1829 8.19295 13.9035 7.41297C15.624 6.63298 17.4917 6.23041 19.3807 6.23231ZM18.6208 31.7683C11.9328 31.7683 6.40375 26.8093 5.47275 20.3683H1.52075L8.17075 12.7683C10.3938 15.2953 12.5978 17.8413 14.8208 20.3683H10.4128C10.8378 22.2282 11.8809 23.889 13.3717 25.0796C14.8625 26.2702 16.7129 26.9201 18.6208 26.9233C21.3757 26.9233 23.8077 25.5743 25.3467 23.5413L28.5957 27.2463C27.3534 28.6698 25.82 29.8101 24.0992 30.5902C22.3783 31.3703 20.5101 31.7721 18.6208 31.7683Z" fill="white"/>
</svg>
