<svg width="483" height="49" viewBox="0 0 483 49" fill="none" xmlns="http://www.w3.org/2000/svg">
<path d="M2.16925 45.976L1.46214 46.6831L1.47286 46.6938L1.48389 46.7042L2.16925 45.976ZM2.16925 2.904L1.48388 2.1758L1.47286 2.18618L1.46214 2.19689L2.16925 2.904ZM31.0973 2.712L31.7278 1.93588V1.93588L31.0973 2.712ZM31.0973 7.576L31.7278 8.35211L31.742 8.3406L31.7558 8.32857L31.0973 7.576ZM9.20925 8.408V7.408H8.20925V8.408H9.20925ZM9.20925 20.824H8.20925V21.824H9.20925V20.824ZM29.8173 21.656L30.4478 20.8799V20.8799L29.8173 21.656ZM29.8173 26.456L30.4478 27.2321V27.2321L29.8173 26.456ZM9.20925 27.288V26.288H8.20925V27.288H9.20925ZM9.20925 40.472H8.20925V41.472H9.20925V40.472ZM31.0973 41.368L30.4387 42.1206L30.4525 42.1326L30.4667 42.1441L31.0973 41.368ZM31.0973 46.168L31.7278 46.9441L31.0973 46.168ZM5.11325 46C4.06594 46 3.35216 45.7161 2.85462 45.2478L1.48389 46.7042C2.43701 47.6013 3.68589 48 5.11325 48V46ZM2.87636 45.2689C2.43012 44.8227 2.14525 44.1464 2.14525 43.096H0.14525C0.14525 44.5203 0.543047 45.764 1.46214 46.6831L2.87636 45.2689ZM2.14525 43.096V5.784H0.14525V43.096H2.14525ZM2.14525 5.784C2.14525 4.73364 2.43012 4.05734 2.87636 3.61111L1.46214 2.19689C0.543047 3.11599 0.14525 4.35968 0.14525 5.784H2.14525ZM2.85462 3.6322C3.35216 3.16392 4.06594 2.88 5.11325 2.88V0.879997C3.68589 0.879997 2.43701 1.27874 1.48388 2.1758L2.85462 3.6322ZM5.11325 2.88H28.2173V0.879997H5.11325V2.88ZM28.2173 2.88C29.3168 2.88 30.0225 3.1272 30.4667 3.48811L31.7278 1.93588C30.8067 1.18746 29.5924 0.879997 28.2173 0.879997V2.88ZM30.4667 3.48811C30.8758 3.82056 31.1213 4.30182 31.1213 5.08H33.1213C33.1213 3.81017 32.684 2.71277 31.7278 1.93588L30.4667 3.48811ZM31.1213 5.08C31.1213 5.91414 30.8656 6.44989 30.4387 6.82342L31.7558 8.32857C32.6942 7.50743 33.1213 6.37918 33.1213 5.08H31.1213ZM30.4667 6.79988C30.0225 7.1608 29.3168 7.408 28.2173 7.408V9.408C29.5924 9.408 30.8067 9.10053 31.7278 8.35211L30.4667 6.79988ZM28.2173 7.408H9.20925V9.408H28.2173V7.408ZM8.20925 8.408V20.824H10.2093V8.408H8.20925ZM9.20925 21.824H26.9373V19.824H9.20925V21.824ZM26.9373 21.824C28.0368 21.824 28.7425 22.0712 29.1867 22.4321L30.4478 20.8799C29.5267 20.1315 28.3124 19.824 26.9373 19.824V21.824ZM29.1867 22.4321C29.5858 22.7564 29.8413 23.2517 29.8413 24.088H31.8413C31.8413 22.7909 31.4141 21.665 30.4478 20.8799L29.1867 22.4321ZM29.8413 24.088C29.8413 24.8662 29.5958 25.3474 29.1867 25.6799L30.4478 27.2321C31.404 26.4552 31.8413 25.3578 31.8413 24.088H29.8413ZM29.1867 25.6799C28.7425 26.0408 28.0368 26.288 26.9373 26.288V28.288C28.3124 28.288 29.5267 27.9805 30.4478 27.2321L29.1867 25.6799ZM26.9373 26.288H9.20925V28.288H26.9373V26.288ZM8.20925 27.288V40.472H10.2093V27.288H8.20925ZM9.20925 41.472H28.2173V39.472H9.20925V41.472ZM28.2173 41.472C29.301 41.472 29.9955 41.7328 30.4387 42.1206L31.7558 40.6154C30.8336 39.8086 29.6082 39.472 28.2173 39.472V41.472ZM30.4667 42.1441C30.8658 42.4684 31.1213 42.9637 31.1213 43.8H33.1213C33.1213 42.5029 32.6941 41.377 31.7278 40.5919L30.4667 42.1441ZM31.1213 43.8C31.1213 44.5782 30.8758 45.0594 30.4667 45.3919L31.7278 46.9441C32.684 46.1672 33.1213 45.0698 33.1213 43.8H31.1213ZM30.4667 45.3919C30.0225 45.7528 29.3168 46 28.2173 46V48C29.5924 48 30.8067 47.6925 31.7278 46.9441L30.4667 45.3919ZM28.2173 46H5.11325V48H28.2173V46ZM39.9207 46.296L39.1937 46.9826L39.2134 47.0034L39.2341 47.023L39.9207 46.296ZM39.8568 2.904L39.1714 2.1758L39.1604 2.18618L39.1496 2.19689L39.8568 2.904ZM69.8087 5.528L69.1378 6.26956L69.1444 6.27541L69.8087 5.528ZM69.8087 25.816L69.1378 25.0745L69.8087 25.816ZM47.0888 29.464V28.464H46.0888V29.464H47.0888ZM45.9368 46.296L45.2296 45.5889L45.9368 46.296ZM47.0888 8.28V7.28H46.0888V8.28H47.0888ZM47.0888 23.128H46.0888V24.128H47.0888V23.128ZM42.9287 46.384C41.9 46.384 41.1583 46.0893 40.6074 45.569L39.2341 47.023C40.2192 47.9533 41.4828 48.384 42.9287 48.384V46.384ZM40.6478 45.6094C40.1334 45.0648 39.8327 44.3058 39.8327 43.224H37.8327C37.8327 44.7022 38.2574 45.9912 39.1937 46.9826L40.6478 45.6094ZM39.8327 43.224V5.784H37.8327V43.224H39.8327ZM39.8327 5.784C39.8327 4.73364 40.1176 4.05734 40.5639 3.61111L39.1496 2.19689C38.2305 3.11599 37.8327 4.35968 37.8327 5.784H39.8327ZM40.5421 3.6322C41.0397 3.16392 41.7534 2.88 42.8008 2.88V0.879997C41.3734 0.879997 40.1245 1.27874 39.1714 2.1758L40.5421 3.6322ZM42.8008 2.88H58.5448V0.879997H42.8008V2.88ZM58.5448 2.88C63.2015 2.88 66.6873 4.05242 69.1378 6.26954L70.4797 4.78646C67.5542 2.13957 63.5307 0.879997 58.5448 0.879997V2.88ZM69.1444 6.27541C71.5745 8.43553 72.8408 11.5083 72.8408 15.64H74.8408C74.8408 11.0677 73.419 7.39914 70.4731 4.78059L69.1444 6.27541ZM72.8408 15.64C72.8408 19.7711 71.5746 22.8698 69.1378 25.0745L70.4797 26.5575C73.4189 23.8982 74.8408 20.2129 74.8408 15.64H72.8408ZM69.1378 25.0745C66.6873 27.2916 63.2015 28.464 58.5448 28.464V30.464C63.5307 30.464 67.5542 29.2044 70.4797 26.5575L69.1378 25.0745ZM58.5448 28.464H47.0888V30.464H58.5448V28.464ZM46.0888 29.464V43.224H48.0888V29.464H46.0888ZM46.0888 43.224C46.0888 44.2897 45.7769 45.0416 45.2296 45.5889L46.6439 47.0031C47.6326 46.0144 48.0888 44.7183 48.0888 43.224H46.0888ZM45.2296 45.5889C44.7358 46.0827 44.013 46.384 42.9287 46.384V48.384C44.4045 48.384 45.687 47.96 46.6439 47.0031L45.2296 45.5889ZM57.5208 24.128C60.4812 24.128 62.8883 23.4854 64.562 22.0256C66.2619 20.543 67.0328 18.3711 67.0328 15.704H65.0328C65.0328 17.9862 64.3849 19.5263 63.2475 20.5184C62.0839 21.5332 60.235 22.128 57.5208 22.128V24.128ZM67.0328 15.704C67.0328 13.0369 66.2619 10.865 64.562 9.38237C62.8883 7.92256 60.4812 7.28 57.5208 7.28V9.28C60.235 9.28 62.0839 9.87477 63.2475 10.8896C64.3849 11.8817 65.0328 13.4218 65.0328 15.704H67.0328ZM57.5208 7.28H47.0888V9.28H57.5208V7.28ZM46.0888 8.28V23.128H48.0888V8.28H46.0888ZM47.0888 24.128H57.5208V22.128H47.0888V24.128ZM82.1708 46.232L81.4437 46.9186L81.4535 46.929L81.4636 46.9391L82.1708 46.232ZM82.1708 2.712L81.4636 2.00489V2.00489L82.1708 2.712ZM88.1868 2.712L87.4597 3.39862L87.4794 3.41939L87.5001 3.43901L88.1868 2.712ZM88.1868 46.232L87.4796 45.5249L87.4695 45.535L87.4597 45.5454L88.1868 46.232ZM85.1787 46.384C84.1665 46.384 83.4317 46.0788 82.8779 45.5249L81.4636 46.9391C82.4458 47.9212 83.7164 48.384 85.1787 48.384V46.384ZM82.8978 45.5454C82.3774 44.9944 82.0827 44.2528 82.0827 43.224H80.0827C80.0827 44.6699 80.5134 45.9336 81.4437 46.9186L82.8978 45.5454ZM82.0827 43.224V5.656H80.0827V43.224H82.0827ZM82.0827 5.656C82.0827 4.62543 82.3777 3.91926 82.8779 3.4191L81.4636 2.00489C80.5131 2.9554 80.0827 4.2119 80.0827 5.656H82.0827ZM82.8779 3.4191C83.4317 2.86525 84.1665 2.56 85.1787 2.56V0.559998C83.7164 0.559998 82.4458 1.02275 81.4636 2.00489L82.8779 3.4191ZM85.1787 2.56C86.2463 2.56 86.9624 2.87207 87.4597 3.39862L88.9138 2.02537C87.9604 1.01592 86.6712 0.559998 85.1787 0.559998V2.56ZM87.5001 3.43901C88.0336 3.94289 88.3388 4.6425 88.3388 5.656H90.3388C90.3388 4.19483 89.8759 2.93177 88.8734 1.98499L87.5001 3.43901ZM88.3388 5.656V43.224H90.3388V5.656H88.3388ZM88.3388 43.224C88.3388 44.2363 88.0335 44.971 87.4796 45.5249L88.8939 46.9391C89.876 45.957 90.3388 44.6864 90.3388 43.224H88.3388ZM87.4597 45.5454C86.9624 46.0719 86.2463 46.384 85.1787 46.384V48.384C86.6712 48.384 87.9604 47.9281 88.9138 46.9186L87.4597 45.5454ZM107.787 44.76L107.286 45.6254L107.291 45.6282L107.787 44.76ZM100.299 36.696L101.193 36.2488L100.299 36.696ZM100.299 12.184L101.191 12.6356L101.193 12.6312L100.299 12.184ZM107.787 4.12L107.291 3.25174L107.286 3.25457L107.787 4.12ZM127.179 2.584L126.853 3.52937L126.86 3.5319L126.867 3.53431L127.179 2.584ZM133.771 6.168L133.136 6.94042L133.148 6.95073L133.161 6.96062L133.771 6.168ZM134.923 7.512L135.833 7.0982V7.09819L134.923 7.512ZM134.475 11.608L133.694 10.9833V10.9833L134.475 11.608ZM129.995 11.672L129.398 12.4742L129.419 12.4897L129.44 12.504L129.995 11.672ZM124.875 8.856L124.543 9.79946L124.555 9.80348L124.566 9.80722L124.875 8.856ZM109.515 12.184L108.746 11.545L108.74 11.5521L109.515 12.184ZM109.515 36.696L108.74 37.328L108.746 37.335L109.515 36.696ZM124.683 40.024L124.351 39.0805L124.343 39.0834L124.683 40.024ZM129.995 37.208L129.48 36.3505L129.458 36.364L129.436 36.3787L129.995 37.208ZM131.275 36.568L131.646 37.4965V37.4965L131.275 36.568ZM134.475 37.272L133.694 37.8967L134.475 37.272ZM134.923 41.368L135.833 41.7818L135.84 41.7673L135.846 41.7526L134.923 41.368ZM133.771 42.712L133.161 41.9194L133.148 41.9293L133.136 41.9396L133.771 42.712ZM127.179 46.36L127.49 47.3103L127.497 47.3079L127.505 47.3054L127.179 46.36ZM119.243 46.576C115.038 46.576 111.396 45.6705 108.283 43.8918L107.291 45.6282C110.748 47.6042 114.743 48.576 119.243 48.576V46.576ZM108.288 43.8946C105.222 42.1196 102.859 39.5807 101.193 36.2488L99.4043 37.1432C101.237 40.8086 103.866 43.6457 107.286 45.6254L108.288 43.8946ZM101.193 36.2488C99.5258 32.9141 98.6748 28.9768 98.6748 24.408H96.6748C96.6748 29.2259 97.573 33.4806 99.4043 37.1432L101.193 36.2488ZM98.6748 24.408C98.6748 19.8388 99.526 15.925 101.191 12.6356L99.4065 11.7324C97.5729 15.355 96.6748 19.5906 96.6748 24.408H98.6748ZM101.193 12.6312C102.859 9.29929 105.222 6.76036 108.288 4.98543L107.286 3.25457C103.866 5.2343 101.237 8.07137 99.4043 11.7368L101.193 12.6312ZM108.283 4.98824C111.396 3.2095 115.038 2.304 119.243 2.304V0.303997C114.743 0.303997 110.748 1.27583 107.291 3.25176L108.283 4.98824ZM119.243 2.304C121.956 2.304 124.491 2.71485 126.853 3.52937L127.505 1.63863C124.918 0.746479 122.161 0.303997 119.243 0.303997V2.304ZM126.867 3.53431C129.23 4.30817 131.316 5.44437 133.136 6.94042L134.406 5.39557C132.385 3.73429 130.077 2.48116 127.49 1.63369L126.867 3.53431ZM133.161 6.96062C133.63 7.32154 133.887 7.64909 134.012 7.9258L135.833 7.09819C135.532 6.43624 135.021 5.86779 134.38 5.37537L133.161 6.96062ZM134.012 7.9258C134.151 8.23029 134.243 8.65601 134.243 9.24H136.243C136.243 8.45865 136.121 7.73238 135.833 7.0982L134.012 7.9258ZM134.243 9.24C134.243 9.98628 134.044 10.5459 133.694 10.9833L135.256 12.2327C135.93 11.3901 136.243 10.371 136.243 9.24H134.243ZM133.694 10.9833C133.344 11.421 132.998 11.568 132.619 11.568V13.568C133.69 13.568 134.582 13.075 135.256 12.2327L133.694 10.9833ZM132.619 11.568C132.009 11.568 131.324 11.3564 130.549 10.8399L129.44 12.504C130.457 13.1822 131.522 13.568 132.619 13.568V11.568ZM130.592 10.8698C128.7 9.46215 126.896 8.46042 125.183 7.90478L124.566 9.80722C126.01 10.2756 127.62 11.1512 129.398 12.4742L130.592 10.8698ZM125.206 7.91254C123.507 7.31538 121.643 7.024 119.627 7.024V9.024C121.45 9.024 123.086 9.28729 124.543 9.79946L125.206 7.91254ZM119.627 7.024C114.967 7.024 111.283 8.49087 108.746 11.545L110.284 12.823C112.355 10.3305 115.412 9.024 119.627 9.024V7.024ZM108.74 11.5521C106.276 14.5742 105.123 18.9127 105.123 24.408H107.123C107.123 19.1513 108.231 15.3405 110.29 12.8159L108.74 11.5521ZM105.123 24.408C105.123 29.9436 106.275 34.3046 108.74 37.3279L110.29 36.0641C108.232 33.5407 107.123 29.7097 107.123 24.408H105.123ZM108.746 37.335C111.283 40.3891 114.967 41.856 119.627 41.856V39.856C115.412 39.856 112.355 38.5495 110.284 36.057L108.746 37.335ZM119.627 41.856C121.563 41.856 123.365 41.5631 125.022 40.9646L124.343 39.0834C122.929 39.5942 121.36 39.856 119.627 39.856V41.856ZM125.014 40.9675C126.699 40.3756 128.547 39.3896 130.554 38.0373L129.436 36.3787C127.517 37.6718 125.824 38.5631 124.351 39.0805L125.014 40.9675ZM130.509 38.0655C130.894 37.8347 131.273 37.6458 131.646 37.4965L130.903 35.6395C130.423 35.8315 129.949 36.0693 129.48 36.3505L130.509 38.0655ZM131.646 37.4965C131.952 37.3741 132.274 37.312 132.619 37.312V35.312C132.025 35.312 131.451 35.4206 130.903 35.6395L131.646 37.4965ZM132.619 37.312C132.998 37.312 133.344 37.459 133.694 37.8967L135.256 36.6473C134.582 35.805 133.69 35.312 132.619 35.312V37.312ZM133.694 37.8967C134.044 38.3341 134.243 38.8937 134.243 39.64H136.243C136.243 38.509 135.93 37.4899 135.256 36.6473L133.694 37.8967ZM134.243 39.64C134.243 40.1681 134.155 40.6105 134 40.9834L135.846 41.7526C136.117 41.1015 136.243 40.3919 136.243 39.64H134.243ZM134.012 40.9542C133.887 41.2309 133.63 41.5585 133.161 41.9194L134.38 43.5046C135.021 43.0122 135.532 42.4438 135.833 41.7818L134.012 40.9542ZM133.136 41.9396C131.312 43.4387 129.221 44.598 126.853 45.4146L127.505 47.3054C130.086 46.4153 132.389 45.1426 134.406 43.4844L133.136 41.9396ZM126.867 45.4097C124.501 46.1849 121.962 46.576 119.243 46.576V48.576C122.156 48.576 124.907 48.1565 127.49 47.3103L126.867 45.4097ZM195.929 41.816L195.092 42.3638L195.097 42.3707L195.929 41.816ZM195.481 46.488L194.861 45.7031L194.851 45.7113L194.841 45.7198L195.481 46.488ZM190.745 47L190.249 47.8682L190.284 47.8887L190.322 47.9062L190.745 47ZM189.209 45.528L188.374 46.0779L188.377 46.0827L189.209 45.528ZM180.697 32.6L179.849 33.13L179.855 33.14L179.862 33.1499L180.697 32.6ZM177.945 29.72L177.436 30.5809L177.444 30.5858L177.453 30.5906L177.945 29.72ZM167.961 28.888V27.888H166.961V28.888H167.961ZM166.873 46.296L167.58 47.0031L167.59 46.993L167.6 46.9826L166.873 46.296ZM160.921 46.296L160.194 46.9826L160.213 47.0034L160.234 47.023L160.921 46.296ZM160.857 2.904L160.171 2.1758L160.16 2.18618L160.15 2.19689L160.857 2.904ZM191.449 5.336L190.792 6.09008L190.798 6.09571L190.805 6.10122L191.449 5.336ZM192.473 23.832L191.725 23.1685L191.724 23.1694L192.473 23.832ZM184.089 28.12L183.915 27.1352L183.854 29.0921L184.089 28.12ZM187.353 29.72L187.986 28.946V28.946L187.353 29.72ZM190.105 32.92L190.941 32.3723L190.941 32.3713L190.105 32.92ZM185.497 20.824L186.119 21.6071L186.126 21.6016L186.132 21.5959L185.497 20.824ZM185.497 10.008L184.875 10.7911L184.882 10.7968L184.889 10.8024L185.497 10.008ZM167.897 8.28V7.28H166.897V8.28H167.897ZM167.897 22.552H166.897V23.552H167.897V22.552ZM195.097 42.3707C195.529 43.019 195.697 43.5756 195.697 44.056H197.697C197.697 43.0857 197.353 42.149 196.761 41.2613L195.097 42.3707ZM195.697 44.056C195.697 44.7132 195.446 45.2412 194.861 45.7031L196.1 47.2729C197.137 46.4548 197.697 45.3615 197.697 44.056H195.697ZM194.841 45.7198C194.265 46.1995 193.578 46.448 192.729 46.448V48.448C194.012 48.448 195.161 48.0565 196.121 47.2562L194.841 45.7198ZM192.729 46.448C192.197 46.448 191.68 46.3329 191.168 46.0938L190.322 47.9062C191.09 48.2645 191.895 48.448 192.729 48.448V46.448ZM191.241 46.1318C190.794 45.8761 190.392 45.4995 190.041 44.9733L188.377 46.0827C188.879 46.8365 189.501 47.4412 190.249 47.8682L191.241 46.1318ZM190.044 44.9781L181.532 32.0501L179.862 33.1499L188.374 46.0779L190.044 44.9781ZM181.545 32.07C180.639 30.6201 179.612 29.5138 178.437 28.8494L177.453 30.5906C178.24 31.0355 179.048 31.8492 179.849 33.13L181.545 32.07ZM178.453 28.8591C177.31 28.1835 175.878 27.888 174.233 27.888V29.888C175.659 29.888 176.702 30.1471 177.436 30.5809L178.453 28.8591ZM174.233 27.888H167.961V29.888H174.233V27.888ZM166.961 28.888V43.224H168.961V28.888H166.961ZM166.961 43.224C166.961 44.3058 166.66 45.0648 166.146 45.6094L167.6 46.9826C168.536 45.9912 168.961 44.7022 168.961 43.224H166.961ZM166.166 45.5889C165.665 46.0891 164.959 46.384 163.929 46.384V48.384C165.373 48.384 166.629 47.9536 167.58 47.0031L166.166 45.5889ZM163.929 46.384C162.9 46.384 162.158 46.0893 161.607 45.569L160.234 47.023C161.219 47.9533 162.483 48.384 163.929 48.384V46.384ZM161.648 45.6094C161.133 45.0648 160.833 44.3058 160.833 43.224H158.833C158.833 44.7022 159.257 45.9912 160.194 46.9826L161.648 45.6094ZM160.833 43.224V5.784H158.833V43.224H160.833ZM160.833 5.784C160.833 4.73364 161.118 4.05734 161.564 3.61111L160.15 2.19689C159.231 3.11599 158.833 4.35968 158.833 5.784H160.833ZM161.542 3.6322C162.04 3.16392 162.753 2.88 163.801 2.88V0.879997C162.373 0.879997 161.125 1.27874 160.171 2.1758L161.542 3.6322ZM163.801 2.88H179.801V0.879997H163.801V2.88ZM179.801 2.88C184.788 2.88 188.397 4.00382 190.792 6.09008L192.106 4.58192C189.21 2.06018 185.054 0.879997 179.801 0.879997V2.88ZM190.805 6.10122C193.217 8.12999 194.481 11.1046 194.481 15.192H196.481C196.481 10.6607 195.057 7.06467 192.093 4.57077L190.805 6.10122ZM194.481 15.192C194.481 18.4871 193.542 21.1186 191.725 23.1685L193.221 24.4955C195.414 22.0227 196.481 18.8942 196.481 15.192H194.481ZM191.724 23.1694C189.944 25.1809 187.374 26.5247 183.915 27.1352L184.263 29.1048C188.056 28.4353 191.076 26.9204 193.222 24.4946L191.724 23.1694ZM183.854 29.0921C184.953 29.3573 185.903 29.8258 186.72 30.494L187.986 28.946C186.925 28.0782 185.699 27.48 184.323 27.1479L183.854 29.0921ZM186.72 30.494C187.558 31.1797 188.41 32.1609 189.269 33.4687L190.941 32.3713C190.007 30.9485 189.025 29.7963 187.986 28.946L186.72 30.494ZM189.268 33.4677L195.092 42.3637L196.765 41.2683L190.941 32.3723L189.268 33.4677ZM178.649 23.552C181.849 23.552 184.406 22.9672 186.119 21.6071L184.875 20.0409C183.686 20.9848 181.678 21.552 178.649 21.552V23.552ZM186.132 21.5959C187.878 20.1583 188.673 18.0201 188.673 15.384H186.673C186.673 17.6119 186.017 19.1003 184.861 20.0521L186.132 21.5959ZM188.673 15.384C188.673 12.7167 187.883 10.5742 186.104 9.21364L184.889 10.8024C186.011 11.6604 186.673 13.102 186.673 15.384H188.673ZM186.119 9.22489C184.406 7.86475 181.849 7.28 178.649 7.28V9.28C181.678 9.28 183.686 9.84725 184.875 10.7911L186.119 9.22489ZM178.649 7.28H167.897V9.28H178.649V7.28ZM166.897 8.28V22.552H168.897V8.28H166.897ZM167.897 23.552H178.649V21.552H167.897V23.552ZM212.66 44.76L212.154 45.6225L212.159 45.6254L212.66 44.76ZM205.236 36.696L206.131 36.2488L205.236 36.696ZM205.172 12.184L204.278 11.7368L204.276 11.7412L205.172 12.184ZM212.66 4.12L213.161 4.98543V4.98542L212.66 4.12ZM235.508 4.12L235.002 4.98254L235.007 4.98543L235.508 4.12ZM242.932 12.184L242.033 12.6224L242.037 12.629L242.04 12.6356L242.932 12.184ZM242.932 36.696L242.038 36.2488L242.932 36.696ZM235.444 44.76L234.943 43.8946L234.938 43.8975L235.444 44.76ZM233.78 36.696L233.007 36.0615L233.002 36.0685L233.78 36.696ZM233.78 12.184L233.002 12.8115L233.007 12.8179L233.012 12.8242L233.78 12.184ZM214.324 12.184L213.551 11.5495L213.55 11.5508L214.324 12.184ZM214.324 36.696L213.546 37.3236L213.551 37.3305L214.324 36.696ZM224.116 46.576C219.867 46.576 216.227 45.6696 213.161 43.8946L212.159 45.6254C215.579 47.6051 219.576 48.576 224.116 48.576V46.576ZM213.166 43.8975C210.142 42.1235 207.798 39.5842 206.131 36.2488L204.342 37.1432C206.173 40.8051 208.778 43.6418 212.154 45.6225L213.166 43.8975ZM206.131 36.2488C204.463 32.9141 203.612 28.9768 203.612 24.408H201.612C201.612 29.2259 202.511 33.4806 204.342 37.1432L206.131 36.2488ZM203.612 24.408C203.612 19.8353 204.443 15.9183 206.069 12.6268L204.276 11.7412C202.488 15.3617 201.612 19.594 201.612 24.408H203.612ZM206.067 12.6312C207.733 9.29929 210.095 6.76036 213.161 4.98543L212.159 3.25457C208.74 5.2343 206.111 8.07137 204.278 11.7368L206.067 12.6312ZM213.161 4.98542C216.227 3.21044 219.867 2.304 224.116 2.304V0.303997C219.576 0.303997 215.579 1.27489 212.159 3.25457L213.161 4.98542ZM224.116 2.304C228.366 2.304 231.982 3.21057 235.002 4.98252L236.014 3.25747C232.635 1.27476 228.656 0.303997 224.116 0.303997V2.304ZM235.007 4.98543C238.071 6.7591 240.41 9.2951 242.033 12.6224L243.831 11.7456C242.041 8.07556 239.431 5.23556 236.009 3.25457L235.007 4.98543ZM242.04 12.6356C243.705 15.925 244.556 19.8388 244.556 24.408H246.556C246.556 19.5906 245.658 15.355 243.824 11.7324L242.04 12.6356ZM244.556 24.408C244.556 28.9768 243.705 32.9141 242.038 36.2488L243.827 37.1432C245.658 33.4806 246.556 29.2259 246.556 24.408H244.556ZM242.038 36.2488C240.372 39.5807 238.009 42.1196 234.943 43.8946L235.945 45.6254C239.365 43.6457 241.994 40.8086 243.827 37.1432L242.038 36.2488ZM234.938 43.8975C231.916 45.6703 228.321 46.576 224.116 46.576V48.576C228.615 48.576 232.572 47.6044 235.95 45.6225L234.938 43.8975ZM224.116 41.984C228.514 41.984 232.039 40.4497 234.559 37.3235L233.002 36.0685C230.913 38.6597 227.996 39.984 224.116 39.984V41.984ZM234.553 37.3305C237.1 34.2286 238.3 29.8729 238.3 24.408H236.3C236.3 29.6098 235.154 33.4461 233.007 36.0615L234.553 37.3305ZM238.3 24.408C238.3 18.9444 237.1 14.6057 234.548 11.5438L233.012 12.8242C235.154 15.3943 236.3 19.2049 236.3 24.408H238.3ZM234.559 11.5565C232.039 8.43034 228.514 6.896 224.116 6.896V8.896C227.996 8.896 230.913 10.2203 233.002 12.8115L234.559 11.5565ZM224.116 6.896C219.68 6.896 216.114 8.42744 213.551 11.5495L215.097 12.8185C217.228 10.2232 220.19 8.896 224.116 8.896V6.896ZM213.55 11.5508C211.045 14.6122 209.868 18.9481 209.868 24.408H211.868C211.868 19.2013 212.995 15.3878 215.098 12.8172L213.55 11.5508ZM209.868 24.408C209.868 29.8693 211.046 34.2222 213.546 37.3235L215.103 36.0685C212.994 33.4525 211.868 29.6133 211.868 24.408H209.868ZM213.551 37.3305C216.114 40.4526 219.68 41.984 224.116 41.984V39.984C220.19 39.984 217.228 38.6568 215.097 36.0615L213.551 37.3305ZM254.919 45.976L255.626 45.2689L254.919 45.976ZM254.983 2.712L254.276 2.00489V2.00489L254.983 2.712ZM260.999 2.712L260.272 3.39862L260.292 3.41939L260.313 3.43901L260.999 2.712ZM262.151 40.216H261.151V41.216H262.151V40.216ZM257.799 46C256.749 46 256.073 45.7151 255.626 45.2689L254.212 46.6831C255.131 47.6022 256.375 48 257.799 48V46ZM255.626 45.2689C255.174 44.8162 254.895 44.1562 254.895 43.16H252.895C252.895 44.5531 253.299 45.7705 254.212 46.6831L255.626 45.2689ZM254.895 43.16V5.656H252.895V43.16H254.895ZM254.895 5.656C254.895 4.62543 255.19 3.91926 255.69 3.4191L254.276 2.00489C253.326 2.9554 252.895 4.2119 252.895 5.656H254.895ZM255.69 3.4191C256.244 2.86525 256.979 2.56 257.991 2.56V0.559998C256.529 0.559998 255.258 1.02275 254.276 2.00489L255.69 3.4191ZM257.991 2.56C259.059 2.56 259.775 2.87207 260.272 3.39862L261.726 2.02537C260.773 1.01592 259.484 0.559998 257.991 0.559998V2.56ZM260.313 3.43901C260.846 3.94289 261.151 4.6425 261.151 5.656H263.151C263.151 4.19483 262.688 2.93177 261.686 1.98499L260.313 3.43901ZM261.151 5.656V40.216H263.151V5.656H261.151ZM262.151 41.216H280.135V39.216H262.151V41.216ZM280.135 41.216C281.29 41.216 281.968 41.4736 282.353 41.8135C282.714 42.1325 282.975 42.6659 282.975 43.608H284.975C284.975 42.2888 284.596 41.1262 283.677 40.3145C282.782 39.5237 281.541 39.216 280.135 39.216V41.216ZM282.975 43.608C282.975 44.5501 282.714 45.0835 282.353 45.4025C281.968 45.7424 281.29 46 280.135 46V48C281.541 48 282.782 47.6923 283.677 46.9015C284.596 46.0898 284.975 44.9272 284.975 43.608H282.975ZM280.135 46H257.799V48H280.135V46ZM290.419 45.976L289.712 46.6831L289.723 46.6938L289.734 46.7042L290.419 45.976ZM290.419 2.904L289.734 2.1758L289.723 2.18618L289.712 2.19689L290.419 2.904ZM319.347 2.712L319.978 1.93588V1.93588L319.347 2.712ZM319.347 7.576L319.978 8.35211L319.992 8.3406L320.006 8.32857L319.347 7.576ZM297.459 8.408V7.408H296.459V8.408H297.459ZM297.459 20.824H296.459V21.824H297.459V20.824ZM318.067 21.656L318.698 20.8799V20.8799L318.067 21.656ZM318.067 26.456L318.698 27.2321V27.2321L318.067 26.456ZM297.459 27.288V26.288H296.459V27.288H297.459ZM297.459 40.472H296.459V41.472H297.459V40.472ZM319.347 41.368L318.689 42.1206L318.702 42.1326L318.717 42.1441L319.347 41.368ZM319.347 46.168L319.978 46.9441L319.347 46.168ZM293.363 46C292.316 46 291.602 45.7161 291.105 45.2478L289.734 46.7042C290.687 47.6013 291.936 48 293.363 48V46ZM291.126 45.2689C290.68 44.8227 290.395 44.1464 290.395 43.096H288.395C288.395 44.5203 288.793 45.764 289.712 46.6831L291.126 45.2689ZM290.395 43.096V5.784H288.395V43.096H290.395ZM290.395 5.784C290.395 4.73364 290.68 4.05734 291.126 3.61111L289.712 2.19689C288.793 3.11599 288.395 4.35968 288.395 5.784H290.395ZM291.105 3.6322C291.602 3.16392 292.316 2.88 293.363 2.88V0.879997C291.936 0.879997 290.687 1.27874 289.734 2.1758L291.105 3.6322ZM293.363 2.88H316.467V0.879997H293.363V2.88ZM316.467 2.88C317.567 2.88 318.272 3.1272 318.717 3.48811L319.978 1.93588C319.057 1.18746 317.842 0.879997 316.467 0.879997V2.88ZM318.717 3.48811C319.126 3.82056 319.371 4.30182 319.371 5.08H321.371C321.371 3.81017 320.934 2.71277 319.978 1.93588L318.717 3.48811ZM319.371 5.08C319.371 5.91414 319.116 6.44989 318.689 6.82342L320.006 8.32857C320.944 7.50743 321.371 6.37918 321.371 5.08H319.371ZM318.717 6.79988C318.272 7.1608 317.567 7.408 316.467 7.408V9.408C317.842 9.408 319.057 9.10053 319.978 8.35211L318.717 6.79988ZM316.467 7.408H297.459V9.408H316.467V7.408ZM296.459 8.408V20.824H298.459V8.408H296.459ZM297.459 21.824H315.187V19.824H297.459V21.824ZM315.187 21.824C316.287 21.824 316.992 22.0712 317.437 22.4321L318.698 20.8799C317.777 20.1315 316.562 19.824 315.187 19.824V21.824ZM317.437 22.4321C317.836 22.7564 318.091 23.2517 318.091 24.088H320.091C320.091 22.7909 319.664 21.665 318.698 20.8799L317.437 22.4321ZM318.091 24.088C318.091 24.8662 317.846 25.3474 317.437 25.6799L318.698 27.2321C319.654 26.4552 320.091 25.3578 320.091 24.088H318.091ZM317.437 25.6799C316.992 26.0408 316.287 26.288 315.187 26.288V28.288C316.562 28.288 317.777 27.9805 318.698 27.2321L317.437 25.6799ZM315.187 26.288H297.459V28.288H315.187V26.288ZM296.459 27.288V40.472H298.459V27.288H296.459ZM297.459 41.472H316.467V39.472H297.459V41.472ZM316.467 41.472C317.551 41.472 318.246 41.7328 318.689 42.1206L320.006 40.6154C319.084 39.8086 317.858 39.472 316.467 39.472V41.472ZM318.717 42.1441C319.116 42.4684 319.371 42.9637 319.371 43.8H321.371C321.371 42.5029 320.944 41.377 319.978 40.5919L318.717 42.1441ZM319.371 43.8C319.371 44.5782 319.126 45.0594 318.717 45.3919L319.978 46.9441C320.934 46.1672 321.371 45.0698 321.371 43.8H319.371ZM318.717 45.3919C318.272 45.7528 317.567 46 316.467 46V48C317.842 48 319.057 47.6925 319.978 46.9441L318.717 45.3919ZM316.467 46H293.363V48H316.467V46ZM328.171 46.296L327.444 46.9826L327.463 47.0034L327.484 47.023L328.171 46.296ZM328.107 2.904L327.421 2.1758L327.41 2.18618L327.4 2.19689L328.107 2.904ZM358.059 5.528L357.388 6.26956L357.394 6.27541L358.059 5.528ZM358.059 25.816L357.388 25.0745L358.059 25.816ZM335.339 29.464V28.464H334.339V29.464H335.339ZM334.187 46.296L333.48 45.5889L334.187 46.296ZM335.339 8.28V7.28H334.339V8.28H335.339ZM335.339 23.128H334.339V24.128H335.339V23.128ZM331.179 46.384C330.15 46.384 329.408 46.0893 328.857 45.569L327.484 47.023C328.469 47.9533 329.733 48.384 331.179 48.384V46.384ZM328.898 45.6094C328.383 45.0648 328.083 44.3058 328.083 43.224H326.083C326.083 44.7022 326.507 45.9912 327.444 46.9826L328.898 45.6094ZM328.083 43.224V5.784H326.083V43.224H328.083ZM328.083 5.784C328.083 4.73364 328.368 4.05734 328.814 3.61111L327.4 2.19689C326.481 3.11599 326.083 4.35968 326.083 5.784H328.083ZM328.792 3.6322C329.29 3.16392 330.003 2.88 331.051 2.88V0.879997C329.623 0.879997 328.375 1.27874 327.421 2.1758L328.792 3.6322ZM331.051 2.88H346.795V0.879997H331.051V2.88ZM346.795 2.88C351.452 2.88 354.937 4.05242 357.388 6.26954L358.73 4.78646C355.804 2.13957 351.781 0.879997 346.795 0.879997V2.88ZM357.394 6.27541C359.825 8.43553 361.091 11.5083 361.091 15.64H363.091C363.091 11.0677 361.669 7.39914 358.723 4.78059L357.394 6.27541ZM361.091 15.64C361.091 19.7711 359.825 22.8698 357.388 25.0745L358.73 26.5575C361.669 23.8982 363.091 20.2129 363.091 15.64H361.091ZM357.388 25.0745C354.937 27.2916 351.452 28.464 346.795 28.464V30.464C351.781 30.464 355.804 29.2044 358.73 26.5575L357.388 25.0745ZM346.795 28.464H335.339V30.464H346.795V28.464ZM334.339 29.464V43.224H336.339V29.464H334.339ZM334.339 43.224C334.339 44.2897 334.027 45.0416 333.48 45.5889L334.894 47.0031C335.883 46.0144 336.339 44.7183 336.339 43.224H334.339ZM333.48 45.5889C332.986 46.0827 332.263 46.384 331.179 46.384V48.384C332.655 48.384 333.937 47.96 334.894 47.0031L333.48 45.5889ZM345.771 24.128C348.731 24.128 351.138 23.4854 352.812 22.0256C354.512 20.543 355.283 18.3711 355.283 15.704H353.283C353.283 17.9862 352.635 19.5263 351.497 20.5184C350.334 21.5332 348.485 22.128 345.771 22.128V24.128ZM355.283 15.704C355.283 13.0369 354.512 10.865 352.812 9.38237C351.138 7.92256 348.731 7.28 345.771 7.28V9.28C348.485 9.28 350.334 9.87477 351.497 10.8896C352.635 11.8817 353.283 13.4218 353.283 15.704H355.283ZM345.771 7.28H335.339V9.28H345.771V7.28ZM334.339 8.28V23.128H336.339V8.28H334.339ZM335.339 24.128H345.771V22.128H335.339V24.128ZM370.357 45.976L371.064 45.2689L370.357 45.976ZM370.421 2.712L369.714 2.00489V2.00489L370.421 2.712ZM376.437 2.712L375.71 3.39862L375.729 3.41939L375.75 3.43901L376.437 2.712ZM377.589 40.216H376.589V41.216H377.589V40.216ZM373.237 46C372.186 46 371.51 45.7151 371.064 45.2689L369.65 46.6831C370.569 47.6022 371.812 48 373.237 48V46ZM371.064 45.2689C370.611 44.8162 370.333 44.1562 370.333 43.16H368.333C368.333 44.5531 368.737 45.7705 369.65 46.6831L371.064 45.2689ZM370.333 43.16V5.656H368.333V43.16H370.333ZM370.333 5.656C370.333 4.62543 370.628 3.91926 371.128 3.4191L369.714 2.00489C368.763 2.9554 368.333 4.2119 368.333 5.656H370.333ZM371.128 3.4191C371.682 2.86525 372.416 2.56 373.429 2.56V0.559998C371.966 0.559998 370.696 1.02275 369.714 2.00489L371.128 3.4191ZM373.429 2.56C374.496 2.56 375.212 2.87207 375.71 3.39862L377.164 2.02537C376.21 1.01592 374.921 0.559998 373.429 0.559998V2.56ZM375.75 3.43901C376.284 3.94289 376.589 4.6425 376.589 5.656H378.589C378.589 4.19483 378.126 2.93177 377.123 1.98499L375.75 3.43901ZM376.589 5.656V40.216H378.589V5.656H376.589ZM377.589 41.216H395.573V39.216H377.589V41.216ZM395.573 41.216C396.727 41.216 397.406 41.4736 397.791 41.8135C398.152 42.1325 398.413 42.6659 398.413 43.608H400.413C400.413 42.2888 400.034 41.1262 399.115 40.3145C398.22 39.5237 396.978 39.216 395.573 39.216V41.216ZM398.413 43.608C398.413 44.5501 398.152 45.0835 397.791 45.4025C397.406 45.7424 396.727 46 395.573 46V48C396.978 48 398.22 47.6923 399.115 46.9015C400.034 46.0898 400.413 44.9272 400.413 43.608H398.413ZM395.573 46H373.237V48H395.573V46ZM445.354 42.072L446.262 41.6529L446.26 41.6488L445.354 42.072ZM444.522 46.232L443.878 45.4671L443.867 45.4757L443.857 45.4846L444.522 46.232ZM439.914 46.744L439.373 47.5852L439.395 47.5993L439.418 47.6122L439.914 46.744ZM438.506 45.016L439.42 44.6099L439.418 44.6073L438.506 45.016ZM434.666 36.44L435.578 36.0313L435.314 35.44H434.666V36.44ZM412.138 36.44V35.44H411.49L411.225 36.0313L412.138 36.44ZM408.298 45.016L407.385 44.6073L407.384 44.6099L408.298 45.016ZM406.89 46.744L407.386 47.6122L407.409 47.5993L407.431 47.5852L406.89 46.744ZM402.218 46.232L401.574 46.9969L402.218 46.232ZM401.386 42.072L400.479 41.65L400.478 41.6529L401.386 42.072ZM419.05 4.12L419.956 4.542L419.962 4.53036L419.05 4.12ZM420.778 2.2L421.263 3.07415L421.271 3.06986L421.279 3.06542L420.778 2.2ZM425.834 2.2L425.312 3.05328L425.34 3.06999L425.368 3.08492L425.834 2.2ZM427.626 4.12L426.714 4.53036L426.717 4.53681L426.72 4.54322L427.626 4.12ZM414.954 30.04L414.04 29.6339L413.415 31.04H414.954V30.04ZM431.85 30.04V31.04H433.389L432.764 29.6339L431.85 30.04ZM423.402 11.032L424.316 10.6259L423.402 8.56978L422.488 10.6259L423.402 11.032ZM444.446 42.4911C444.647 42.9278 444.738 43.3401 444.738 43.736H446.738C446.738 43.0225 446.572 42.3255 446.262 41.6529L444.446 42.4911ZM444.738 43.736C444.738 44.3966 444.483 44.9572 443.878 45.4671L445.166 46.9969C446.182 46.1415 446.738 45.0381 446.738 43.736H444.738ZM443.857 45.4846C443.272 46.0052 442.612 46.256 441.834 46.256V48.256C443.104 48.256 444.236 47.8242 445.186 46.9794L443.857 45.4846ZM441.834 46.256C441.327 46.256 440.857 46.1315 440.41 45.8758L439.418 47.6122C440.165 48.0392 440.976 48.256 441.834 48.256V46.256ZM440.454 45.9028C440.049 45.6425 439.696 45.2329 439.42 44.6099L437.592 45.4221C437.998 46.3351 438.583 47.0775 439.373 47.5852L440.454 45.9028ZM439.418 44.6073L435.578 36.0313L433.753 36.8487L437.593 45.4247L439.418 44.6073ZM434.666 35.44H412.138V37.44H434.666V35.44ZM411.225 36.0313L407.385 44.6073L409.21 45.4247L413.05 36.8487L411.225 36.0313ZM407.384 44.6099C407.107 45.2329 406.754 45.6425 406.349 45.9028L407.431 47.5852C408.22 47.0775 408.806 46.3351 409.212 45.4221L407.384 44.6099ZM406.394 45.8758C405.956 46.126 405.467 46.256 404.906 46.256V48.256C405.795 48.256 406.629 48.0447 407.386 47.6122L406.394 45.8758ZM404.906 46.256C404.18 46.256 403.508 46.011 402.862 45.4671L401.574 46.9969C402.549 47.8183 403.669 48.256 404.906 48.256V46.256ZM402.862 45.4671C402.256 44.9572 402.002 44.3966 402.002 43.736H400.002C400.002 45.0381 400.558 46.1415 401.574 46.9969L402.862 45.4671ZM402.002 43.736C402.002 43.3401 402.092 42.9278 402.294 42.4911L400.478 41.6529C400.167 42.3255 400.002 43.0225 400.002 43.736H402.002ZM402.292 42.494L419.956 4.54196L418.143 3.69803L400.479 41.65L402.292 42.494ZM419.962 4.53036C420.263 3.8599 420.696 3.38916 421.263 3.07415L420.292 1.32584C419.323 1.86417 418.604 2.67343 418.138 3.70963L419.962 4.53036ZM421.279 3.06542C421.944 2.68007 422.626 2.496 423.338 2.496V0.495998C422.258 0.495998 421.232 0.781259 420.277 1.33457L421.279 3.06542ZM423.338 2.496C424.049 2.496 424.701 2.67944 425.312 3.05328L426.355 1.34671C425.431 0.781892 424.419 0.495998 423.338 0.495998V2.496ZM425.368 3.08492C425.977 3.40523 426.419 3.87585 426.714 4.53036L428.538 3.70963C428.064 2.65748 427.312 1.84809 426.299 1.31508L425.368 3.08492ZM426.72 4.54322L444.448 42.4952L446.26 41.6488L428.532 3.69678L426.72 4.54322ZM414.954 31.04H431.85V29.04H414.954V31.04ZM432.764 29.6339L424.316 10.6259L422.488 11.4381L430.936 30.4461L432.764 29.6339ZM422.488 10.6259L414.04 29.6339L415.868 30.4461L424.316 11.4381L422.488 10.6259ZM474.868 2.968L474.094 2.33473L474.088 2.34181L474.868 2.968ZM480.244 2.712L479.537 3.4191L479.547 3.4292L479.557 3.43901L480.244 2.712ZM480.436 7.768L479.668 7.12779L479.662 7.13415L480.436 7.768ZM465.908 25.496L465.134 24.8622L464.908 25.1386V25.496H465.908ZM464.756 46.296L464.069 45.569L464.756 46.296ZM458.804 46.296L459.49 45.569L458.804 46.296ZM457.652 25.496H458.652V25.1386L458.425 24.8622L457.652 25.496ZM443.124 7.768L443.897 7.13413L443.892 7.12781L443.124 7.768ZM443.316 2.712L444.002 3.43901L444.013 3.4292L444.023 3.4191L443.316 2.712ZM448.692 2.968L449.47 2.33993L449.466 2.33476L448.692 2.968ZM461.812 19.224L461.034 19.8521L461.814 20.8186L462.591 19.8502L461.812 19.224ZM475.642 3.60124C476.249 2.85891 476.896 2.56 477.62 2.56V0.559998C476.21 0.559998 475.022 1.19975 474.094 2.33476L475.642 3.60124ZM477.62 2.56C478.306 2.56 478.934 2.81668 479.537 3.4191L480.951 2.00489C480.017 1.07132 478.896 0.559998 477.62 0.559998V2.56ZM479.557 3.43901C480.132 3.98218 480.396 4.59679 480.396 5.336H482.396C482.396 4.02721 481.891 2.89249 480.93 1.98499L479.557 3.43901ZM480.396 5.336C480.396 5.91646 480.185 6.50716 479.668 7.12781L481.204 8.40818C481.967 7.49284 482.396 6.46221 482.396 5.336H480.396ZM479.662 7.13415L465.134 24.8622L466.681 26.1298L481.209 8.40184L479.662 7.13415ZM464.908 25.496V43.224H466.908V25.496H464.908ZM464.908 43.224C464.908 44.3454 464.589 45.0779 464.069 45.569L465.442 47.023C466.458 46.0634 466.908 44.7479 466.908 43.224H464.908ZM464.069 45.569C463.511 46.0957 462.787 46.384 461.812 46.384V48.384C463.226 48.384 464.464 47.947 465.442 47.023L464.069 45.569ZM461.812 46.384C460.783 46.384 460.041 46.0893 459.49 45.569L458.117 47.023C459.102 47.9533 460.366 48.384 461.812 48.384V46.384ZM459.49 45.569C458.97 45.0779 458.652 44.3454 458.652 43.224H456.652C456.652 44.7479 457.101 46.0634 458.117 47.023L459.49 45.569ZM458.652 43.224V25.496H456.652V43.224H458.652ZM458.425 24.8622L443.897 7.13415L442.35 8.40184L456.878 26.1298L458.425 24.8622ZM443.892 7.12781C443.375 6.50716 443.164 5.91646 443.164 5.336H441.164C441.164 6.46221 441.593 7.49284 442.356 8.40818L443.892 7.12781ZM443.164 5.336C443.164 4.59679 443.427 3.98218 444.002 3.43901L442.629 1.98499C441.668 2.89249 441.164 4.02721 441.164 5.336H443.164ZM444.023 3.4191C444.625 2.81668 445.253 2.56 445.94 2.56V0.559998C444.664 0.559998 443.542 1.07132 442.609 2.00489L444.023 3.4191ZM445.94 2.56C446.663 2.56 447.31 2.85891 447.918 3.60124L449.466 2.33476C448.537 1.19975 447.35 0.559998 445.94 0.559998V2.56ZM447.914 3.59605L461.034 19.8521L462.59 18.5959L449.47 2.33995L447.914 3.59605ZM462.591 19.8502L475.647 3.59419L474.088 2.34181L461.032 18.5978L462.591 19.8502Z" fill="white" fill-opacity="0.1"/>
</svg>
