<svg width="41" height="59" viewBox="0 0 41 59" fill="none" xmlns="http://www.w3.org/2000/svg">
<path d="M17.5 40.8333C17.5 41.6069 17.8073 42.3488 18.3543 42.8957C18.9013 43.4427 19.6431 43.75 20.4167 43.75C21.1902 43.75 21.9321 43.4427 22.4791 42.8957C23.026 42.3488 23.3333 41.6069 23.3333 40.8333H32.0833C34.2096 40.8333 36.2017 40.2646 37.9167 39.2729V52.5C37.9167 54.0471 37.3021 55.5308 36.2081 56.6248C35.1142 57.7188 33.6304 58.3333 32.0833 58.3333H8.75C7.2029 58.3333 5.71917 57.7188 4.62521 56.6248C3.53125 55.5308 2.91667 54.0471 2.91667 52.5V39.2729C4.63167 40.2646 6.62375 40.8333 8.75 40.8333H17.5ZM23.3333 37.9167V29.1667C23.3333 28.3931 23.026 27.6513 22.4791 27.1043C21.9321 26.5573 21.1902 26.25 20.4167 26.25C19.6431 26.25 18.9013 26.5573 18.3543 27.1043C17.8073 27.6513 17.5 28.3931 17.5 29.1667V37.9167H8.75C6.42936 37.9167 4.20376 36.9948 2.56282 35.3539C0.921873 33.7129 0 31.4873 0 29.1667V20.4167C0 18.096 0.921873 15.8704 2.56282 14.2295C4.20376 12.5885 6.42936 11.6667 8.75 11.6667H32.0833C34.404 11.6667 36.6296 12.5885 38.2705 14.2295C39.9115 15.8704 40.8333 18.096 40.8333 20.4167V29.1667C40.8333 31.4873 39.9115 33.7129 38.2705 35.3539C36.6296 36.9948 34.404 37.9167 32.0833 37.9167H23.3333ZM14.5833 8.75H8.75C7.74375 8.75 6.76667 8.87833 5.83333 9.1175V4.375C5.83333 3.21468 6.29427 2.10188 7.11474 1.28141C7.93521 0.460936 9.04801 0 10.2083 0C11.3687 0 12.4815 0.460936 13.3019 1.28141C14.1224 2.10188 14.5833 3.21468 14.5833 4.375V8.75ZM35 9.1175C34.0471 8.87273 33.0672 8.74925 32.0833 8.75H26.25V4.375C26.25 3.21468 26.7109 2.10188 27.5314 1.28141C28.3519 0.460936 29.4647 0 30.625 0C31.7853 0 32.8981 0.460936 33.7186 1.28141C34.5391 2.10188 35 3.21468 35 4.375V9.1175Z" fill="white" fill-opacity="0.05"/>
</svg>
