<svg width="14" height="14" viewBox="0 0 14 14" fill="none" xmlns="http://www.w3.org/2000/svg">
<path d="M12.44 7.48666C12.8834 7.04392 13.2215 6.50717 13.4294 5.91611C13.6374 5.32505 13.7098 4.69481 13.6413 4.072C13.5728 3.44919 13.3652 2.84974 13.0338 2.318C12.7023 1.78625 12.2556 1.33581 11.7267 0.999994C10.3867 0.113327 8.59333 0.106661 7.24 0.979994C6.06666 1.73333 5.42 2.90666 5.30666 4.11999C5.22 4.99999 4.88666 5.81999 4.27333 6.43333L4.25333 6.45333C3.48 7.22666 3.48 8.40666 4.20666 9.12666L4.86666 9.78666C5.21595 10.1357 5.68953 10.3318 6.18333 10.3318C6.67712 10.3318 7.15071 10.1357 7.5 9.78666C8.14666 9.13999 9 8.78666 9.92666 8.68666C10.84 8.58666 11.7333 8.18666 12.44 7.48666ZM3.17333 12.24C3.35333 12.6133 3.29333 13.0667 2.98 13.3733C2.84429 13.5111 2.67133 13.6062 2.48234 13.6471C2.29334 13.688 2.09652 13.6728 1.91602 13.6034C1.73553 13.5341 1.5792 13.4135 1.46622 13.2566C1.35324 13.0997 1.28852 12.9132 1.28 12.72C1.08682 12.7115 0.900326 12.6468 0.743398 12.5338C0.586469 12.4208 0.465928 12.2645 0.396561 12.084C0.327194 11.9035 0.312016 11.7067 0.35289 11.5177C0.393764 11.3287 0.488913 11.1557 0.626664 11.02C0.93333 10.7133 1.39333 10.6467 1.76 10.8267L3.41333 9.20666C3.50666 9.33333 3.61333 9.47999 3.73333 9.59999L4.39333 10.26C4.53333 10.3933 4.66666 10.5067 4.84 10.6067L3.17333 12.24Z" fill="white"/>
</svg>
