<svg width="12" height="13" viewBox="0 0 12 13" fill="none" xmlns="http://www.w3.org/2000/svg">
<path d="M11.6191 3.15431C11.4359 2.69967 11.1716 2.28769 10.8412 1.94142C10.5105 1.59411 10.1207 1.31811 9.69277 1.12843C9.24909 0.930957 8.77321 0.82988 8.29277 0.831065C7.61875 0.831065 6.96113 1.02882 6.38965 1.40235C6.25293 1.49171 6.12305 1.58985 6 1.69679C5.87695 1.58985 5.74707 1.49171 5.61035 1.40235C5.03887 1.02882 4.38125 0.831065 3.70723 0.831065C3.22187 0.831065 2.75156 0.930674 2.30723 1.12843C1.87793 1.31886 1.49102 1.59278 1.15879 1.94142C0.827925 2.2873 0.563622 2.69938 0.380859 3.15431C0.19082 3.62745 0.09375 4.12989 0.09375 4.64698C0.09375 5.13478 0.186719 5.64308 0.371289 6.16017C0.525781 6.5923 0.747266 7.04054 1.03027 7.49317C1.47871 8.20948 2.09531 8.95655 2.86094 9.71388C4.12969 10.9692 5.38613 11.8364 5.43945 11.8716L5.76348 12.0942C5.90703 12.1924 6.0916 12.1924 6.23516 12.0942L6.55918 11.8716C6.6125 11.835 7.86758 10.9692 9.1377 9.71388C9.90332 8.95655 10.5199 8.20948 10.9684 7.49317C11.2514 7.04054 11.4742 6.5923 11.6273 6.16017C11.8119 5.64308 11.9049 5.13478 11.9049 4.64698C11.9062 4.12989 11.8092 3.62745 11.6191 3.15431Z" fill="white"/>
</svg>
