<svg width="42" height="42" viewBox="0 0 42 42" fill="none" xmlns="http://www.w3.org/2000/svg">
	<circle cx="21" cy="21" r="21" fill="white" fill-opacity="0.1" />
	<path d="M28.5833 21C28.5833 20.4017 28.0983 19.9166 27.5 19.9166H22.0833V14.5C22.0833 13.9017 21.5983 13.4166 21 13.4166C20.4017 13.4166 19.9167 13.9017 19.9167 14.5V19.9166H14.5C13.9017 19.9166 13.4167 20.4017 13.4167 21C13.4167 21.5983 13.9017 22.0833 14.5 22.0833H19.9167V27.5C19.9167 28.0983 20.4017 28.5833 21 28.5833C21.5983 28.5833 22.0833 28.0983 22.0833 27.5V22.0833H27.5C28.0983 22.0833 28.5833 21.5983 28.5833 21Z" fill="white" fill-opacity="0.3" />
</svg>
