<svg width="42" height="42" viewBox="0 0 42 42" fill="none" xmlns="http://www.w3.org/2000/svg">
	<circle cx="21" cy="21" r="21" fill="white" fill-opacity="0.1" />
	<path d="M18.5385 26.6364C18.5385 27.0128 18.4108 27.3342 18.1553 27.6005C17.8999 27.8668 17.5917 28 17.2308 28C16.8698 28 16.5616 27.8668 16.3062 27.6005C16.0508 27.3342 15.9231 27.0128 15.9231 26.6364C15.9231 26.2599 16.0508 25.9386 16.3062 25.6722C16.5616 25.4059 16.8698 25.2727 17.2308 25.2727C17.5917 25.2727 17.8999 25.4059 18.1553 25.6722C18.4108 25.9386 18.5385 26.2599 18.5385 26.6364ZM27.6923 26.6364C27.6923 27.0128 27.5646 27.3342 27.3092 27.6005C27.0538 27.8668 26.7456 28 26.3846 28C26.0236 28 25.7154 27.8668 25.46 27.6005C25.2046 27.3342 25.0769 27.0128 25.0769 26.6364C25.0769 26.2599 25.2046 25.9386 25.46 25.6722C25.7154 25.4059 26.0236 25.2727 26.3846 25.2727C26.7456 25.2727 27.0538 25.4059 27.3092 25.6722C27.5646 25.9386 27.6923 26.2599 27.6923 26.6364ZM29 15.0455V20.5C29 20.6705 28.9455 20.8214 28.8365 20.9528C28.7276 21.0842 28.5879 21.1605 28.4177 21.1818L17.7518 22.4815C17.7584 22.5313 17.7737 22.6076 17.7977 22.7106C17.8215 22.8136 17.842 22.9077 17.859 22.9929C17.876 23.0781 17.8845 23.1562 17.8845 23.2273C17.8845 23.3409 17.8028 23.5682 17.6394 23.9091H27.0384C27.2155 23.9091 27.3687 23.9766 27.4981 24.1115C27.6275 24.2465 27.6922 24.4063 27.6922 24.5909C27.6922 24.7756 27.6275 24.9354 27.4981 25.0703C27.3687 25.2053 27.2155 25.2727 27.0384 25.2727H16.5769C16.3998 25.2727 16.2465 25.2053 16.1171 25.0703C15.9877 24.9354 15.923 24.7756 15.923 24.5909C15.923 24.4915 15.9605 24.3512 16.0353 24.1701C16.1102 23.989 16.2107 23.7777 16.3367 23.5362C16.4627 23.2947 16.5325 23.1598 16.5462 23.1314L14.7379 14.3636H12.6537C12.4766 14.3636 12.3234 14.2962 12.194 14.1612C12.0647 14.0263 12 13.8665 12 13.6818C12 13.4972 12.0647 13.3374 12.1941 13.2024C12.3235 13.0675 12.4768 13 12.6538 13H15.2692C15.3782 13 15.4753 13.0231 15.5604 13.0693C15.6455 13.1155 15.7136 13.1705 15.7647 13.2344C15.8158 13.2983 15.8601 13.3853 15.8975 13.4954C15.935 13.6055 15.9605 13.6996 15.9741 13.7777C15.9877 13.8558 16.0065 13.9606 16.0303 14.092C16.0541 14.2234 16.0694 14.314 16.0762 14.3637H28.3461C28.5232 14.3637 28.6764 14.4311 28.8058 14.5661C28.9352 14.701 28.9999 14.8608 28.9999 15.0455L29 15.0455Z" fill="white" fill-opacity="0.3" />
</svg>
