<svg width="63" height="63" viewBox="0 0 63 63" fill="none" xmlns="http://www.w3.org/2000/svg">
<path d="M31.5 3.9375C16.2791 3.9375 3.9375 16.2791 3.9375 31.5C3.9375 46.7209 16.2791 59.0625 31.5 59.0625C46.7209 59.0625 59.0625 46.7209 59.0625 31.5C59.0625 16.2791 46.7209 3.9375 31.5 3.9375ZM40.3655 31.9245L26.9288 41.7006C26.8551 41.7535 26.7683 41.7851 26.6779 41.7919C26.5874 41.7987 26.4968 41.7804 26.4161 41.7391C26.3353 41.6978 26.2675 41.635 26.2201 41.5577C26.1728 41.4803 26.1476 41.3914 26.1475 41.3007V21.7608C26.1472 21.6699 26.172 21.5807 26.2193 21.5031C26.2666 21.4255 26.3345 21.3625 26.4154 21.3211C26.4963 21.2797 26.5871 21.2615 26.6777 21.2685C26.7684 21.2755 26.8553 21.3075 26.9288 21.3609L40.3655 31.1309C40.429 31.1758 40.4808 31.2352 40.5165 31.3043C40.5523 31.3733 40.5709 31.4499 40.5709 31.5277C40.5709 31.6054 40.5523 31.6821 40.5165 31.7511C40.4808 31.8201 40.429 31.8796 40.3655 31.9245Z" fill="white"/>
</svg>
