<svg width="17" height="17" viewBox="0 0 17 17" fill="none" xmlns="http://www.w3.org/2000/svg">
<path d="M8.40162 0.118042C10.7234 0.118042 12.7041 0.937872 14.3438 2.57753C15.9834 4.21719 16.8032 6.19135 16.8032 8.49999C16.8032 10.8086 15.9834 12.7828 14.3438 14.4224C12.7041 16.0621 10.7234 16.8819 8.40162 16.8819C6.07986 16.8819 4.09915 16.0621 2.45949 14.4224C0.81983 12.7828 0 10.8086 0 8.49999C0 6.19135 0.81983 4.21719 2.45949 2.57753C4.09915 0.937872 6.07986 0.118042 8.40162 0.118042ZM8.40162 15.2292C10.2512 15.2292 11.8318 14.5733 13.1435 13.2616C14.4552 11.9498 15.1111 10.3626 15.1111 8.49999C15.1111 6.63733 14.4552 5.05014 13.1435 3.73841C11.8318 2.42668 10.2512 1.77082 8.40162 1.77082C6.55208 1.77082 4.97145 2.42668 3.65972 3.73841C2.34799 5.05014 1.69213 6.63733 1.69213 8.49999C1.69213 10.3626 2.34799 11.9498 3.65972 13.2616C4.97145 14.5733 6.55208 15.2292 8.40162 15.2292ZM8.81481 4.28934V8.69675L12.5926 10.9398L11.963 12.0023L7.55556 9.32638V4.28934H8.81481Z" fill="white" fill-opacity="0.5"/>
</svg>
